# Blender 5.0.1
# www.blender.org
o Plane
v -0.852288 0.000000 1.000000
v -0.895552 0.000000 0.895552
v -1.000000 0.000000 0.852288
v -0.879098 0.000000 0.997993
v -0.900864 0.000000 0.992049
v -0.916750 0.000000 0.982397
v -0.926144 0.000000 0.969408
v -0.881105 0.000000 0.997162
v -0.899634 0.000000 0.990284
v -0.916494 0.000000 0.985089
v -0.928909 0.000000 0.977690
v -0.936053 0.000000 0.967757
v -0.908815 0.000000 0.988756
v -0.920425 0.000000 0.982193
v -0.931462 0.000000 0.977570
v -0.939864 0.000000 0.972296
v -0.945041 0.000000 0.965363
v -0.934352 0.000000 0.975106
v -0.940565 0.000000 0.971848
v -0.946236 0.000000 0.969403
v -0.950323 0.000000 0.966513
v -0.953156 0.000000 0.962094
v -0.958399 0.000000 0.958399
v -0.915929 0.000000 0.913090
v -0.935522 0.000000 0.924278
v -0.953580 0.000000 0.928686
v -0.969408 0.000000 0.926144
v -0.913090 0.000000 0.915929
v -0.925573 0.000000 0.926438
v -0.940811 0.000000 0.934835
v -0.955211 0.000000 0.938221
v -0.967668 0.000000 0.936091
v -0.924278 0.000000 0.935522
v -0.933219 0.000000 0.940711
v -0.944737 0.000000 0.945062
v -0.955825 0.000000 0.946686
v -0.965341 0.000000 0.945050
v -0.928686 0.000000 0.953580
v -0.937101 0.000000 0.954957
v -0.946406 0.000000 0.955762
v -0.955065 0.000000 0.955065
v -0.962094 0.000000 0.953156
v -0.997162 0.000000 0.881105
v -0.988756 0.000000 0.908815
v -0.975106 0.000000 0.934352
v -0.956736 0.000000 0.956736
v -0.997993 0.000000 0.879098
v -0.990538 0.000000 0.899022
v -0.983338 0.000000 0.920720
v -0.972714 0.000000 0.940923
v -0.958509 0.000000 0.958382
v -0.992049 0.000000 0.900864
v -0.984387 0.000000 0.915128
v -0.977665 0.000000 0.931233
v -0.969620 0.000000 0.946326
v -0.959420 0.000000 0.959389
v -0.982397 0.000000 0.916750
v -0.977078 0.000000 0.927939
v -0.972143 0.000000 0.939621
v -0.966513 0.000000 0.950323
v -0.959476 0.000000 0.959476
v 1.000000 0.000000 0.852288
v 0.895552 0.000000 0.895552
v 0.852288 0.000000 1.000000
v 0.997993 0.000000 0.879098
v 0.992049 0.000000 0.900864
v 0.982397 0.000000 0.916750
v 0.969408 0.000000 0.926144
v 0.997162 0.000000 0.881105
v 0.990284 0.000000 0.899634
v 0.985089 0.000000 0.916494
v 0.977690 0.000000 0.928909
v 0.967757 0.000000 0.936053
v 0.988756 0.000000 0.908815
v 0.982193 0.000000 0.920425
v 0.977570 0.000000 0.931462
v 0.972296 0.000000 0.939864
v 0.965363 0.000000 0.945041
v 0.975106 0.000000 0.934352
v 0.971848 0.000000 0.940565
v 0.969403 0.000000 0.946236
v 0.966513 0.000000 0.950323
v 0.962094 0.000000 0.953156
v 0.958399 0.000000 0.958399
v 0.913090 0.000000 0.915929
v 0.924278 0.000000 0.935522
v 0.928686 0.000000 0.953580
v 0.926144 0.000000 0.969408
v 0.915929 0.000000 0.913090
v 0.926438 0.000000 0.925573
v 0.934835 0.000000 0.940811
v 0.938221 0.000000 0.955211
v 0.936091 0.000000 0.967668
v 0.935522 0.000000 0.924278
v 0.940711 0.000000 0.933219
v 0.945062 0.000000 0.944737
v 0.946686 0.000000 0.955825
v 0.945050 0.000000 0.965341
v 0.953580 0.000000 0.928686
v 0.954957 0.000000 0.937101
v 0.955762 0.000000 0.946406
v 0.955065 0.000000 0.955065
v 0.953156 0.000000 0.962094
v 0.881105 0.000000 0.997162
v 0.908815 0.000000 0.988756
v 0.934352 0.000000 0.975106
v 0.956736 0.000000 0.956736
v 0.879098 0.000000 0.997993
v 0.899022 0.000000 0.990538
v 0.920720 0.000000 0.983338
v 0.940923 0.000000 0.972714
v 0.958382 0.000000 0.958509
v 0.900864 0.000000 0.992049
v 0.915128 0.000000 0.984387
v 0.931233 0.000000 0.977665
v 0.946326 0.000000 0.969620
v 0.959389 0.000000 0.959420
v 0.916750 0.000000 0.982397
v 0.927939 0.000000 0.977078
v 0.939621 0.000000 0.972143
v 0.950323 0.000000 0.966513
v 0.959476 0.000000 0.959476
v -1.000000 0.000000 -0.852288
v -0.895552 0.000000 -0.895552
v -0.852288 0.000000 -1.000000
v -0.997993 0.000000 -0.879098
v -0.992049 0.000000 -0.900864
v -0.982397 0.000000 -0.916750
v -0.969408 0.000000 -0.926144
v -0.997162 0.000000 -0.881105
v -0.990284 0.000000 -0.899634
v -0.985089 0.000000 -0.916494
v -0.977690 0.000000 -0.928909
v -0.967757 0.000000 -0.936053
v -0.988756 0.000000 -0.908815
v -0.982193 0.000000 -0.920425
v -0.977570 0.000000 -0.931462
v -0.972296 0.000000 -0.939864
v -0.965363 0.000000 -0.945041
v -0.975106 0.000000 -0.934352
v -0.971848 0.000000 -0.940565
v -0.969403 0.000000 -0.946236
v -0.966513 0.000000 -0.950323
v -0.962094 0.000000 -0.953156
v -0.958399 0.000000 -0.958399
v -0.913090 0.000000 -0.915929
v -0.924278 0.000000 -0.935522
v -0.928686 0.000000 -0.953580
v -0.926144 0.000000 -0.969408
v -0.915929 0.000000 -0.913090
v -0.926438 0.000000 -0.925573
v -0.934835 0.000000 -0.940811
v -0.938221 0.000000 -0.955211
v -0.936091 0.000000 -0.967668
v -0.935522 0.000000 -0.924278
v -0.940711 0.000000 -0.933219
v -0.945062 0.000000 -0.944737
v -0.946686 0.000000 -0.955825
v -0.945050 0.000000 -0.965341
v -0.953580 0.000000 -0.928686
v -0.954957 0.000000 -0.937101
v -0.955762 0.000000 -0.946406
v -0.955065 0.000000 -0.955065
v -0.953156 0.000000 -0.962094
v -0.881105 0.000000 -0.997162
v -0.908815 0.000000 -0.988756
v -0.934352 0.000000 -0.975106
v -0.956736 0.000000 -0.956736
v -0.879098 0.000000 -0.997993
v -0.899022 0.000000 -0.990538
v -0.920720 0.000000 -0.983338
v -0.940923 0.000000 -0.972714
v -0.958382 0.000000 -0.958509
v -0.900864 0.000000 -0.992049
v -0.915128 0.000000 -0.984387
v -0.931233 0.000000 -0.977665
v -0.946326 0.000000 -0.969620
v -0.959389 0.000000 -0.959420
v -0.916750 0.000000 -0.982397
v -0.927939 0.000000 -0.977078
v -0.939621 0.000000 -0.972143
v -0.950323 0.000000 -0.966513
v -0.959476 0.000000 -0.959476
v 0.852288 0.000000 -1.000000
v 0.895552 0.000000 -0.895552
v 1.000000 0.000000 -0.852288
v 0.879098 0.000000 -0.997993
v 0.900864 0.000000 -0.992049
v 0.916750 0.000000 -0.982397
v 0.926144 0.000000 -0.969408
v 0.881105 0.000000 -0.997162
v 0.899634 0.000000 -0.990284
v 0.916494 0.000000 -0.985089
v 0.928909 0.000000 -0.977690
v 0.936053 0.000000 -0.967757
v 0.908815 0.000000 -0.988756
v 0.920425 0.000000 -0.982193
v 0.931462 0.000000 -0.977570
v 0.939864 0.000000 -0.972296
v 0.945041 0.000000 -0.965363
v 0.934352 0.000000 -0.975106
v 0.940565 0.000000 -0.971848
v 0.946236 0.000000 -0.969403
v 0.950323 0.000000 -0.966513
v 0.953156 0.000000 -0.962094
v 0.958399 0.000000 -0.958399
v 0.915929 0.000000 -0.913090
v 0.935522 0.000000 -0.924278
v 0.953580 0.000000 -0.928686
v 0.969408 0.000000 -0.926144
v 0.913090 0.000000 -0.915929
v 0.925573 0.000000 -0.926438
v 0.940811 0.000000 -0.934835
v 0.955211 0.000000 -0.938221
v 0.967668 0.000000 -0.936091
v 0.924278 0.000000 -0.935522
v 0.933219 0.000000 -0.940711
v 0.944737 0.000000 -0.945062
v 0.955825 0.000000 -0.946686
v 0.965341 0.000000 -0.945050
v 0.928686 0.000000 -0.953580
v 0.937101 0.000000 -0.954957
v 0.946406 0.000000 -0.955762
v 0.955065 0.000000 -0.955065
v 0.962094 0.000000 -0.953156
v 0.997162 0.000000 -0.881105
v 0.988756 0.000000 -0.908815
v 0.975106 0.000000 -0.934352
v 0.956736 0.000000 -0.956736
v 0.997993 0.000000 -0.879098
v 0.990538 0.000000 -0.899022
v 0.983338 0.000000 -0.920720
v 0.972714 0.000000 -0.940923
v 0.958509 0.000000 -0.958382
v 0.992049 0.000000 -0.900864
v 0.984387 0.000000 -0.915128
v 0.977665 0.000000 -0.931233
v 0.969620 0.000000 -0.946326
v 0.959420 0.000000 -0.959389
v 0.982397 0.000000 -0.916750
v 0.977078 0.000000 -0.927939
v 0.972143 0.000000 -0.939621
v 0.966513 0.000000 -0.950323
v 0.959476 0.000000 -0.959476
v -0.643392 0.000000 -0.791104
v -0.895552 0.000000 -0.895552
v -0.791104 0.000000 -0.643392
v -0.674216 0.000000 -0.793111
v -0.707869 0.000000 -0.799054
v -0.743059 0.000000 -0.808706
v -0.778432 0.000000 -0.821696
v -0.672209 0.000000 -0.788265
v -0.698070 0.000000 -0.788719
v -0.724902 0.000000 -0.793496
v -0.752570 0.000000 -0.801351
v -0.780027 0.000000 -0.811731
v -0.699919 0.000000 -0.779860
v -0.720075 0.000000 -0.781842
v -0.740879 0.000000 -0.786986
v -0.761488 0.000000 -0.793921
v -0.781648 0.000000 -0.801970
v -0.725456 0.000000 -0.766210
v -0.740198 0.000000 -0.771481
v -0.754937 0.000000 -0.778104
v -0.769168 0.000000 -0.785358
v -0.783066 0.000000 -0.792005
v -0.783966 0.000000 -0.783966
v -0.875175 0.000000 -0.872337
v -0.855581 0.000000 -0.844337
v -0.837523 0.000000 -0.812629
v -0.821696 0.000000 -0.778432
v -0.872337 0.000000 -0.875175
v -0.853431 0.000000 -0.854296
v -0.837774 0.000000 -0.831797
v -0.823831 0.000000 -0.806840
v -0.811821 0.000000 -0.780243
v -0.844337 0.000000 -0.855581
v -0.830816 0.000000 -0.838307
v -0.819819 0.000000 -0.820143
v -0.810392 0.000000 -0.801254
v -0.801993 0.000000 -0.781702
v -0.812629 0.000000 -0.837523
v -0.806228 0.000000 -0.824084
v -0.801101 0.000000 -0.810456
v -0.796806 0.000000 -0.796806
v -0.792005 0.000000 -0.783066
v -0.788265 0.000000 -0.672209
v -0.779860 0.000000 -0.699919
v -0.766210 0.000000 -0.725456
v -0.747840 0.000000 -0.747840
v -0.793111 0.000000 -0.674216
v -0.790197 0.000000 -0.698682
v -0.783294 0.000000 -0.720676
v -0.772347 0.000000 -0.740556
v -0.757825 0.000000 -0.757699
v -0.799054 0.000000 -0.707869
v -0.794631 0.000000 -0.725372
v -0.787540 0.000000 -0.741108
v -0.778320 0.000000 -0.755026
v -0.767332 0.000000 -0.767300
v -0.808706 0.000000 -0.743059
v -0.801963 0.000000 -0.752823
v -0.794074 0.000000 -0.761552
v -0.785358 0.000000 -0.769168
v -0.776746 0.000000 -0.776746
v -0.791104 0.000000 0.643392
v -0.895552 0.000000 0.895552
v -0.643392 0.000000 0.791104
v -0.793111 0.000000 0.674216
v -0.799054 0.000000 0.707869
v -0.808706 0.000000 0.743059
v -0.821696 0.000000 0.778432
v -0.788265 0.000000 0.672209
v -0.788719 0.000000 0.698070
v -0.793496 0.000000 0.724902
v -0.801351 0.000000 0.752570
v -0.811731 0.000000 0.780027
v -0.779860 0.000000 0.699919
v -0.781842 0.000000 0.720075
v -0.786986 0.000000 0.740879
v -0.793921 0.000000 0.761488
v -0.801970 0.000000 0.781648
v -0.766210 0.000000 0.725456
v -0.771481 0.000000 0.740198
v -0.778104 0.000000 0.754937
v -0.785358 0.000000 0.769168
v -0.792005 0.000000 0.783066
v -0.783966 0.000000 0.783966
v -0.872337 0.000000 0.875175
v -0.844337 0.000000 0.855581
v -0.812629 0.000000 0.837523
v -0.778432 0.000000 0.821696
v -0.875175 0.000000 0.872337
v -0.854296 0.000000 0.853431
v -0.831797 0.000000 0.837774
v -0.806840 0.000000 0.823831
v -0.780243 0.000000 0.811821
v -0.855581 0.000000 0.844337
v -0.838307 0.000000 0.830816
v -0.820143 0.000000 0.819819
v -0.801254 0.000000 0.810392
v -0.781702 0.000000 0.801993
v -0.837523 0.000000 0.812629
v -0.824084 0.000000 0.806228
v -0.810456 0.000000 0.801101
v -0.796806 0.000000 0.796806
v -0.783066 0.000000 0.792005
v -0.672209 0.000000 0.788265
v -0.699919 0.000000 0.779860
v -0.725456 0.000000 0.766210
v -0.747840 0.000000 0.747840
v -0.674216 0.000000 0.793111
v -0.698682 0.000000 0.790197
v -0.720676 0.000000 0.783294
v -0.740556 0.000000 0.772347
v -0.757699 0.000000 0.757825
v -0.707869 0.000000 0.799054
v -0.725372 0.000000 0.794631
v -0.741108 0.000000 0.787540
v -0.755026 0.000000 0.778320
v -0.767300 0.000000 0.767332
v -0.743059 0.000000 0.808706
v -0.752823 0.000000 0.801963
v -0.761552 0.000000 0.794074
v -0.769168 0.000000 0.785358
v -0.776746 0.000000 0.776746
v 0.643392 0.000000 0.791104
v 0.895552 0.000000 0.895552
v 0.791104 0.000000 0.643392
v 0.674216 0.000000 0.793111
v 0.707869 0.000000 0.799054
v 0.743059 0.000000 0.808706
v 0.778432 0.000000 0.821696
v 0.672209 0.000000 0.788265
v 0.698070 0.000000 0.788719
v 0.724902 0.000000 0.793496
v 0.752570 0.000000 0.801351
v 0.780027 0.000000 0.811731
v 0.699919 0.000000 0.779860
v 0.720075 0.000000 0.781842
v 0.740879 0.000000 0.786986
v 0.761488 0.000000 0.793921
v 0.781648 0.000000 0.801970
v 0.725456 0.000000 0.766210
v 0.740198 0.000000 0.771481
v 0.754937 0.000000 0.778104
v 0.769168 0.000000 0.785358
v 0.783066 0.000000 0.792005
v 0.783966 0.000000 0.783966
v 0.875175 0.000000 0.872337
v 0.855581 0.000000 0.844337
v 0.837523 0.000000 0.812629
v 0.821696 0.000000 0.778432
v 0.872337 0.000000 0.875175
v 0.853431 0.000000 0.854296
v 0.837774 0.000000 0.831797
v 0.823831 0.000000 0.806840
v 0.811821 0.000000 0.780243
v 0.844337 0.000000 0.855581
v 0.830816 0.000000 0.838307
v 0.819819 0.000000 0.820143
v 0.810392 0.000000 0.801254
v 0.801993 0.000000 0.781702
v 0.812629 0.000000 0.837523
v 0.806228 0.000000 0.824084
v 0.801101 0.000000 0.810456
v 0.796806 0.000000 0.796806
v 0.792005 0.000000 0.783066
v 0.788265 0.000000 0.672209
v 0.779860 0.000000 0.699919
v 0.766210 0.000000 0.725456
v 0.747840 0.000000 0.747840
v 0.793111 0.000000 0.674216
v 0.790197 0.000000 0.698682
v 0.783294 0.000000 0.720676
v 0.772347 0.000000 0.740556
v 0.757825 0.000000 0.757699
v 0.799054 0.000000 0.707869
v 0.794631 0.000000 0.725372
v 0.787540 0.000000 0.741108
v 0.778320 0.000000 0.755026
v 0.767332 0.000000 0.767300
v 0.808706 0.000000 0.743059
v 0.801963 0.000000 0.752823
v 0.794074 0.000000 0.761552
v 0.785358 0.000000 0.769168
v 0.776746 0.000000 0.776746
v 0.791104 0.000000 -0.643392
v 0.895552 0.000000 -0.895552
v 0.643392 0.000000 -0.791104
v 0.793111 0.000000 -0.674216
v 0.799054 0.000000 -0.707869
v 0.808706 0.000000 -0.743059
v 0.821696 0.000000 -0.778432
v 0.788265 0.000000 -0.672209
v 0.788719 0.000000 -0.698070
v 0.793496 0.000000 -0.724902
v 0.801351 0.000000 -0.752570
v 0.811731 0.000000 -0.780027
v 0.779860 0.000000 -0.699919
v 0.781842 0.000000 -0.720075
v 0.786986 0.000000 -0.740879
v 0.793921 0.000000 -0.761488
v 0.801970 0.000000 -0.781648
v 0.766210 0.000000 -0.725456
v 0.771481 0.000000 -0.740198
v 0.778104 0.000000 -0.754937
v 0.785358 0.000000 -0.769168
v 0.792005 0.000000 -0.783066
v 0.783966 0.000000 -0.783966
v 0.872337 0.000000 -0.875175
v 0.844337 0.000000 -0.855581
v 0.812629 0.000000 -0.837523
v 0.778432 0.000000 -0.821696
v 0.875175 0.000000 -0.872337
v 0.854296 0.000000 -0.853431
v 0.831797 0.000000 -0.837774
v 0.806840 0.000000 -0.823831
v 0.780243 0.000000 -0.811821
v 0.855581 0.000000 -0.844337
v 0.838307 0.000000 -0.830816
v 0.820143 0.000000 -0.819819
v 0.801254 0.000000 -0.810392
v 0.781702 0.000000 -0.801993
v 0.837523 0.000000 -0.812629
v 0.824084 0.000000 -0.806228
v 0.810456 0.000000 -0.801101
v 0.796806 0.000000 -0.796806
v 0.783066 0.000000 -0.792005
v 0.672209 0.000000 -0.788265
v 0.699919 0.000000 -0.779860
v 0.725456 0.000000 -0.766210
v 0.747840 0.000000 -0.747840
v 0.674216 0.000000 -0.793111
v 0.698682 0.000000 -0.790197
v 0.720676 0.000000 -0.783294
v 0.740556 0.000000 -0.772347
v 0.757699 0.000000 -0.757825
v 0.707869 0.000000 -0.799054
v 0.725372 0.000000 -0.794631
v 0.741108 0.000000 -0.787540
v 0.755026 0.000000 -0.778320
v 0.767300 0.000000 -0.767332
v 0.743059 0.000000 -0.808706
v 0.752823 0.000000 -0.801963
v 0.761552 0.000000 -0.794074
v 0.769168 0.000000 -0.785358
v 0.776746 0.000000 -0.776746
vn -0.0000 -1.0000 -0.0000
vn -0.0000 1.0000 -0.0000
vt 0.073856 0.000000
vt 0.060451 0.001003
vt 0.050183 0.002429
vt 0.059447 0.001419
vt 0.049568 0.003975
vt 0.041753 0.007456
vt 0.041625 0.008801
vt 0.035545 0.011155
vt 0.036928 0.015296
vt 0.031973 0.016121
vt 0.039787 0.008904
vt 0.045593 0.005622
vt 0.034269 0.005608
vt 0.030068 0.013852
vt 0.027479 0.017318
vt 0.029718 0.014076
vt 0.032824 0.012447
vt 0.026882 0.015298
vt 0.024839 0.008372
vt 0.023422 0.018953
vt 0.020746 0.020809
vt 0.021632 0.021632
vt 0.020290 0.020306
vt 0.020262 0.020262
vt 0.013867 0.013867
vt 0.052224 0.052224
vt 0.042036 0.043455
vt 0.037105 0.036889
vt 0.043455 0.042036
vt 0.032239 0.037861
vt 0.029594 0.032583
vt 0.023210 0.035657
vt 0.022395 0.030890
vt 0.015296 0.036928
vt 0.016166 0.031955
vt 0.033390 0.029645
vt 0.037861 0.032239
vt 0.027591 0.027510
vt 0.022088 0.026657
vt 0.017330 0.027475
vt 0.031449 0.022521
vt 0.035657 0.023210
vt 0.026797 0.022119
vt 0.022468 0.022468
vt 0.018953 0.023422
vt 0.000000 0.073856
vt 0.001419 0.059447
vt 0.002366 0.050489
vt 0.001003 0.060451
vt 0.005622 0.045593
vt 0.008331 0.039640
vt 0.012447 0.032824
vt 0.013643 0.029538
vt 0.007807 0.042436
vt 0.003975 0.049568
vt 0.005584 0.034384
vt 0.015190 0.026837
vt 0.011461 0.036031
vt 0.008801 0.041625
vt 0.013928 0.030190
vt 0.008372 0.024839
vt 1.000000 0.073856
vt 0.998997 0.060451
vt 0.997571 0.050183
vt 0.998581 0.059447
vt 0.996025 0.049568
vt 0.992544 0.041753
vt 0.991199 0.041625
vt 0.988845 0.035545
vt 0.984704 0.036928
vt 0.983879 0.031973
vt 0.991096 0.039787
vt 0.994378 0.045593
vt 0.994392 0.034269
vt 0.986148 0.030068
vt 0.982682 0.027479
vt 0.985924 0.029718
vt 0.987553 0.032824
vt 0.984702 0.026882
vt 0.991628 0.024839
vt 0.981047 0.023422
vt 0.979191 0.020746
vt 0.978368 0.021632
vt 0.979694 0.020290
vt 0.979738 0.020262
vt 0.986133 0.013867
vt 0.947776 0.052224
vt 0.956545 0.042036
vt 0.963111 0.037105
vt 0.957964 0.043455
vt 0.962139 0.032239
vt 0.967417 0.029594
vt 0.964343 0.023210
vt 0.969110 0.022395
vt 0.963072 0.015296
vt 0.968045 0.016166
vt 0.970355 0.033390
vt 0.967761 0.037861
vt 0.972490 0.027591
vt 0.973343 0.022088
vt 0.972525 0.017330
vt 0.977479 0.031449
vt 0.976790 0.035657
vt 0.977881 0.026797
vt 0.977532 0.022468
vt 0.976578 0.018953
vt 0.926144 0.000000
vt 0.940553 0.001419
vt 0.949511 0.002366
vt 0.939549 0.001003
vt 0.954407 0.005622
vt 0.960360 0.008331
vt 0.967176 0.012447
vt 0.970462 0.013643
vt 0.957564 0.007807
vt 0.950432 0.003975
vt 0.965616 0.005584
vt 0.973163 0.015190
vt 0.963969 0.011461
vt 0.958375 0.008801
vt 0.969810 0.013928
vt 0.975161 0.008372
vt 0.000000 0.926144
vt 0.001003 0.939549
vt 0.002429 0.949817
vt 0.001419 0.940553
vt 0.003975 0.950432
vt 0.007456 0.958247
vt 0.008801 0.958375
vt 0.011155 0.964455
vt 0.015296 0.963072
vt 0.016121 0.968027
vt 0.008904 0.960213
vt 0.005622 0.954407
vt 0.005608 0.965731
vt 0.013852 0.969932
vt 0.017318 0.972521
vt 0.014076 0.970282
vt 0.012447 0.967176
vt 0.015298 0.973118
vt 0.008372 0.975161
vt 0.018953 0.976578
vt 0.020809 0.979254
vt 0.021632 0.978368
vt 0.020306 0.979710
vt 0.020262 0.979738
vt 0.013867 0.986133
vt 0.052224 0.947776
vt 0.043455 0.957964
vt 0.036889 0.962895
vt 0.042036 0.956545
vt 0.037861 0.967761
vt 0.032583 0.970406
vt 0.035657 0.976790
vt 0.030890 0.977605
vt 0.036928 0.984704
vt 0.031955 0.983834
vt 0.029645 0.966610
vt 0.032239 0.962139
vt 0.027510 0.972409
vt 0.026657 0.977912
vt 0.027475 0.982671
vt 0.022521 0.968551
vt 0.023210 0.964343
vt 0.022119 0.973203
vt 0.022468 0.977532
vt 0.023422 0.981047
vt 0.073856 1.000000
vt 0.059447 0.998581
vt 0.050489 0.997634
vt 0.060451 0.998996
vt 0.045593 0.994378
vt 0.039640 0.991669
vt 0.032824 0.987553
vt 0.029538 0.986357
vt 0.042436 0.992193
vt 0.049568 0.996025
vt 0.034384 0.994416
vt 0.026837 0.984810
vt 0.036031 0.988539
vt 0.041625 0.991199
vt 0.030190 0.986072
vt 0.024839 0.991628
vt 0.926144 1.000000
vt 0.939549 0.998997
vt 0.949817 0.997571
vt 0.940553 0.998581
vt 0.950432 0.996025
vt 0.958247 0.992544
vt 0.958375 0.991199
vt 0.964455 0.988845
vt 0.963072 0.984704
vt 0.968027 0.983879
vt 0.960213 0.991096
vt 0.954407 0.994378
vt 0.965731 0.994392
vt 0.969932 0.986148
vt 0.972521 0.982682
vt 0.970282 0.985924
vt 0.967176 0.987553
vt 0.973118 0.984702
vt 0.975161 0.991628
vt 0.976578 0.981047
vt 0.979254 0.979191
vt 0.978368 0.978368
vt 0.979710 0.979694
vt 0.979738 0.979738
vt 0.986133 0.986133
vt 0.947776 0.947776
vt 0.957964 0.956545
vt 0.962895 0.963111
vt 0.956545 0.957964
vt 0.967761 0.962139
vt 0.970406 0.967417
vt 0.976790 0.964343
vt 0.977605 0.969110
vt 0.984704 0.963072
vt 0.983834 0.968045
vt 0.966610 0.970355
vt 0.962139 0.967761
vt 0.972409 0.972490
vt 0.977912 0.973343
vt 0.982671 0.972525
vt 0.968551 0.977479
vt 0.964343 0.976790
vt 0.973203 0.977881
vt 0.977532 0.977532
vt 0.981047 0.976578
vt 1.000000 0.926144
vt 0.998581 0.940553
vt 0.997634 0.949511
vt 0.998996 0.939549
vt 0.994378 0.954407
vt 0.991669 0.960360
vt 0.987553 0.967176
vt 0.986357 0.970462
vt 0.992193 0.957564
vt 0.996025 0.950432
vt 0.994416 0.965616
vt 0.984810 0.973163
vt 0.988539 0.963969
vt 0.991199 0.958375
vt 0.986072 0.969810
vt 0.991628 0.975161
vt 0.178304 0.895552
vt 0.162892 0.896555
vt 0.150965 0.894956
vt 0.163896 0.894133
vt 0.146065 0.899527
vt 0.137549 0.896748
vt 0.128471 0.904353
vt 0.123715 0.900675
vt 0.110784 0.910848
vt 0.109986 0.905866
vt 0.139962 0.890921
vt 0.150041 0.889930
vt 0.129561 0.894523
vt 0.119256 0.896961
vt 0.109176 0.900985
vt 0.129901 0.885741
vt 0.137272 0.883105
vt 0.122532 0.889052
vt 0.115416 0.894115
vt 0.108467 0.896003
vt 0.121087 0.878849
vt 0.126080 0.873920
vt 0.116334 0.883650
vt 0.111627 0.888373
vt 0.105638 0.894362
vt 0.062413 0.936168
vt 0.073177 0.927040
vt 0.063832 0.937588
vt 0.072209 0.922169
vt 0.081113 0.915899
vt 0.081238 0.906315
vt 0.088085 0.903420
vt 0.089152 0.889216
vt 0.094090 0.890122
vt 0.084592 0.919153
vt 0.077831 0.927791
vt 0.090050 0.910031
vt 0.094804 0.900627
vt 0.099004 0.890851
vt 0.096886 0.912042
vt 0.093685 0.918762
vt 0.099450 0.905228
vt 0.101597 0.898403
vt 0.103997 0.891533
vt 0.104448 0.821696
vt 0.105867 0.836105
vt 0.104675 0.849341
vt 0.103445 0.837108
vt 0.110070 0.849959
vt 0.108353 0.860338
vt 0.116895 0.862728
vt 0.113826 0.870278
vt 0.102685 0.862686
vt 0.100473 0.853935
vt 0.105339 0.870554
vt 0.110840 0.877513
vt 0.099018 0.876412
vt 0.095647 0.871529
vt 0.102963 0.880776
vt 0.105885 0.884584
vt 0.104448 0.178304
vt 0.103445 0.162892
vt 0.105044 0.150965
vt 0.105867 0.163896
vt 0.100473 0.146065
vt 0.103252 0.137549
vt 0.095647 0.128471
vt 0.099325 0.123715
vt 0.089152 0.110784
vt 0.094135 0.109986
vt 0.109079 0.139962
vt 0.110070 0.150041
vt 0.105478 0.129561
vt 0.103039 0.119256
vt 0.099015 0.109176
vt 0.114259 0.129901
vt 0.116895 0.137272
vt 0.110948 0.122532
vt 0.105885 0.115416
vt 0.103997 0.108467
vt 0.121151 0.121087
vt 0.126080 0.126080
vt 0.116350 0.116334
vt 0.111627 0.111627
vt 0.105638 0.105638
vt 0.063832 0.062413
vt 0.072960 0.073177
vt 0.062413 0.063832
vt 0.077831 0.072209
vt 0.084101 0.081113
vt 0.093685 0.081238
vt 0.096580 0.088085
vt 0.110784 0.089152
vt 0.109878 0.094090
vt 0.080847 0.084592
vt 0.072209 0.077831
vt 0.089969 0.090050
vt 0.099373 0.094804
vt 0.109149 0.099004
vt 0.087958 0.096886
vt 0.081238 0.093685
vt 0.094772 0.099450
vt 0.101597 0.101597
vt 0.108467 0.103997
vt 0.178304 0.104448
vt 0.163896 0.105867
vt 0.150659 0.104675
vt 0.162892 0.103445
vt 0.150041 0.110070
vt 0.139662 0.108353
vt 0.137272 0.116895
vt 0.129722 0.113826
vt 0.137314 0.102685
vt 0.146065 0.100473
vt 0.129446 0.105339
vt 0.122487 0.110840
vt 0.123588 0.099018
vt 0.128471 0.095647
vt 0.119224 0.102963
vt 0.115416 0.105885
vt 0.821696 0.104448
vt 0.837108 0.103445
vt 0.849035 0.105044
vt 0.836104 0.105867
vt 0.853935 0.100473
vt 0.862451 0.103252
vt 0.871529 0.095647
vt 0.876285 0.099325
vt 0.889216 0.089152
vt 0.890014 0.094135
vt 0.860037 0.109079
vt 0.849959 0.110070
vt 0.870440 0.105478
vt 0.880744 0.103039
vt 0.890824 0.099015
vt 0.870099 0.114259
vt 0.862728 0.116895
vt 0.877468 0.110948
vt 0.884584 0.105885
vt 0.891533 0.103997
vt 0.878913 0.121151
vt 0.873920 0.126080
vt 0.883666 0.116350
vt 0.888373 0.111627
vt 0.894362 0.105638
vt 0.937588 0.063832
vt 0.926823 0.072960
vt 0.936168 0.062413
vt 0.927791 0.077831
vt 0.918887 0.084101
vt 0.918762 0.093685
vt 0.911915 0.096580
vt 0.910848 0.110784
vt 0.905910 0.109878
vt 0.915408 0.080847
vt 0.922169 0.072209
vt 0.909950 0.089969
vt 0.905196 0.099373
vt 0.900996 0.109149
vt 0.903114 0.087958
vt 0.906315 0.081238
vt 0.900550 0.094772
vt 0.898403 0.101597
vt 0.896003 0.108467
vt 0.895552 0.178304
vt 0.894133 0.163896
vt 0.895325 0.150659
vt 0.896555 0.162892
vt 0.889930 0.150041
vt 0.891647 0.139662
vt 0.883105 0.137272
vt 0.886174 0.129722
vt 0.897315 0.137314
vt 0.899527 0.146065
vt 0.894661 0.129446
vt 0.889160 0.122487
vt 0.900982 0.123588
vt 0.904353 0.128471
vt 0.897037 0.119224
vt 0.894115 0.115416
vt 0.895552 0.821696
vt 0.896555 0.837108
vt 0.894956 0.849035
vt 0.894133 0.836104
vt 0.899527 0.853935
vt 0.896748 0.862451
vt 0.904353 0.871529
vt 0.900675 0.876285
vt 0.910848 0.889216
vt 0.905866 0.890014
vt 0.890921 0.860037
vt 0.889930 0.849959
vt 0.894523 0.870440
vt 0.896961 0.880744
vt 0.900985 0.890824
vt 0.885741 0.870099
vt 0.883105 0.862728
vt 0.889052 0.877468
vt 0.894115 0.884584
vt 0.896003 0.891533
vt 0.878849 0.878913
vt 0.873920 0.873920
vt 0.883650 0.883666
vt 0.888373 0.888373
vt 0.894362 0.894362
vt 0.936168 0.937588
vt 0.927040 0.926823
vt 0.937588 0.936168
vt 0.922169 0.927791
vt 0.915899 0.918887
vt 0.906315 0.918762
vt 0.903420 0.911915
vt 0.889216 0.910848
vt 0.890122 0.905910
vt 0.919153 0.915408
vt 0.927791 0.922169
vt 0.910031 0.909950
vt 0.900627 0.905196
vt 0.890851 0.900996
vt 0.912042 0.903114
vt 0.918762 0.906315
vt 0.905228 0.900550
vt 0.898403 0.898403
vt 0.891533 0.896003
vt 0.821696 0.895552
vt 0.836105 0.894133
vt 0.849341 0.895325
vt 0.837108 0.896555
vt 0.849959 0.889930
vt 0.860338 0.891647
vt 0.862728 0.883105
vt 0.870278 0.886174
vt 0.862686 0.897315
vt 0.853935 0.899527
vt 0.870554 0.894661
vt 0.877513 0.889160
vt 0.876412 0.900982
vt 0.871529 0.904353
vt 0.880776 0.897037
vt 0.884584 0.894115
s 0
f 1/1/1 4/2/1 9/3/1 8/4/1
f 4/2/1 5/5/1 10/6/1 9/3/1
f 5/5/2 6/7/2 11/8/2 10/6/2
f 6/7/2 7/9/2 12/10/2 11/8/2
f 8/4/2 9/3/2 14/11/2 13/12/2
f 9/3/1 10/6/1 15/13/1 14/11/1
f 10/6/2 11/8/2 16/14/2 15/13/2
f 11/8/2 12/10/2 17/15/2 16/14/2
f 13/12/2 14/11/2 19/16/2 18/17/2
f 14/11/1 15/13/1 20/18/1 19/16/1
f 15/13/2 16/14/2 21/19/2 20/18/2
f 16/14/2 17/15/2 22/20/2 21/19/2
f 18/17/1 19/16/1 51/21/1 46/22/1
f 19/16/1 20/18/1 56/23/1 51/21/1
f 20/18/1 21/19/1 61/24/1 56/23/1
f 21/19/2 22/20/2 23/25/2 61/24/2
f 2/26/2 24/27/2 29/28/2 28/29/2
f 24/27/2 25/30/2 30/31/2 29/28/2
f 25/30/2 26/32/2 31/33/2 30/31/2
f 26/32/2 27/34/2 32/35/2 31/33/2
f 28/29/2 29/28/2 34/36/2 33/37/2
f 29/28/2 30/31/2 35/38/2 34/36/2
f 30/31/2 31/33/2 36/39/2 35/38/2
f 31/33/2 32/35/2 37/40/2 36/39/2
f 33/37/2 34/36/2 39/41/2 38/42/2
f 34/36/2 35/38/2 40/43/2 39/41/2
f 35/38/2 36/39/2 41/44/2 40/43/2
f 36/39/2 37/40/2 42/45/2 41/44/2
f 38/42/2 39/41/2 12/10/2 7/9/2
f 39/41/2 40/43/2 17/15/2 12/10/2
f 40/43/2 41/44/2 22/20/2 17/15/2
f 41/44/2 42/45/2 23/25/2 22/20/2
f 3/46/1 43/47/1 48/48/1 47/49/1
f 43/47/2 44/50/2 49/51/2 48/48/2
f 44/50/1 45/52/1 50/53/1 49/51/1
f 45/52/1 46/22/1 51/21/1 50/53/1
f 47/49/1 48/48/1 53/54/1 52/55/1
f 48/48/2 49/51/2 54/56/2 53/54/2
f 49/51/2 50/53/2 55/57/2 54/56/2
f 50/53/1 51/21/1 56/23/1 55/57/1
f 52/55/2 53/54/2 58/58/2 57/59/2
f 53/54/2 54/56/2 59/60/2 58/58/2
f 54/56/2 55/57/2 60/61/2 59/60/2
f 55/57/1 56/23/1 61/24/1 60/61/1
f 57/59/2 58/58/2 32/35/2 27/34/2
f 58/58/2 59/60/2 37/40/2 32/35/2
f 59/60/2 60/61/2 42/45/2 37/40/2
f 60/61/2 61/24/2 23/25/2 42/45/2
f 62/62/1 65/63/1 70/64/1 69/65/1
f 65/63/1 66/66/1 71/67/1 70/64/1
f 66/66/2 67/68/2 72/69/2 71/67/2
f 67/68/2 68/70/2 73/71/2 72/69/2
f 69/65/2 70/64/2 75/72/2 74/73/2
f 70/64/1 71/67/1 76/74/1 75/72/1
f 71/67/2 72/69/2 77/75/2 76/74/2
f 72/69/2 73/71/2 78/76/2 77/75/2
f 74/73/2 75/72/2 80/77/2 79/78/2
f 75/72/1 76/74/1 81/79/1 80/77/1
f 76/74/2 77/75/2 82/80/2 81/79/2
f 77/75/2 78/76/2 83/81/2 82/80/2
f 79/78/1 80/77/1 112/82/1 107/83/1
f 80/77/1 81/79/1 117/84/1 112/82/1
f 81/79/1 82/80/1 122/85/1 117/84/1
f 82/80/2 83/81/2 84/86/2 122/85/2
f 63/87/2 85/88/2 90/89/2 89/90/2
f 85/88/2 86/91/2 91/92/2 90/89/2
f 86/91/2 87/93/2 92/94/2 91/92/2
f 87/93/2 88/95/2 93/96/2 92/94/2
f 89/90/2 90/89/2 95/97/2 94/98/2
f 90/89/2 91/92/2 96/99/2 95/97/2
f 91/92/2 92/94/2 97/100/2 96/99/2
f 92/94/2 93/96/2 98/101/2 97/100/2
f 94/98/2 95/97/2 100/102/2 99/103/2
f 95/97/2 96/99/2 101/104/2 100/102/2
f 96/99/2 97/100/2 102/105/2 101/104/2
f 97/100/2 98/101/2 103/106/2 102/105/2
f 99/103/2 100/102/2 73/71/2 68/70/2
f 100/102/2 101/104/2 78/76/2 73/71/2
f 101/104/2 102/105/2 83/81/2 78/76/2
f 102/105/2 103/106/2 84/86/2 83/81/2
f 64/107/1 104/108/1 109/109/1 108/110/1
f 104/108/2 105/111/2 110/112/2 109/109/2
f 105/111/1 106/113/1 111/114/1 110/112/1
f 106/113/1 107/83/1 112/82/1 111/114/1
f 108/110/1 109/109/1 114/115/1 113/116/1
f 109/109/2 110/112/2 115/117/2 114/115/2
f 110/112/2 111/114/2 116/118/2 115/117/2
f 111/114/1 112/82/1 117/84/1 116/118/1
f 113/116/2 114/115/2 119/119/2 118/120/2
f 114/115/2 115/117/2 120/121/2 119/119/2
f 115/117/2 116/118/2 121/122/2 120/121/2
f 116/118/1 117/84/1 122/85/1 121/122/1
f 118/120/2 119/119/2 93/96/2 88/95/2
f 119/119/2 120/121/2 98/101/2 93/96/2
f 120/121/2 121/122/2 103/106/2 98/101/2
f 121/122/2 122/85/2 84/86/2 103/106/2
f 123/123/1 126/124/1 131/125/1 130/126/1
f 126/124/1 127/127/1 132/128/1 131/125/1
f 127/127/2 128/129/2 133/130/2 132/128/2
f 128/129/2 129/131/2 134/132/2 133/130/2
f 130/126/2 131/125/2 136/133/2 135/134/2
f 131/125/1 132/128/1 137/135/1 136/133/1
f 132/128/2 133/130/2 138/136/2 137/135/2
f 133/130/2 134/132/2 139/137/2 138/136/2
f 135/134/2 136/133/2 141/138/2 140/139/2
f 136/133/1 137/135/1 142/140/1 141/138/1
f 137/135/2 138/136/2 143/141/2 142/140/2
f 138/136/2 139/137/2 144/142/2 143/141/2
f 140/139/1 141/138/1 173/143/1 168/144/1
f 141/138/1 142/140/1 178/145/1 173/143/1
f 142/140/1 143/141/1 183/146/1 178/145/1
f 143/141/2 144/142/2 145/147/2 183/146/2
f 124/148/2 146/149/2 151/150/2 150/151/2
f 146/149/2 147/152/2 152/153/2 151/150/2
f 147/152/2 148/154/2 153/155/2 152/153/2
f 148/154/2 149/156/2 154/157/2 153/155/2
f 150/151/2 151/150/2 156/158/2 155/159/2
f 151/150/2 152/153/2 157/160/2 156/158/2
f 152/153/2 153/155/2 158/161/2 157/160/2
f 153/155/2 154/157/2 159/162/2 158/161/2
f 155/159/2 156/158/2 161/163/2 160/164/2
f 156/158/2 157/160/2 162/165/2 161/163/2
f 157/160/2 158/161/2 163/166/2 162/165/2
f 158/161/2 159/162/2 164/167/2 163/166/2
f 160/164/2 161/163/2 134/132/2 129/131/2
f 161/163/2 162/165/2 139/137/2 134/132/2
f 162/165/2 163/166/2 144/142/2 139/137/2
f 163/166/2 164/167/2 145/147/2 144/142/2
f 125/168/1 165/169/1 170/170/1 169/171/1
f 165/169/2 166/172/2 171/173/2 170/170/2
f 166/172/1 167/174/1 172/175/1 171/173/1
f 167/174/1 168/144/1 173/143/1 172/175/1
f 169/171/1 170/170/1 175/176/1 174/177/1
f 170/170/2 171/173/2 176/178/2 175/176/2
f 171/173/2 172/175/2 177/179/2 176/178/2
f 172/175/1 173/143/1 178/145/1 177/179/1
f 174/177/2 175/176/2 180/180/2 179/181/2
f 175/176/2 176/178/2 181/182/2 180/180/2
f 176/178/2 177/179/2 182/183/2 181/182/2
f 177/179/1 178/145/1 183/146/1 182/183/1
f 179/181/2 180/180/2 154/157/2 149/156/2
f 180/180/2 181/182/2 159/162/2 154/157/2
f 181/182/2 182/183/2 164/167/2 159/162/2
f 182/183/2 183/146/2 145/147/2 164/167/2
f 184/184/1 187/185/1 192/186/1 191/187/1
f 187/185/1 188/188/1 193/189/1 192/186/1
f 188/188/2 189/190/2 194/191/2 193/189/2
f 189/190/2 190/192/2 195/193/2 194/191/2
f 191/187/2 192/186/2 197/194/2 196/195/2
f 192/186/1 193/189/1 198/196/1 197/194/1
f 193/189/2 194/191/2 199/197/2 198/196/2
f 194/191/2 195/193/2 200/198/2 199/197/2
f 196/195/2 197/194/2 202/199/2 201/200/2
f 197/194/1 198/196/1 203/201/1 202/199/1
f 198/196/2 199/197/2 204/202/2 203/201/2
f 199/197/2 200/198/2 205/203/2 204/202/2
f 201/200/1 202/199/1 234/204/1 229/205/1
f 202/199/1 203/201/1 239/206/1 234/204/1
f 203/201/1 204/202/1 244/207/1 239/206/1
f 204/202/2 205/203/2 206/208/2 244/207/2
f 185/209/2 207/210/2 212/211/2 211/212/2
f 207/210/2 208/213/2 213/214/2 212/211/2
f 208/213/2 209/215/2 214/216/2 213/214/2
f 209/215/2 210/217/2 215/218/2 214/216/2
f 211/212/2 212/211/2 217/219/2 216/220/2
f 212/211/2 213/214/2 218/221/2 217/219/2
f 213/214/2 214/216/2 219/222/2 218/221/2
f 214/216/2 215/218/2 220/223/2 219/222/2
f 216/220/2 217/219/2 222/224/2 221/225/2
f 217/219/2 218/221/2 223/226/2 222/224/2
f 218/221/2 219/222/2 224/227/2 223/226/2
f 219/222/2 220/223/2 225/228/2 224/227/2
f 221/225/2 222/224/2 195/193/2 190/192/2
f 222/224/2 223/226/2 200/198/2 195/193/2
f 223/226/2 224/227/2 205/203/2 200/198/2
f 224/227/2 225/228/2 206/208/2 205/203/2
f 186/229/1 226/230/1 231/231/1 230/232/1
f 226/230/2 227/233/2 232/234/2 231/231/2
f 227/233/1 228/235/1 233/236/1 232/234/1
f 228/235/1 229/205/1 234/204/1 233/236/1
f 230/232/1 231/231/1 236/237/1 235/238/1
f 231/231/2 232/234/2 237/239/2 236/237/2
f 232/234/2 233/236/2 238/240/2 237/239/2
f 233/236/1 234/204/1 239/206/1 238/240/1
f 235/238/2 236/237/2 241/241/2 240/242/2
f 236/237/2 237/239/2 242/243/2 241/241/2
f 237/239/2 238/240/2 243/244/2 242/243/2
f 238/240/1 239/206/1 244/207/1 243/244/1
f 240/242/2 241/241/2 215/218/2 210/217/2
f 241/241/2 242/243/2 220/223/2 215/218/2
f 242/243/2 243/244/2 225/228/2 220/223/2
f 243/244/2 244/207/2 206/208/2 225/228/2
f 245/245/2 248/246/2 253/247/2 252/248/2
f 248/246/2 249/249/2 254/250/2 253/247/2
f 249/249/2 250/251/2 255/252/2 254/250/2
f 250/251/2 251/253/2 256/254/2 255/252/2
f 252/248/2 253/247/2 258/255/2 257/256/2
f 253/247/2 254/250/2 259/257/2 258/255/2
f 254/250/2 255/252/2 260/258/2 259/257/2
f 255/252/2 256/254/2 261/259/2 260/258/2
f 257/256/2 258/255/2 263/260/2 262/261/2
f 258/255/2 259/257/2 264/262/2 263/260/2
f 259/257/2 260/258/2 265/263/2 264/262/2
f 260/258/2 261/259/2 266/264/2 265/263/2
f 262/261/2 263/260/2 295/265/2 290/266/2
f 263/260/2 264/262/2 300/267/2 295/265/2
f 264/262/2 265/263/2 305/268/2 300/267/2
f 265/263/2 266/264/2 267/269/2 305/268/2
f 246/148/2 268/270/2 273/271/2 272/272/2
f 268/270/2 269/273/2 274/274/2 273/271/2
f 269/273/2 270/275/2 275/276/2 274/274/2
f 270/275/2 271/277/2 276/278/2 275/276/2
f 272/272/2 273/271/2 278/279/2 277/280/2
f 273/271/2 274/274/2 279/281/2 278/279/2
f 274/274/2 275/276/2 280/282/2 279/281/2
f 275/276/2 276/278/2 281/283/2 280/282/2
f 277/280/2 278/279/2 283/284/2 282/285/2
f 278/279/2 279/281/2 284/286/2 283/284/2
f 279/281/2 280/282/2 285/287/2 284/286/2
f 280/282/2 281/283/2 286/288/2 285/287/2
f 282/285/2 283/284/2 256/254/2 251/253/2
f 283/284/2 284/286/2 261/259/2 256/254/2
f 284/286/2 285/287/2 266/264/2 261/259/2
f 285/287/2 286/288/2 267/269/2 266/264/2
f 247/289/2 287/290/2 292/291/2 291/292/2
f 287/290/2 288/293/2 293/294/2 292/291/2
f 288/293/2 289/295/2 294/296/2 293/294/2
f 289/295/2 290/266/2 295/265/2 294/296/2
f 291/292/2 292/291/2 297/297/2 296/298/2
f 292/291/2 293/294/2 298/299/2 297/297/2
f 293/294/2 294/296/2 299/300/2 298/299/2
f 294/296/2 295/265/2 300/267/2 299/300/2
f 296/298/2 297/297/2 302/301/2 301/302/2
f 297/297/2 298/299/2 303/303/2 302/301/2
f 298/299/2 299/300/2 304/304/2 303/303/2
f 299/300/2 300/267/2 305/268/2 304/304/2
f 301/302/2 302/301/2 276/278/2 271/277/2
f 302/301/2 303/303/2 281/283/2 276/278/2
f 303/303/2 304/304/2 286/288/2 281/283/2
f 304/304/2 305/268/2 267/269/2 286/288/2
f 306/305/2 309/306/2 314/307/2 313/308/2
f 309/306/2 310/309/2 315/310/2 314/307/2
f 310/309/2 311/311/2 316/312/2 315/310/2
f 311/311/2 312/313/2 317/314/2 316/312/2
f 313/308/2 314/307/2 319/315/2 318/316/2
f 314/307/2 315/310/2 320/317/2 319/315/2
f 315/310/2 316/312/2 321/318/2 320/317/2
f 316/312/2 317/314/2 322/319/2 321/318/2
f 318/316/2 319/315/2 324/320/2 323/321/2
f 319/315/2 320/317/2 325/322/2 324/320/2
f 320/317/2 321/318/2 326/323/2 325/322/2
f 321/318/2 322/319/2 327/324/2 326/323/2
f 323/321/2 324/320/2 356/325/2 351/326/2
f 324/320/2 325/322/2 361/327/2 356/325/2
f 325/322/2 326/323/2 366/328/2 361/327/2
f 326/323/2 327/324/2 328/329/2 366/328/2
f 307/26/2 329/330/2 334/331/2 333/332/2
f 329/330/2 330/333/2 335/334/2 334/331/2
f 330/333/2 331/335/2 336/336/2 335/334/2
f 331/335/2 332/337/2 337/338/2 336/336/2
f 333/332/2 334/331/2 339/339/2 338/340/2
f 334/331/2 335/334/2 340/341/2 339/339/2
f 335/334/2 336/336/2 341/342/2 340/341/2
f 336/336/2 337/338/2 342/343/2 341/342/2
f 338/340/2 339/339/2 344/344/2 343/345/2
f 339/339/2 340/341/2 345/346/2 344/344/2
f 340/341/2 341/342/2 346/347/2 345/346/2
f 341/342/2 342/343/2 347/348/2 346/347/2
f 343/345/2 344/344/2 317/314/2 312/313/2
f 344/344/2 345/346/2 322/319/2 317/314/2
f 345/346/2 346/347/2 327/324/2 322/319/2
f 346/347/2 347/348/2 328/329/2 327/324/2
f 308/349/2 348/350/2 353/351/2 352/352/2
f 348/350/2 349/353/2 354/354/2 353/351/2
f 349/353/2 350/355/2 355/356/2 354/354/2
f 350/355/2 351/326/2 356/325/2 355/356/2
f 352/352/2 353/351/2 358/357/2 357/358/2
f 353/351/2 354/354/2 359/359/2 358/357/2
f 354/354/2 355/356/2 360/360/2 359/359/2
f 355/356/2 356/325/2 361/327/2 360/360/2
f 357/358/2 358/357/2 363/361/2 362/362/2
f 358/357/2 359/359/2 364/363/2 363/361/2
f 359/359/2 360/360/2 365/364/2 364/363/2
f 360/360/2 361/327/2 366/328/2 365/364/2
f 362/362/2 363/361/2 337/338/2 332/337/2
f 363/361/2 364/363/2 342/343/2 337/338/2
f 364/363/2 365/364/2 347/348/2 342/343/2
f 365/364/2 366/328/2 328/329/2 347/348/2
f 367/365/2 370/366/2 375/367/2 374/368/2
f 370/366/2 371/369/2 376/370/2 375/367/2
f 371/369/2 372/371/2 377/372/2 376/370/2
f 372/371/2 373/373/2 378/374/2 377/372/2
f 374/368/2 375/367/2 380/375/2 379/376/2
f 375/367/2 376/370/2 381/377/2 380/375/2
f 376/370/2 377/372/2 382/378/2 381/377/2
f 377/372/2 378/374/2 383/379/2 382/378/2
f 379/376/2 380/375/2 385/380/2 384/381/2
f 380/375/2 381/377/2 386/382/2 385/380/2
f 381/377/2 382/378/2 387/383/2 386/382/2
f 382/378/2 383/379/2 388/384/2 387/383/2
f 384/381/2 385/380/2 417/385/2 412/386/2
f 385/380/2 386/382/2 422/387/2 417/385/2
f 386/382/2 387/383/2 427/388/2 422/387/2
f 387/383/2 388/384/2 389/389/2 427/388/2
f 368/87/2 390/390/2 395/391/2 394/392/2
f 390/390/2 391/393/2 396/394/2 395/391/2
f 391/393/2 392/395/2 397/396/2 396/394/2
f 392/395/2 393/397/2 398/398/2 397/396/2
f 394/392/2 395/391/2 400/399/2 399/400/2
f 395/391/2 396/394/2 401/401/2 400/399/2
f 396/394/2 397/396/2 402/402/2 401/401/2
f 397/396/2 398/398/2 403/403/2 402/402/2
f 399/400/2 400/399/2 405/404/2 404/405/2
f 400/399/2 401/401/2 406/406/2 405/404/2
f 401/401/2 402/402/2 407/407/2 406/406/2
f 402/402/2 403/403/2 408/408/2 407/407/2
f 404/405/2 405/404/2 378/374/2 373/373/2
f 405/404/2 406/406/2 383/379/2 378/374/2
f 406/406/2 407/407/2 388/384/2 383/379/2
f 407/407/2 408/408/2 389/389/2 388/384/2
f 369/409/2 409/410/2 414/411/2 413/412/2
f 409/410/2 410/413/2 415/414/2 414/411/2
f 410/413/2 411/415/2 416/416/2 415/414/2
f 411/415/2 412/386/2 417/385/2 416/416/2
f 413/412/2 414/411/2 419/417/2 418/418/2
f 414/411/2 415/414/2 420/419/2 419/417/2
f 415/414/2 416/416/2 421/420/2 420/419/2
f 416/416/2 417/385/2 422/387/2 421/420/2
f 418/418/2 419/417/2 424/421/2 423/422/2
f 419/417/2 420/419/2 425/423/2 424/421/2
f 420/419/2 421/420/2 426/424/2 425/423/2
f 421/420/2 422/387/2 427/388/2 426/424/2
f 423/422/2 424/421/2 398/398/2 393/397/2
f 424/421/2 425/423/2 403/403/2 398/398/2
f 425/423/2 426/424/2 408/408/2 403/403/2
f 426/424/2 427/388/2 389/389/2 408/408/2
f 428/425/2 431/426/2 436/427/2 435/428/2
f 431/426/2 432/429/2 437/430/2 436/427/2
f 432/429/2 433/431/2 438/432/2 437/430/2
f 433/431/2 434/433/2 439/434/2 438/432/2
f 435/428/2 436/427/2 441/435/2 440/436/2
f 436/427/2 437/430/2 442/437/2 441/435/2
f 437/430/2 438/432/2 443/438/2 442/437/2
f 438/432/2 439/434/2 444/439/2 443/438/2
f 440/436/2 441/435/2 446/440/2 445/441/2
f 441/435/2 442/437/2 447/442/2 446/440/2
f 442/437/2 443/438/2 448/443/2 447/442/2
f 443/438/2 444/439/2 449/444/2 448/443/2
f 445/441/2 446/440/2 478/445/2 473/446/2
f 446/440/2 447/442/2 483/447/2 478/445/2
f 447/442/2 448/443/2 488/448/2 483/447/2
f 448/443/2 449/444/2 450/449/2 488/448/2
f 429/209/2 451/450/2 456/451/2 455/452/2
f 451/450/2 452/453/2 457/454/2 456/451/2
f 452/453/2 453/455/2 458/456/2 457/454/2
f 453/455/2 454/457/2 459/458/2 458/456/2
f 455/452/2 456/451/2 461/459/2 460/460/2
f 456/451/2 457/454/2 462/461/2 461/459/2
f 457/454/2 458/456/2 463/462/2 462/461/2
f 458/456/2 459/458/2 464/463/2 463/462/2
f 460/460/2 461/459/2 466/464/2 465/465/2
f 461/459/2 462/461/2 467/466/2 466/464/2
f 462/461/2 463/462/2 468/467/2 467/466/2
f 463/462/2 464/463/2 469/468/2 468/467/2
f 465/465/2 466/464/2 439/434/2 434/433/2
f 466/464/2 467/466/2 444/439/2 439/434/2
f 467/466/2 468/467/2 449/444/2 444/439/2
f 468/467/2 469/468/2 450/449/2 449/444/2
f 430/469/2 470/470/2 475/471/2 474/472/2
f 470/470/2 471/473/2 476/474/2 475/471/2
f 471/473/2 472/475/2 477/476/2 476/474/2
f 472/475/2 473/446/2 478/445/2 477/476/2
f 474/472/2 475/471/2 480/477/2 479/478/2
f 475/471/2 476/474/2 481/479/2 480/477/2
f 476/474/2 477/476/2 482/480/2 481/479/2
f 477/476/2 478/445/2 483/447/2 482/480/2
f 479/478/2 480/477/2 485/481/2 484/482/2
f 480/477/2 481/479/2 486/483/2 485/481/2
f 481/479/2 482/480/2 487/484/2 486/483/2
f 482/480/2 483/447/2 488/448/2 487/484/2
f 484/482/2 485/481/2 459/458/2 454/457/2
f 485/481/2 486/483/2 464/463/2 459/458/2
f 486/483/2 487/484/2 469/468/2 464/463/2
f 487/484/2 488/448/2 450/449/2 469/468/2
f 307/26/2 333/332/2 338/340/2 343/345/2 312/313/2 311/311/2 310/309/2 309/306/2 306/305/2 247/289/2 291/292/2 296/298/2 301/302/2 271/277/2 270/275/2 269/273/2 268/270/2 246/148/2 124/148/2 150/151/2 155/159/2 160/164/2 129/131/2 128/129/2 127/127/2 126/124/2 123/123/2 3/46/2 47/49/2 52/55/2 57/59/2 27/34/2 26/32/2 25/30/2 24/27/2 2/26/2
f 368/87/2 394/392/2 399/400/2 404/405/2 373/373/2 372/371/2 371/369/2 370/366/2 367/365/2 308/349/2 352/352/2 357/358/2 362/362/2 332/337/2 331/335/2 330/333/2 329/330/2 307/26/2 2/26/2 28/29/2 33/37/2 38/42/2 7/9/2 6/7/2 5/5/2 4/2/2 1/1/2 64/107/2 108/110/2 113/116/2 118/120/2 88/95/2 87/93/2 86/91/2 85/88/2 63/87/2
f 429/209/2 455/452/2 460/460/2 465/465/2 434/433/2 433/431/2 432/429/2 431/426/2 428/425/2 369/409/2 413/412/2 418/418/2 423/422/2 393/397/2 392/395/2 391/393/2 390/390/2 368/87/2 63/87/2 89/90/2 94/98/2 99/103/2 68/70/2 67/68/2 66/66/2 65/63/2 62/62/2 186/229/2 230/232/2 235/238/2 240/242/2 210/217/2 209/215/2 208/213/2 207/210/2 185/209/2
f 246/148/2 272/272/2 277/280/2 282/285/2 251/253/2 250/251/2 249/249/2 248/246/2 245/245/2 430/469/2 474/472/2 479/478/2 484/482/2 454/457/2 453/455/2 452/453/2 451/450/2 429/209/2 185/209/2 211/212/2 216/220/2 221/225/2 190/192/2 189/190/2 188/188/2 187/185/2 184/184/2 125/168/2 169/171/2 174/177/2 179/181/2 149/156/2 148/154/2 147/152/2 146/149/2 124/148/2
