# Blender 5.0.1
# www.blender.org
o Plane
v -0.750000 0.000000 1.000000
v -1.000000 0.000000 0.750000
v -0.805630 0.000000 0.993732
v -0.858471 0.000000 0.975242
v -0.905872 0.000000 0.945458
v -0.945458 0.000000 0.905872
v -0.975242 0.000000 0.858471
v -0.993732 0.000000 0.805630
v 1.000000 0.000000 0.750000
v 0.750000 0.000000 1.000000
v 0.993732 0.000000 0.805630
v 0.975242 0.000000 0.858471
v 0.945458 0.000000 0.905872
v 0.905872 0.000000 0.945458
v 0.858471 0.000000 0.975242
v 0.805630 0.000000 0.993732
v -0.750000 0.000000 -1.000000
v -1.000000 0.000000 -0.750000
v -0.805630 0.000000 -0.993732
v -0.858471 0.000000 -0.975242
v -0.905872 0.000000 -0.945458
v -0.945458 0.000000 -0.905872
v -0.975242 0.000000 -0.858471
v -0.993732 0.000000 -0.805630
v 0.750000 0.000000 -1.000000
v 1.000000 0.000000 -0.750000
v 0.805630 0.000000 -0.993732
v 0.858471 0.000000 -0.975242
v 0.905872 0.000000 -0.945458
v 0.945458 0.000000 -0.905872
v 0.975242 0.000000 -0.858471
v 0.993732 0.000000 -0.805630
vn -0.0000 1.0000 -0.0000
vt 0.000000 0.125000
vt 0.003134 0.097185
vt 0.012379 0.070765
vt 0.027271 0.047064
vt 0.047064 0.027271
vt 0.070765 0.012379
vt 0.097185 0.003134
vt 0.125000 0.000000
vt 0.875000 0.000000
vt 0.902815 0.003134
vt 0.929235 0.012379
vt 0.952936 0.027271
vt 0.972729 0.047064
vt 0.987621 0.070765
vt 0.996866 0.097185
vt 1.000000 0.125000
vt 1.000000 0.875000
vt 0.996866 0.902815
vt 0.987621 0.929235
vt 0.972729 0.952936
vt 0.952936 0.972729
vt 0.929235 0.987621
vt 0.902815 0.996866
vt 0.875000 1.000000
vt 0.125000 1.000000
vt 0.097185 0.996866
vt 0.070765 0.987621
vt 0.047064 0.972729
vt 0.027271 0.952936
vt 0.012379 0.929235
vt 0.003134 0.902815
vt 0.000000 0.875000
s 0
f 2/1/1 8/2/1 7/3/1 6/4/1 5/5/1 4/6/1 3/7/1 1/8/1 10/9/1 16/10/1 15/11/1 14/12/1 13/13/1 12/14/1 11/15/1 9/16/1 26/17/1 32/18/1 31/19/1 30/20/1 29/21/1 28/22/1 27/23/1 25/24/1 17/25/1 19/26/1 20/27/1 21/28/1 22/29/1 23/30/1 24/31/1 18/32/1
