v -5.427267430113236 4.671787359364793 7.0924005848584
v -10.11515690128899 3.1971605033982016 6.421087554282984
v -4.99943102152427 0.37728111458846486 5.448852832641479
v -9.544320846848464 15.942902560471785 -3.6941505785175828
v -10.749902484940677 14.517427151942949 -5.657352778898657
v -12.944680878266368 13.922964049829767 -4.227281360100538
v -10.196773301137085 0.9607677500832765 -5.696562796229719
v -4.440005203187347 -0.11856526729775023 -5.540448045626411
v -10.210271607109789 0.037948486626461525 -0.7422247424955716
v 11.821700785569078 12.5327173817681 5.590434291792903
v 12.520514208364908 12.782521487848177 3.2266981512793116
v 12.346807203885746 13.458277830936236 2.6357640162307954
v -5.22847450013888 14.398199603663077 -6.526377016783227
v -2.4129433092562103 12.680977338091017 -7.080080986415749
v -6.93117603068405 12.999864967732462 -7.533075374862583
v -11.73215267660872 0.4879252686700383 4.319711509134525
v -12.414599141152216 2.487430403183108 5.155551866748191
v -13.51912658991381 1.8465115751243746 3.7444098918840023
v -12.151985850513292 13.272043471747901 3.316040663675825
v -10.513757470687679 13.127430384029386 4.39043059776161
v -10.78878092492861 14.674985904804318 2.1310707979736163
v -11.461184245470513 2.0061129003441205 -6.511501493549825
v -12.658947661691577 1.8301987047483552 -5.239418210852322
v -7.5204203832055505 15.515532201568888 -5.517395039823237
v -4.9219611975112265 15.103304552699925 -5.685990759757458
v 1.989729479184832 15.338250319169461 3.0799563479498877
v 1.4517404708622283 14.900187666014101 3.1100314918893104
v 1.8022731139747838 14.61899217555133 3.9927677240258777
v 2.981949739561607 11.397675149750388 5.180197173567373
v 3.759622489818426 13.468969902414665 5.268678260371926
v 2.964582853810871 14.038004372946611 4.696834556331147
v 10.411498790722362 5.992359109717548 -2.4217734021593995
v 9.885024803466536 5.650495488188072 0.5236389254821951
v 9.86884858007322 2.597671754396549 -2.5262955518364927
v 7.484547447758594 15.486794696931689 -2.3467045695126942
v 8.664720341606724 16.414811338779863 -2.3467457287004843
v 8.184527214217319 14.845958875227128 -2.8009404855329394
v 4.479463953983842 11.063820838011484 -4.341348923048403
v 3.9322895124787927 13.101559753974527 -3.3503071400437188
v 6.359860278073093 12.791329557654837 -3.0319124356677687
v 0.9854032773061849 1.7779582495912978 -7.222218641725867
v 0.5731090775182301 0.22015815315562606 -6.961329340414612
v -3.532713811113375 2.2267543442759883 -7.5190040628246235
v -2.5722815415498257 -0.09917826436588001 -5.561282971109785
v 0.5731090775182301 0.22015815315562606 -6.961329340414612
v 0.8374310544707386 -0.3746983262102506 -5.449045952107024
v 1.630596720488442 12.552517558686612 -6.170778274324665
v 1.2403968295366274 14.305068005419356 -3.9563067923320445
v -5.215099218150243 15.800255629381855 -4.582481948690748
v 0.7126579125376509 1.6855654438819372 5.9144263967777375
v -2.25120634769187 0.23484220915572931 5.325684390125408
v 0.9937100188349923 -0.4216387861353226 5.4339494177555325
v 0.03922052221252345 11.208000778053949 5.189437354714377
v -3.5894693525999166 12.642532741107235 4.1434695654907
v 0.43152814138990303 10.340870613124022 5.773950193494231
v 0.03699503756325606 14.049438777601845 3.775264035592454
v 0.20606602267773388 12.886024939545418 4.618644419069434
v 2.2039606078573915 13.609657839727106 5.256108810241666
v -14.695229201870497 7.63737104765114 3.8789692920289824
v -12.724219037796125 5.946431912938658 5.43748365087703
v -12.273988449409856 9.189974550310676 5.6748211832330195
v -14.547830256495686 4.501598869267441 3.7547820977859234
v 10.411498790722362 5.992359109717548 -2.4217734021593995
v 9.782840510096236 7.136484166297622 -4.750668151679551
v 10.41471362677111 8.084820184911425 -2.343191457986312
v -1.043469405692754 8.60457710099475 7.258023128442459
v -0.8111572084317231 7.154073377712935 7.690370175927111
v 1.5009566209996494 9.116490266931875 6.508079805425573
v -4.600530998396923 7.73964417065633 7.65235519261179
v 7.836194340075675 12.046528786735074 7.325325270030444
v 8.034906207734949 10.643015820049735 7.059279457427625
v 9.607698225802963 9.965922212282065 6.340877674923188
v -12.65086717938928 13.870227721014652 1.3338854067045611
v -3.5909332426428797 14.584337194146404 1.7532119440059581
v -8.41392593650685 14.901600847675953 2.1055950211900436
v -3.5708903468201214 13.675598319639374 2.951015085762639
v 5.388240693772417 -0.4100545765149414 4.9917583017895595
v 0.9638358735180819 -0.7670452907105126 4.093256507017442
v 0.682934626573295 -0.415831192909749 -0.6947216154852552
v -2.012256100499865 -0.5222476052755279 3.9969067531018956
v -2.5722815415498257 -0.09917826436588001 -5.561282971109785
v -6.028917654702415 -0.3055787648909946 -0.38713640091231705
v -11.312036261438507 11.777399609936184 4.972180720783084
v 9.417360095291727 3.003222633217091 1.4413711578018114
v 9.150349412478143 0.8884019758028278 0.06439753905132563
v 9.342254429856212 0.8675470939142512 -0.9841011763976142
v -8.80226497049037 12.84247066977859 4.835252468809112
v -9.246534140858031 0.4500533080100407 5.022679620167049
v 1.3270027340873458 14.685707716437621 -0.007800677654710479
v 0.012467871141406787 14.814256307024182 -0.1837851061647727
v 1.2018427580183122 14.986953614230819 1.3126852836055438
v 1.450267520913462 4.7095854251389495 -6.689908645406772
v 3.1912731411023465 10.897864079485503 5.739050868756808
v 4.538599866510928 10.702328292814155 4.93343263248778
v 4.261725807300376 11.279917310659535 4.9071702556483965
v 3.939949662835529 11.7052752238168 5.5458935454853115
v 4.546872991020834 11.18837721182913 6.354085387909838
v 4.232074642954586 11.958655230053932 6.712861823762799
v -3.6404198786522457 9.153259692012293 -7.906233194725322
v -4.010146051418495 11.276632692399545 -7.806601279710053
v 1.5400750292820842 10.727497639738596 -6.92767779375236
v 3.075477531355375 8.172175306964327 6.358254866492486
v -16.788497549552517 4.872964933524196 -4.727697583833923
v -15.31331028088978 4.559477561280983 -6.730713483015112
v -16.260833376776418 3.7012952989770755 -4.354095964680359
v 10.229246864559194 12.409151928620034 6.9280063798055425
v 8.760682863875857 12.794628966950086 6.810808806042607
v 8.316262059295276 4.209505671149576 4.198745901548611
v 7.377237631889333 7.330299106395284 5.195614458044316
v 8.347906879754952 2.832482211692124 5.467234981513457
v 8.961455144849673 17.327292889573275 -0.731201594319974
v 7.370796038863148 17.45266886258499 0.6690713193863794
v 9.080693995639066 17.694223140218572 0.8088867862263797
v 12.200961793937637 12.551336102030886 0.5777216241414049
v 12.391307553843234 11.610361025721927 1.1416009567174865
v 12.078162877004672 11.623363300541115 0.4018540429187426
v -3.5832437668015693 15.646894049512214 -0.34193758012635217
v -3.111785103862319 15.887242545294981 -2.27393904761999
v -14.519117030819118 1.624907639210351 -1.8100747920675602
v -16.68463860412004 3.751021842261691 -2.533525306153576
v 8.533333587646474 6.696305432114479 1.8832790249817133
v 8.60631637410112 4.3890764330090075 1.8303526232666985
v 5.340637564495854 16.399799145999356 1.0166873212016558
v -0.08586651639938686 14.366343650675196 2.9066772247357653
v -2.012256100499865 -0.5222476052755279 3.9969067531018956
v -15.886691692023902 8.055629856374756 1.8794875905688118
v -16.768449408521136 8.484621444811657 -2.253798147816224
v -17.2846027325555 6.403794249810043 -2.2865512756341624
v 6.229456762311081 17.025289723470923 3.4893858525342965
v 7.941874326574627 17.673814644213657 1.6308205771222397
v 6.30227170208979 17.316264957512885 1.4630442929179037
v 9.5497911226051 9.333360248547757 4.534978198289438
v 10.54715323715314 9.181990048730498 3.5855732892613372
v 11.647817351345324 10.616259208478919 5.06108147407086
v 6.341572619790448 -0.21455818170077826 -0.3802727026304028
v -14.932714128508096 10.797868795046359 1.8890155421022001
v -14.036241217637624 9.875853947241529 3.863663885409077
v 1.5400750292820842 10.727497639738596 -6.92767779375236
v 8.991029538414708 13.839047551902505 -3.218688763381773
v 8.027420818192788 10.94450754305825 -4.694703826589392
v 6.963014447025628 12.151757314588291 -3.730457294949996
v -8.589655684165898 9.652769950840229 6.615803428567855
v 8.221853072452845 15.318926495183739 6.015468828208968
v 9.453143862192093 13.672179878652528 5.905588174729219
v 10.201871643918636 13.91426248376996 5.995835764344765
v -4.010146051418495 11.276632692399545 -7.806601279710053
v -9.94082810116943 9.013707432606754 -8.803177197961633
v 4.954797634002617 10.22894566964594 -4.833704599541814
v 5.383215783911588 9.45052236162176 -4.932507990714768
v -14.316587128119451 12.444867092984198 -4.398582480357779
v -12.705325796336098 12.675609227807772 -6.329262749759781
v -15.97448980865277 8.782407736515786 -4.796669376295348
v -10.406286960699695 12.921728562776174 -7.303583179762094
v 10.848546739327602 16.040510356641885 3.2995364021216407
v 11.213880288290667 16.032962738539425 1.8280772859266283
v 10.481767420133181 16.546821420347257 1.2027880144482674
v 9.735317966297607 16.13350916096954 5.151773093311219
v 9.387527255992723 16.696201524233683 3.516801896366242
v 8.544428634395551 16.728159282693703 4.3321161658436935
v -8.566667365282754 11.142027636599025 6.042188601437702
v 2.0949282177926243 10.879971226328136 5.640641697998736
v 7.1706837005015345 8.449576941708148 4.620052765118107
v 7.652611084596561 6.299127504875501 -5.442757557435141
v -1.0305415161578013 6.7920119176110445 -6.745065691207935
v 1.6391462913346366 6.899478682085521 -6.320419340644596
v -9.492730882181277 6.9532766523774585 6.9190308093779125
v -13.790759732035696 4.821985765894848 -7.846916808939523
v -11.09051679617501 5.931207536909256 -8.7029455273447
v -10.142411958968367 4.326052668568882 -8.16936354405464
v -17.298257441112597 5.022581076096127 -2.3873060246265094
v -16.613975153551053 3.803628611972485 -1.3780854868821715
v 0.43996997684307426 17.556913697077505 4.380354784016703
v 1.2784934950211602 16.398342324980142 3.430768125710713
v 1.6774127108436954 16.809131986001866 4.538408300445365
v 3.1468347799740393 16.009345968859392 1.9542956058922998
v 5.565414304314231 16.013195650732573 5.958809971552575
v 3.7718834033932502 16.30485015299266 5.479970060471347
v 3.178903508657882 15.907262392539554 5.521979477945328
v -15.289909974711158 12.043192394832348 -1.2241897856745156
v -15.022048614426353 12.36817003710089 -2.6066017645079063
v 8.027420818192788 10.94450754305825 -4.694703826589392
v -12.532851892720487 9.34647691710954 -8.20153561065613
v -10.406286960699695 12.921728562776174 -7.303583179762094
v 4.348309419714447 12.786304364219856 6.934744027254422
v 4.664603129075395 11.730934070587091 7.0181492151846046
v 2.4902474323604817 15.227929535449015 4.668063916333457
v 10.218190918456216 16.880534295328413 -2.7810764966963455
v 10.164201509262583 17.02737396576278 0.4835230575092418
v 10.232661972209911 16.171485392629872 -0.9009805837005814
v 9.834625024319621 16.338866320826472 -3.0780107680366315
v 9.346090107871063 16.371806161669003 -3.5034317634212955
v 10.045834316778901 18.44709089523133 -4.5956025540296475
v 9.639837049547495 15.281275887801636 -2.906422178700658
v 9.103696619636636 15.677114595354167 -3.035856825869171
v 3.724043286054357 14.617650593437462 5.451264739068836
v 4.729569329405514 14.931550635265486 5.788531602386599
v 5.054742223290898 16.82447062511252 2.9532714429655558
v 3.099889685961088 16.900888515360606 2.7628875236380983
v 5.7649019860125605 14.951887756705787 5.8934753490164065
v 9.061109340315099 17.45816723717863 -2.469829487394786
v 9.008230961675245 17.043303564714183 -3.054847803106306
v 9.669969342575158 17.62012433032643 -0.5691595046894998
v 10.958350890315671 13.48012394604501 -1.388544936494031
v 10.139446031910637 13.812672837553782 -2.592885540879578
v 10.696642636582787 14.943952043898442 -1.1201966063415865
v 10.765601871186448 13.959675329466847 4.948939799511048
v 11.019796125148318 13.7274460021963 4.337150147651424
v 10.410927539819603 15.429231090666034 4.576052433872695
v 10.52807021450839 14.60061896804631 5.720382568012228
v 11.296758399231166 12.807551233729392 6.688545851958176
v 12.325941763983472 14.18633646683461 1.6363163358021475
v 12.51485987346932 13.2486533865292 1.6621233918323939
v 10.228482017774532 12.577048520728717 -2.783707936623969
v 11.066423168783857 12.632711878551573 -1.2477375305766443
v 10.046547665151628 10.809355840943235 -3.7251384347013197
v 7.067547640184735 16.097862819510045 5.743118396112337
v 7.1159656841464525 15.1077439298494 6.164281630132258
v 11.130626429677903 15.034248955597086 -0.08646264293928968
v 12.029877393769972 15.06312270976385 1.8237222518465221
v 9.077431475875564 17.168147971614772 1.9308848589221956
v 7.965934575365452 17.659660102954927 0.9717820504577859
v 5.398387788272174 16.812356830730707 1.5815267236697732
v 10.804221865440411 9.941263585534587 -2.116292618477228
v 10.910923713946552 11.514829124042823 -1.5602742963444465
v 11.187152612496476 11.090309726973981 -0.7480888386503304
v 1.7546252812156382 17.206951286565292 3.2519688455937943
v 9.676444791038818 9.823804593247369 5.592623415638045
v 10.773456332680809 10.263615382811926 5.8782006348113205
v 6.140996795721421 11.771267889637942 7.460625948143437
v 5.825683940372972 12.536485660816487 7.504914934574764
v 12.156569209175494 11.197594910188698 3.1784494043037124
v 10.686675786524802 9.316498946378847 2.4441956054045972
v 11.211357819780154 10.11213388428032 0.8010439908237506
v 6.140996795721421 11.771267889637942 7.460625948143437
v 4.272846126418273 14.07295197656091 5.980101543133423
v 7.751252954797749 16.414594079305495 -1.2525635002380417
v 8.53338890075559 2.626848465917735 1.864754922426143
v 8.380657008722636 2.88917465904477 1.6097285449034417
v 8.937022009409468 3.945313473001613 0.6599031668062354
v 8.458358575589386 1.2880112788436548 1.4336225951790298
v 7.934064210934988 0.15149486449641764 0.7761001762672234
v 9.119700227982541 2.615752452895029 1.7874207603893453
v 9.925347106337234 3.195746847605162 0.12511920738030416
v 9.826587457360603 4.324609104358295 -0.4825156712383468
v 5.388240693772417 -0.4100545765149414 4.9917583017895595
v 8.929213324281271 0.33074912235694653 3.509102212192565
v 8.307962231905108 0.288866181963753 5.282234980439487
v 8.922121802222982 0.6722412245182583 -2.7512200358967367
v 3.6533550399536985 14.006617790042213 -2.4345682485164972
v 1.3798136402708217 14.375641191169116 -1.904763613906605
v 10.864861245493707 9.374883436907682 -0.03241369800173711
v -6.795233574616155 16.37269511669599 -2.7019131028162913
v -8.699948116393053 -0.2843835926283273 3.999836401783446
v 1.7221355053305132 13.72206575606669 -5.011603571649396
v -13.79611556687692 6.471486529433349 -8.13205615516626
v 10.804221865440411 9.941263585534587 -2.116292618477228
v 5.404399751028421 9.137578606669162 4.912517856452243
v -5.1383475108814025 6.552542212151286 -7.865942893069999
v -12.265622818493327 14.835402761610046 -2.1432261316013417
v -9.97331692338026 15.951813025768436 -1.9365000054710213
v 9.342254429856212 0.8675470939142512 -0.9841011763976142
v 9.150349412478143 0.8884019758028278 0.06439753905132563
v -0.4705353572099946 15.185399281179881 -2.3849363692250103
v 9.874593514026841 7.504060604287567 0.16435628694899276
v -14.927212381499722 1.759428843163365 -0.5860315912594053
v -13.16136140015658 0.4607884418175379 -0.2226304516799594
v -10.033130421494008 -0.3367119996791775 2.1677837435862513
v -4.606750385312353 1.8908294963394594 -7.467627666470432
v -4.661868944871372 4.757023420150577 -7.602081903925953
v -14.60681119694982 8.867045036205244 -6.885572293680789
v -4.380655190781013 9.2373724292853 7.310639620392866
v 1.5789241437854429 8.66100373051187 -6.727453538823628
v 7.407109571834436 9.547394387814581 4.925017598670522
v 8.199298675373967 9.701503501329569 5.635792456204965
v -7.561673949025405 16.257789061210698 -1.1491236691114746
v 7.934064210934988 0.15149486449641764 0.7761001762672234
v 0.8374310544707386 -0.3746983262102506 -5.449045952107024
v -2.5722815415498257 -0.09917826436588001 -5.561282971109785
v 9.82078434927498 8.720055659088422 1.6809258183623095
v -14.073642416142462 13.675601336107382 -1.9484806447982828
v -4.010146051418495 11.276632692399545 -7.806601279710053
v 3.819141302574991 12.551561993819515 5.639417861541433
v -4.010146051418495 11.276632692399545 -7.806601279710053
v -15.958696008651785 4.666607530037215 1.5616840516848287
v 9.72469880302178 4.943495830725962 -4.682523474477895
v 11.924247475171512 14.705188800385933 2.319236691938537
v 7.300467327971738 13.060213029340046 7.279268835310391
v 6.928370320907895 13.87183647682621 6.61835906514266
v 9.59069802781869 11.78298289035464 -3.8434809902773104
v 4.595224277781895 13.226575739099532 6.978673531416988
v 0.663665220208498 4.890385672978615 6.802174573065251
v 4.247198486763271 1.919173324181278 5.897848638446635
v 3.6741935385571356 5.844433245403419 6.27337918714109
v -9.24974897690678 2.017104851085872 -7.120285203657101
v -14.40715280755267 1.8200421830332665 2.018170015118384
v -12.929168412182435 0.25482091832322373 2.0793434693652686
v 6.13022695190697 -0.24060766003671308 -3.9416454949508615
v 6.483569000283573 1.8648709890162947 -5.819153005789174
v 7.034109435213143 4.5419801630419645 -5.865935934491256
v -4.151992705047292 10.58782084582426 6.3182878905752435
v -11.461184245470513 2.0061129003441205 -6.511501493549825
v -8.701505466516934 0.7958919121901268 -6.284610260649205
v 7.32494957763814 0.4840023678060942 6.018498207337495
v 7.009125552867523 2.657655940210421 6.131369974399753
v 4.896117100951436 -0.14720725115324165 5.888525378356814
v 8.370332530803992 0.8920870191017883 -4.044552857976226
v 6.056010110914478 0.17001468943002015 -5.403067495737161
v 9.04729155345354 2.549716439906137 -4.24123414628622
v 8.370332530803992 0.8920870191017883 -4.044552857976226
v 8.922121802222982 0.6722412245182583 -2.7512200358967367
v 6.056010110914478 0.17001468943002015 -5.403067495737161
v -2.5722815415498257 -0.09917826436588001 -5.561282971109785
v -4.440005203187347 -0.11856526729775023 -5.540448045626411
v -4.616585628317615 0.4114447049287291 -7.009356409079879
v 0.9638358735180819 -0.7670452907105126 4.093256507017442
v -15.371809615824894 6.312031421383475 -6.9795722148232215
v -13.79611556687692 6.471486529433349 -8.13205615516626
v 5.806594242008156 8.572535439611023 -5.139211505924673
v 8.770482820932202 9.732582035844604 -4.864789532322373
v 9.782840510096236 7.136484166297622 -4.750668151679551
v 9.782840510096236 7.136484166297622 -4.750668151679551
v 8.770482820932202 9.732582035844604 -4.864789532322373
v 10.046547665151628 10.809355840943235 -3.7251384347013197
v 5.68899904886635 10.577640366408872 6.279524846835628
v 4.8927201131123255 7.0965093271448865 6.032407423291554
v -0.9110192452888355 6.194206393064682 7.65646959530458
v 9.82078434927498 8.720055659088422 1.6809258183623095
v -16.79892502429503 6.2607422289579615 -4.7402081093345325
v -10.196773301137085 0.9607677500832765 -5.696562796229719
v 8.922121802222982 0.6722412245182583 -2.7512200358967367
v 8.370332530803992 0.8920870191017883 -4.044552857976226
v 9.04729155345354 2.549716439906137 -4.24123414628622
v 9.86884858007322 2.597671754396549 -2.5262955518364927
v 9.72469880302178 4.943495830725962 -4.682523474477895
v 0.5731090775182301 0.22015815315562606 -6.961329340414612
v 8.770482820932202 9.732582035844604 -4.864789532322373
v 6.735965578199199 10.491940411277232 6.758580254753292
v 10.41471362677111 8.084820184911425 -2.343191457986312
v 8.929213324281271 0.33074912235694653 3.509102212192565
v 4.479463953983842 11.063820838011484 -4.341348923048403
v 6.963014447025628 12.151757314588291 -3.730457294949996
v -6.93117603068405 12.999864967732462 -7.533075374862583
v -9.94082810116943 9.013707432606754 -8.803177197961633
v -12.532851892720487 9.34647691710954 -8.20153561065613
v 9.82078434927498 8.720055659088422 1.6809258183623095
vt 0.1802082359790802 0.6261963248252869
vt 0.08151930570602417 0.6037617325782776
vt 0.22626462578773499 0.7229120433330536
vt 0.31668904423713684 0.08725893497467041
vt 0.3282642364501953 0.10760557651519775
vt 0.24270296096801758 0.1226348876953125
vt 0.3544602394104004 0.4964982271194458
vt 0.48819902539253235 0.5857379138469696
vt 0.2588130533695221 0.5925993323326111
vt 0.7872852683067322 0.5515179634094238
vt 0.8720400929450989 0.5083467364311218
vt 0.8811963796615601 0.46647918224334717
vt 0.4904029965400696 0.1402645707130432
vt 0.5812072157859802 0.21344703435897827
vt 0.46562665700912476 0.1640465259552002
vt 0.10460684448480606 0.6299817562103271
vt 0.06431865692138672 0.5811324119567871
vt 0.0731281191110611 0.5681456923484802
vt 0.0787268579006195 0.22205805778503418
vt 0.09179003536701202 0.25651252269744873
vt 0.1426886022090912 0.17734837532043457
vt 0.3442547917366028 0.4553055167198181
vt 0.2921586334705353 0.46410417556762695
vt 0.40521150827407837 0.09905707836151123
vt 0.4805756211280823 0.12718701362609863
vt 0.48842498660087585 0.276577353477478
vt 0.46976369619369507 0.2895124554634094
vt 0.45858192443847656 0.31632333993911743
vt 0.4693286716938019 0.4702463746070862
vt 0.49006134271621704 0.4043354392051697
vt 0.47886812686920166 0.3634606599807739
vt 0.8806502819061279 0.6255379915237427
vt 0.8062034845352173 0.6791181564331055
vt 0.8506924510002136 0.7256111800670624
vt 0.805325984954834 0.2568123936653137
vt 0.8518182039260864 0.22931510210037231
vt 0.8450415134429932 0.2817000150680542
vt 0.7353025674819946 0.3592301607131958
vt 0.6997363567352295 0.2958458662033081
vt 0.7740347981452942 0.3351919651031494
vt 0.2919972538948059 0.5721470415592194
vt 0.2583608031272888 0.6601501703262329
vt 0.26471251249313354 0.543710857629776
vt 0.8405839800834656 0.5610263347625732
vt 0.8749942779541016 0.6214215457439423
vt 0.8449578881263733 0.6266859769821167
vt 0.6827600002288818 0.26350098848342896
vt 0.6228606700897217 0.22275495529174805
vt 0.4506560266017914 0.11313891410827637
vt 0.38561752438545227 0.7793573588132858
vt 0.3174559473991394 0.7700571119785309
vt 0.4072747528553009 0.8374230414628983
vt 0.3728843629360199 0.44185471534729004
vt 0.2883022427558899 0.33560168743133545
vt 0.38677844405174255 0.4932668209075928
vt 0.40659233927726746 0.3176425099372864
vt 0.3913327753543854 0.3736732602119446
vt 0.43904832005500793 0.3783727288246155
vt 0.023129016160964966 0.39092814922332764
vt 0.03537886589765549 0.48145365715026855
vt 0.026119891554117203 0.38482338190078735
vt 0.041307080537080765 0.4833623170852661
vt 0.6290403604507446 0.7427402436733246
vt 0.5690118670463562 0.6533012390136719
vt 0.6192352175712585 0.6408340036869049
vt 0.3052184283733368 0.5569791197776794
vt 0.28688690066337585 0.6168136894702911
vt 0.3865349292755127 0.5562228560447693
vt 0.17392346262931824 0.5423160791397095
vt 0.581045389175415 0.5459387302398682
vt 0.5965256690979004 0.5985359847545624
vt 0.6725355386734009 0.6352047026157379
vt 0.11894460022449493 0.1790485382080078
vt 0.3472524881362915 0.2352294921875
vt 0.2138272076845169 0.19140350818634033
vt 0.31836339831352234 0.28306466341018677
vt 0.6250542402267456 0.7330637872219086
vt 0.6428928375244141 0.6365621387958527
vt 0.7446593046188354 0.6278577744960785
vt 0.645139217376709 0.5790880024433136
vt 0.5588192939758301 0.6131934225559235
vt 0.37115633487701416 0.6595006585121155
vt 0.05730874091386795 0.3009988069534302
vt 0.7651507258415222 0.7774166315793991
vt 0.7760076522827148 0.8138227015733719
vt 0.8008967638015747 0.7971851080656052
vt 0.13946466147899628 0.30328118801116943
vt 0.1457872837781906 0.672902524471283
vt 0.5425046682357788 0.25561434030532837
vt 0.4438666105270386 0.1805625557899475
vt 0.5104343891143799 0.25637316703796387
vt 0.3412264585494995 0.4350079298019409
vt 0.45896872878074646 0.5012247860431671
vt 0.5271061658859253 0.5113054811954498
vt 0.5186836123466492 0.4851991534233093
vt 0.49029695987701416 0.47676748037338257
vt 0.4926775097846985 0.5180099010467529
vt 0.47337210178375244 0.49143683910369873
vt 0.4006732106208801 0.2764040231704712
vt 0.4133376181125641 0.22662222385406494
vt 0.31972798705101013 0.3835318684577942
vt 0.4420453906059265 0.6078916490077972
vt 0.18545980751514435 0.35435307025909424
vt 0.2651468515396118 0.35279232263565063
vt 0.19148339331150055 0.3939724564552307
vt 0.6947904229164124 0.5594761967658997
vt 0.6345914602279663 0.5213074088096619
vt 0.6683308482170105 0.7773909568786621
vt 0.6151056885719299 0.6844878494739532
vt 0.6382917761802673 0.8489231765270233
vt 0.8330274820327759 0.21735787391662598
vt 0.7421339750289917 0.21689683198928833
vt 0.8012970089912415 0.22676044702529907
vt 0.9154088497161865 0.4656151533126831
vt 0.9032674431800842 0.5173896253108978
vt 0.911442220211029 0.49581652879714966
vt 0.39854365587234497 0.17275333404541016
vt 0.4500701427459717 0.14566397666931152
vt 0.1784021407365799 0.4888365864753723
vt 0.14310672879219055 0.4089852571487427
vt 0.734921395778656 0.6508390605449677
vt 0.7321067452430725 0.7315402626991272
vt 0.6500964164733887 0.24321162700653076
vt 0.4289166331291199 0.28944432735443115
vt 0.35083040595054626 0.7682764232158661
vt 0.04660262167453766 0.34285807609558105
vt 0.12485672533512115 0.2694602608680725
vt 0.11952531337738037 0.33120274543762207
vt 0.6315122246742249 0.25873762369155884
vt 0.7285274267196655 0.22817546129226685
vt 0.682708740234375 0.22079581022262573
vt 0.709516167640686 0.621865838766098
vt 0.7450746893882751 0.6361003220081329
vt 0.781345546245575 0.616967111825943
vt 0.7442362308502197 0.7490698397159576
vt 0.05847138911485672 0.26559770107269287
vt 0.029223013669252396 0.3258751630783081
vt 0.6770482063293457 0.3215240240097046
vt 0.8708881139755249 0.32142943143844604
vt 0.8560817241668701 0.39613455533981323
vt 0.8070511817932129 0.35480791330337524
vt 0.08817990124225616 0.4159860610961914
vt 0.6430993676185608 0.39380931854248047
vt 0.6850979924201965 0.4785323143005371
vt 0.7108365297317505 0.4813498258590698
vt 0.3544301688671112 0.15608829259872437
vt 0.28160524368286133 0.21991729736328125
vt 0.677288293838501 0.3731476068496704
vt 0.6202059388160706 0.37366729974746704
vt 0.21696752309799194 0.15788203477859497
vt 0.29992640018463135 0.14432275295257568
vt 0.190268412232399 0.2519696354866028
vt 0.34796690940856934 0.13429170846939087
vt 0.8140367865562439 0.35392510890960693
vt 0.8631012439727783 0.33346349000930786
vt 0.8460599780082703 0.2987281084060669
vt 0.7188149094581604 0.36645686626434326
vt 0.7589515447616577 0.31272953748703003
vt 0.6927403807640076 0.3090555667877197
vt 0.10187069326639175 0.36311614513397217
vt 0.42719489336013794 0.4798719882965088
vt 0.6229838132858276 0.6236326396465302
vt 0.40891551971435547 0.3981260061264038
vt 0.32645347714424133 0.34659135341644287
vt 0.3629875183105469 0.3600442409515381
vt 0.07065750658512115 0.5000283122062683
vt 0.3214884102344513 0.34610438346862793
vt 0.1635170727968216 0.2584409713745117
vt 0.13119226694107056 0.32248997688293457
vt 0.1248367503285408 0.37058693170547485
vt 0.11885427683591843 0.421092689037323
vt 0.4005122780799866 0.19083166122436523
vt 0.4550749957561493 0.23345792293548584
vt 0.4462478756904602 0.24004006385803223
vt 0.5534348487854004 0.25121843814849854
vt 0.5384495854377747 0.3328556418418884
vt 0.48539674282073975 0.2901265621185303
vt 0.4643899202346802 0.3027248978614807
vt 0.12394373118877411 0.1928982138633728
vt 0.15937915444374084 0.17185598611831665
vt 0.6694496870040894 0.39343345165252686
vt 0.3397158086299896 0.22548800706863403
vt 0.37957707047462463 0.14872992038726807
vt 0.4714404344558716 0.4655064344406128
vt 0.4803099036216736 0.5094593167304993
vt 0.463702529668808 0.3095530867576599
vt 0.9226368069648743 0.21937626600265503
vt 0.8508754968643188 0.2635273337364197
vt 0.8842899203300476 0.2764018774032593
vt 0.9111778140068054 0.23368418216705322
vt 0.9102783799171448 0.21375977993011475
vt 0.9607477188110352 0.1335005760192871
vt 0.8972824215888977 0.2744285464286804
vt 0.8837910890579224 0.25256121158599854
vt 0.4849955141544342 0.3604447841644287
vt 0.515664279460907 0.36138439178466797
vt 0.6009730696678162 0.24685752391815186
vt 0.5349841117858887 0.22625648975372314
vt 0.5584304928779602 0.3741646409034729
vt 0.875278115272522 0.19238293170928955
vt 0.8881154656410217 0.19598597288131714
vt 0.8624407649040222 0.21647495031356812
vt 0.9109572172164917 0.38366132974624634
vt 0.9022786617279053 0.3456265330314636
vt 0.8995151519775391 0.3323380947113037
vt 0.7596955299377441 0.46789491176605225
vt 0.7910263538360596 0.4714999198913574
vt 0.7675888538360596 0.3967975378036499
vt 0.7396664619445801 0.45026493072509766
vt 0.7393480539321899 0.5591087937355042
vt 0.9029682874679565 0.4141005873680115
vt 0.908856987953186 0.459317684173584
vt 0.9064173698425293 0.39041900634765625
vt 0.9089668393135071 0.42694705724716187
vt 0.9111068248748779 0.43650269508361816
vt 0.6012463569641113 0.3430851697921753
vt 0.5754674077033997 0.3910596966743469
vt 0.9006595611572266 0.36002975702285767
vt 0.8928499817848206 0.38385099172592163
vt 0.7807921171188354 0.26576316356658936
vt 0.7581560611724854 0.21481382846832275
vt 0.6415693759918213 0.23558223247528076
vt 0.8846791386604309 0.5173824429512024
vt 0.9048312306404114 0.45673471689224243
vt 0.8955783247947693 0.4895673990249634
vt 0.4755958020687103 0.20338183641433716
vt 0.6953965425491333 0.6258511245250702
vt 0.7311111092567444 0.6319628655910492
vt 0.5025695562362671 0.5583554804325104
vt 0.5050578713417053 0.5036591589450836
vt 0.8525000214576721 0.5644686222076416
vt 0.8089953660964966 0.6001268625259399
vt 0.8666247725486755 0.5447068214416504
vt 0.5179494619369507 0.5368236303329468
vt 0.4917945861816406 0.3970978260040283
vt 0.7783435583114624 0.23910051584243774
vt 0.7243517637252808 0.7868000566959381
vt 0.7239219546318054 0.7703369408845901
vt 0.7646236419677734 0.7268309593200684
vt 0.7267898321151733 0.8178550899028778
vt 0.7208195328712463 0.8308583796024323
vt 0.744549572467804 0.7931649386882782
vt 0.80495685338974 0.7562228143215179
vt 0.8137871623039246 0.705124706029892
vt 0.5541186332702637 0.8989700973033905
vt 0.697294294834137 0.8959124088287354
vt 0.6377435326576233 0.9247498065233231
vt 0.8194003701210022 0.7669305056333542
vt 0.6704820990562439 0.27288317680358887
vt 0.5876212120056152 0.24411439895629883
vt 0.8370043039321899 0.5911644101142883
vt 0.3622283637523651 0.1002957820892334
vt 0.18822497129440308 0.6818984150886536
vt 0.6642780303955078 0.23384201526641846
vt 0.31747323274612427 0.2982712388038635
vt 0.5881832838058472 0.5864172577857971
vt 0.5566310286521912 0.5793072283267975
vt 0.3140632212162018 0.3326016664505005
vt 0.21152763068675995 0.11742401123046875
vt 0.2583424150943756 0.09950858354568481
vt 0.8016940951347351 0.7972343116998672
vt 0.7753191590309143 0.8130122870206833
vt 0.5408101081848145 0.19294750690460205
vt 0.8172779679298401 0.6125913858413696
vt 0.14323927462100983 0.5007615387439728
vt 0.17720970511436462 0.5563909709453583
vt 0.196743905544281 0.6436172723770142
vt 0.2088233381509781 0.5138163864612579
vt 0.2738133370876312 0.39298826456069946
vt 0.27103468775749207 0.23859620094299316
vt 0.1832597404718399 0.4891092777252197
vt 0.44082406163215637 0.32381343841552734
vt 0.6278411746025085 0.6054750084877014
vt 0.6404339075088501 0.6129900813102722
vt 0.3042236566543579 0.11134332418441772
vt 0.7216773629188538 0.8300469815731049
vt 0.8453530669212341 0.6261260807514191
vt 0.8402301669120789 0.561458021402359
vt 0.7380857467651367 0.6219590902328491
vt 0.16503755748271942 0.144492506980896
vt 0.5901153683662415 0.2678423523902893
vt 0.4848085343837738 0.44426798820495605
vt 0.5188063383102417 0.21978628635406494
vt 0.06000693887472153 0.43977534770965576
vt 0.530616283416748 0.7070917189121246
vt 0.8706289529800415 0.4070900082588196
vt 0.5662201046943665 0.4986521005630493
vt 0.573136568069458 0.4533426761627197
vt 0.9000390768051147 0.3943834900856018
vt 0.4799017012119293 0.43716686964035034
vt 0.3580719828605652 0.69390469789505
vt 0.49296706914901733 0.8232357203960419
vt 0.4647102952003479 0.6947578489780426
vt 0.11718273907899857 0.42466801404953003
vt 0.09476397931575775 0.5368939340114594
vt 0.13092857599258423 0.5952216386795044
vt 0.8227790594100952 0.740494579076767
vt 0.3250609040260315 0.5913169980049133
vt 0.39144593477249146 0.47102856636047363
vt 0.21772821247577667 0.43305277824401855
vt 0.34383052587509155 0.4565902352333069
vt 0.106585793197155 0.480390727519989
vt 0.5885752439498901 0.9185329303145409
vt 0.5771818161010742 0.8472070842981339
vt 0.5134293437004089 0.8964285999536514
vt 0.3616880476474762 0.7581158578395844
vt 0.317678302526474 0.7273405194282532
vt 0.3350992500782013 0.6567037105560303
vt 0.8497777581214905 0.725950300693512
vt 0.8190550208091736 0.7671804577112198
vt 0.859552800655365 0.6979728043079376
vt 0.19309231638908386 0.671724259853363
vt 0.14386028051376343 0.6100339591503143
vt 0.17348040640354156 0.579977422952652
vt 0.4377795457839966 0.8221271187067032
vt 0.2602176368236542 0.3033745288848877
vt 0.3181939125061035 0.29942482709884644
vt 0.5155017971992493 0.36300116777420044
vt 0.6054037809371948 0.4135439395904541
vt 0.5194774270057678 0.47715532779693604
vt 0.5699099898338318 0.6498197615146637
vt 0.5470008254051208 0.5834199488162994
vt 0.5700467824935913 0.5785315930843353
vt 0.5214170217514038 0.5749271214008331
vt 0.5065889954566956 0.6780189871788025
vt 0.2921285629272461 0.6532808542251587
vt 0.7413655519485474 0.6194204092025757
vt 0.18236719071865082 0.3163086175918579
vt 0.07224645465612411 0.5008600652217865
vt 0.6796079874038696 0.8878813609480858
vt 0.6011236310005188 0.8958165198564529
vt 0.5346327424049377 0.8156661987304688
vt 0.6892737746238708 0.8499436378479004
vt 0.38801470398902893 0.5558798611164093
vt 0.8746264576911926 0.6229541003704071
vt 0.88320392370224 0.442288339138031
vt 0.5562371611595154 0.5800794064998627
vt 0.8878567814826965 0.5568574965000153
vt 0.6607239842414856 0.8128586113452911
vt 0.7355661988258362 0.3624002933502197
vt 0.7874754667282104 0.40579158067703247
vt 0.42571550607681274 0.15198034048080444
vt 0.27477696537971497 0.21814996004104614
vt 0.329221248626709 0.21627110242843628
vt 0.741213858127594 0.618751049041748
vn -0.050080134891803324 -0.24977043622051845 0.9670091567712431
vn -0.24340001137742293 -0.2726666610701503 0.9308111120965016
vn -0.025734438625454124 -0.6528002358503313 0.7570928547690731
vn -0.2631005712115303 0.9329231950991185 -0.2458300255750278
vn -0.3560725349146915 0.759300177235747 -0.5446793467070224
vn -0.5648097428750922 0.7542694305525921 -0.33476496305205067
vn -0.26284386047741676 -0.8694875968614818 -0.4182157623923012
vn -0.0659635095988523 -0.9815631123991297 -0.17939529475082555
vn -0.13912193778209375 -0.9813070867259932 -0.13297175628342855
vn 0.9187975558322539 0.2076246860001533 0.33571273607060853
vn 0.973580865335717 0.11325006815534162 0.19827940063195493
vn 0.8780216642324471 0.39665393730444665 0.26784997883024725
vn 0.10221689737530347 0.6308215211066812 -0.7691657262252521
vn 0.17723312985491374 0.4376044926191726 -0.8815274957262239
vn 0.0028831067495025758 0.4487137836762093 -0.8936708723207056
vn -0.38242536355989337 -0.7429983830079303 0.5492761092143772
vn -0.5015729532655014 -0.31488786085508597 0.8057730497097995
vn -0.7033476574556526 -0.4685290011065223 0.5345864269449518
vn -0.5386131109328741 0.6411195935105202 0.5466823424513696
vn -0.21658608972639334 0.6775737096625234 0.7028401907341363
vn -0.2819743093303757 0.8719458440848423 0.40025108851923125
vn -0.3044564180420365 -0.6736547372092662 -0.6734208079266094
vn -0.4268876422732459 -0.8009040684349887 -0.4199042915220943
vn -0.06554945581258503 0.8276019409200033 -0.5574749287888355
vn 0.1722361997388885 0.7933701314568998 -0.5838651608133227
vn -0.8756849180404833 0.4453465937910315 -0.18666101819918915
vn -0.44954259243404965 0.8569612515881351 0.2520493421220754
vn -0.5045416391081662 0.642107704543541 0.5771788545779112
vn -0.05254241684467403 0.32562086271236884 0.9440393785211361
vn -0.7278938039850357 0.07965276684847859 0.6810477566614375
vn -0.40146707780247637 0.1131843597125784 0.9088528407598196
vn 0.9957753719715828 -0.07628891477626744 -0.05110195746852786
vn 0.8874770260023453 -0.1009042340480751 0.4496697275436758
vn 0.945862730068319 -0.29997586063723153 -0.12392811990286394
vn -0.23823874542246706 0.5465804074274423 -0.8028026895794383
vn -0.7510830697524692 0.4567454174225524 -0.4767156867512393
vn -0.23668674165127118 0.2838312964030847 -0.9292035199613962
vn 0.33217417396665616 0.5180481455889838 -0.7882172524129275
vn 0.28930391732103045 0.6300883065259735 -0.7206191569767886
vn -0.053800852581568956 0.42397771708892656 -0.9040732070322395
vn 0.15093888612404513 -0.062057120522013516 -0.9865933136040141
vn 0.08236755253090233 -0.64842175448303 -0.7568122717049571
vn 0.049687562121170904 -0.09986284466795188 -0.9937598092221678
vn -0.028687047042521327 -0.9840110257056968 -0.1757821225881718
vn 0.08236755253090233 -0.64842175448303 -0.7568122717049571
vn 0.004709436640845895 -0.982120583913501 -0.1881939952812776
vn 0.40846877260424175 0.5104034373586283 -0.756730858984673
vn 0.3088805191385176 0.9059937174976188 -0.2894273807910452
vn 0.13484127775512406 0.9264283341685359 -0.3514944828344781
vn 0.021240899246369946 -0.22659555505154058 0.9737572996543286
vn -0.03757268121849539 -0.6584483232420512 0.7516875010573109
vn -0.0674673444356381 -0.6811586385348954 0.7290206215081233
vn -0.12699707841372962 0.42175088373999786 0.897773876952826
vn 0.01642353062870841 0.6945033544429066 0.7193019938170881
vn 0.008272875595260827 0.5553856361725618 0.8315517750943618
vn -0.2650481112317768 0.7508301976823266 0.6049822418722601
vn -0.265068182057517 0.42325569995668744 0.8663679768521556
vn 0.006869523071521863 0.4231735002589478 0.9060226257281659
vn -0.7584066677009035 0.07811915666650186 0.6470832432914068
vn -0.53384518637931 -0.05115216805767176 0.844033632435722
vn -0.48008927853515726 0.22028325989940617 0.8491110469447933
vn -0.7627772412774633 -0.1762469834848441 0.622179942622418
vn 0.9957753719715828 -0.07628891477626744 -0.05110195746852786
vn 0.6929847159096507 0.04054608854164038 -0.7198112240161265
vn 0.9863571166819367 -0.1518310746796309 -0.06361574594803418
vn 0.12355637029065365 0.4205464561970345 0.8988183918571728
vn 0.13168552113227064 0.11511686485235596 0.9845846997342009
vn 0.14503262538386394 0.36887832518520275 0.9180927615349245
vn -0.0733254106764203 0.0544474780150206 0.9958206948476911
vn 0.20100666543637186 0.0474345938198704 0.9784407390124832
vn 0.1032098290627405 -0.5028202241979998 0.8582071738935263
vn 0.23379795254859678 -0.7329607886625367 0.6388325286546362
vn -0.5955167416649151 0.7503505821544817 0.28693869424884694
vn 0.0374280866162472 0.8930846140892921 0.4483291317873813
vn -0.01400233716342463 0.8746746998635789 0.48450810516700304
vn -0.03793508963721195 0.7823395019227367 0.6216959326756939
vn 0.13366830277505926 -0.9748431697505783 0.17836361519065635
vn -0.02234091631328977 -0.9930103924507412 0.1158932437336505
vn -0.003877963584489129 -0.999432555058638 -0.03345936770771116
vn -0.06862277707299475 -0.978930181106098 0.19231904478332956
vn -0.028687047042521327 -0.9840110257056968 -0.1757821225881718
vn -0.03461479923442628 -0.9979437051222665 -0.05394605713861609
vn -0.39086395127974544 0.4551177986716792 0.8000582234576615
vn 0.647957759466274 0.22729560660221354 0.7269714225241443
vn 0.7490718102509033 -0.6219186789281833 0.2282730380217035
vn 0.788278064237782 -0.6150233475207287 -0.019078140526061434
vn -0.022713584170844146 0.6909839296822867 0.7225131846651234
vn -0.1544115397783111 -0.671611669322319 0.7246342815609672
vn -0.01932537873079118 0.9713783793357998 -0.23675002406729867
vn 0.14337517635460928 0.9860582276698002 0.08445549390049853
vn -0.30830473374657025 0.9504113932454977 -0.04082125351588551
vn 0.14690297594793253 0.1237751213884567 -0.9813761944243982
vn 0.15734888264592087 0.32167911127274657 0.9336829646624468
vn -0.16674309699157622 -0.2828654001537892 0.9445548713555472
vn -0.14607089247307173 -0.47739966819735963 0.8664599535911461
vn -0.5968633585913958 -0.3183610865286757 0.7364783430320812
vn -0.6441872046097888 -0.6155540729007213 0.4540000316655934
vn -0.8138162627912879 -0.2575561005409498 0.5209298853881982
vn 0.18395860435822475 -0.04906275828434938 -0.9817087539754882
vn 0.13267049130281977 0.2103082141705942 -0.968591242883108
vn 0.35559886013929054 0.20483585844571017 -0.9119165103025858
vn 0.30680055266940837 0.19188031993071164 0.9322313895729072
vn -0.8944841028986728 -0.24243903324613025 -0.37566142311959366
vn -0.6472923022907714 -0.43485999447621665 -0.6260267251477826
vn -0.7051668265551712 -0.6365823805242552 -0.3122540945002665
vn 0.16246877558549752 0.12779936020311194 0.9784023816873221
vn 0.2054337246304228 0.5001065868609863 0.841243357514772
vn 0.9804388406108365 0.11655909316101494 0.15859904672841088
vn 0.6721098498453756 0.3058928788154103 0.6743129069140287
vn 0.7828606853193331 0.09140564714031332 0.6154463055801087
vn -0.43953007535468674 0.8714761990601754 -0.21758342613887913
vn -0.3304107122402738 0.858208080327202 -0.3928201269003079
vn 0.23142868895467614 0.9668588448382955 0.10781806938856234
vn 0.8941769893831243 0.09628066422296791 -0.43723854513813837
vn 0.9302678209017425 -0.3158389370242955 -0.1866749775789094
vn 0.8615038988198893 -0.270579795415334 -0.4296482359222786
vn 0.12146041925300426 0.9569639120696259 0.2635667610896369
vn 0.20199633028620295 0.9787134529119794 -0.036296826858802096
vn -0.5578236658059053 -0.8049879516087403 -0.2020573077907016
vn -0.8126595008471155 -0.576987934657396 -0.0816667554315065
vn 0.8645976882910277 -0.07522478144267906 0.4968018414405407
vn 0.9402379067986579 -0.13955366143565887 0.310608200469305
vn -0.364666962692036 0.821946834403355 -0.4375173227830741
vn -0.19627585853542384 0.9188796069906869 0.3422514502713213
vn -0.06862277707299475 -0.978930181106098 0.19231904478332956
vn -0.9042006167631271 0.1546089801579756 0.3981423211612793
vn -0.9494507123637955 0.3133283759831697 -0.019200874866286244
vn -0.9925261517343771 0.11532187858088244 0.03990867629882482
vn -0.1508556336869437 0.9492631004039844 0.27593865984367916
vn 0.01269944891070566 0.9865333296396529 0.16306659224827244
vn -0.3645486700847363 0.9105375360729888 -0.1950016988171664
vn 0.11476255081755794 -0.9602305964647955 0.2545324312198949
vn 0.44039562201795474 -0.8733386625960384 0.20816165958788316
vn 0.7898501665059835 -0.5124306072194953 0.3369741640766092
vn 0.17918642995133277 -0.9835395653192204 -0.023284045459824466
vn -0.8152322176827351 0.43027142064783436 0.387637634687067
vn -0.7037722023741536 0.33675329872238413 0.6255412879778809
vn 0.35559886013929054 0.20483585844571017 -0.9119165103025858
vn 0.15401785379338573 0.28698638144863897 -0.9454720078224927
vn 0.10544468004121468 0.3462853252573579 -0.9321844736758983
vn -0.152089296027685 0.535500980992302 -0.8307271184872235
vn -0.1787073772241286 0.3164679489407066 0.9316177921330911
vn 0.1721502443364848 0.3617144036467931 0.916257051033897
vn 0.026785351075956487 0.30761456785693597 0.9511339666997116
vn -0.06884238004304843 0.3537793425646644 0.9327919936859033
vn 0.13267049130281977 0.2103082141705942 -0.968591242883108
vn -0.023288180549275173 0.12527397236758037 -0.991848825423487
vn 0.2841820424302357 0.4092287506615611 -0.8670480934712661
vn 0.23008108811131966 0.16576138317420908 -0.9589503932642627
vn -0.7439925297046004 0.535307911394325 -0.3999006823479983
vn -0.5441999213422446 0.5455239346299453 -0.637377503805208
vn -0.854552584299481 0.3419785885515037 -0.39088428676451054
vn -0.2184362899427199 0.5171224658808322 -0.8275686935338887
vn 0.6789961814188742 0.6648372684901308 0.3113769292114762
vn 0.687479275708881 0.7244767027983443 -0.05005749267823696
vn 0.6842822889043376 0.729085189859233 -0.013875698892917447
vn 0.43542935656351 0.7057337947695527 0.5588748396223027
vn 0.3554081831806744 0.9071924671587038 0.2251374043972176
vn 0.13415604961251362 0.9235812075420261 0.3591655710498677
vn -0.10018594906265758 0.5111391322084349 0.8536390121917007
vn -0.04457890307198049 0.42124701016159993 0.9058496993601157
vn 0.6340437277202481 -0.035179860283305824 0.772496555829901
vn 0.2371347962854733 0.08996405967726043 -0.9673022052890364
vn 0.1831331306487302 -0.07115554021467044 -0.9805096356260624
vn 0.18569698835849527 0.008370902712816049 -0.9825714002057853
vn -0.25384395736210214 0.018754661748303914 0.9670633422757032
vn -0.3892807551118038 -0.3915719743919541 -0.8337456941840062
vn -0.06575873174874443 -0.15238814480987214 -0.9861306417104186
vn -0.027366099137968957 -0.3264049550444832 -0.9448337959347028
vn -0.9811388825691241 -0.19039740900247568 0.0333964033415981
vn -0.8613223950976988 -0.4850510068297006 0.15115969197063492
vn -0.7668522226409513 0.5088734422467207 0.39113359406551385
vn -0.8482931487704627 -0.3174182432656391 -0.4238447741700365
vn -0.3956052637278219 0.40863157651765897 0.8225063586280249
vn -0.4212044529753284 0.7982354220258231 -0.4305891543188363
vn -0.01831495989425761 0.517132910165386 0.8557091301768087
vn -0.07137094579717901 0.7616568812123015 0.6440380294656258
vn -0.4164829019088434 0.07354989313626675 0.9061635645054552
vn -0.8553055182237345 0.4984920900069458 0.14127316339820556
vn -0.8325987535702711 0.5258149270004067 -0.17406314399317316
vn 0.10544468004121468 0.3462853252573579 -0.9321844736758983
vn -0.36110431039135954 0.2644022146406846 -0.8942567561443874
vn -0.2184362899427199 0.5171224658808322 -0.8275686935338887
vn -0.7042375054369371 0.08594918370668102 0.7047427003922176
vn -0.45985758200436616 -0.38999449042045 0.7977689525889003
vn -0.7188778230773568 -0.21824652247980228 0.6599872202649332
vn 0.9846195599246688 -0.11964139951608252 -0.12731951042783965
vn 0.7800193702545476 0.6214424234277723 0.07334232333323314
vn 0.9705210682810682 0.16882096442271066 -0.17201260998531456
vn 0.7970887442679331 -0.3721223363686264 -0.47557806986542656
vn -0.2446807669965322 -0.35106534264824496 -0.903816600563001
vn 0.2023575346836844 0.5947421991981623 -0.7780315833240158
vn 0.6522060869150713 -0.025822590107218612 -0.7576017516024399
vn -0.41689398669777306 -0.04953043041328439 -0.9076046167347938
vn -0.5415709419999243 -0.0994969849772871 0.8347462277613144
vn -0.19233867329141557 0.10847137160671295 0.9753152291942623
vn -0.19319182658187276 0.980093173806867 0.0457634002139483
vn -0.14836321828708518 0.8774312932304911 -0.4561827277740432
vn -0.15960859150640402 0.33174190979138707 0.9297700806141834
vn -0.8395494097037138 0.5431485671158967 -0.012100525033822878
vn -0.9166212422826171 0.17489461217968902 -0.3594681805484149
vn 0.2971212454744819 0.9547634383290563 0.012072378298041832
vn 0.8728091315909975 0.14260299211169863 -0.46676397295866734
vn 0.7317265054787636 0.2020120692242906 -0.6509742276523373
vn 0.8611784649541427 0.3149547033332512 -0.3989676507531531
vn 0.8949923356188757 0.4238035532288374 0.13920943737434602
vn 0.7830703807527912 0.511391774587304 0.35394806352362884
vn 0.8469591450159797 0.3763251226259017 0.37555240480444374
vn 0.6688354142262285 0.4486756779566029 0.5927472688144686
vn 0.6079152956069965 0.2425021086381918 0.7560633046730205
vn 0.9477074795052839 0.2944901514400918 -0.12298814574800922
vn 0.9846156084500604 0.11628588961353394 -0.13042122324723923
vn 0.7632067476935358 0.2148522843090358 -0.6093881818695245
vn 0.8814459808681713 0.054692019177919146 -0.4691074139784935
vn 0.7373891446801475 0.1706768544623397 -0.6535492794416667
vn 0.017159340507807357 0.683109267449737 0.7301145702953892
vn -0.055305639909321073 0.4116270740164366 0.9096727093470967
vn 0.7982482195018464 0.45481727939873207 -0.394893684961494
vn 0.8876170102352882 0.46053082584740923 0.006884880919200243
vn 0.4160668718045731 0.8712707905887742 0.2603374111678325
vn -0.12039656334716703 0.970376528523253 -0.2094613578332582
vn -0.41084132613278634 0.8600546409388494 -0.3025151555558833
vn 0.9566063216983965 -0.0926108041966686 -0.27627447264036215
vn 0.9188428906111374 -0.015106907633954492 -0.3943342791529904
vn 0.9019992102613791 -0.28784407653058947 -0.3217813112878071
vn -0.11573226244037511 0.8084854902705213 -0.5770244842746857
vn 0.2466419796009364 -0.9330438581866528 0.2619100849503444
vn 0.5187755875813104 -0.6564261683682736 0.5477011732788356
vn -0.0907146769267002 -0.2618890376518496 0.9608251554512258
vn -0.11138900918554201 0.1625644236420466 0.9803903797970441
vn 0.9062080719567424 -0.4141322116603514 0.08533136343542941
vn 0.7112364464830087 -0.7029454412753202 -0.0032285886184906694
vn 0.8207792530148006 -0.5605356797798784 -0.11009618301365122
vn -0.0907146769267002 -0.2618890376518496 0.9608251554512258
vn -0.5981784862183288 0.3304116912595835 0.7300757583323322
vn -0.4213714215726857 0.7853616213833831 -0.45349007567958705
vn 0.8446856922480184 0.2886512073816345 0.45076220093150055
vn 0.7608305148465642 0.4328595255175116 0.4834972170003327
vn 0.7730803890340656 0.13461041230542958 0.6198602656969552
vn 0.9670973671399108 -0.24788081319582442 0.05725194250354525
vn 0.5368324640706139 -0.8433833011336082 -0.022704908915268295
vn 0.4616944778034289 -0.03455624435897665 0.886365655438895
vn 0.975681016321598 -0.04289560284550766 0.21495702278868167
vn 0.9679924191508255 -0.06633172671154589 0.24205532115199918
vn 0.13366830277505926 -0.9748431697505783 0.17836361519065635
vn 0.8478175390838993 -0.5296241218703861 0.026527532013796633
vn 0.6719877327299023 -0.5745039677373074 0.46730897499900054
vn 0.6793746008519979 -0.7102844059933123 -0.18424498451766896
vn -0.04385674627305906 0.8828547194560717 -0.46759398000881214
vn 0.15628041712597748 0.97589284107416 -0.1523469525889345
vn 0.9113368705970005 -0.41102756697731463 0.02283522443890858
vn 0.02046933647640628 0.9970887182827143 -0.07345130453266081
vn -0.09594649387762265 -0.9438936364848881 0.3160048628042379
vn 0.4117806901180034 0.7155048609495456 -0.5643487017824285
vn -0.42879909570192215 0.013968152925933293 -0.9032918831856355
vn 0.9566063216983965 -0.0926108041966686 -0.27627447264036215
vn 0.19281636537431346 -0.06366244768662058 0.9791674739279218
vn 0.18050756251190075 -0.10617522841193681 -0.9778260789873041
vn -0.4922612274519104 0.870350187583058 -0.013016717008298194
vn -0.29618665389866466 0.9517618126886922 0.08014310924744299
vn 0.788278064237782 -0.6150233475207287 -0.019078140526061434
vn 0.7490718102509033 -0.6219186789281833 0.2282730380217035
vn 0.2832469850003652 0.9553113733864096 -0.08456550932132255
vn 0.9268525899170238 -0.20048266078752983 0.31741294757406724
vn -0.7309507602532815 -0.6794493574360415 0.06371465110082851
vn -0.41558377423382953 -0.9045591723896858 -0.09519889830902557
vn -0.13619359361505778 -0.9902511084960366 0.02922408562449024
vn -0.032393950193819125 -0.26096150472101676 -0.9648055374242951
vn 0.14285230700276552 -0.09201837780991955 -0.9854571713317727
vn -0.6905150468892346 0.32716139000289296 -0.6451002983342461
vn -0.005491478996714633 0.37651840945068454 0.9263928599698702
vn 0.26634678525002675 -0.051724673209138664 -0.9624884145632009
vn 0.11966833163843583 -0.8028834495881226 0.5840014184746042
vn -0.06980669745833903 -0.9167170422225656 0.39339152188204385
vn -0.03168336778840405 0.9746512902300657 0.22147466369418656
vn 0.5368324640706139 -0.8433833011336082 -0.022704908915268295
vn 0.004709436640845895 -0.982120583913501 -0.1881939952812776
vn -0.028687047042521327 -0.9840110257056968 -0.1757821225881718
vn 0.6904892356969478 -0.648814688663065 0.31978760945617457
vn -0.6728526120435502 0.7397178766116368 0.009318019496812827
vn 0.13267049130281977 0.2103082141705942 -0.968591242883108
vn -0.8200062292159087 0.13986530624160043 0.5550022343712228
vn 0.13267049130281977 0.2103082141705942 -0.968591242883108
vn -0.8933702162713593 -0.2226805064406971 0.39026023206391364
vn 0.7507662712049712 -0.11961909979934005 -0.6496470403104898
vn 0.8505032874965199 0.3253579071716847 0.4132631004559605
vn 0.14812114626929007 0.43916349522277626 0.8861126059884185
vn 0.0899782409419639 0.4859886421277301 0.8693209740250347
vn 0.5092124864354142 0.3031512930279263 -0.8054824251302816
vn -0.4165586464484042 0.3981075971855444 0.8173060841155081
vn 0.15037696587747693 -0.23883865001154675 0.9593450199975743
vn 0.0015327947419544006 -0.09271742274585573 0.9956912825066038
vn 0.1465215079630459 -0.12807873238257542 0.9808808724893701
vn -0.1300031267308713 -0.47343031219454973 -0.8711847832323336
vn -0.7682956477565773 -0.5616715661242334 0.30699649744883406
vn -0.4703142618216496 -0.8688646853497797 0.15452719397952414
vn 0.22468170481678615 -0.9609294737899541 -0.16165604820848659
vn 0.382842423269765 -0.18380704454335384 -0.9053433875172292
vn 0.3052199859052674 0.005635491553449027 -0.9522651949110288
vn 0.06215615352851756 0.596360018080662 0.8003070294664241
vn -0.3044564180420365 -0.6736547372092662 -0.6734208079266094
vn -0.18168362242286676 -0.7911198122780393 -0.5840552233859956
vn 0.2632663683649168 -0.4412193416642574 0.8579139303154526
vn 0.22749169105098999 0.025729576320044543 0.973440044073158
vn 0.024466453431971385 -0.6245314478786984 0.7806163355112405
vn 0.6218787950877843 -0.5856866418977701 -0.5198441321422017
vn 0.3349901655144571 -0.6729704457977345 -0.659463697326392
vn 0.7417220155827938 -0.28576099594615456 -0.6067858805177159
vn 0.6218787950877843 -0.5856866418977701 -0.5198441321422017
vn 0.6793746008519979 -0.7102844059933123 -0.18424498451766896
vn 0.3349901655144571 -0.6729704457977345 -0.659463697326392
vn -0.028687047042521327 -0.9840110257056968 -0.1757821225881718
vn -0.0659635095988523 -0.9815631123991297 -0.17939529475082555
vn -0.08620661922932023 -0.7238561762197447 -0.6845441219889195
vn -0.02234091631328977 -0.9930103924507412 0.1158932437336505
vn -0.7232316772208711 0.06604442213540392 -0.6874402340342659
vn -0.42879909570192215 0.013968152925933293 -0.9032918831856355
vn 0.19443302257148573 0.11550416671492775 -0.9740916728959375
vn 0.3932195815708342 0.17281571020762795 -0.903057634359342
vn 0.6929847159096507 0.04054608854164038 -0.7198112240161265
vn 0.6929847159096507 0.04054608854164038 -0.7198112240161265
vn 0.3932195815708342 0.17281571020762795 -0.903057634359342
vn 0.7373891446801475 0.1706768544623397 -0.6535492794416667
vn -0.35062977074732454 -0.7200079058070681 0.5988717554209737
vn 0.2611271504438992 0.17675063476181532 0.9489846281222603
vn 0.09204352620186472 -0.17278989114850934 0.9806485827253375
vn 0.6904892356969478 -0.648814688663065 0.31978760945617457
vn -0.9165469222344194 0.1157960840655635 -0.3827962986468054
vn -0.26284386047741676 -0.8694875968614818 -0.4182157623923012
vn 0.6793746008519979 -0.7102844059933123 -0.18424498451766896
vn 0.6218787950877843 -0.5856866418977701 -0.5198441321422017
vn 0.7417220155827938 -0.28576099594615456 -0.6067858805177159
vn 0.945862730068319 -0.29997586063723153 -0.12392811990286394
vn 0.7507662712049712 -0.11961909979934005 -0.6496470403104898
vn 0.08236755253090233 -0.64842175448303 -0.7568122717049571
vn 0.3932195815708342 0.17281571020762795 -0.903057634359342
vn -0.2003915302848546 -0.7497055072647429 0.6307019002405247
vn 0.9863571166819367 -0.1518310746796309 -0.06361574594803418
vn 0.8478175390838993 -0.5296241218703861 0.026527532013796633
vn 0.33217417396665616 0.5180481455889838 -0.7882172524129275
vn -0.152089296027685 0.535500980992302 -0.8307271184872235
vn 0.0028831067495025758 0.4487137836762093 -0.8936708723207056
vn -0.023288180549275173 0.12527397236758037 -0.991848825423487
vn -0.36110431039135954 0.2644022146406846 -0.8942567561443874
vn 0.6904892356969478 -0.648814688663065 0.31978760945617457
f 1/1/1 2/2/2 3/3/3
f 4/4/4 5/5/5 6/6/6
f 7/7/7 8/8/8 9/9/9
f 10/10/10 11/11/11 12/12/12
f 13/13/13 14/14/14 15/15/15
f 16/16/16 17/17/17 18/18/18
f 19/19/19 20/20/20 21/21/21
f 22/22/22 7/7/7 23/23/23
f 13/13/13 24/24/24 25/25/25
f 26/26/26 27/27/27 28/28/28
f 29/29/29 30/30/30 31/31/31
f 32/32/32 33/33/33 34/34/34
f 35/35/35 36/36/36 37/37/37
f 38/38/38 39/39/39 40/40/40
f 41/41/41 42/42/42 43/43/43
f 44/44/44 45/45/45 46/46/46
f 13/13/13 25/25/25 47/47/47
f 48/48/48 25/25/25 49/49/49
f 50/50/50 51/51/51 52/52/52
f 53/53/53 54/54/54 55/55/55
f 56/56/56 57/57/57 58/58/58
f 59/59/59 60/60/60 61/61/61
f 62/62/62 60/60/60 59/59/59
f 63/63/63 64/64/64 65/65/65
f 66/66/66 67/67/67 68/68/68
f 69/69/69 67/67/67 66/66/66
f 70/70/70 71/71/71 72/72/72
f 21/21/21 73/73/73 19/19/19
f 74/74/74 75/75/75 76/76/76
f 77/77/77 78/78/78 79/79/79
f 78/78/78 80/80/80 79/79/79
f 8/8/8 81/81/81 82/82/82
f 20/20/20 19/19/19 83/83/83
f 84/84/84 85/85/85 86/86/86
f 87/87/87 55/55/55 54/54/54
f 88/88/88 3/3/3 2/2/2
f 89/89/89 90/90/90 91/91/91
f 41/41/41 43/43/43 92/92/92
f 93/93/93 94/94/94 95/95/95
f 96/96/96 97/97/97 98/98/98
f 66/66/66 68/68/68 55/55/55
f 99/99/99 100/100/100 101/101/101
f 68/68/68 102/102/102 93/93/93
f 103/103/103 104/104/104 105/105/105
f 70/70/70 106/106/106 107/107/107
f 108/108/108 109/109/109 110/110/110
f 111/111/111 112/112/112 113/113/113
f 114/114/114 115/115/115 116/116/116
f 117/117/117 90/90/90 118/118/118
f 119/119/119 120/120/120 105/105/105
f 121/121/121 122/122/122 33/33/33
f 82/82/82 9/9/9 8/8/8
f 91/91/91 123/123/123 89/89/89
f 108/108/108 122/122/122 121/121/121
f 124/124/124 91/91/91 90/90/90
f 125/125/125 82/82/82 81/81/81
f 108/108/108 121/121/121 109/109/109
f 126/126/126 127/127/127 128/128/128
f 129/129/129 130/130/130 131/131/131
f 132/132/132 133/133/133 134/134/134
f 27/27/27 91/91/91 124/124/124
f 79/79/79 135/135/135 77/77/77
f 19/19/19 136/136/136 137/137/137
f 47/47/47 138/138/138 14/14/14
f 139/139/139 140/140/140 141/141/141
f 142/142/142 83/83/83 61/61/61
f 143/143/143 144/144/144 145/145/145
f 15/15/15 146/146/146 147/147/147
f 138/138/138 148/148/148 149/149/149
f 150/150/150 151/151/151 152/152/152
f 153/153/153 5/5/5 24/24/24
f 141/141/141 38/38/38 40/40/40
f 14/14/14 13/13/13 47/47/47
f 154/154/154 155/155/155 156/156/156
f 157/157/157 158/158/158 159/159/159
f 160/160/160 83/83/83 142/142/142
f 93/93/93 161/161/161 55/55/55
f 109/109/109 121/121/121 162/162/162
f 163/163/163 164/164/164 165/165/165
f 166/166/166 1/1/1 69/69/69
f 167/167/167 168/168/168 169/169/169
f 170/170/170 120/120/120 171/171/171
f 172/172/172 173/173/173 174/174/174
f 175/175/175 27/27/27 26/26/26
f 176/176/176 177/177/177 178/178/178
f 93/93/93 55/55/55 68/68/68
f 61/61/61 137/137/137 59/59/59
f 127/127/127 179/179/179 180/180/180
f 181/181/181 149/149/149 148/148/148
f 182/182/182 151/151/151 183/183/183
f 184/184/184 98/98/98 185/185/185
f 28/28/28 186/186/186 26/26/26
f 187/187/187 188/188/188 189/189/189
f 190/190/190 191/191/191 192/192/192
f 193/193/193 194/194/194 191/191/191
f 27/27/27 175/175/175 91/91/91
f 195/195/195 196/196/196 178/178/178
f 196/196/196 176/176/176 178/178/178
f 197/197/197 177/177/177 176/176/176
f 197/197/197 198/198/198 177/177/177
f 196/196/196 199/199/199 176/176/176
f 31/31/31 186/186/186 28/28/28
f 111/111/111 200/200/200 201/201/201
f 36/36/36 111/111/111 201/201/201
f 190/190/190 193/193/193 191/191/191
f 187/187/187 190/190/190 192/192/192
f 189/189/189 193/193/193 190/190/190
f 194/194/194 201/201/201 191/191/191
f 194/194/194 193/193/193 139/139/139
f 37/37/37 194/194/194 139/139/139
f 111/111/111 113/113/113 202/202/202
f 202/202/202 113/113/113 188/188/188
f 188/188/188 187/187/187 202/202/202
f 175/175/175 26/26/26 198/198/198
f 186/186/186 173/173/173 26/26/26
f 203/203/203 204/204/204 205/205/205
f 206/206/206 207/207/207 208/208/208
f 209/209/209 206/206/206 208/208/208
f 145/145/145 106/106/106 210/210/210
f 211/211/211 212/212/212 114/114/114
f 213/213/213 214/214/214 215/215/215
f 143/143/143 216/216/216 217/217/217
f 174/174/174 178/178/178 177/177/177
f 174/174/174 186/186/186 178/178/178
f 174/174/174 173/173/173 186/186/186
f 218/218/218 156/156/156 219/219/219
f 157/157/157 143/143/143 209/209/209
f 154/154/154 156/156/156 220/220/220
f 188/188/188 205/205/205 189/189/189
f 188/188/188 156/156/156 205/205/205
f 208/208/208 154/154/154 157/157/157
f 216/216/216 176/176/176 199/199/199
f 219/219/219 155/155/155 154/154/154
f 209/209/209 210/210/210 206/206/206
f 134/134/134 10/10/10 210/210/210
f 129/129/129 131/131/131 197/197/197
f 12/12/12 212/212/212 211/211/211
f 221/221/221 112/112/112 131/131/131
f 222/222/222 112/112/112 123/123/123
f 113/113/113 156/156/156 188/188/188
f 113/113/113 112/112/112 221/221/221
f 223/223/223 224/224/224 225/225/225
f 111/111/111 202/202/202 200/200/200
f 192/192/192 201/201/201 200/200/200
f 226/226/226 173/173/173 172/172/172
f 226/226/226 198/198/198 173/173/173
f 198/198/198 26/26/26 173/173/173
f 72/72/72 227/227/227 228/228/228
f 185/185/185 229/229/229 230/230/230
f 114/114/114 214/214/214 211/211/211
f 231/231/231 11/11/11 10/10/10
f 11/11/11 115/115/115 212/212/212
f 231/231/231 232/232/232 233/233/233
f 106/106/106 72/72/72 210/210/210
f 197/197/197 176/176/176 129/129/129
f 221/221/221 130/130/130 113/113/113
f 159/159/159 216/216/216 157/157/157
f 70/70/70 72/72/72 106/106/106
f 71/71/71 70/70/70 234/234/234
f 225/225/225 224/224/224 116/116/116
f 195/195/195 30/30/30 235/235/235
f 198/198/198 174/174/174 177/177/177
f 198/198/198 226/226/226 174/174/174
f 226/226/226 172/172/172 174/174/174
f 200/200/200 202/202/202 192/192/192
f 191/191/191 201/201/201 192/192/192
f 187/187/187 192/192/192 202/202/202
f 236/236/236 123/123/123 111/111/111
f 197/197/197 175/175/175 198/198/198
f 237/237/237 238/238/238 108/108/108
f 238/238/238 122/122/122 108/108/108
f 239/239/239 122/122/122 238/238/238
f 240/240/240 241/241/241 242/242/242
f 84/84/84 243/243/243 244/244/244
f 245/245/245 246/246/246 247/247/247
f 243/243/243 248/248/248 34/34/34
f 131/131/131 112/112/112 222/222/222
f 249/249/249 48/48/48 250/250/250
f 251/251/251 223/223/223 225/225/225
f 49/49/49 252/252/252 118/118/118
f 253/253/253 88/88/88 16/16/16
f 49/49/49 25/25/25 24/24/24
f 254/254/254 25/25/25 48/48/48
f 47/47/47 25/25/25 254/254/254
f 53/53/53 57/57/57 54/54/54
f 61/61/61 60/60/60 166/166/166
f 167/167/167 255/255/255 168/168/168
f 65/65/65 64/64/64 256/256/256
f 162/162/162 257/257/257 109/109/109
f 99/99/99 164/164/164 258/258/258
f 195/195/195 31/31/31 30/30/30
f 4/4/4 259/259/259 260/260/260
f 4/4/4 260/260/260 252/252/252
f 261/261/261 262/262/262 135/135/135
f 118/118/118 90/90/90 263/263/263
f 33/33/33 264/264/264 121/121/121
f 129/129/129 176/176/176 216/216/216
f 265/265/265 119/119/119 266/266/266
f 4/4/4 24/24/24 5/5/5
f 253/253/253 3/3/3 88/88/88
f 125/125/125 253/253/253 267/267/267
f 43/43/43 268/268/268 269/269/269
f 17/17/17 62/62/62 18/18/18
f 182/182/182 270/270/270 151/151/151
f 271/271/271 69/69/69 66/66/66
f 101/101/101 272/272/272 99/99/99
f 68/68/68 67/67/67 102/102/102
f 166/166/166 2/2/2 1/1/1
f 273/273/273 132/132/132 274/274/274
f 9/9/9 266/266/266 7/7/7
f 275/275/275 252/252/252 260/260/260
f 135/135/135 262/262/262 276/276/276
f 236/236/236 249/249/249 123/123/123
f 263/263/263 250/250/250 48/48/48
f 277/277/277 79/79/79 278/278/278
f 12/12/12 11/11/11 212/212/212
f 79/79/79 80/80/80 278/278/278
f 125/125/125 267/267/267 82/82/82
f 159/159/159 158/158/158 130/130/130
f 273/273/273 279/279/279 133/133/133
f 267/267/267 9/9/9 82/82/82
f 73/73/73 259/259/259 280/280/280
f 180/180/180 179/179/179 280/280/280
f 138/138/138 281/281/281 14/14/14
f 183/183/183 151/151/151 5/5/5
f 30/30/30 29/29/29 282/282/282
f 53/53/53 55/55/55 161/161/161
f 19/19/19 73/73/73 136/136/136
f 15/15/15 14/14/14 283/283/283
f 219/219/219 156/156/156 155/155/155
f 93/93/93 29/29/29 161/161/161
f 284/284/284 170/170/170 171/171/171
f 92/92/92 43/43/43 164/164/164
f 63/63/63 285/285/285 64/64/64
f 62/62/62 17/17/17 60/60/60
f 152/152/152 151/151/151 270/270/270
f 147/147/147 100/100/100 99/99/99
f 145/145/145 144/144/144 106/106/106
f 166/166/166 142/142/142 61/61/61
f 286/286/286 12/12/12 211/211/211
f 230/230/230 287/287/287 288/288/288
f 203/203/203 213/213/213 204/204/204
f 96/96/96 93/93/93 95/95/95
f 139/139/139 289/289/289 140/140/140
f 207/207/207 12/12/12 286/286/286
f 194/194/194 36/36/36 201/201/201
f 196/196/196 195/195/195 235/235/235
f 196/196/196 235/235/235 199/199/199
f 187/187/187 189/189/189 190/190/190
f 218/218/218 203/203/203 205/205/205
f 211/211/211 203/203/203 218/218/218
f 184/184/184 185/185/185 230/230/230
f 287/287/287 144/144/144 288/288/288
f 286/286/286 211/211/211 219/219/219
f 209/209/209 145/145/145 210/210/210
f 289/289/289 213/213/213 215/215/215
f 217/217/217 216/216/216 199/199/199
f 288/288/288 143/143/143 217/217/217
f 288/288/288 144/144/144 143/143/143
f 139/139/139 193/193/193 204/204/204
f 230/230/230 290/290/290 184/184/184
f 235/235/235 184/184/184 290/290/290
f 157/157/157 154/154/154 158/158/158
f 218/218/218 219/219/219 211/211/211
f 208/208/208 286/286/286 154/154/154
f 207/207/207 286/286/286 208/208/208
f 209/209/209 143/143/143 145/145/145
f 156/156/156 218/218/218 205/205/205
f 286/286/286 219/219/219 154/154/154
f 209/209/209 208/208/208 157/157/157
f 132/132/132 273/273/273 133/133/133
f 228/228/228 134/134/134 210/210/210
f 159/159/159 130/130/130 129/129/129
f 130/130/130 221/221/221 131/131/131
f 214/214/214 114/114/114 116/116/116
f 114/114/114 212/212/212 115/115/115
f 224/224/224 223/223/223 215/215/215
f 134/134/134 133/133/133 231/231/231
f 232/232/232 231/231/231 133/133/133
f 227/227/227 274/274/274 132/132/132
f 72/72/72 274/274/274 227/227/227
f 107/107/107 106/106/106 144/144/144
f 214/214/214 213/213/213 203/203/203
f 211/211/211 214/214/214 203/203/203
f 134/134/134 231/231/231 10/10/10
f 11/11/11 231/231/231 115/115/115
f 115/115/115 231/231/231 233/233/233
f 210/210/210 72/72/72 228/228/228
f 156/156/156 113/113/113 220/220/220
f 113/113/113 130/130/130 220/220/220
f 157/157/157 216/216/216 143/143/143
f 159/159/159 129/129/129 216/216/216
f 232/232/232 133/133/133 279/279/279
f 215/215/215 214/214/214 224/224/224
f 116/116/116 224/224/224 214/214/214
f 194/194/194 37/37/37 36/36/36
f 207/207/207 10/10/10 12/12/12
f 233/233/233 251/251/251 225/225/225
f 111/111/111 123/123/123 112/112/112
f 98/98/98 97/97/97 185/185/185
f 244/244/244 239/239/239 84/84/84
f 34/34/34 33/33/33 244/244/244
f 237/237/237 242/242/242 84/84/84
f 237/237/237 240/240/240 242/242/242
f 243/243/243 84/84/84 86/86/86
f 243/243/243 34/34/34 244/244/244
f 86/86/86 248/248/248 243/243/243
f 252/252/252 275/275/275 117/117/117
f 252/252/252 117/117/117 118/118/118
f 23/23/23 119/119/119 105/105/105
f 23/23/23 105/105/105 104/104/104
f 291/291/291 50/50/50 292/292/292
f 291/291/291 292/292/292 293/293/293
f 269/269/269 268/268/268 294/294/294
f 269/269/269 294/294/294 169/169/169
f 18/18/18 295/295/295 296/296/296
f 18/18/18 296/296/296 16/16/16
f 79/79/79 277/277/277 297/297/297
f 79/79/79 297/297/297 135/135/135
f 298/298/298 41/41/41 92/92/92
f 298/298/298 92/92/92 299/299/299
f 87/87/87 160/160/160 300/300/300
f 87/87/87 300/300/300 55/55/55
f 16/16/16 88/88/88 2/2/2
f 16/16/16 2/2/2 17/17/17
f 20/20/20 87/87/87 75/75/75
f 20/20/20 75/75/75 21/21/21
f 7/7/7 301/301/301 294/294/294
f 7/7/7 294/294/294 302/302/302
f 303/303/303 247/247/247 110/110/110
f 303/303/303 110/110/110 304/304/304
f 303/303/303 304/304/304 292/292/292
f 303/303/303 292/292/292 305/305/305
f 303/303/303 305/305/305 245/245/245
f 303/303/303 245/245/245 247/247/247
f 306/306/306 307/307/307 298/298/298
f 306/306/306 298/298/298 308/308/308
f 309/309/309 310/310/310 297/297/297
f 309/309/309 297/297/297 311/311/311
f 40/40/40 39/39/39 35/35/35
f 40/40/40 35/35/35 37/37/37
f 312/312/312 313/313/313 314/314/314
f 312/312/312 314/314/314 42/42/42
f 42/42/42 314/314/314 268/268/268
f 42/42/42 268/268/268 43/43/43
f 51/51/51 3/3/3 253/253/253
f 51/51/51 253/253/253 125/125/125
f 125/125/125 315/315/315 52/52/52
f 125/125/125 52/52/52 51/51/51
f 57/57/57 53/53/53 161/161/161
f 57/57/57 161/161/161 58/58/58
f 56/56/56 76/76/76 54/54/54
f 56/56/56 54/54/54 57/57/57
f 167/167/167 104/104/104 316/316/316
f 167/167/167 316/316/316 317/317/317
f 317/317/317 316/316/316 270/270/270
f 317/317/317 270/270/270 182/182/182
f 182/182/182 147/147/147 168/168/168
f 182/182/182 168/168/168 255/255/255
f 163/163/163 318/318/318 319/319/319
f 163/163/163 319/319/319 320/320/320
f 321/321/321 322/322/322 323/323/323
f 321/321/321 323/323/323 256/256/256
f 257/257/257 162/162/162 273/273/273
f 257/257/257 273/273/273 324/324/324
f 94/94/94 257/257/257 324/324/324
f 94/94/94 324/324/324 97/97/97
f 257/257/257 94/94/94 93/93/93
f 257/257/257 93/93/93 102/102/102
f 102/102/102 325/325/325 109/109/109
f 102/102/102 109/109/109 257/257/257
f 69/69/69 1/1/1 326/326/326
f 69/69/69 326/326/326 67/67/67
f 164/164/164 99/99/99 272/272/272
f 164/164/164 272/272/272 165/165/165
f 16/16/16 296/296/296 267/267/267
f 16/16/16 267/267/267 253/253/253
f 295/295/295 18/18/18 62/62/62
f 295/295/295 62/62/62 284/284/284
f 110/110/110 247/247/247 246/246/246
f 110/110/110 246/246/246 108/108/108
f 124/124/124 74/74/74 76/76/76
f 124/124/124 76/76/76 56/56/56
f 90/90/90 89/89/89 250/250/250
f 90/90/90 250/250/250 263/263/263
f 327/327/327 121/121/121 264/264/264
f 327/327/327 264/264/264 251/251/251
f 128/128/128 127/127/127 152/152/152
f 128/128/128 152/152/152 328/328/328
f 328/328/328 103/103/103 170/170/170
f 328/328/328 170/170/170 128/128/128
f 83/83/83 160/160/160 87/87/87
f 83/83/83 87/87/87 20/20/20
f 24/24/24 4/4/4 252/252/252
f 24/24/24 252/252/252 49/49/49
f 301/301/301 167/167/167 169/169/169
f 301/301/301 169/169/169 294/294/294
f 23/23/23 104/104/104 167/167/167
f 23/23/23 167/167/167 22/22/22
f 302/302/302 314/314/314 313/313/313
f 302/302/302 313/313/313 329/329/329
f 268/268/268 314/314/314 302/302/302
f 268/268/268 302/302/302 294/294/294
f 39/39/39 254/254/254 48/48/48
f 39/39/39 48/48/48 249/249/249
f 38/38/38 47/47/47 254/254/254
f 38/38/38 254/254/254 39/39/39
f 330/330/330 331/331/331 332/332/332
f 330/330/330 332/332/332 333/333/333
f 299/299/299 334/334/334 308/308/308
f 299/299/299 308/308/308 298/298/298
f 261/261/261 135/135/135 297/297/297
f 261/261/261 297/297/297 310/310/310
f 56/56/56 28/28/28 27/27/27
f 56/56/56 27/27/27 124/124/124
f 304/304/304 325/325/325 293/293/293
f 304/304/304 293/293/293 292/292/292
f 109/109/109 325/325/325 304/304/304
f 109/109/109 304/304/304 110/110/110
f 305/305/305 52/52/52 315/315/315
f 305/305/305 315/315/315 245/245/245
f 292/292/292 50/50/50 52/52/52
f 292/292/292 52/52/52 305/305/305
f 87/87/87 54/54/54 76/76/76
f 87/87/87 76/76/76 75/75/75
f 311/311/311 297/297/297 277/277/277
f 311/311/311 277/277/277 335/335/335
f 41/41/41 298/298/298 307/307/307
f 41/41/41 307/307/307 42/42/42
f 28/28/28 56/56/56 58/58/58
f 28/28/28 58/58/58 31/31/31
f 29/29/29 31/31/31 58/58/58
f 29/29/29 58/58/58 161/161/161
f 51/51/51 326/326/326 1/1/1
f 51/51/51 1/1/1 3/3/3
f 50/50/50 291/291/291 326/326/326
f 50/50/50 326/326/326 51/51/51
f 215/215/215 336/336/336 140/140/140
f 215/215/215 140/140/140 289/289/289
f 318/318/318 149/149/149 181/181/181
f 318/318/318 181/181/181 319/319/319
f 258/258/258 168/168/168 147/147/147
f 258/258/258 147/147/147 99/99/99
f 169/169/169 168/168/168 258/258/258
f 169/169/169 258/258/258 269/269/269
f 293/293/293 325/325/325 326/326/326
f 293/293/293 326/326/326 291/291/291
f 165/165/165 272/272/272 318/318/318
f 165/165/165 318/318/318 163/163/163
f 299/299/299 92/92/92 164/164/164
f 299/299/299 164/164/164 163/163/163
f 316/316/316 328/328/328 152/152/152
f 316/316/316 152/152/152 270/270/270
f 185/185/185 97/97/97 324/324/324
f 185/185/185 324/324/324 337/337/337
f 23/23/23 7/7/7 266/266/266
f 23/23/23 266/266/266 119/119/119
f 48/48/48 49/49/49 118/118/118
f 48/48/48 118/118/118 263/263/263
f 251/251/251 264/264/264 338/338/338
f 251/251/251 338/338/338 223/223/223
f 233/233/233 225/225/225 116/116/116
f 233/233/233 116/116/116 115/115/115
f 85/85/85 84/84/84 242/242/242
f 85/85/85 242/242/242 241/241/241
f 249/249/249 250/250/250 89/89/89
f 249/249/249 89/89/89 123/123/123
f 171/171/171 120/120/120 119/119/119
f 171/171/171 119/119/119 265/265/265
f 9/9/9 267/267/267 296/296/296
f 9/9/9 296/296/296 266/266/266
f 266/266/266 296/296/296 295/295/295
f 266/266/266 295/295/295 265/265/265
f 259/259/259 73/73/73 21/21/21
f 259/259/259 21/21/21 260/260/260
f 260/260/260 21/21/21 75/75/75
f 260/260/260 75/75/75 275/275/275
f 276/276/276 339/339/339 77/77/77
f 276/276/276 77/77/77 135/135/135
f 91/91/91 175/175/175 222/222/222
f 91/91/91 222/222/222 123/123/123
f 90/90/90 117/117/117 74/74/74
f 90/90/90 74/74/74 124/124/124
f 121/121/121 327/327/327 273/273/273
f 121/121/121 273/273/273 162/162/162
f 128/128/128 170/170/170 284/284/284
f 128/128/128 284/284/284 126/126/126
f 265/265/265 295/295/295 284/284/284
f 265/265/265 284/284/284 171/171/171
f 117/117/117 275/275/275 75/75/75
f 117/117/117 75/75/75 74/74/74
f 280/280/280 6/6/6 150/150/150
f 280/280/280 150/150/150 180/180/180
f 66/66/66 55/55/55 300/300/300
f 66/66/66 300/300/300 271/271/271
f 282/282/282 29/29/29 93/93/93
f 282/282/282 93/93/93 96/96/96
f 340/340/340 341/341/341 181/181/181
f 340/340/340 181/181/181 148/148/148
f 137/137/137 61/61/61 83/83/83
f 137/137/137 83/83/83 19/19/19
f 24/24/24 13/13/13 15/15/15
f 24/24/24 15/15/15 153/153/153
f 139/139/139 141/141/141 40/40/40
f 139/139/139 40/40/40 37/37/37
f 249/249/249 236/236/236 35/35/35
f 249/249/249 35/35/35 39/39/39
f 259/259/259 4/4/4 6/6/6
f 259/259/259 6/6/6 280/280/280
f 179/179/179 136/136/136 73/73/73
f 179/179/179 73/73/73 280/280/280
f 142/142/142 271/271/271 300/300/300
f 142/142/142 300/300/300 160/160/160
f 340/340/340 148/148/148 138/138/138
f 340/340/340 138/138/138 47/47/47
f 151/151/151 150/150/150 6/6/6
f 151/151/151 6/6/6 5/5/5
f 32/32/32 338/338/338 264/264/264
f 32/32/32 264/264/264 33/33/33
f 104/104/104 103/103/103 328/328/328
f 104/104/104 328/328/328 316/316/316
f 325/325/325 102/102/102 67/67/67
f 325/325/325 67/67/67 326/326/326
f 284/284/284 62/62/62 59/59/59
f 284/284/284 59/59/59 126/126/126
f 170/170/170 103/103/103 105/105/105
f 170/170/170 105/105/105 120/120/120
f 43/43/43 269/269/269 258/258/258
f 43/43/43 258/258/258 164/164/164
f 334/334/334 299/299/299 163/163/163
f 334/334/334 163/163/163 320/320/320
f 60/60/60 17/17/17 2/2/2
f 60/60/60 2/2/2 166/166/166
f 149/149/149 318/318/318 272/272/272
f 149/149/149 272/272/272 101/101/101
f 142/142/142 166/166/166 69/69/69
f 142/142/142 69/69/69 271/271/271
f 126/126/126 59/59/59 137/137/137
f 126/126/126 137/137/137 136/136/136
f 179/179/179 127/127/127 126/126/126
f 179/179/179 126/126/126 136/136/136
f 180/180/180 150/150/150 152/152/152
f 180/180/180 152/152/152 127/127/127
f 153/153/153 342/342/342 343/343/343
f 153/153/153 343/343/343 344/344/344
f 195/195/195 178/178/178 186/186/186
f 195/195/195 186/186/186 31/31/31
f 36/36/36 35/35/35 236/236/236
f 36/36/36 236/236/236 111/111/111
f 235/235/235 290/290/290 217/217/217
f 235/235/235 217/217/217 199/199/199
f 290/290/290 230/230/230 288/288/288
f 290/290/290 288/288/288 217/217/217
f 184/184/184 235/235/235 30/30/30
f 184/184/184 30/30/30 282/282/282
f 213/213/213 289/289/289 139/139/139
f 213/213/213 139/139/139 204/204/204
f 98/98/98 184/184/184 282/282/282
f 98/98/98 282/282/282 96/96/96
f 193/193/193 189/189/189 205/205/205
f 193/193/193 205/205/205 204/204/204
f 10/10/10 207/207/207 206/206/206
f 10/10/10 206/206/206 210/210/210
f 222/222/222 175/175/175 197/197/197
f 222/222/222 197/197/197 131/131/131
f 132/132/132 134/134/134 228/228/228
f 132/132/132 228/228/228 227/227/227
f 232/232/232 345/345/345 251/251/251
f 232/232/232 251/251/251 233/233/233
f 324/324/324 273/273/273 274/274/274
f 324/324/324 274/274/274 337/337/337
f 107/107/107 144/144/144 287/287/287
f 107/107/107 287/287/287 70/70/70
f 70/70/70 287/287/287 230/230/230
f 70/70/70 230/230/230 234/234/234
f 220/220/220 130/130/130 158/158/158
f 220/220/220 158/158/158 154/154/154
f 94/94/94 97/97/97 96/96/96
f 94/94/94 96/96/96 95/95/95
f 71/71/71 337/337/337 274/274/274
f 71/71/71 274/274/274 72/72/72
f 229/229/229 185/185/185 337/337/337
f 229/229/229 337/337/337 71/71/71
f 239/239/239 244/244/244 33/33/33
f 239/239/239 33/33/33 122/122/122
f 239/239/239 238/238/238 237/237/237
f 239/239/239 237/237/237 84/84/84
f 333/333/333 332/332/332 285/285/285
f 333/333/333 285/285/285 63/63/63
f 246/246/246 237/237/237 108/108/108
f 237/237/237 246/246/246 240/240/240
f 240/240/240 246/246/246 241/241/241