# Blender 5.0.1
# www.blender.org
o arm0
v 1.279327 3.316028 0.345908
v 1.279327 3.316028 -0.247885
v 1.279327 0.347063 0.345908
v 1.279327 0.347063 -0.247885
v 0.883465 3.316028 -0.247885
v 0.883465 3.316028 0.345908
v 0.883465 0.347063 -0.247885
v 0.883465 0.347063 0.345908
vn 1.0000 -0.0000 -0.0000
vn -1.0000 -0.0000 -0.0000
vn -0.0000 1.0000 -0.0000
vn -0.0000 -1.0000 -0.0000
vn -0.0000 -0.0000 1.0000
vn -0.0000 -0.0000 -1.0000
vt 0.469238 0.788574
vt 0.469238 0.555176
vt 0.515137 0.788574
vt 0.515137 0.555176
vt 0.547363 0.788574
vt 0.547363 0.555176
vt 0.593262 0.788574
vt 0.593262 0.555176
vt 0.546387 0.789551
vt 0.546387 0.835449
vt 0.516113 0.789551
vt 0.516113 0.835449
vt 0.577637 0.835449
vt 0.577637 0.789551
vt 0.547363 0.835449
vt 0.547363 0.789551
vt 0.594238 0.788574
vt 0.594238 0.555176
vt 0.624512 0.788574
vt 0.624512 0.555176
vt 0.516113 0.788574
vt 0.516113 0.555176
vt 0.546387 0.788574
vt 0.546387 0.555176
s 1
f 1/1/1 3/2/1 2/3/1
f 3/2/1 4/4/1 2/3/1
f 5/5/2 7/6/2 6/7/2
f 7/6/2 8/8/2 6/7/2
f 5/9/3 6/10/3 2/11/3
f 6/10/3 1/12/3 2/11/3
f 8/13/4 7/14/4 3/15/4
f 7/14/4 4/16/4 3/15/4
f 6/17/5 8/18/5 1/19/5
f 8/18/5 3/20/5 1/19/5
f 2/21/6 4/22/6 5/23/6
f 4/22/6 7/24/6 5/23/6
o arm1
v -0.897914 3.316028 0.345908
v -0.897914 3.316028 -0.247885
v -0.897914 0.347063 0.345908
v -0.897914 0.347063 -0.247885
v -1.293776 3.316028 -0.247885
v -1.293776 3.316028 0.345908
v -1.293776 0.347063 -0.247885
v -1.293776 0.347063 0.345908
vn 1.0000 -0.0000 -0.0000
vn -1.0000 -0.0000 -0.0000
vn -0.0000 1.0000 -0.0000
vn -0.0000 -1.0000 -0.0000
vn -0.0000 -0.0000 1.0000
vn -0.0000 -0.0000 -1.0000
vt 0.469238 0.499512
vt 0.469238 0.266113
vt 0.515137 0.499512
vt 0.515137 0.266113
vt 0.547363 0.499512
vt 0.547363 0.266113
vt 0.593262 0.499512
vt 0.593262 0.266113
vt 0.546387 0.500488
vt 0.546387 0.546387
vt 0.516113 0.500488
vt 0.516113 0.546387
vt 0.577637 0.546387
vt 0.577637 0.500488
vt 0.547363 0.546387
vt 0.547363 0.500488
vt 0.594238 0.499512
vt 0.594238 0.266113
vt 0.624512 0.499512
vt 0.624512 0.266113
vt 0.516113 0.499512
vt 0.516113 0.266113
vt 0.546387 0.499512
vt 0.546387 0.266113
s 1
f 9/25/7 11/26/7 10/27/7
f 11/26/7 12/28/7 10/27/7
f 13/29/8 15/30/8 14/31/8
f 15/30/8 16/32/8 14/31/8
f 13/33/9 14/34/9 10/35/9
f 14/34/9 9/36/9 10/35/9
f 16/37/10 15/38/10 11/39/10
f 15/38/10 12/40/10 11/39/10
f 14/41/11 16/42/11 9/43/11
f 16/42/11 11/44/11 9/43/11
f 10/45/12 12/46/12 13/47/12
f 12/46/12 15/48/12 13/47/12
o body
v 0.883465 3.266545 0.543839
v 0.883465 3.266545 -0.544782
v 0.883465 2.078959 0.543839
v 0.883465 2.078959 -0.544782
v -0.897914 3.266545 -0.544782
v -0.897914 3.266545 0.543839
v -0.897914 2.078959 -0.544782
v -0.897914 2.078959 0.543839
vn 1.0000 -0.0000 -0.0000
vn -1.0000 -0.0000 -0.0000
vn -0.0000 1.0000 -0.0000
vn -0.0000 -1.0000 -0.0000
vn -0.0000 -0.0000 1.0000
vn -0.0000 -0.0000 -1.0000
vt 0.000488 0.601074
vt 0.000488 0.508301
vt 0.085449 0.601074
vt 0.085449 0.508301
vt 0.227051 0.601074
vt 0.227051 0.508301
vt 0.312012 0.601074
vt 0.312012 0.508301
vt 0.226074 0.602051
vt 0.226074 0.687012
vt 0.086426 0.602051
vt 0.086426 0.687012
vt 0.366699 0.687012
vt 0.366699 0.602051
vt 0.227051 0.687012
vt 0.227051 0.602051
vt 0.312988 0.601074
vt 0.312988 0.508301
vt 0.452637 0.601074
vt 0.452637 0.508301
vt 0.086426 0.601074
vt 0.086426 0.508301
vt 0.226074 0.601074
vt 0.226074 0.508301
s 1
f 17/49/13 19/50/13 18/51/13
f 19/50/13 20/52/13 18/51/13
f 21/53/14 23/54/14 22/55/14
f 23/54/14 24/56/14 22/55/14
f 21/57/15 22/58/15 18/59/15
f 22/58/15 17/60/15 18/59/15
f 24/61/16 23/62/16 19/63/16
f 23/62/16 20/64/16 19/63/16
f 22/65/17 24/66/17 17/67/17
f 24/66/17 19/68/17 17/67/17
f 18/69/18 20/70/18 21/71/18
f 20/70/18 23/72/18 21/71/18
o body.001
v 0.487603 2.128442 0.395391
v 0.487603 2.128442 -0.297368
v 0.487603 1.534649 0.395391
v 0.487603 1.534649 -0.297368
v -0.502052 2.128442 -0.297368
v -0.502052 2.128442 0.395391
v -0.502052 1.534649 -0.297368
v -0.502052 1.534649 0.395391
vn 1.0000 -0.0000 -0.0000
vn -1.0000 -0.0000 -0.0000
vn -0.0000 1.0000 -0.0000
vn -0.0000 -1.0000 -0.0000
vn -0.0000 -0.0000 1.0000
vn -0.0000 -0.0000 -1.0000
vt 0.000488 0.405762
vt 0.000488 0.367676
vt 0.046387 0.405762
vt 0.046387 0.367676
vt 0.117676 0.405762
vt 0.117676 0.367676
vt 0.163574 0.405762
vt 0.163574 0.367676
vt 0.116699 0.406738
vt 0.116699 0.452637
vt 0.047363 0.406738
vt 0.047363 0.452637
vt 0.187012 0.452637
vt 0.187012 0.406738
vt 0.117676 0.452637
vt 0.117676 0.406738
vt 0.164551 0.405762
vt 0.164551 0.367676
vt 0.233887 0.405762
vt 0.233887 0.367676
vt 0.047363 0.405762
vt 0.047363 0.367676
vt 0.116699 0.405762
vt 0.116699 0.367676
s 1
f 25/73/19 27/74/19 26/75/19
f 27/74/19 28/76/19 26/75/19
f 29/77/20 31/78/20 30/79/20
f 31/78/20 32/80/20 30/79/20
f 29/81/21 30/82/21 26/83/21
f 30/82/21 25/84/21 26/83/21
f 32/85/22 31/86/22 27/87/22
f 31/86/22 28/88/22 27/87/22
f 30/89/23 32/90/23 25/91/23
f 32/90/23 27/92/23 25/91/23
f 26/93/24 28/94/24 29/95/24
f 28/94/24 31/96/24 29/95/24
o head
v 0.388638 4.256200 0.098494
v 0.388638 4.256200 -0.693230
v 0.388638 3.266545 0.098494
v 0.388638 3.266545 -0.693230
v -0.403086 4.256200 -0.693230
v -0.403086 4.256200 0.098494
v -0.403086 3.266545 -0.693230
v -0.403086 3.266545 0.098494
vn 1.0000 -0.0000 -0.0000
vn -1.0000 -0.0000 -0.0000
vn -0.0000 1.0000 -0.0000
vn -0.0000 -1.0000 -0.0000
vn -0.0000 -0.0000 1.0000
vn -0.0000 -0.0000 -1.0000
vt 0.000488 0.937012
vt 0.000488 0.859863
vt 0.062012 0.937012
vt 0.062012 0.859863
vt 0.125488 0.937012
vt 0.125488 0.859863
vt 0.187012 0.937012
vt 0.187012 0.859863
vt 0.124512 0.937988
vt 0.124512 0.999512
vt 0.062988 0.937988
vt 0.062988 0.999512
vt 0.187012 0.999512
vt 0.187012 0.937988
vt 0.125488 0.999512
vt 0.125488 0.937988
vt 0.187988 0.937012
vt 0.187988 0.859863
vt 0.249512 0.937012
vt 0.249512 0.859863
vt 0.062988 0.937012
vt 0.062988 0.859863
vt 0.124512 0.937012
vt 0.124512 0.859863
s 1
f 33/97/25 35/98/25 34/99/25
f 35/98/25 36/100/25 34/99/25
f 37/101/26 39/102/26 38/103/26
f 39/102/26 40/104/26 38/103/26
f 37/105/27 38/106/27 34/107/27
f 38/106/27 33/108/27 34/107/27
f 40/109/28 39/110/28 35/111/28
f 39/110/28 36/112/28 35/111/28
f 38/113/29 40/114/29 33/115/29
f 40/114/29 35/116/29 33/115/29
f 34/117/30 36/118/30 37/119/30
f 36/118/30 39/120/30 37/119/30
o head.001
v 0.091741 3.563442 -0.693230
v 0.091741 3.563442 -0.891161
v 0.091741 3.167580 -0.693230
v 0.091741 3.167580 -0.891161
v -0.106190 3.563442 -0.891161
v -0.106190 3.563442 -0.693230
v -0.106190 3.167580 -0.891161
v -0.106190 3.167580 -0.693230
vn 1.0000 -0.0000 -0.0000
vn -1.0000 -0.0000 -0.0000
vn -0.0000 1.0000 -0.0000
vn -0.0000 -1.0000 -0.0000
vn -0.0000 -0.0000 1.0000
vn -0.0000 -0.0000 -1.0000
vt 0.187988 0.983887
vt 0.187988 0.953613
vt 0.202637 0.983887
vt 0.202637 0.953613
vt 0.219238 0.983887
vt 0.219238 0.953613
vt 0.233887 0.983887
vt 0.233887 0.953613
vt 0.218262 0.984863
vt 0.218262 0.999512
vt 0.203613 0.984863
vt 0.203613 0.999512
vt 0.233887 0.999512
vt 0.233887 0.984863
vt 0.219238 0.999512
vt 0.219238 0.984863
vt 0.234863 0.983887
vt 0.234863 0.953613
vt 0.249512 0.983887
vt 0.249512 0.953613
vt 0.203613 0.983887
vt 0.203613 0.953613
vt 0.218262 0.983887
vt 0.218262 0.953613
s 1
f 41/121/31 43/122/31 42/123/31
f 43/122/31 44/124/31 42/123/31
f 45/125/32 47/126/32 46/127/32
f 47/126/32 48/128/32 46/127/32
f 45/129/33 46/130/33 42/131/33
f 46/130/33 41/132/33 42/131/33
f 48/133/34 47/134/34 43/135/34
f 47/134/34 44/136/34 43/135/34
f 46/137/35 48/138/35 41/139/35
f 48/138/35 43/140/35 41/139/35
f 42/141/36 44/142/36 45/143/36
f 44/142/36 47/144/36 45/143/36
o leg0
v 0.735017 1.584132 0.246942
v 0.735017 1.584132 -0.247885
v 0.735017 0.000684 0.246942
v 0.735017 0.000684 -0.247885
v 0.141224 1.584132 -0.247885
v 0.141224 1.584132 0.246942
v 0.141224 0.000684 -0.247885
v 0.141224 0.000684 0.246942
vn 1.0000 -0.0000 -0.0000
vn -1.0000 -0.0000 -0.0000
vn -0.0000 1.0000 -0.0000
vn -0.0000 -1.0000 -0.0000
vn -0.0000 -0.0000 1.0000
vn -0.0000 -0.0000 -1.0000
vt 0.289551 0.960449
vt 0.289551 0.836426
vt 0.327637 0.960449
vt 0.327637 0.836426
vt 0.375488 0.960449
vt 0.375488 0.836426
vt 0.413574 0.960449
vt 0.413574 0.836426
vt 0.374512 0.961426
vt 0.374512 0.999512
vt 0.328613 0.961426
vt 0.328613 0.999512
vt 0.421387 0.999512
vt 0.421387 0.961426
vt 0.375488 0.999512
vt 0.375488 0.961426
vt 0.414551 0.960449
vt 0.414551 0.836426
vt 0.460449 0.960449
vt 0.460449 0.836426
vt 0.328613 0.960449
vt 0.328613 0.836426
vt 0.374512 0.960449
vt 0.374512 0.836426
s 1
f 49/145/37 51/146/37 50/147/37
f 51/146/37 52/148/37 50/147/37
f 53/149/38 55/150/38 54/151/38
f 55/150/38 56/152/38 54/151/38
f 53/153/39 54/154/39 50/155/39
f 54/154/39 49/156/39 50/155/39
f 56/157/40 55/158/40 51/159/40
f 55/158/40 52/160/40 51/159/40
f 54/161/41 56/162/41 49/163/41
f 56/162/41 51/164/41 49/163/41
f 50/165/42 52/166/42 53/167/42
f 52/166/42 55/168/42 53/167/42
o leg1
v -0.155672 1.584132 0.246942
v -0.155672 1.584132 -0.247885
v -0.155672 0.000684 0.246942
v -0.155672 0.000684 -0.247885
v -0.749466 1.584132 -0.247885
v -0.749466 1.584132 0.246942
v -0.749466 0.000684 -0.247885
v -0.749466 0.000684 0.246942
vn 1.0000 -0.0000 -0.0000
vn -1.0000 -0.0000 -0.0000
vn -0.0000 1.0000 -0.0000
vn -0.0000 -1.0000 -0.0000
vn -0.0000 -0.0000 1.0000
vn -0.0000 -0.0000 -1.0000
vt 0.593262 0.960449
vt 0.593262 0.836426
vt 0.555176 0.960449
vt 0.555176 0.836426
vt 0.507324 0.960449
vt 0.507324 0.836426
vt 0.469238 0.960449
vt 0.469238 0.836426
vt 0.508301 0.961426
vt 0.508301 0.999512
vt 0.554199 0.961426
vt 0.554199 0.999512
vt 0.555176 0.999512
vt 0.555176 0.961426
vt 0.601074 0.999512
vt 0.601074 0.961426
vt 0.640137 0.960449
vt 0.640137 0.836426
vt 0.594238 0.960449
vt 0.594238 0.836426
vt 0.554199 0.960449
vt 0.554199 0.836426
vt 0.508301 0.960449
vt 0.508301 0.836426
s 1
f 57/169/43 59/170/43 58/171/43
f 59/170/43 60/172/43 58/171/43
f 61/173/44 63/174/44 62/175/44
f 63/174/44 64/176/44 62/175/44
f 61/177/45 62/178/45 58/179/45
f 62/178/45 57/180/45 58/179/45
f 64/181/46 63/182/46 59/183/46
f 63/182/46 60/184/46 59/183/46
f 62/185/47 64/186/47 57/187/47
f 64/186/47 59/188/47 57/187/47
f 58/189/48 60/190/48 61/191/48
f 60/190/48 63/192/48 61/191/48
