# Blender 5.0.1
# www.blender.org
o floor_border_corner_A
v -1.000000 0.000000 -1.000000
v 1.000000 -0.000000 -1.000000
v 1.000000 -0.000000 1.000000
v -1.000000 0.000000 -0.667215
v 0.667215 0.000000 1.000000
v -0.967965 0.000000 -0.341958
v -0.873091 0.000000 -0.029200
v -0.719024 0.000000 0.259040
v -0.511684 0.000000 0.511684
v -0.259040 0.000000 0.719024
v 0.029200 0.000000 0.873091
v 0.341958 0.000000 0.967965
v -1.000000 -1.000000 -1.000000
v -1.000000 0.000000 -1.000000
v 1.000000 -1.000000 1.000000
v 1.000000 -0.000000 1.000000
v 0.667215 -1.000000 1.000000
v -1.000000 -1.000000 -0.667215
v 0.341958 -1.000000 0.967965
v 0.029200 -1.000000 0.873091
v -0.259040 -1.000000 0.719024
v -0.511684 -1.000000 0.511684
v -0.719024 -1.000000 0.259040
v -0.873091 -1.000000 -0.029200
v -0.967965 -1.000000 -0.341958
v -1.000000 0.000000 -0.667215
v 0.667215 0.000000 1.000000
v -0.967965 0.000000 -0.341958
v -0.873091 0.000000 -0.029200
v -0.719024 0.000000 0.259040
v -0.511684 0.000000 0.511684
v -0.259040 0.000000 0.719024
v 0.029200 0.000000 0.873091
v 0.341958 0.000000 0.967965
v -0.596639 -1.020090 -0.110825
v -1.080478 -1.020090 -0.060922
v -0.750176 -1.020090 0.570951
v -0.354208 -1.020090 0.283481
v -0.511776 -1.020090 0.096193
v -0.941219 -1.020090 0.284351
v -0.063350 -1.020090 0.505941
v -0.322855 -1.020090 0.881366
v 0.368599 -1.020090 0.502161
v 0.380620 -1.020090 0.519859
v 0.400435 -1.020090 1.084279
v 0.382295 -1.020090 1.100070
v -0.536314 -1.020090 -0.473381
v -0.522550 -1.020090 -0.460867
v -1.226329 -1.020090 -0.511703
v -1.209791 -1.020090 -0.529113
v -0.346481 -0.845224 0.851162
v -0.104031 -0.832759 0.529316
v -0.093373 -0.844959 0.510883
v -0.302364 -1.020090 0.997692
v -0.320613 -1.020090 0.975082
v -0.042571 -0.803815 0.450089
v -0.052708 -0.791893 0.469749
v -0.029499 -0.783852 0.460872
v -0.022395 -0.793854 0.446216
v -0.345997 -0.791893 0.912345
v -0.354118 -0.803770 0.933034
v -0.335172 -0.793400 0.954643
v -0.329290 -0.783443 0.939456
v -0.004926 -1.020090 0.439613
v 0.014791 -1.020090 0.432782
v -1.024376 -0.829671 -0.042446
v -1.057414 -0.839929 -0.041319
v -0.624586 -0.829671 -0.083836
v -0.607751 -0.849709 -0.090252
v -1.145732 -0.832029 -0.058794
v -1.100982 -0.825577 -0.055749
v -1.146963 -0.818364 -0.080448
v -1.164064 -0.828357 -0.081803
v -0.511791 -1.020090 -0.196815
v -0.520768 -1.020090 -0.176827
v -1.183581 -1.020090 -0.106335
v -1.201978 -1.020090 -0.132246
v -0.538267 -0.832045 -0.136976
v -0.530224 -0.828243 -0.156579
v -0.545860 -0.818268 -0.151552
v -0.568700 -0.824153 -0.125309
v -0.372729 -0.839619 0.291496
v -0.384735 -0.829662 0.302286
v -0.731739 -0.829662 0.539308
v -0.743120 -0.839618 0.550776
v -0.367350 -1.020090 0.899076
v -0.398168 -1.020090 0.895513
v -0.108000 -0.824234 0.495203
v -0.097878 -0.836899 0.477715
v -0.110912 -0.826112 0.459441
v -0.119291 -0.816160 0.473446
v -0.407141 -0.816160 0.847677
v -0.414024 -0.826111 0.862512
v -0.384236 -0.836194 0.866461
v -0.375141 -0.824234 0.847062
v -0.083203 -1.020090 0.449612
v -0.069982 -1.020090 0.467723
v -0.872752 -0.842808 0.331776
v -0.890064 -0.858127 0.337195
v -0.929726 -0.812394 0.322982
v -0.917267 -0.791018 0.315530
v -0.934849 -0.781773 0.297854
v -0.949894 -0.791716 0.303677
v -0.502062 -1.020090 0.041130
v -0.501266 -1.020090 0.064925
v -0.980837 -1.020090 0.269152
v -1.004630 -1.020090 0.246759
v -0.491921 -0.813249 0.117266
v -0.495583 -0.791704 0.097194
v -0.508505 -0.781761 0.106679
v -0.504357 -0.791018 0.124566
v -0.953262 -1.020090 0.359784
v -0.958972 -1.020090 0.330184
v -0.478744 -0.825149 0.165239
v -0.454638 -0.818293 0.174280
v -0.442447 -0.828170 0.163347
v -0.461952 -0.836952 0.151614
v -0.880925 -0.825149 0.370555
v -0.901128 -0.836349 0.381489
v -0.892777 -0.828170 0.410969
v -0.877823 -0.818293 0.403952
v -0.471005 -1.020090 0.097009
v -0.452245 -1.020090 0.108193
v -1.075270 -0.821106 -0.009595
v -1.073000 -0.796255 0.025672
v -1.056604 -0.786310 0.024625
v -1.059284 -0.794871 -0.001482
v -0.563445 -1.020090 -0.089034
v -0.548384 -1.020090 -0.070605
v -1.096177 -1.020090 0.022614
v -1.096659 -1.020090 -0.010897
v -0.581058 -0.786322 -0.052169
v -0.565943 -0.796266 -0.057193
v -0.580983 -0.822400 -0.078208
v -0.592218 -0.795196 -0.068328
v 0.361563 -0.891093 0.543923
v 0.377345 -0.901151 0.547849
v 0.365265 -0.907447 0.527392
v 0.376066 -0.903549 1.077342
v 0.392902 -0.901151 1.056892
v 0.330681 -0.819935 1.058491
v 0.303601 -0.810860 1.058218
v 0.310528 -0.820995 1.073319
v -0.546104 -0.918419 -0.463461
v -0.565662 -0.916597 -0.476212
v -0.571137 -0.832692 -0.427955
v -0.571981 -0.824202 -0.411484
v -0.556639 -0.834271 -0.415355
v -1.200700 -0.920255 -0.509764
v -1.180830 -0.912437 -0.522533
v 0.164816 -0.822319 0.508710
v 0.159754 -0.811370 0.522617
v 0.188182 -0.817750 0.527405
v 0.333932 -0.819935 0.758498
v 0.320854 -0.816694 0.736003
v 0.311817 -0.811344 0.767838
v -1.196566 -0.833826 -0.358106
v -1.180880 -0.823667 -0.356273
v -1.183182 -0.832294 -0.390663
v -1.086902 -0.824360 -0.422122
v -1.100073 -0.832663 -0.446709
v -1.113163 -0.307072 -0.348892
v -1.113398 -0.322753 -0.331856
v -1.129474 -0.307770 -0.333146
v -0.677348 -0.307072 -0.359567
v -0.663163 -0.307769 -0.345555
v -0.679262 -0.322753 -0.346410
v 0.308052 -0.266535 1.070550
v 0.291906 -0.266107 1.086708
v 0.290154 -0.283553 1.069616
v 0.309591 -0.266514 0.658412
v 0.295837 -0.283875 0.657559
v 0.295690 -0.266430 0.641039
v -0.651422 -0.261898 0.059017
v -0.658410 0.027824 -0.004777
v -1.028639 -0.239860 0.176921
v -1.065133 0.007468 0.114717
v -0.629540 -0.343400 0.000687
v -0.615039 -0.328314 -0.006074
v -0.616584 -0.302773 0.015443
v -0.630757 -0.330514 0.020796
v -1.099024 0.036047 0.084373
v -1.086802 0.058013 0.075204
v -1.104573 0.067702 0.048849
v -1.117489 0.052722 0.054333
v -0.634012 0.058013 -0.045025
v -0.616475 0.038997 -0.047755
v -0.611247 0.052780 -0.072946
v -0.625281 0.067767 -0.070842
v -1.057100 -0.297957 0.153562
v -1.071527 -0.328315 0.129621
v -1.055674 -0.343400 0.126925
v -1.043599 -0.330514 0.148033
v -0.032409 0.003937 0.632530
v -0.024948 -0.012851 0.616836
v -0.165026 -0.261898 0.984193
v -0.028801 -0.246057 0.630452
v -0.177584 -0.012119 1.011646
v -0.012424 0.046047 0.614376
v 0.013970 0.053613 0.609501
v 0.007441 0.039608 0.593390
v -0.087211 -0.332344 1.024489
v -0.111240 -0.317038 1.034563
v -0.113132 -0.323265 1.014794
v 0.029850 -0.317085 0.622027
v 0.037692 -0.332006 0.640084
v 0.014834 -0.322737 0.639532
v -0.153749 0.039730 1.045869
v -0.131606 0.056234 1.038099
v -0.158214 0.047103 1.022949
v -0.505189 -0.279776 0.239065
v -0.518327 -0.294759 0.247824
v -0.894445 0.038890 0.507863
v -0.882529 0.053872 0.499941
v -0.499693 0.053872 0.244245
v -0.488219 0.038890 0.235711
v -0.874131 -0.294759 0.482095
v -0.886830 -0.279775 0.491469
v -0.608190 -0.267453 0.063175
v -0.590962 -0.284023 0.081914
v -0.604819 -0.298972 0.089790
v -0.622894 -0.288573 0.073029
v -1.065108 0.059548 0.137600
v -1.079054 0.038342 0.144139
v -1.078537 0.055786 0.173591
v -1.066061 0.070929 0.166310
v -0.610320 0.070929 0.021399
v -0.596306 0.055786 0.018386
v -0.612279 0.039135 0.002310
v -0.627985 0.059548 0.005966
v -1.031312 -0.284023 0.242615
v -1.036097 -0.266574 0.210032
v -1.018678 -0.288573 0.208518
v -1.015903 -0.298972 0.238330
v -0.313872 0.002300 0.505718
v -0.307033 -0.017453 0.490880
v -0.492850 -0.260261 0.817465
v -0.500807 -0.243655 0.833332
v -0.348811 -0.260261 0.501170
v -0.480268 -0.015979 0.863841
v -0.277995 0.003411 0.486797
v -0.283269 0.024096 0.501282
v -0.257676 0.033660 0.503586
v -0.251775 0.017724 0.490744
v -0.477514 -0.282057 0.847236
v -0.457270 -0.291626 0.870505
v -0.464000 -0.275820 0.885074
v -0.485623 -0.264952 0.862687
v -0.318917 -0.282057 0.499556
v -0.307740 -0.265338 0.485478
v -0.284073 -0.275842 0.491386
v -0.293836 -0.291614 0.504068
v -0.465464 0.002710 0.893052
v -0.441975 0.017712 0.918406
v -0.433262 0.033676 0.907203
v -0.453890 0.024096 0.883238
v -0.340290 -0.273534 0.456211
v -0.352963 -0.300138 0.466416
v -0.363848 -0.311970 0.446810
v -0.353256 -0.297040 0.434893
v -0.505850 0.030972 0.857066
v -0.535899 0.042754 0.851062
v -0.545508 0.027805 0.861649
v -0.516559 0.011851 0.869892
v -0.317471 0.030972 0.471770
v -0.308953 0.012485 0.456446
v -0.320222 0.027805 0.436230
v -0.327397 0.042754 0.448536
v -0.534215 -0.272216 0.836072
v -0.564434 -0.297039 0.779249
v -0.556212 -0.311970 0.765556
v -0.530303 -0.300138 0.820164
v -0.057555 0.018769 0.577188
v -0.076266 0.034670 0.585802
v -0.056273 0.027223 0.600312
v -0.207214 -0.284227 0.984584
v -0.232965 -0.276850 1.000746
v -0.240473 -0.292626 0.980721
v -0.082822 -0.292639 0.603891
v -0.062990 -0.276887 0.593703
v -0.061993 -0.285168 0.617572
v -0.247681 0.034654 0.998379
v -0.239081 0.018741 1.016857
v -0.213691 0.026283 1.001407
v -1.138305 0.012792 -0.330191
v -1.097632 0.010278 -0.342851
v -1.134476 -0.016403 -0.356015
v -1.150936 -0.011281 -0.340173
v -0.641707 -0.006507 -0.348374
v -0.655369 -0.016403 -0.361953
v -0.654672 0.010278 -0.354078
v -0.655978 0.058956 -0.320770
v -0.656310 0.070546 -0.302800
v -0.641345 0.055583 -0.306315
v 0.309256 -0.073188 1.109254
v 0.325554 -0.069979 1.093720
v 0.323243 0.033513 1.092216
v 0.305937 0.048212 1.092631
v 0.306983 0.032015 1.107855
v 0.307606 0.016666 0.630866
v 0.320872 0.008061 0.634036
v 0.306494 -0.001503 0.617872
v -1.154850 0.053595 -0.161630
v -1.141437 0.068791 -0.177722
v -0.996549 0.058956 -0.295453
v -1.017956 0.070423 -0.274599
v 0.038248 0.033918 0.600263
v 0.069836 0.049509 0.619494
v 0.327005 0.033539 0.793518
v 0.312871 0.047730 0.814011
v -0.499378 -0.858421 0.149700
v -0.512091 -0.842808 0.162120
v -0.608309 -0.839930 -0.088483
v -1.058850 -0.849037 -0.042924
v -1.040359 -0.829671 -0.040924
v -0.338843 -0.832759 0.831177
v -0.641534 0.008781 -0.007477
v -1.050559 0.027824 0.106454
v -0.636104 -0.242096 0.050280
v -1.011631 -0.261898 0.174374
v -0.469361 0.002300 0.852045
v -0.336920 -0.243759 0.487409
v -0.170173 0.003937 0.999024
v -0.173070 -0.246022 0.998055
v -0.036087 -0.261898 0.645694
v -1.097879 -0.320885 -1.009558
v -1.096901 -0.336565 -0.997878
v -1.113026 -0.321582 -0.998046
v -0.653879 -0.320885 -1.009558
v -0.638731 -0.321582 -0.998046
v -0.654851 -0.336565 -0.997878
v -0.691897 -0.275711 -0.595075
v -0.660503 -0.005091 -0.626562
v -1.091331 -0.255518 -0.597425
v -0.651629 -0.357213 -0.636260
v -0.635737 -0.342127 -0.637914
v -0.644148 -0.316585 -0.620165
v -0.659296 -0.344326 -0.619867
v -1.128928 0.022234 -0.652728
v -1.114656 0.044200 -0.656405
v -1.124896 0.053889 -0.676723
v -1.138777 0.038909 -0.675350
v -0.642447 0.044200 -0.656405
v -0.624834 0.025185 -0.654444
v -0.613141 0.038967 -0.675355
v -0.627253 0.053955 -0.676723
v -1.110109 -0.311769 -0.619375
v -1.116019 -0.342127 -0.637914
v -1.100123 -0.357213 -0.636260
v -1.095538 -0.344326 -0.619867
v -0.681476 -0.290257 -0.343275
v -0.665349 -0.274636 -0.342955
v -1.096485 0.028209 -0.362570
v -1.100379 0.040934 -0.381105
v -1.113310 0.022616 -0.369978
v -0.662705 0.040934 -0.348015
v -0.667347 0.028209 -0.329481
v -0.649782 0.022640 -0.336888
v -1.081872 -0.290257 -0.376364
v -1.097895 -0.274609 -0.376045
v -0.653210 -0.281265 -0.577989
v -0.644536 -0.296303 -0.556942
v -0.660670 -0.311684 -0.555325
v -0.670546 -0.302385 -0.574864
v -1.112462 0.045736 -0.611616
v -1.127769 0.024530 -0.610458
v -1.136917 0.039581 -0.591512
v -1.122826 0.057116 -0.593500
v -0.640258 0.057116 -0.593501
v -0.626174 0.039603 -0.591515
v -0.635785 0.025323 -0.610208
v -0.651832 0.045736 -0.611616
v -1.118709 -0.296278 -0.556945
v -1.110485 -0.280387 -0.578403
v -1.093783 -0.302385 -0.574864
v -1.102674 -0.311684 -0.555325
v -1.121653 -0.001021 -0.995672
v -1.081936 -0.003534 -1.006211
v -1.119692 -0.030215 -1.013236
v -1.134911 -0.025094 -1.001798
v -0.617512 -0.020319 -1.001889
v -0.632159 -0.030215 -1.013236
v -0.630852 -0.003534 -1.006211
v -0.630248 0.045144 -0.976152
v -0.630011 0.056734 -0.959937
v -0.615137 0.041770 -0.963467
v -1.138294 0.039783 -0.882658
v -1.123979 0.054979 -0.892898
v -0.978288 0.045144 -0.976152
v -0.999024 0.056610 -0.960039
v -0.659304 -0.012726 -0.316008
v -0.675190 -0.001300 -0.311919
v -0.678950 -0.028141 -0.305257
v -1.105698 -0.012490 -0.349249
v -1.086954 -0.028141 -0.338346
v -1.090210 -0.001300 -0.345009
v -1.075158 -0.278380 -0.355260
v -1.072909 -0.257445 -0.344309
v -1.091558 -0.263079 -0.355550
v -0.689871 -0.278380 -0.322170
v -0.673401 -0.263001 -0.322269
v -0.692866 -0.257445 -0.311220
v -0.678308 0.014011 -0.628785
v -1.105385 -0.005358 -0.626531
v -1.088935 0.014011 -0.628785
v -0.674468 -0.255909 -0.597380
v -1.074638 -0.275711 -0.595075
v -1.198821 -1.016054 -0.782231
v -0.833587 -1.016054 -0.764240
v -1.243782 -1.016054 -0.468537
v -1.254703 -1.016054 -0.478163
v -0.769225 -1.016054 -0.504916
v -0.779117 -1.016054 -0.493863
v -0.846642 -0.851943 -0.783327
v -1.188393 -0.851971 -0.802927
v -0.817572 -0.823226 -0.759690
v -0.834530 -0.813707 -0.763375
v -0.821066 -0.806553 -0.745402
v -0.809562 -0.816931 -0.743304
v -1.266518 -1.016054 -0.723406
v -1.258466 -1.016054 -0.739943
v -0.797171 -1.016054 -0.730721
v -0.788468 -1.016054 -0.713158
v -1.241910 -0.820761 -0.771642
v -1.249795 -0.816812 -0.756165
v -1.238548 -0.806453 -0.757606
v -1.219983 -0.812511 -0.775452
v -0.874712 -0.847489 -1.013428
v -0.872285 -0.827744 -1.011440
v -0.858187 -0.839077 -1.007627
v -1.216323 -1.016054 -0.958308
v -1.199488 -1.016054 -0.967306
v -0.844463 -0.805714 -0.994851
v -0.854460 -0.783514 -0.994188
v -0.849236 -0.773913 -0.980178
v -0.838160 -0.784240 -0.979478
v -1.231089 -1.016054 -0.928210
v -1.225268 -1.016054 -0.946871
v -0.830163 -1.016054 -0.967049
v -0.797589 -1.016054 -0.949755
v -1.215024 -0.806602 -0.976139
v -1.218774 -0.784226 -0.959923
v -1.207903 -0.773901 -0.962128
v -1.205086 -0.783514 -0.976690
v -0.831090 -0.809400 -0.809816
v -0.827018 -0.783591 -0.830339
v -0.838163 -0.773263 -0.831879
v -0.840600 -0.782154 -0.816416
v -1.217947 -1.016054 -0.806598
v -1.224960 -1.016054 -0.825125
v -0.810958 -1.016054 -0.810481
v -0.815834 -1.016054 -0.791442
v -1.200907 -0.773275 -0.847384
v -1.211895 -0.783603 -0.846980
v -1.205458 -0.810744 -0.826742
v -1.196279 -0.782492 -0.832136
v -1.238354 -0.910464 -0.478720
v -1.223481 -0.908571 -0.469930
v -1.224958 -0.822180 -0.512441
v -1.225776 -0.812616 -0.527340
v -1.236001 -0.823073 -0.522807
v -0.799930 -0.873312 -0.517232
v -0.799353 -0.908571 -0.492474
v -0.786914 -0.912371 -0.503589
v -0.798840 -0.822611 -0.587587
v -0.809571 -0.812008 -0.586386
v -0.805607 -0.821086 -0.565965
v -0.843873 -0.822180 -0.532030
v -0.826705 -0.821337 -0.541030
v -0.842861 -0.812780 -0.547058
v -1.191410 -0.827744 -0.996104
v -1.189525 -0.847489 -0.998388
v -1.204734 -0.838964 -0.990179
v -0.860705 -1.016054 -0.983992
v -0.842437 -1.016054 -0.977782
v -1.171652 -0.836238 -0.803635
v -0.858516 -0.836238 -0.786014
v 0.621703 -1.016054 1.099535
v 0.643238 -1.016054 0.807009
v 0.997191 -1.016054 1.144496
v 0.985669 -1.016054 1.155417
v 0.953646 -1.016054 0.742648
v 0.966876 -1.016054 0.752539
v 0.620391 -0.851943 0.820064
v 0.596930 -0.851971 1.089107
v 0.648685 -0.823226 0.790994
v 0.644273 -0.813707 0.807952
v 0.665787 -0.806553 0.794487
v 0.668298 -0.816931 0.782984
v 0.692116 -1.016054 1.167232
v 0.672320 -1.016054 1.159181
v 0.683360 -1.016054 0.770593
v 0.704383 -1.016054 0.761889
v 0.634378 -0.820761 1.142623
v 0.652903 -0.816812 1.150509
v 0.651179 -0.806453 1.139262
v 0.629817 -0.812511 1.120697
v 0.344962 -0.847489 0.848134
v 0.347341 -0.827745 0.845707
v 0.351906 -0.839077 0.831609
v 0.410941 -1.016054 1.117037
v 0.400170 -1.016054 1.100202
v 0.367200 -0.805714 0.817885
v 0.367992 -0.783514 0.827882
v 0.384762 -0.773913 0.822658
v 0.385600 -0.784240 0.811582
v 0.446967 -1.016054 1.131803
v 0.424631 -1.016054 1.125982
v 0.400478 -1.016054 0.803585
v 0.421178 -1.016054 0.794929
v 0.389596 -0.806602 1.115737
v 0.409007 -0.784226 1.119488
v 0.406368 -0.773901 1.108617
v 0.388938 -0.783514 1.105800
v 0.588683 -0.809400 0.804511
v 0.564119 -0.783591 0.800440
v 0.562274 -0.773263 0.811585
v 0.580784 -0.782154 0.814022
v 0.592535 -1.016054 1.118661
v 0.570360 -1.016054 1.125674
v 0.587888 -1.016054 0.784380
v 0.610678 -1.016054 0.789256
v 0.543716 -0.773275 1.101621
v 0.544198 -0.783603 1.112609
v 0.568423 -0.810744 1.106172
v 0.561966 -0.782492 1.096993
v 0.985002 -0.910465 1.139068
v 0.995523 -0.908572 1.124195
v 0.944639 -0.822180 1.125672
v 0.926805 -0.812616 1.126490
v 0.932230 -0.823073 1.136714
v 0.938904 -0.873312 0.773352
v 0.968539 -0.908572 0.772775
v 0.955235 -0.912371 0.760336
v 0.854690 -0.822611 0.772262
v 0.856127 -0.812008 0.782993
v 0.880571 -0.821086 0.779029
v 0.921191 -0.822180 0.817295
v 0.910418 -0.821338 0.800127
v 0.903203 -0.812780 0.816283
v 0.365699 -0.827745 1.092124
v 0.362966 -0.847489 1.090239
v 0.372791 -0.838964 1.105448
v 0.380197 -1.016054 0.834127
v 0.387630 -1.016054 0.815859
v 0.596082 -0.836239 1.072366
v 0.617174 -0.836239 0.831939
v 0.305719 -0.320885 1.074426
v 0.317383 -0.336565 1.073265
v 0.317468 -0.321583 1.089391
v 0.301149 -0.320885 0.644148
v 0.312421 -0.321582 0.628821
v 0.312843 -0.336565 0.644937
v 0.716178 -0.275711 0.675640
v 0.684201 -0.005091 0.644746
v 0.717698 -0.255518 1.061396
v 0.674365 -0.357213 0.636025
v 0.672462 -0.342127 0.620161
v 0.690340 -0.316585 0.628292
v 0.690877 -0.344326 0.643433
v 0.662993 0.022234 1.099858
v 0.659092 0.044200 1.085646
v 0.638938 0.053889 1.096203
v 0.640529 0.038909 1.110062
v 0.654078 0.044200 0.627162
v 0.655762 0.025185 0.609520
v 0.634669 0.038967 0.598157
v 0.633524 0.053955 0.612288
v 0.696047 -0.311770 1.080517
v 0.677603 -0.342127 1.086717
v 0.679006 -0.357213 1.070798
v 0.695325 -0.344326 1.065955
v 0.976581 -0.297322 0.657124
v 0.975133 -0.281069 0.640405
v 0.985441 0.034013 1.069608
v 0.966695 0.047252 1.075680
v 0.979632 0.028194 1.087831
v 0.969607 0.047252 0.638227
v 0.989294 0.034013 0.640986
v 0.979694 0.028218 0.623631
v 0.969560 -0.297322 1.056010
v 0.971656 -0.281041 1.072552
v 0.732655 -0.281265 0.636690
v 0.753562 -0.296303 0.627685
v 0.755432 -0.311684 0.643792
v 0.736051 -0.302385 0.653974
v 0.703841 0.045736 1.082747
v 0.705240 0.024530 1.098033
v 0.724327 0.039581 1.106883
v 0.722118 0.057116 1.092825
v 0.716941 0.057116 0.623983
v 0.718705 0.039603 0.609869
v 0.700165 0.025323 0.619773
v 0.699009 0.045736 0.635841
v 0.758604 -0.296278 1.088133
v 0.737019 -0.280387 1.080247
v 0.740294 -0.302385 1.063492
v 0.759971 -0.311684 1.072074
v 0.319977 -0.001021 1.097979
v 0.308814 -0.003534 1.058433
v 0.302385 -0.030215 1.096295
v 0.314061 -0.025094 1.111332
v 0.308245 -0.020319 0.607666
v 0.297130 -0.030215 0.622489
v 0.304133 -0.003534 0.621072
v 0.334179 0.045144 0.619995
v 0.350388 0.056734 0.619502
v 0.346625 0.041770 0.604686
v 0.433239 0.039783 1.112841
v 0.422775 0.054979 1.098689
v 0.337239 0.045144 0.954325
v 0.353677 0.056610 0.974805
v 1.002344 -0.008576 0.631180
v 1.008326 0.003312 0.647164
v 1.015633 -0.024615 0.650319
v 1.000238 -0.008331 1.077670
v 1.009451 -0.024615 1.057078
v 1.002917 0.003312 1.061180
v 0.990653 -0.284965 1.046738
v 1.001734 -0.263184 1.043204
v 0.992160 -0.269046 1.063738
v 0.999339 -0.284965 0.663483
v 0.997422 -0.268964 0.646454
v 1.010999 -0.263184 0.665374
v 0.682259 0.014011 0.662583
v 0.688817 -0.005358 1.075906
v 0.686304 0.014011 1.059493
v 0.713600 -0.255909 0.658249
v 0.719784 -0.275711 1.044667
vn -0.0000 1.0000 -0.0000
vn -0.9988 -0.0000 0.0491
vn -1.0000 -0.0000 -0.0000
vn -0.0000 -0.0000 1.0000
vn -0.0491 -0.0000 0.9988
vn -0.9808 -0.0000 0.1951
vn -0.9239 -0.0000 0.3827
vn -0.8315 -0.0000 0.5556
vn -0.7071 -0.0000 0.7071
vn -0.5556 -0.0000 0.8315
vn -0.3827 -0.0000 0.9239
vn -0.1951 -0.0000 0.9808
vn 0.2925 0.5485 -0.7833
vn 0.5292 0.3862 -0.7555
vn 0.5208 0.2026 -0.8293
vn -0.3985 0.1399 -0.9064
vn 0.2844 0.2824 -0.9162
vn 0.4362 0.0813 -0.8962
vn -0.5819 0.5204 0.6249
vn 0.1421 0.1906 0.9713
vn -0.6403 0.0459 0.7667
vn -0.1445 0.9334 0.3283
vn 0.5828 0.6378 0.5036
vn 0.0341 0.6851 0.7276
vn 0.2035 0.9398 -0.2747
vn -0.2858 0.9359 0.2058
vn 0.2051 0.9784 -0.0277
vn -0.9209 -0.0588 0.3853
vn -0.6835 0.7113 -0.1641
vn -0.3673 0.8629 -0.3472
vn -0.1886 0.9820 0.0074
vn 0.5585 0.5627 -0.6095
vn 0.7195 0.1046 -0.6866
vn 0.6777 0.1761 -0.7140
vn -0.3467 -0.1308 0.9288
vn -0.4461 0.3724 0.8138
vn -0.6687 -0.0578 0.7413
vn 0.3216 0.8599 -0.3964
vn 0.3719 0.9143 -0.1603
vn 0.4710 0.7794 -0.4132
vn 0.5722 0.8151 0.0908
vn 0.3113 0.8461 0.4328
vn -0.3929 0.7805 -0.4862
vn -0.0406 0.4475 -0.8934
vn -0.2797 0.6526 -0.7042
vn -0.8364 0.5465 -0.0420
vn -0.7815 0.4021 -0.4770
vn -0.9147 0.1947 -0.3540
vn -0.6902 0.0874 0.7183
vn -0.7318 0.5484 0.4045
vn -0.9002 0.1759 0.3982
vn 0.1167 0.5590 -0.8209
vn -0.5305 -0.0551 -0.8459
vn 0.1793 0.0584 -0.9821
vn -0.1776 0.9606 0.2139
vn 0.1526 0.9416 -0.3003
vn -0.2988 0.9503 0.0869
vn 0.6327 0.5455 -0.5497
vn 0.6798 0.1384 -0.7202
vn 0.6596 0.5115 -0.5507
vn 0.9674 0.0373 -0.2507
vn 0.8526 0.0998 -0.5129
vn -0.8199 0.4488 0.3554
vn -0.5731 -0.0804 0.8155
vn -0.8167 0.0711 0.5726
vn -0.9787 0.1271 -0.1610
vn -0.7640 0.2764 -0.5830
vn -0.9406 0.1509 -0.3042
vn -0.8419 0.0587 0.5365
vn -0.8416 0.5354 0.0715
vn -0.9759 0.1003 0.1936
vn -0.9333 0.3370 -0.1239
vn -0.3935 0.8634 -0.3158
vn 0.2620 0.9623 -0.0737
vn 0.9100 0.1657 -0.3801
vn -0.1728 0.9337 0.3135
vn 0.1855 0.9271 -0.3258
vn -0.2984 0.9519 -0.0703
vn 0.6849 0.4170 -0.5975
vn 0.2381 0.2804 -0.9299
vn 0.9000 0.0732 -0.4297
vn -0.0324 0.9402 0.3391
vn 0.1806 0.9729 -0.1445
vn -0.3103 0.5349 0.7859
vn -0.3871 0.1268 0.9133
vn 0.3293 0.9246 0.1916
vn -0.0401 0.9825 -0.1819
vn -0.2665 0.9306 0.2508
vn 0.2515 0.1908 -0.9488
vn 0.6571 0.1176 -0.7446
vn 0.5437 0.1355 -0.8283
vn 0.9907 -0.0899 0.1021
vn 0.0030 0.9610 0.2767
vn 0.2538 0.8310 0.4950
vn -0.0659 0.7971 0.6003
vn -0.0931 0.8456 -0.5256
vn -0.2736 0.4643 -0.8423
vn 0.7015 0.3469 0.6226
vn 0.6329 -0.0895 0.7690
vn 0.8208 -0.0424 0.5697
vn 0.7755 0.5570 -0.2973
vn 0.8624 0.4831 0.1513
vn 0.9871 0.0878 0.1339
vn 0.6260 0.7780 -0.0535
vn 0.8942 0.3474 0.2824
vn 0.8500 0.4397 -0.2901
vn 0.1262 0.5367 0.8343
vn -0.4895 0.5144 0.7041
vn -0.4631 0.0910 0.8816
vn 0.4291 -0.8819 0.1953
vn -0.3503 -0.8815 -0.3166
vn 0.2951 -0.8556 -0.4252
vn -0.4905 0.8107 -0.3196
vn 0.8760 0.1007 -0.4717
vn 0.8436 0.4515 -0.2907
vn 0.9182 0.3794 0.1138
vn 0.3217 -0.0604 0.9449
vn -0.5893 0.3592 0.7237
vn -0.4678 -0.5033 0.7266
vn 0.8973 -0.3331 -0.2896
vn 0.9158 -0.0478 0.3987
vn 0.8495 -0.4138 0.3274
vn 0.8837 -0.2612 -0.3884
vn 0.4722 0.1076 -0.8749
vn 0.3781 -0.3310 -0.8646
vn 0.8299 0.2980 0.4717
vn 0.8976 -0.1212 0.4238
vn 0.3683 -0.9296 -0.0165
vn -0.4756 -0.7750 -0.4161
vn -0.3803 -0.8784 0.2893
vn 0.2339 0.9493 -0.2100
vn -0.5213 0.6765 -0.5201
vn 0.0306 0.6088 -0.7927
vn -0.9392 0.3394 0.0525
vn -0.8659 0.2290 -0.4448
vn -0.8611 -0.4006 -0.3132
vn -0.0944 0.9511 -0.2941
vn -0.4844 0.8678 -0.1106
vn -0.3557 0.8941 0.2721
vn -0.1775 0.7808 0.5990
vn -0.3916 0.9201 0.0066
vn -0.0269 -0.9308 -0.3646
vn -0.5952 -0.8019 0.0527
vn -0.2708 -0.9153 0.2980
vn 0.2384 -0.3170 -0.9180
vn -0.1880 0.3729 -0.9086
vn -0.1771 -0.4884 -0.8544
vn 0.6033 -0.4680 -0.6457
vn 0.0697 0.1646 -0.9839
vn -0.2403 0.8854 -0.3979
vn 0.3232 0.8186 0.4748
vn -0.4625 0.8561 0.2306
vn -0.1159 -0.6122 0.7822
vn 0.5113 -0.5559 0.6554
vn 0.3195 -0.8302 0.4569
vn 0.5590 -0.8266 -0.0652
vn -0.2733 -0.3091 0.9109
vn 0.1814 0.2974 -0.9374
vn 0.4081 0.1781 -0.8954
vn 0.4389 -0.3388 -0.8322
vn 0.4286 -0.8984 -0.0962
vn -0.3218 -0.9136 0.2487
vn 0.2870 -0.9337 -0.2142
vn 0.6597 -0.4522 -0.6003
vn 0.7934 0.3510 -0.4973
vn 0.7518 -0.4197 -0.5086
vn -0.9458 -0.2421 0.2166
vn -0.6284 0.2992 0.7180
vn -0.5941 -0.1504 0.7902
vn -0.9496 0.1315 -0.2845
vn -0.9012 -0.3625 -0.2376
vn 0.5099 0.8541 -0.1025
vn -0.3198 0.9047 0.2814
vn -0.0517 0.8783 0.4753
vn -0.7422 0.3295 0.5836
vn -0.8710 -0.4438 0.2108
vn -0.7149 -0.3991 0.5741
vn -0.3591 -0.7547 -0.5490
vn -0.0857 -0.9397 0.3311
vn 0.3851 -0.9166 -0.1078
vn 0.5965 0.1603 -0.7864
vn -0.0613 -0.2929 -0.9542
vn 0.6603 -0.3332 -0.6730
vn 0.0108 -0.7758 0.6309
vn 0.7549 -0.6257 0.1965
vn 0.3212 0.9281 -0.1885
vn 0.3673 0.7174 0.5920
vn -0.1732 0.9345 0.3110
vn 0.1920 0.3551 -0.9149
vn 0.2357 -0.4050 -0.8834
vn 0.2531 -0.9344 -0.2509
vn -0.3649 -0.8950 0.2565
vn -0.0268 -0.8926 -0.4500
vn -0.8438 -0.3188 0.4318
vn -0.4661 0.1902 0.8640
vn -0.3913 -0.3357 0.8569
vn 0.9656 0.1551 -0.2086
vn 0.9638 -0.2468 -0.1010
vn -0.6794 -0.4575 0.5737
vn 0.2303 -0.9007 -0.3685
vn -0.4135 -0.9105 -0.0066
vn 0.2677 0.9219 -0.2802
vn -0.3635 0.8870 0.2847
vn -0.0617 0.9053 0.4204
vn 0.0297 0.1847 0.9823
vn -0.2873 -0.3317 0.8986
vn 0.2757 0.8686 -0.4117
vn 0.3380 0.9276 -0.1594
vn -0.3831 0.7469 -0.5434
vn -0.6327 0.7734 0.0401
vn 0.1108 0.9032 -0.4146
vn -0.0231 0.9151 -0.4026
vn -0.1901 0.8916 0.4110
vn -0.4322 0.1893 0.8817
vn -0.0934 -0.4500 0.8881
vn -0.6067 0.3505 0.7135
vn -0.5907 -0.4093 0.6954
vn -0.5062 0.7145 -0.4829
vn -0.7548 0.6543 0.0458
vn -0.6392 0.6217 -0.4527
vn 0.9059 0.4163 -0.0782
vn 0.8465 0.3645 -0.3880
vn 0.8254 0.3301 -0.4580
vn 0.7988 -0.4470 -0.4026
vn -0.0324 -0.9379 -0.3454
vn 0.3587 -0.8598 0.3634
vn -0.1248 -0.9159 0.3814
vn -0.0513 0.7923 -0.6079
vn 0.3515 0.4231 -0.8352
vn -0.0822 0.6522 -0.7536
vn 0.3264 -0.3312 -0.8853
vn -0.3657 0.2382 -0.8997
vn 0.3610 0.0935 -0.9279
vn 0.3922 0.9189 -0.0422
vn 0.3440 0.7929 -0.5030
vn -0.5422 0.2413 -0.8048
vn -0.1123 0.9232 -0.3675
vn 0.0130 0.5191 -0.8546
vn -0.9294 0.2800 0.2406
vn -0.7943 0.4891 0.3603
vn 0.8864 0.4008 -0.2315
vn 0.3479 0.9298 -0.1199
vn 0.2058 0.4658 0.8606
vn -0.6462 0.4979 0.5784
vn -0.3756 0.1823 0.9087
vn 0.8569 0.4959 -0.1409
vn 0.9663 0.1615 0.2003
vn 0.0900 0.4870 -0.8688
vn -0.1748 0.7894 -0.5884
vn -0.8220 0.5554 -0.1258
vn -0.8476 0.3395 -0.4079
vn 0.0884 0.6657 -0.7410
vn 0.5698 0.7474 0.3417
vn 0.1202 0.9488 0.2922
vn 0.2854 0.6906 -0.6646
vn 0.2421 0.9426 -0.2302
vn -0.3061 0.9494 -0.0706
vn -0.3298 -0.3788 -0.8647
vn 0.8348 -0.3694 -0.4083
vn 0.2971 -0.3913 0.8710
vn 0.4797 -0.8126 -0.3309
vn 0.9128 -0.4009 0.0774
vn -0.8490 0.3605 0.3864
vn 0.4032 0.7309 0.5506
vn 0.4412 0.8773 0.1889
vn -0.8056 -0.4273 0.4103
vn -0.5478 -0.7265 -0.4148
vn 0.0014 -0.7138 -0.7003
vn -0.9199 0.3485 0.1797
vn -0.4697 0.8816 -0.0466
vn 0.7261 0.3389 -0.5983
vn -0.1348 0.2568 -0.9570
vn -0.6313 -0.7752 0.0217
vn -0.8568 0.2854 0.4295
vn -0.4303 0.3280 0.8410
vn 0.7667 0.6219 0.1597
vn 0.6239 0.3992 -0.6719
vn 0.5850 0.8080 -0.0707
vn -0.0528 -0.9180 0.3931
vn -0.0944 0.3809 0.9198
vn 0.3109 0.6702 -0.6739
vn 0.3114 0.9110 -0.2703
vn 0.8517 0.3856 0.3547
vn 0.2852 0.8806 0.3783
vn 0.2745 0.3351 0.9013
vn -0.6390 0.6002 -0.4811
vn -0.0010 0.0944 -0.9955
vn 0.5432 0.2742 0.7936
vn -0.1578 0.2974 0.9416
vn -0.5775 0.5249 0.6253
vn 0.6181 0.5543 -0.5575
vn 0.3662 0.9255 0.0970
vn 0.4348 0.2471 -0.8660
vn 0.5088 0.2980 0.8077
vn 0.9341 0.1037 -0.3417
vn 0.8925 0.1367 0.4299
vn 0.8107 0.2718 -0.5186
vn -0.9395 0.1729 0.2958
vn -0.3083 -0.8999 0.3086
vn 0.9505 0.2233 -0.2159
vn -0.0327 0.8834 -0.4674
vn -0.1696 -0.9504 0.2606
vn 0.3135 -0.8498 -0.4237
vn -0.3589 -0.8847 0.2976
vn -0.3135 -0.8498 -0.4237
vn 0.8662 0.0843 -0.4925
vn 0.8786 0.3664 0.3062
vn 0.8566 -0.4105 0.3127
vn 0.3708 -0.9194 0.1313
vn -0.2957 -0.5214 0.8004
vn 0.2604 -0.5128 0.8181
vn 0.9781 0.2075 0.0141
vn 0.6585 -0.2977 -0.6912
vn 0.9697 -0.2440 -0.0112
vn 0.6515 0.2567 0.7139
vn 0.6675 -0.1178 0.7352
vn -0.2532 -0.6966 -0.6713
vn -0.4281 -0.8973 0.1081
vn 0.2879 0.9512 -0.1110
vn -0.2808 0.5799 -0.7648
vn 0.2672 0.5766 -0.7721
vn -0.9317 0.3541 -0.0811
vn -0.8490 0.1902 -0.4930
vn -0.8328 -0.3740 -0.4081
vn -0.0851 0.9262 -0.3673
vn -0.4530 0.8707 -0.1917
vn -0.3975 0.8796 0.2614
vn -0.2786 0.6989 0.6587
vn -0.3501 0.9288 -0.1217
vn 0.2085 0.6325 0.7460
vn -0.2550 0.3492 0.9017
vn 0.1714 0.3598 0.9172
vn 0.8675 -0.4474 -0.2173
vn 0.8230 0.3562 0.4424
vn 0.8534 -0.4129 0.3182
vn 0.4483 0.8472 -0.2851
vn -0.3776 0.8748 0.3037
vn 0.3627 0.8787 0.3103
vn -0.7423 0.0954 0.6633
vn -0.8563 -0.4147 0.3079
vn -0.7125 -0.2791 0.6438
vn 0.3820 -0.9039 -0.1923
vn -0.3588 -0.8724 0.3319
vn -0.3856 -0.9058 -0.1754
vn 0.7099 0.0917 0.6983
vn 0.6832 -0.2745 0.6767
vn -0.9700 -0.2249 -0.0920
vn -0.7243 0.2365 0.6477
vn -0.7348 -0.1305 0.6656
vn -0.6751 -0.2932 -0.6769
vn -0.9855 0.1610 -0.0545
vn -0.4835 0.6415 -0.5956
vn -0.8250 0.3601 0.4356
vn -0.8719 -0.4472 -0.1997
vn 0.3439 -0.8756 0.3392
vn -0.2756 -0.6600 0.6988
vn -0.2888 0.0620 0.9554
vn 0.1683 -0.2277 0.9591
vn 0.1953 0.0703 0.9782
vn -0.0277 0.6851 -0.7279
vn 0.3289 0.3845 -0.8625
vn -0.0803 0.5027 -0.8607
vn -0.2830 -0.3075 -0.9085
vn 0.3130 0.0787 -0.9465
vn 0.2830 -0.3074 -0.9085
vn 0.8322 -0.3746 -0.4089
vn 0.3671 -0.8747 0.3165
vn -0.8910 0.3633 0.2724
vn 0.2281 0.6949 0.6820
vn 0.3991 0.8688 0.2932
vn -0.8635 -0.4166 0.2842
vn -0.2692 0.6264 0.7315
vn 0.2419 -0.6951 -0.6770
vn -0.9203 0.3206 -0.2243
vn -0.4485 0.8521 -0.2697
vn 0.9169 0.3176 -0.2416
vn -0.3173 0.1740 -0.9322
vn 0.3142 0.6355 -0.7053
vn 0.3405 0.9028 -0.2628
vn 0.8733 0.4083 -0.2657
vn -0.2648 -0.2250 0.9377
vn 0.2033 -0.6663 0.7175
vn -0.7139 0.1207 -0.6897
vn 0.6960 0.1245 -0.7071
vn 0.4646 0.0694 0.8828
vn -0.2168 0.2407 0.9461
vn -0.3571 0.0644 0.9319
vn 0.9704 0.2270 -0.0823
vn 0.8112 0.0005 -0.5847
vn 0.9827 0.0577 -0.1762
vn 0.1556 0.6651 0.7303
vn 0.3778 0.2723 0.8849
vn 0.2440 0.7003 -0.6709
vn -0.2617 0.9461 0.1906
vn -0.1718 0.7367 -0.6540
vn 0.2986 0.6394 0.7085
vn 0.3916 0.9121 0.1212
vn 0.8920 0.2313 0.3884
vn 0.9678 0.0760 -0.2398
vn 0.8977 0.4375 0.0520
vn -0.2773 -0.1579 -0.9477
vn 0.1414 -0.0470 -0.9888
vn 0.1496 -0.1580 -0.9760
vn 0.5229 0.0108 -0.8523
vn 0.5613 -0.0765 -0.8240
vn 0.5162 -0.1007 -0.8505
vn 0.9032 0.0311 -0.4281
vn 0.8540 0.4625 0.2382
vn 0.9805 0.0855 0.1768
vn -0.8946 -0.0236 -0.4463
vn -0.6579 0.0154 -0.7530
vn -0.6587 -0.0941 -0.7465
vn 0.3444 0.8807 -0.3251
vn -0.3515 0.8941 0.2774
vn 0.3467 0.9092 0.2306
vn 0.9049 0.1124 0.4105
vn -0.3820 0.8932 -0.2373
vn 0.1284 0.9425 0.3086
vn 0.3764 0.8872 -0.2667
vn -0.9513 0.2965 -0.0842
vn -0.8601 0.1103 0.4981
vn -0.9779 0.0362 -0.2057
vn -0.8488 0.4292 0.3087
vn -0.9940 0.0367 -0.1035
vn -0.9729 0.0780 0.2176
vn -0.7767 -0.0313 -0.6291
vn -0.8315 0.4535 0.3209
vn -0.8869 0.4079 -0.2166
vn -0.9843 0.0606 -0.1657
vn 0.6791 0.6508 0.3395
vn 0.4260 0.7204 0.5473
vn 0.6612 0.4968 0.5622
vn 0.1417 0.2121 -0.9669
vn -0.3688 0.5563 -0.7447
vn 0.2691 0.5515 -0.7896
vn 0.6755 0.2859 -0.6797
vn 0.8647 0.4209 -0.2741
vn -0.6360 0.3054 -0.7087
vn 0.8285 0.4391 -0.3475
vn 0.6630 0.1487 -0.7337
vn -0.8873 0.4088 -0.2133
vn -0.8038 0.1283 -0.5808
vn 0.7386 0.2452 0.6280
vn -0.3170 0.5997 0.7348
vn -0.2857 0.6186 0.7320
vn -0.3218 0.9074 0.2704
vn 0.4102 0.9067 0.0980
vn -0.2625 0.2186 -0.9398
vn -0.2641 -0.0459 -0.9634
vn -0.3794 0.8832 -0.2757
vn -0.6945 0.2163 0.6862
vn -0.8140 0.2008 0.5451
vn 0.9425 0.1570 0.2950
vn 0.8541 0.0762 -0.5144
vn 0.9322 0.2745 0.2359
vn 0.9176 0.0713 0.3911
vn -0.0805 0.2349 -0.9687
vn -0.5181 -0.0001 -0.8553
vn -0.1735 0.0541 -0.9833
vn 0.6737 0.7174 -0.1775
vn 0.8581 0.3019 -0.4154
vn -0.6164 0.7382 -0.2740
vn 0.1987 0.9402 0.2766
vn -0.6028 0.7743 0.1925
vn 0.6564 0.6842 -0.3177
vn 0.1180 0.9111 -0.3949
vn 0.3514 0.2461 -0.9033
vn -0.2014 0.0750 -0.9766
vn 0.0396 0.4372 -0.8985
vn -0.9490 -0.0525 0.3109
vn -0.9674 -0.1884 -0.1690
vn -0.9258 -0.1849 0.3296
vn -0.8134 0.0147 -0.5815
vn -0.5269 -0.0317 -0.8494
vn -0.8056 -0.1145 -0.5813
vn -0.2089 0.0360 -0.9773
vn 0.1920 0.4497 -0.8723
vn 0.0834 0.0799 -0.9933
vn -0.3851 -0.0244 0.9226
vn -0.7014 0.0198 0.7125
vn -0.6861 -0.1039 0.7200
vn -0.2888 0.8917 -0.3485
vn 0.2405 0.9025 0.3573
vn 0.2009 0.9165 -0.3460
vn 0.3573 0.1160 -0.9267
vn -0.2049 0.9006 0.3833
vn 0.2660 0.9540 -0.1384
vn -0.2317 0.8948 -0.3816
vn -0.0828 0.3047 0.9489
vn 0.4379 0.1153 0.8916
vn -0.2094 0.0305 0.9774
vn 0.2668 0.4343 0.8603
vn -0.0848 0.0371 0.9957
vn 0.1862 0.0789 0.9793
vn -0.5654 -0.0346 0.8241
vn 0.2779 0.4622 0.8421
vn -0.1892 0.4091 0.8927
vn -0.1379 0.0600 0.9886
vn 0.2881 0.6639 -0.6901
vn 0.4859 0.7496 -0.4494
vn 0.5035 0.5265 -0.6851
vn -0.9554 0.2503 -0.1567
vn -0.6925 0.5980 0.4035
vn -0.7455 0.5988 -0.2928
vn -0.6223 0.3097 -0.7189
vn -0.2371 0.4221 -0.8750
vn -0.6577 0.3294 0.6774
vn -0.9863 -0.0545 -0.1557
vn -0.2940 0.4126 -0.8622
vn -0.6505 0.1425 -0.7460
vn -0.1811 0.4109 0.8935
vn -0.5276 0.1413 0.8376
vn 0.5748 0.2695 -0.7726
vn 0.6803 0.6433 0.3512
vn 0.6822 0.6647 0.3047
vn 0.2336 0.9165 0.3249
vn 0.0790 0.9093 -0.4085
vn -0.9174 0.2523 0.3078
vn 0.6321 0.2401 0.7367
vn 0.5051 0.2197 0.8346
vn 0.2628 0.1583 -0.9518
vn -0.4278 -0.8498 -0.3080
vn 0.3027 -0.8846 0.3548
vn -0.4196 -0.8499 0.3189
vn -0.5061 0.0843 -0.8584
vn 0.2923 0.3664 -0.8833
vn 0.2992 -0.4105 -0.8614
vn 0.1226 -0.9198 -0.3727
vn 0.8046 -0.5209 0.2851
vn 0.8141 -0.5135 -0.2714
vn -0.0013 0.2075 -0.9782
vn -0.7015 -0.2977 -0.6476
vn -0.0264 -0.2440 -0.9694
vn 0.7035 0.2567 -0.6627
vn 0.7246 -0.1178 -0.6790
vn -0.6673 -0.6971 0.2622
vn 0.1175 -0.8969 0.4262
vn -0.1189 0.9507 -0.2864
vn -0.7603 0.5806 0.2912
vn -0.7763 0.5758 -0.2564
vn -0.0665 0.3541 0.9329
vn -0.4796 0.1902 0.8566
vn -0.3950 -0.3740 0.8391
vn -0.3661 0.9262 0.0905
vn -0.1845 0.8707 0.4560
vn 0.2674 0.8795 0.3937
vn 0.6631 0.6984 0.2694
vn -0.1130 0.9294 0.3514
vn 0.7226 0.6349 -0.2733
vn 0.9217 0.3456 0.1762
vn 0.8976 0.3633 -0.2496
vn -0.2473 -0.4444 -0.8610
vn 0.3769 0.3598 -0.8535
vn 0.2501 -0.4166 -0.8740
vn -0.3070 0.8427 -0.4423
vn 0.2922 0.8708 0.3955
vn 0.2785 0.8854 -0.3723
vn 0.7382 0.0955 0.6678
vn 0.3239 -0.4217 0.8469
vn 0.7156 -0.2791 0.6403
vn -0.2186 -0.9000 -0.3771
vn 0.3199 -0.8793 0.3529
vn -0.2027 -0.9020 0.3811
vn 0.6192 0.0917 -0.7799
vn 0.6005 -0.2745 -0.7511
vn -0.0767 -0.2249 0.9714
vn 0.6590 0.2365 0.7140
vn 0.6771 -0.1305 0.7242
vn -0.6662 -0.2932 0.6857
vn -0.0390 0.1610 0.9862
vn -0.5879 0.6415 0.4928
vn 0.4663 0.3573 0.8093
vn -0.2188 -0.4427 0.8695
vn 0.2999 -0.8818 -0.3640
vn 0.7223 -0.6572 0.2153
vn 0.9766 0.0604 0.2064
vn 0.9413 -0.2287 -0.2483
vn 0.9578 0.0723 -0.2784
vn -0.7288 0.6838 0.0359
vn -0.8669 0.3840 -0.3178
vn -0.8611 0.5001 0.0917
vn -0.9047 -0.3075 0.2950
vn -0.9506 0.0785 -0.3004
vn -0.9121 -0.3075 -0.2710
vn -0.4219 -0.3746 -0.8256
vn 0.3112 -0.8748 -0.3714
vn 0.2864 0.3633 0.8866
vn 0.6781 0.6955 -0.2376
vn 0.2870 0.8689 -0.4033
vn 0.2978 -0.4166 0.8589
vn 0.7548 0.6236 0.2035
vn -0.6808 -0.6946 -0.2326
vn -0.2373 0.3132 0.9196
vn -0.2878 0.8473 0.4464
vn -0.2699 0.3137 -0.9104
vn -0.9278 0.1735 0.3304
vn -0.7094 0.6352 -0.3054
vn -0.2674 0.9026 -0.3372
vn -0.2794 0.4083 -0.8690
vn 0.9566 -0.2242 0.1859
vn 0.6955 -0.6686 -0.2631
vn -0.6784 0.1207 0.7247
vn -0.7180 0.1245 -0.6848
vn -0.9492 0.0914 0.3010
vn 0.1295 0.9451 0.3002
vn 0.8990 0.1983 -0.3904
vn 0.3047 0.1533 0.9400
vn -0.8983 0.1413 0.4160
vn -0.2416 0.8908 0.3847
vn 0.3743 0.1442 0.9160
vt 0.329021 0.983982
vt 0.166392 1.000000
vt -0.000000 0.000000
vt 0.341023 0.607455
vt 0.175986 0.009312
vt 0.341023 0.009312
vt 1.802734 0.607455
vt 1.637697 0.009312
vt 1.802734 0.009312
vt 0.503107 0.607455
vt 0.503107 0.009312
vt 0.665192 0.607455
vt 0.665192 0.009312
vt 0.827276 0.607455
vt 0.827276 0.009312
vt 0.989360 0.607455
vt 0.989360 0.009312
vt 1.151444 0.607455
vt 1.151444 0.009312
vt 1.313529 0.607455
vt 1.313529 0.009313
vt 1.475613 0.607455
vt 1.475613 0.009312
vt 1.637697 0.607455
vt 0.097871 0.785978
vt 0.107585 0.775191
vt 0.115441 0.777410
vt 0.192532 0.928006
vt 0.199113 0.957967
vt 0.190591 0.960086
vt 0.070802 0.801416
vt 0.056328 0.801866
vt 0.056485 0.800155
vt 0.073157 0.834783
vt 0.088151 0.837763
vt 0.075654 0.838617
vt 0.096710 0.786275
vt 0.071088 0.795193
vt 0.084835 0.776644
vt 0.056178 0.797096
vt 0.071371 0.796399
vt 0.092106 0.802633
vt 0.072816 0.801726
vt 0.091788 0.831364
vt 0.105241 0.823928
vt 0.104530 0.835829
vt 0.231383 0.928137
vt 0.221529 0.934923
vt 0.227394 0.924532
vt 0.096652 0.784367
vt 0.086510 0.776131
vt 0.096581 0.770942
vt 0.093087 0.804352
vt 0.071517 0.803489
vt 0.076466 0.847898
vt 0.088738 0.847949
vt 0.076670 0.850292
vt 0.210597 0.932247
vt 0.208253 0.922916
vt 0.212252 0.915764
vt 0.056451 0.823105
vt 0.071119 0.831371
vt 0.057133 0.837007
vt 0.094038 0.802636
vt 0.108030 0.800999
vt 0.107333 0.803529
vt 0.072208 0.822915
vt 0.090982 0.831213
vt 0.072016 0.831251
vt 0.093932 0.805709
vt 0.107119 0.806199
vt 0.088855 0.844788
vt 0.103895 0.841396
vt 0.102113 0.849112
vt 0.071283 0.835405
vt 0.058160 0.842004
vt 0.057983 0.840285
vt 0.063829 0.855819
vt 0.075165 0.851006
vt 0.065004 0.857694
vt 0.058219 0.843489
vt 0.075770 0.847306
vt 0.063132 0.854649
vt 0.057425 0.838367
vt 0.072410 0.832578
vt 0.090168 0.834362
vt 0.107229 0.804975
vt 0.075804 0.839496
vt 0.088192 0.844751
vt 0.076413 0.847073
vt 0.091911 0.834836
vt 0.104326 0.837057
vt 0.103955 0.838648
vt 0.071289 0.804936
vt 0.091009 0.823376
vt 0.070399 0.804881
vt 0.056235 0.803194
vt 0.221314 0.955685
vt 0.208041 0.937766
vt 0.220554 0.935276
vt 0.090395 0.848144
vt 0.101708 0.850341
vt 0.101048 0.852215
vt 0.103882 0.840067
vt 0.222818 0.939680
vt 0.222423 0.954779
vt 0.221748 0.936686
vt 0.206898 0.937060
vt 0.201295 0.931872
vt 0.222332 0.956123
vt 0.231383 0.963818
vt 0.227132 0.966965
vt 0.207000 0.958508
vt 0.221407 0.956558
vt 0.226121 0.967645
vt 0.085396 0.775340
vt 0.072118 0.767169
vt 0.096441 0.769703
vt 0.070844 0.775104
vt 0.070254 0.795132
vt 0.055954 0.796004
vt 0.130908 0.776470
vt 0.116540 0.759468
vt 0.128599 0.757722
vt 0.209303 0.933249
vt 0.020470 0.770766
vt 0.023133 0.773398
vt 0.021622 0.787420
vt 0.044720 0.867535
vt 0.038283 0.849655
vt 0.055790 0.847221
vt 0.021970 0.882407
vt 0.039104 0.873104
vt 0.037765 0.883516
vt 0.006973 0.794930
vt 0.021645 0.794069
vt 0.005806 0.796671
vt 0.021413 0.788786
vt 0.004000 0.792900
vt 0.131270 0.782026
vt 0.118112 0.784780
vt 0.118419 0.782811
vt 0.022781 0.791725
vt 0.037468 0.794278
vt 0.022781 0.794127
vt 0.038492 0.779007
vt 0.041460 0.771973
vt 0.054939 0.772240
vt 0.032382 0.774982
vt 0.037500 0.778566
vt 0.037714 0.788601
vt 0.037649 0.789782
vt 0.037506 0.792225
vt 0.130839 0.839453
vt 0.118170 0.840749
vt 0.117963 0.836551
vt 0.009184 0.849517
vt 0.023502 0.852323
vt 0.006103 0.852183
vt 0.007909 0.847261
vt 0.022084 0.849569
vt 0.023575 0.849236
vt 0.038037 0.844475
vt 0.038089 0.846902
vt 0.118563 0.779109
vt 0.130882 0.777593
vt 0.117965 0.834213
vt 0.131375 0.837170
vt 0.052386 0.845104
vt 0.023209 0.853907
vt 0.023666 0.868636
vt 0.009568 0.869218
vt 0.132280 0.815545
vt 0.118517 0.797429
vt 0.131970 0.797456
vt 0.004929 0.798196
vt 0.021829 0.809757
vt 0.005610 0.809908
vt 0.052175 0.795088
vt 0.038680 0.790051
vt 0.054364 0.793838
vt 0.038496 0.794216
vt 0.053377 0.796657
vt 0.022418 0.827980
vt 0.037167 0.809749
vt 0.038074 0.827979
vt 0.038184 0.809738
vt 0.054261 0.798118
vt 0.053787 0.809582
vt 0.131832 0.821720
vt 0.119091 0.819366
vt 0.131444 0.819648
vt 0.020951 0.831733
vt 0.007364 0.832868
vt 0.008108 0.831505
vt 0.118561 0.816900
vt 0.132025 0.816822
vt 0.022822 0.831745
vt 0.038018 0.829230
vt 0.037862 0.831378
vt 0.021835 0.835243
vt 0.006938 0.834318
vt 0.131584 0.835774
vt 0.118372 0.822473
vt 0.132089 0.823173
vt 0.052487 0.831535
vt 0.039522 0.831300
vt 0.051714 0.830350
vt 0.021454 0.829304
vt 0.006502 0.829862
vt 0.054375 0.827398
vt 0.132277 0.785659
vt 0.117953 0.786081
vt 0.023174 0.845555
vt 0.038051 0.834623
vt 0.038094 0.843038
vt 0.039077 0.829233
vt 0.053078 0.828808
vt 0.022722 0.795359
vt 0.022850 0.809758
vt 0.022747 0.833906
vt 0.038015 0.833295
vt 0.024288 0.855624
vt 0.024217 0.852787
vt 0.037494 0.850360
vt 0.039470 0.846903
vt 0.053331 0.842813
vt 0.038931 0.834523
vt 0.052995 0.832876
vt 0.037573 0.772675
vt 0.037473 0.849206
vt 0.024352 0.851600
vt 0.029617 0.868015
vt 0.024875 0.868857
vt 0.021590 0.827955
vt 0.005113 0.828467
vt 0.129902 0.844896
vt 0.116713 0.856744
vt 0.118137 0.841925
vt 0.031668 0.773924
vt 0.024381 0.770464
vt 0.036007 0.772024
vt 0.026075 0.756827
vt 0.037704 0.771103
vt 0.024551 0.769322
vt 0.030443 0.867078
vt 0.024680 0.868141
vt 0.095756 0.798337
vt 0.095060 0.797203
vt 0.095839 0.797269
vt 0.070145 0.796283
vt 0.220636 0.934389
vt 0.094316 0.804535
vt 0.093108 0.805683
vt 0.070174 0.803582
vt 0.075136 0.839584
vt 0.074237 0.838426
vt 0.088698 0.838614
vt 0.089453 0.837495
vt 0.091847 0.832540
vt 0.090727 0.832443
vt 0.071138 0.832660
vt 0.075440 0.848856
vt 0.088270 0.845587
vt 0.097920 0.769951
vt 0.071935 0.774518
vt 0.071836 0.775780
vt 0.206379 0.957467
vt 0.207528 0.957434
vt 0.210800 0.933429
vt 0.116221 0.758582
vt 0.115605 0.759377
vt 0.128666 0.756721
vt 0.129516 0.757380
vt 0.116349 0.857750
vt 0.115605 0.856955
vt 0.128913 0.859205
vt 0.128901 0.858081
vt 0.129970 0.858525
vt 0.131908 0.776447
vt 0.038450 0.788702
vt 0.022546 0.788750
vt 0.022439 0.787401
vt 0.117476 0.778268
vt 0.117484 0.779972
vt 0.117236 0.841002
vt 0.130957 0.844348
vt 0.129957 0.843655
vt 0.133331 0.785387
vt 0.131946 0.784279
vt 0.133098 0.783727
vt 0.038227 0.795450
vt 0.037458 0.795410
vt 0.021908 0.795385
vt 0.116966 0.785877
vt 0.021540 0.833732
vt 0.117591 0.820954
vt 0.118660 0.821137
vt 0.133079 0.821633
vt 0.039148 0.833037
vt 0.133322 0.815797
vt 0.133205 0.817624
vt 0.038859 0.827973
vt 0.022599 0.829310
vt 0.117341 0.815948
vt 0.117510 0.817713
vt 0.022279 0.846326
vt 0.023241 0.846875
vt 0.116752 0.833314
vt 0.117832 0.832694
vt 0.132585 0.836742
vt 0.039033 0.843592
vt 0.038527 0.771738
vt 0.023618 0.769816
vt 0.024128 0.772986
vt 0.024006 0.773946
vt 0.038393 0.868077
vt 0.038364 0.867198
vt 0.039435 0.867641
vt 0.094640 0.798279
vt 0.108394 0.800060
vt 0.224335 0.953254
vt 0.223189 0.938083
vt 0.071055 0.822933
vt 0.092114 0.823441
vt 0.088064 0.838598
vt 0.089568 0.846258
vt 0.070701 0.767192
vt 0.100998 0.760640
vt 0.070691 0.756721
vt 0.199252 0.959366
vt 0.201206 0.930502
vt 0.192904 0.926801
vt 0.132163 0.778116
vt 0.132788 0.781838
vt 0.039216 0.792363
vt 0.118416 0.778075
vt 0.055790 0.792711
vt 0.116843 0.836314
vt 0.131988 0.839666
vt 0.117378 0.797447
vt 0.133128 0.797455
vt 0.020964 0.791844
vt 0.117086 0.784346
vt 0.117020 0.782839
vt 0.132844 0.819722
vt 0.117808 0.819453
vt 0.133194 0.823181
vt 0.022733 0.835302
vt 0.118351 0.815691
vt 0.117331 0.822375
vt 0.040845 0.758545
vt 0.025115 0.756721
vt 0.020793 0.882113
vt 0.040217 0.873242
vt 0.130018 0.921779
vt 0.117697 0.942254
vt 0.117241 0.922610
vt 0.071756 0.873102
vt 0.075025 0.891323
vt 0.055954 0.896843
vt 0.130772 0.947432
vt 0.117771 0.943349
vt 0.130758 0.942776
vt 0.074989 0.896007
vt 0.059774 0.901704
vt 0.060800 0.899726
vt 0.074977 0.892765
vt 0.057493 0.897992
vt 0.116908 0.949196
vt 0.117384 0.947191
vt 0.076871 0.895583
vt 0.092055 0.896684
vt 0.077158 0.898018
vt 0.091486 0.879541
vt 0.093901 0.871720
vt 0.108307 0.870566
vt 0.084668 0.876063
vt 0.090404 0.879189
vt 0.091771 0.890814
vt 0.091825 0.892054
vt 0.091949 0.894587
vt 0.080124 0.912302
vt 0.091843 0.912810
vt 0.080888 0.913900
vt 0.059159 0.903393
vt 0.078934 0.912292
vt 0.063192 0.915588
vt 0.077271 0.899265
vt 0.092298 0.909799
vt 0.079767 0.911059
vt 0.092677 0.913139
vt 0.097092 0.925240
vt 0.095562 0.924987
vt 0.131444 0.951251
vt 0.116826 0.962206
vt 0.116654 0.950508
vt 0.078387 0.926621
vt 0.080126 0.914395
vt 0.079801 0.926074
vt 0.107349 0.895532
vt 0.092917 0.892233
vt 0.109934 0.893696
vt 0.108627 0.897078
vt 0.093708 0.894608
vt 0.089811 0.873053
vt 0.093379 0.910831
vt 0.109537 0.898541
vt 0.108431 0.910516
vt 0.129446 0.963019
vt 0.117003 0.963779
vt 0.091815 0.914064
vt 0.081018 0.925860
vt 0.081171 0.915118
vt 0.083800 0.875043
vt 0.075793 0.872285
vt 0.088102 0.872557
vt 0.090515 0.857857
vt 0.075836 0.871073
vt 0.075970 0.857857
vt 0.116979 0.921656
vt 0.116268 0.922439
vt 0.130171 0.920736
vt 0.131007 0.921496
vt 0.131929 0.941665
vt 0.130881 0.941605
vt 0.092551 0.890843
vt 0.076147 0.892578
vt 0.075871 0.891202
vt 0.116695 0.942384
vt 0.116577 0.944177
vt 0.092235 0.911077
vt 0.132591 0.951119
vt 0.131251 0.949827
vt 0.132511 0.949389
vt 0.092975 0.897831
vt 0.092118 0.897841
vt 0.076382 0.899427
vt 0.115605 0.950254
vt 0.089766 0.871398
vt 0.090698 0.871966
vt 0.074920 0.871698
vt 0.075825 0.874946
vt 0.075812 0.875959
vt 0.074837 0.875494
vt 0.116856 0.965115
vt 0.115859 0.964142
vt 0.128955 0.964570
vt 0.130061 0.965126
vt 0.128866 0.965967
vt 0.093099 0.896552
vt 0.132051 0.943434
vt 0.132372 0.947379
vt 0.130649 0.963425
vt 0.115605 0.962424
vt 0.076014 0.898118
vt 0.115857 0.948676
vt 0.115995 0.947115
vt 0.091584 0.857930
vt 0.074955 0.857859
vt 0.189494 0.772364
vt 0.199055 0.803475
vt 0.189494 0.806450
vt 0.226200 0.777595
vt 0.227197 0.763011
vt 0.230702 0.764813
vt 0.206248 0.780312
vt 0.199317 0.775864
vt 0.223297 0.777948
vt 0.228386 0.794951
vt 0.225477 0.797991
vt 0.229570 0.780907
vt 0.225868 0.778893
vt 0.204937 0.765823
vt 0.225807 0.762322
vt 0.209882 0.775847
vt 0.248470 0.798582
vt 0.238958 0.781586
vt 0.248036 0.772425
vt 0.238201 0.781011
vt 0.246090 0.770055
vt 0.246962 0.771123
vt 0.245052 0.768874
vt 0.230312 0.780416
vt 0.229293 0.763086
vt 0.246930 0.800705
vt 0.239072 0.791111
vt 0.247574 0.799804
vt 0.235433 0.781795
vt 0.232576 0.791753
vt 0.230367 0.780996
vt 0.227600 0.763080
vt 0.226015 0.776777
vt 0.224851 0.763168
vt 0.224207 0.799123
vt 0.207600 0.780136
vt 0.221932 0.777390
vt 0.229958 0.797087
vt 0.235225 0.808821
vt 0.232864 0.809523
vt 0.232713 0.792288
vt 0.246043 0.801875
vt 0.236765 0.808305
vt 0.231983 0.811608
vt 0.228936 0.796401
vt 0.236436 0.807819
vt 0.208032 0.803548
vt 0.224397 0.800136
vt 0.230880 0.812488
vt 0.208354 0.777101
vt 0.206818 0.778963
vt 0.202833 0.776289
vt 0.238075 0.781801
vt 0.236957 0.790445
vt 0.236077 0.781866
vt 0.223137 0.776647
vt 0.221852 0.776361
vt 0.225447 0.799562
vt 0.235526 0.781228
vt 0.236629 0.781143
vt 0.236513 0.791103
vt 0.237591 0.791090
vt 0.229013 0.779387
vt 0.231825 0.792004
vt 0.207183 0.802423
vt 0.208550 0.802276
vt 0.199563 0.774297
vt 0.210139 0.777174
vt 0.238867 0.790343
vt 0.239787 0.790465
vt 0.236352 0.790581
vt 0.231784 0.793676
vt 0.199306 0.805052
vt 0.189796 0.770940
vt 0.000000 1.000000
vt 1.000000 -0.000000
vt 1.000000 0.166392
vt 0.983982 0.329021
vt 0.936545 0.485400
vt 0.859512 0.629520
vt 0.755842 0.755842
vt 0.629520 0.859512
vt 0.485400 0.936545
vt 0.175986 0.607455
vt 0.226448 0.923754
vt 0.223925 0.952333
vt 0.208489 0.973507
vt 0.205921 0.965839
vt 0.055954 0.771367
vt 0.064700 0.771585
vt 0.002708 0.791659
vt 0.005563 0.769587
vt 0.054521 0.866109
vt 0.039841 0.758364
vt 0.102258 0.761117
vt 0.069425 0.756782
vt 0.190720 0.961270
vt 0.038914 0.883598
vt 0.056139 0.873710
vt 0.111401 0.892311
vt 0.094291 0.925024
vt 0.207728 0.756721
vt 0.211014 0.820741
vt 0.207404 0.812104
vt 0.189719 0.807790
s 1
f 12/1/1 5/2/1 2/3/1
f 26/4/2 13/5/3 18/6/2
f 16/7/4 17/8/5 15/9/4
f 18/6/2 28/10/6 26/4/2
f 25/11/6 29/12/7 28/10/6
f 24/13/7 30/14/8 29/12/7
f 23/15/8 31/16/9 30/14/8
f 22/17/9 32/18/10 31/16/9
f 21/19/10 33/20/11 32/18/10
f 20/21/11 34/22/12 33/20/11
f 19/23/12 27/24/5 34/22/12
f 151/25/13 138/26/14 43/27/15
f 50/28/16 145/29/17 47/30/18
f 51/31/19 86/32/20 42/33/21
f 98/34/22 111/35/23 101/36/24
f 152/37/25 63/38/26 156/39/27
f 55/40/28 51/31/19 42/33/21
f 60/41/29 52/42/30 316/43/31
f 116/44/32 38/45/33 123/46/34
f 36/47/35 70/48/36 76/49/37
f 153/50/38 155/51/39 136/52/40
f 316/43/31 88/53/41 95/54/42
f 127/55/43 68/56/44 315/57/45
f 157/58/46 149/59/47 49/60/48
f 37/61/49 120/62/50 112/63/51
f 53/64/52 64/65/53 41/66/54
f 84/67/55 115/68/56 121/69/57
f 38/45/33 90/70/58 96/71/59
f 133/72/60 104/73/61 129/74/62
f 99/75/63 106/76/64 40/77/65
f 131/78/66 314/79/67 36/80/68
f 107/81/69 125/82/70 130/83/71
f 113/84/72 99/75/63 40/77/65
f 118/85/73 312/86/74 98/34/22
f 97/87/75 53/64/52 41/66/54
f 102/88/76 132/89/77 126/90/78
f 311/91/79 122/92/80 39/93/81
f 92/94/82 83/95/83 84/67/55
f 93/96/84 37/61/49 87/97/85
f 80/98/86 160/99/87 72/100/88
f 69/101/89 128/102/90 35/103/91
f 105/104/92 311/91/79 39/93/81
f 66/105/93 81/106/94 71/107/95
f 161/108/96 145/29/17 150/109/97
f 78/110/98 35/111/99 75/112/100
f 148/113/101 79/114/102 74/115/103
f 154/116/104 140/117/105 137/118/106
f 143/119/107 62/120/108 54/121/109
f 178/122/110 163/123/111 167/124/112
f 159/125/113 161/108/96 150/109/97
f 289/126/114 294/127/115 188/128/116
f 295/129/117 208/130/118 203/131/119
f 171/132/120 296/133/121 168/134/122
f 319/135/123 229/136/124 219/137/125
f 187/138/126 319/135/123 180/139/127
f 174/140/128 233/141/129 320/142/130
f 175/143/131 223/144/132 230/145/133
f 303/146/134 288/147/135 164/148/136
f 306/149/137 304/150/138 184/151/139
f 175/143/131 183/152/140 318/153/141
f 325/154/142 204/155/143 196/156/144
f 197/157/145 201/158/146 205/159/147
f 280/160/148 195/161/149 197/157/145
f 194/162/150 284/163/151 323/164/152
f 174/140/128 193/165/153 181/166/154
f 325/154/142 276/167/155 281/168/156
f 208/130/118 324/169/157 203/131/119
f 307/170/158 302/171/159 173/172/160
f 259/173/161 217/174/162 212/175/163
f 220/176/164 216/177/165 211/178/166
f 176/179/167 182/180/168 190/181/169
f 224/182/170 176/179/167 232/183/171
f 268/184/172 214/185/173 262/186/174
f 213/187/175 231/188/176 218/189/177
f 249/190/178 237/191/179 239/192/180
f 236/193/181 250/194/182 322/195/183
f 239/192/180 272/196/184 258/197/185
f 235/198/186 261/199/187 321/200/188
f 244/201/189 280/160/148 251/202/190
f 279/203/191 246/204/192 252/205/193
f 248/206/194 240/207/195 238/208/196
f 266/209/197 322/195/183 257/210/198
f 270/211/199 213/187/175 218/189/177
f 221/212/200 217/174/162 234/213/201
f 274/214/202 255/215/203 282/216/204
f 238/208/196 264/217/205 269/218/206
f 227/219/207 214/185/173 215/220/208
f 242/221/209 321/200/188 256/222/210
f 308/223/211 200/224/212 209/225/213
f 198/226/214 277/227/215 324/169/157
f 277/227/215 254/228/216 247/229/217
f 304/150/138 306/149/137 285/230/218
f 194/162/150 210/231/219 199/232/220
f 309/233/221 296/133/121 301/234/222
f 211/178/166 267/235/223 260/236/224
f 206/237/225 170/238/226 202/239/227
f 305/240/228 291/241/229 286/242/230
f 165/243/231 287/244/232 290/245/233
f 308/223/211 310/246/234 300/247/235
f 56/248/236 58/249/237 59/250/238
f 61/251/239 63/38/26 60/41/29
f 70/48/36 72/100/88 73/252/240
f 78/110/98 80/98/86 81/106/94
f 89/253/241 91/254/242 88/53/41
f 92/94/82 94/255/243 95/54/42
f 101/36/24 103/256/244 100/257/245
f 109/258/246 111/35/23 108/259/247
f 115/68/56 117/260/248 114/261/249
f 119/262/250 121/69/57 118/85/73
f 125/82/70 127/55/43 124/263/251
f 133/72/60 135/264/252 132/89/77
f 136/52/40 137/118/106 138/265/14
f 141/266/253 142/267/254 143/119/107
f 146/268/255 147/269/256 148/113/101
f 151/25/13 152/37/25 153/50/38
f 154/116/104 155/51/39 156/39/27
f 157/58/46 158/270/257 159/125/113
f 162/271/258 163/123/111 164/272/136
f 165/273/231 166/274/259 167/124/112
f 168/275/122 169/276/260 170/238/226
f 171/277/120 172/278/261 173/279/160
f 179/280/262 181/166/154 178/122/110
f 183/152/140 185/281/263 182/180/168
f 186/282/264 188/128/116 189/283/265
f 191/284/266 193/165/153 190/285/169
f 199/232/220 200/224/212 201/158/146
f 202/239/227 203/286/119 204/155/143
f 205/287/147 206/237/225 207/288/267
f 208/130/118 209/225/213 210/231/219
f 220/289/164 222/290/268 219/291/125
f 223/144/132 225/292/269 226/293/270
f 228/294/271 230/145/133 227/219/207
f 231/295/176 233/141/129 234/213/201
f 242/221/209 244/201/189 241/296/272
f 246/204/192 248/297/194 245/298/273
f 250/299/182 252/205/193 249/190/178
f 254/228/216 256/222/210 253/300/274
f 258/197/185 260/301/224 257/302/198
f 261/199/187 263/303/275 264/217/205
f 265/304/276 267/235/223 268/184/172
f 270/305/199 272/196/184 269/306/206
f 273/307/277 274/214/202 275/308/278
f 276/167/155 277/309/215 278/310/279
f 279/203/191 280/311/148 281/168/156
f 282/216/204 283/312/280 284/163/151
f 285/230/218 287/244/232 288/313/135
f 289/314/114 290/245/233 291/241/229
f 292/315/281 293/316/282 294/127/115
f 297/317/283 298/318/284 299/319/285
f 300/247/235 301/234/222 302/171/159
f 60/41/29 51/31/19 61/251/239
f 88/53/41 53/64/52 89/253/241
f 57/320/286 53/64/52 52/42/30
f 55/40/28 62/120/108 61/251/239
f 63/38/26 57/320/286 60/41/29
f 65/321/287 56/248/236 59/250/238
f 315/57/45 124/263/251 127/55/43
f 81/106/94 313/322/288 78/110/98
f 71/107/95 67/323/289 66/105/93
f 71/107/95 80/98/86 72/100/88
f 75/112/100 79/114/102 78/110/98
f 73/252/240 76/49/37 70/48/36
f 92/94/82 85/324/290 93/96/84
f 91/254/242 82/325/291 83/95/83
f 95/54/42 51/31/19 316/43/31
f 87/97/85 94/255/243 93/96/84
f 89/253/241 96/71/59 90/70/58
f 95/54/42 91/254/242 92/94/82
f 118/85/73 99/75/63 119/262/250
f 312/86/74 108/259/247 111/35/23
f 98/34/22 100/257/245 99/75/63
f 132/89/77 109/258/246 133/72/60
f 101/36/24 110/326/292 102/88/76
f 108/259/247 104/73/61 109/258/246
f 103/256/244 106/76/64 100/257/245
f 114/261/249 311/91/79 312/86/74
f 119/262/250 112/63/51 120/62/50
f 123/46/34 117/260/248 116/44/32
f 121/69/57 114/261/249 118/85/73
f 126/90/78 103/256/244 102/88/76
f 68/56/44 134/327/293 69/101/89
f 129/74/62 134/327/293 133/72/60
f 126/90/78 135/264/252 127/55/43
f 124/263/251 130/83/71 125/82/70
f 137/118/106 155/51/39 154/116/104
f 139/328/294 141/266/253 143/119/107
f 138/265/14 153/50/38 136/52/40
f 44/329/295 138/265/14 137/118/106
f 139/328/294 45/330/296 140/117/105
f 62/120/108 142/267/254 63/38/26
f 144/331/297 146/268/255 148/113/101
f 149/332/47 50/28/16 49/333/48
f 144/331/297 47/30/18 145/29/17
f 147/269/256 79/114/102 148/113/101
f 149/332/47 159/125/113 150/109/97
f 152/37/25 155/51/39 153/50/38
f 152/37/25 59/250/238 58/249/237
f 156/39/27 141/266/253 154/116/104
f 160/99/87 159/125/113 158/270/257
f 160/99/87 146/268/255 161/108/96
f 73/252/240 158/270/257 157/58/46
f 167/124/112 162/271/258 165/273/231
f 167/124/112 179/280/262 178/122/110
f 170/238/226 171/277/120 168/275/122
f 202/239/227 169/276/260 203/286/119
f 174/140/128 219/291/125 222/290/268
f 175/143/131 187/138/126 186/282/264
f 320/142/130 190/285/169 193/165/153
f 318/153/141 224/182/170 223/144/132
f 174/140/128 180/334/127 319/335/123
f 318/153/141 182/180/168 177/336/298
f 163/123/111 191/284/266 164/272/136
f 180/139/127 188/128/116 187/138/126
f 181/166/154 192/337/299 178/122/110
f 184/151/139 186/282/264 189/283/265
f 191/338/266 182/180/168 185/281/263
f 275/308/278 195/161/149 273/307/277
f 276/167/155 324/339/157 277/309/215
f 207/288/267 197/340/145 205/287/147
f 323/164/152 208/130/118 210/231/219
f 199/232/220 195/161/149 194/162/150
f 196/156/144 203/286/119 324/339/157
f 206/237/225 173/279/160 172/278/261
f 199/232/220 209/225/213 200/224/212
f 202/239/227 207/288/267 206/237/225
f 215/220/208 228/294/271 227/219/207
f 234/213/201 218/341/177 231/295/176
f 221/212/200 211/342/166 212/175/163
f 214/185/173 225/292/269 213/187/175
f 175/143/131 229/136/124 317/343/300
f 320/142/130 232/344/171 176/345/167
f 234/213/201 222/290/268 221/212/200
f 228/294/271 219/137/125 229/136/124
f 232/183/171 225/292/269 224/182/170
f 230/145/133 226/293/270 227/219/207
f 235/198/186 266/209/197 265/304/276
f 237/191/179 269/306/206 272/196/184
f 249/190/178 322/346/183 250/299/182
f 321/200/188 253/300/274 256/222/210
f 235/198/186 241/296/272 236/193/181
f 237/191/179 248/297/194 238/347/196
f 279/203/191 251/348/190 280/311/148
f 282/216/204 254/228/216 283/312/280
f 256/222/210 243/349/301 242/221/209
f 253/300/274 247/229/217 254/228/216
f 251/202/190 241/296/272 244/201/189
f 252/205/193 245/298/273 249/190/178
f 239/192/180 257/302/198 322/346/183
f 321/200/188 264/217/205 240/207/195
f 258/197/185 271/350/302 259/173/161
f 257/210/198 267/235/223 266/209/197
f 263/303/275 269/218/206 264/217/205
f 262/186/174 265/304/276 268/184/172
f 217/174/162 270/305/199 218/341/177
f 274/214/202 244/201/189 243/349/301
f 278/310/279 247/351/217 246/204/192
f 281/168/156 197/340/145 325/154/142
f 284/163/151 198/226/214 323/164/152
f 274/214/202 284/163/151 275/308/278
f 276/167/155 279/203/191 281/168/156
f 286/242/230 306/149/137 305/240/228
f 294/127/115 291/241/229 292/315/281
f 290/245/233 286/242/230 291/241/229
f 303/146/134 285/230/218 288/313/135
f 287/244/232 164/352/136 288/313/135
f 166/353/259 290/245/233 289/314/114
f 188/128/116 293/316/282 189/283/265
f 309/233/221 300/247/235 310/246/234
f 299/319/285 296/133/121 297/317/283
f 302/171/159 171/132/120 173/354/160
f 295/355/117 168/134/122 296/133/121
f 209/225/213 299/319/285 298/318/284
f 302/171/159 308/223/211 300/247/235
f 184/151/139 303/146/134 185/281/263
f 293/316/282 305/240/228 306/149/137
f 310/246/234 297/317/283 309/233/221
f 307/170/158 200/224/212 308/223/211
f 215/220/208 267/235/223 216/177/165
f 214/185/173 263/303/275 262/186/174
f 212/175/163 260/301/224 259/173/161
f 115/68/56 82/325/291 116/44/32
f 121/69/57 85/324/290 84/67/55
f 45/330/296 137/118/106 140/117/105
f 331/356/303 349/357/304 327/358/305
f 381/359/306 345/360/307 336/361/308
f 332/362/309 350/363/310 338/364/311
f 333/365/312 361/366/313 406/367/314
f 344/368/315 406/367/314 337/369/316
f 332/362/309 375/370/317 407/371/318
f 403/372/319 365/373/320 372/374/321
f 387/375/322 380/376/323 328/377/324
f 390/378/325 388/379/326 341/380/327
f 403/372/319 340/381/328 405/382/329
f 357/383/330 396/384/331 392/385/332
f 362/386/333 358/387/334 352/388/335
f 369/389/336 354/390/337 356/391/338
f 394/392/339 360/393/340 399/394/341
f 363/395/342 359/396/343 376/397/344
f 352/398/335 391/399/345 401/400/346
f 334/401/347 339/402/348 347/403/349
f 374/404/350 404/405/351 334/401/347
f 388/379/326 390/378/325 377/406/352
f 355/407/353 373/408/354 360/409/340
f 351/410/355 397/411/356 359/396/343
f 395/412/357 402/413/358 393/414/359
f 389/415/360 383/416/361 378/417/362
f 326/418/363 382/419/364 329/420/365
f 326/421/363 327/358/305 328/422/324
f 329/423/365 330/424/366 331/356/303
f 336/425/308 338/364/311 335/426/367
f 340/381/328 342/427/368 339/402/348
f 343/428/369 345/360/307 346/429/370
f 348/430/371 350/363/310 347/431/349
f 353/432/372 354/390/337 355/407/353
f 356/391/338 357/383/330 358/387/334
f 362/433/333 364/434/373 361/435/313
f 365/373/320 367/436/374 368/437/375
f 370/438/376 372/374/321 369/389/336
f 373/439/354 375/370/317 376/397/344
f 377/406/352 379/440/377 380/441/323
f 381/442/306 382/419/364 383/416/361
f 384/443/378 385/444/379 386/445/380
f 391/399/345 392/385/332 393/414/359
f 394/392/339 395/412/357 396/384/331
f 397/411/356 398/446/381 399/447/341
f 400/448/382 401/449/346 402/450/358
f 327/358/305 329/423/365 331/356/303
f 331/356/303 336/425/308 335/426/367
f 332/362/309 361/435/313 364/434/373
f 403/372/319 344/368/315 343/428/369
f 407/371/318 347/431/349 350/363/310
f 405/382/329 366/451/383 365/373/320
f 332/362/309 337/452/316 406/453/314
f 405/382/329 339/402/348 404/405/351
f 327/358/305 348/430/371 328/422/324
f 337/369/316 345/360/307 344/368/315
f 338/364/311 349/357/304 335/426/367
f 341/380/327 343/428/369 346/429/370
f 342/427/368 347/403/349 339/402/348
f 400/448/382 352/454/335 401/449/346
f 396/384/331 355/407/353 394/392/339
f 356/391/338 370/438/376 369/389/336
f 376/397/344 360/455/340 373/439/354
f 356/391/338 353/432/372 357/383/330
f 392/385/332 358/387/334 357/383/330
f 397/411/356 360/455/340 359/396/343
f 392/385/332 395/412/357 393/414/359
f 399/394/341 395/412/357 394/392/339
f 393/414/359 401/400/346 391/399/345
f 398/446/381 400/448/382 402/450/358
f 363/395/342 352/454/335 351/410/355
f 354/390/337 367/436/374 355/407/353
f 403/372/319 371/456/384 333/365/312
f 407/371/318 374/457/350 334/458/347
f 376/397/344 364/434/373 363/395/342
f 370/438/376 361/366/313 371/456/384
f 374/404/350 367/436/374 366/451/383
f 372/374/321 368/437/375 369/389/336
f 378/417/362 390/378/325 389/415/360
f 386/445/380 383/416/361 384/443/378
f 382/419/364 378/417/362 383/416/361
f 387/375/322 377/406/352 380/441/323
f 379/440/377 328/459/324 380/441/323
f 330/460/366 382/419/364 381/442/306
f 345/360/307 385/444/379 346/429/370
f 341/380/327 387/375/322 342/427/368
f 385/444/379 389/415/360 390/378/325
f 413/461/385 458/462/386 410/463/387
f 414/464/388 422/465/389 409/466/390
f 468/467/391 458/462/386 463/468/392
f 417/469/393 476/470/394 427/471/395
f 448/472/396 476/470/394 477/473/397
f 464/474/398 423/475/399 465/476/400
f 432/477/401 428/478/402 474/479/403
f 430/480/404 439/481/405 475/482/406
f 440/483/407 446/484/408 451/485/409
f 438/486/410 473/487/411 431/488/412
f 435/489/413 453/490/414 447/491/415
f 452/492/416 414/493/388 409/494/390
f 426/495/417 470/496/418 418/497/419
f 415/498/420 449/499/421 408/500/422
f 454/501/423 437/502/424 450/503/425
f 421/504/426 415/505/420 408/506/422
f 461/507/427 425/508/428 420/509/429
f 467/510/430 469/511/431 462/512/432
f 429/513/433 444/514/434 434/515/435
f 416/516/436 418/497/419 419/517/437
f 424/518/438 426/495/417 427/471/395
f 428/478/402 429/513/433 430/480/404
f 434/515/435 436/519/439 433/520/440
f 442/521/441 444/514/434 441/522/442
f 446/484/408 448/472/396 445/523/443
f 454/501/423 456/524/444 453/490/414
f 459/525/445 460/526/446 461/507/427
f 462/512/432 463/468/392 464/527/398
f 465/476/400 466/528/447 467/510/430
f 468/467/391 469/511/431 470/496/418
f 471/529/448 472/530/449 473/487/411
f 477/473/397 445/523/443 448/472/396
f 427/471/395 415/505/420 424/518/438
f 417/469/393 414/464/388 477/473/397
f 427/471/395 418/497/419 417/469/393
f 421/504/426 425/508/428 424/518/438
f 419/517/437 422/465/389 416/516/436
f 471/529/448 441/522/442 444/514/434
f 472/530/449 431/488/412 473/487/411
f 428/478/402 471/529/448 429/513/433
f 429/513/433 433/520/440 430/480/404
f 453/490/414 442/521/441 454/501/423
f 434/515/435 443/531/450 435/489/413
f 441/522/442 437/502/424 442/521/441
f 440/483/407 433/520/440 436/519/439
f 447/491/415 436/519/439 435/489/413
f 476/470/394 455/532/451 415/498/420
f 450/503/425 455/532/451 454/501/423
f 447/491/415 456/524/444 448/472/396
f 445/523/443 451/485/409 446/484/408
f 468/467/391 462/512/432 469/511/431
f 457/533/452 459/525/445 461/507/427
f 464/527/398 413/461/385 412/534/453
f 457/533/452 410/463/387 458/462/386
f 460/526/446 425/508/428 461/507/427
f 465/476/400 462/512/432 464/527/398
f 470/496/418 467/510/430 466/528/447
f 460/526/446 468/467/391 470/496/418
f 419/517/437 466/528/447 465/476/400
f 475/482/406 428/478/402 430/480/404
f 483/461/454 528/462/455 480/463/456
f 484/464/457 492/465/458 479/466/459
f 538/467/460 528/462/455 533/468/461
f 487/469/462 546/470/463 497/471/464
f 518/472/465 546/470/463 547/473/466
f 534/474/467 493/475/468 535/476/469
f 542/530/470 544/479/471 502/477/472
f 500/480/473 509/481/474 545/482/475
f 510/483/476 516/484/477 521/485/478
f 508/486/479 543/487/480 501/488/481
f 505/489/482 523/490/483 517/491/484
f 522/492/485 484/493/457 479/494/459
f 496/495/486 540/496/487 488/497/488
f 485/498/489 519/499/490 478/500/491
f 524/501/492 507/502/493 520/503/494
f 491/504/495 485/505/489 478/506/491
f 531/507/496 495/508/497 490/509/498
f 537/510/499 539/511/500 532/512/501
f 499/513/502 514/514/503 504/515/504
f 486/516/505 488/497/488 489/517/506
f 494/518/507 496/495/486 497/471/464
f 498/478/508 499/513/502 500/480/473
f 504/515/504 506/519/509 503/520/510
f 512/521/511 514/514/503 511/522/512
f 516/484/477 518/472/465 515/523/513
f 524/501/492 526/524/514 523/490/483
f 529/525/515 530/526/516 531/507/496
f 532/512/501 533/468/461 534/527/467
f 535/476/469 536/528/517 537/510/499
f 538/467/460 539/511/500 540/496/487
f 541/529/518 542/530/470 543/487/480
f 547/473/466 515/523/513 518/472/465
f 497/471/464 485/505/489 494/518/507
f 487/469/462 484/464/457 547/473/466
f 497/471/464 488/497/488 487/469/462
f 491/504/495 495/508/497 494/518/507
f 489/517/506 492/465/458 486/516/505
f 541/529/518 511/522/512 514/514/503
f 542/530/470 501/488/481 543/487/480
f 498/478/508 541/529/518 499/513/502
f 499/513/502 503/520/510 500/480/473
f 523/490/483 512/521/511 524/501/492
f 514/514/503 505/489/482 504/515/504
f 511/522/512 507/502/493 512/521/511
f 510/483/476 503/520/510 506/519/509
f 517/491/484 506/519/509 505/489/482
f 546/470/463 525/532/519 485/498/489
f 520/503/494 525/532/519 524/501/492
f 517/491/484 526/524/514 518/472/465
f 515/523/513 521/485/478 516/484/477
f 538/467/460 532/512/501 539/511/500
f 527/533/520 529/525/515 531/507/496
f 534/527/467 483/461/454 482/534/521
f 527/533/520 480/463/456 528/462/455
f 530/526/516 495/508/497 531/507/496
f 535/476/469 532/512/501 534/527/467
f 540/496/487 537/510/499 536/528/517
f 530/526/516 538/467/460 540/496/487
f 489/517/506 536/528/517 535/476/469
f 545/482/475 498/478/508 500/480/473
f 553/356/522 571/357/523 549/358/524
f 603/359/525 567/360/526 558/361/527
f 554/362/528 572/363/529 560/364/530
f 555/365/531 583/366/532 628/367/533
f 566/368/534 628/367/533 559/369/535
f 554/362/528 597/370/536 629/371/537
f 625/372/538 587/373/539 594/374/540
f 609/375/541 602/376/542 550/377/543
f 612/378/544 610/379/545 563/380/546
f 625/372/538 562/381/547 627/382/548
f 579/383/549 618/384/550 614/385/551
f 584/386/552 580/387/553 574/388/554
f 591/389/555 576/390/556 578/391/557
f 616/392/558 582/393/559 621/394/560
f 585/395/561 581/396/562 598/397/563
f 574/398/554 613/399/564 623/400/565
f 556/401/566 561/402/567 569/403/568
f 596/404/569 626/405/570 556/401/566
f 610/379/545 612/378/544 599/406/571
f 577/407/572 595/408/573 582/409/559
f 573/410/574 619/411/575 581/396/562
f 617/412/576 624/413/577 615/414/578
f 611/415/579 605/416/580 600/417/581
f 548/418/582 604/419/583 551/420/584
f 548/421/582 549/358/524 550/422/543
f 551/423/584 552/424/585 553/356/522
f 558/425/527 560/364/530 557/426/586
f 562/381/547 564/427/587 561/402/567
f 565/428/588 567/360/526 568/429/589
f 570/430/590 572/363/529 569/431/568
f 575/432/591 576/390/556 577/407/572
f 578/391/557 579/383/549 580/387/553
f 584/433/552 586/434/592 583/435/532
f 587/373/539 589/436/593 590/437/594
f 592/438/595 594/374/540 591/389/555
f 595/439/573 597/370/536 598/397/563
f 599/406/571 601/440/596 602/441/542
f 603/442/525 604/419/583 605/416/580
f 606/443/597 607/444/598 608/445/599
f 613/399/564 614/385/551 615/414/578
f 616/392/558 617/412/576 618/384/550
f 619/411/575 620/446/600 621/447/560
f 622/448/601 623/449/565 624/450/577
f 549/358/524 551/423/584 553/356/522
f 553/356/522 558/425/527 557/426/586
f 554/362/528 583/435/532 586/434/592
f 625/372/538 566/368/534 565/428/588
f 629/371/537 569/431/568 572/363/529
f 627/382/548 588/451/602 587/373/539
f 554/362/528 559/452/535 628/453/533
f 627/382/548 561/402/567 626/405/570
f 549/358/524 570/430/590 550/422/543
f 559/369/535 567/360/526 566/368/534
f 560/364/530 571/357/523 557/426/586
f 563/380/546 565/428/588 568/429/589
f 564/427/587 569/403/568 561/402/567
f 622/448/601 574/454/554 623/449/565
f 618/384/550 577/407/572 616/392/558
f 578/391/557 592/438/595 591/389/555
f 581/396/562 595/439/573 598/397/563
f 578/391/557 575/432/591 579/383/549
f 614/385/551 580/387/553 579/383/549
f 619/411/575 582/455/559 581/396/562
f 614/385/551 617/412/576 615/414/578
f 621/394/560 617/412/576 616/392/558
f 615/414/578 623/400/565 613/399/564
f 620/446/600 622/448/601 624/450/577
f 585/395/561 574/454/554 573/410/574
f 576/390/556 589/436/593 577/407/572
f 625/372/538 593/456/603 555/365/531
f 629/371/537 596/457/569 556/458/566
f 598/397/563 586/434/592 585/395/561
f 592/438/595 583/366/532 593/456/603
f 596/404/569 589/436/593 588/451/602
f 594/374/540 590/437/594 591/389/555
f 600/417/581 612/378/544 611/415/579
f 608/445/599 605/416/580 606/443/597
f 604/419/583 600/417/581 605/416/580
f 609/375/541 599/406/571 602/441/542
f 601/440/596 550/459/543 602/441/542
f 552/460/585 604/419/583 603/442/525
f 567/360/526 607/444/598 568/429/589
f 563/380/546 609/375/541 564/427/587
f 607/444/598 611/415/579 612/378/544
f 5/2/1 3/535/1 2/3/1
f 2/3/1 1/536/1 4/537/1
f 4/537/1 6/538/1 2/3/1
f 6/538/1 7/539/1 2/3/1
f 7/539/1 8/540/1 2/3/1
f 8/540/1 9/541/1 2/3/1
f 9/541/1 10/542/1 2/3/1
f 10/542/1 11/543/1 2/3/1
f 11/543/1 12/1/1 2/3/1
f 26/4/2 14/544/3 13/5/3
f 16/7/4 27/24/5 17/8/5
f 18/6/2 25/11/6 28/10/6
f 25/11/6 24/13/7 29/12/7
f 24/13/7 23/15/8 30/14/8
f 23/15/8 22/17/9 31/16/9
f 22/17/9 21/19/10 32/18/10
f 21/19/10 20/21/11 33/20/11
f 20/21/11 19/23/12 34/22/12
f 19/23/12 17/8/5 27/24/5
f 43/27/15 65/321/287 151/25/13
f 65/321/287 59/250/238 151/25/13
f 50/28/16 150/109/97 145/29/17
f 51/31/19 94/255/243 86/32/20
f 98/34/22 312/86/74 111/35/23
f 58/249/237 63/38/26 152/37/25
f 63/38/26 142/267/254 156/39/27
f 55/40/28 61/251/239 51/31/19
f 60/41/29 57/320/286 52/42/30
f 116/44/32 82/325/291 38/45/33
f 36/47/35 67/323/289 70/48/36
f 316/43/31 52/42/30 88/53/41
f 127/55/43 135/264/252 68/56/44
f 49/60/48 77/545/604 157/58/46
f 77/545/604 73/252/240 157/58/46
f 37/61/49 85/324/290 120/62/50
f 53/64/52 56/248/236 64/65/53
f 84/67/55 83/95/83 115/68/56
f 38/45/33 82/325/291 90/70/58
f 133/72/60 109/258/246 104/73/61
f 99/75/63 100/257/245 106/76/64
f 131/78/66 124/263/251 314/79/67
f 107/81/69 103/256/244 125/82/70
f 113/84/72 119/262/250 99/75/63
f 118/85/73 114/261/249 312/86/74
f 97/87/75 89/253/241 53/64/52
f 102/88/76 110/326/292 132/89/77
f 311/91/79 117/260/248 122/92/80
f 92/94/82 91/254/242 83/95/83
f 93/96/84 85/324/290 37/61/49
f 147/269/256 160/99/87 80/98/86
f 160/99/87 158/270/257 72/100/88
f 69/101/89 134/327/293 128/102/90
f 105/104/92 108/259/247 311/91/79
f 66/105/93 68/546/605 81/106/94
f 161/108/96 146/268/255 145/29/17
f 78/110/98 313/322/288 35/111/99
f 74/115/103 48/547/606 144/548/297
f 144/548/297 148/113/101 74/115/103
f 154/116/104 141/266/253 140/117/105
f 54/121/109 46/549/607 143/119/107
f 46/549/607 139/550/294 143/119/107
f 178/122/110 192/337/299 163/123/111
f 179/551/262 166/552/259 188/128/116
f 166/552/259 289/126/114 188/128/116
f 203/131/119 169/553/260 295/129/117
f 295/129/117 299/319/285 208/130/118
f 171/132/120 301/234/222 296/133/121
f 319/135/123 317/343/300 229/136/124
f 187/138/126 317/343/300 319/135/123
f 174/140/128 222/290/268 233/141/129
f 175/143/131 318/153/141 223/144/132
f 164/148/136 191/338/266 303/146/134
f 191/338/266 185/281/263 303/146/134
f 184/151/139 189/283/265 306/149/137
f 189/283/265 293/316/282 306/149/137
f 175/143/131 186/282/264 183/152/140
f 325/154/142 207/288/267 204/155/143
f 197/157/145 195/161/149 201/158/146
f 280/160/148 273/307/277 195/161/149
f 194/162/150 275/308/278 284/163/151
f 174/140/128 320/142/130 193/165/153
f 325/154/142 196/156/144 276/167/155
f 208/130/118 198/226/214 324/169/157
f 173/172/160 205/159/147 307/170/158
f 205/159/147 201/158/146 307/170/158
f 259/173/161 271/350/302 217/174/162
f 220/176/164 228/294/271 216/177/165
f 176/179/167 177/336/298 182/180/168
f 224/182/170 177/336/298 176/179/167
f 268/184/172 215/220/208 214/185/173
f 213/187/175 225/292/269 231/188/176
f 249/190/178 245/298/273 237/191/179
f 236/193/181 241/296/272 250/194/182
f 239/192/180 237/191/179 272/196/184
f 235/198/186 265/304/276 261/199/187
f 244/201/189 273/307/277 280/160/148
f 279/203/191 278/310/279 246/204/192
f 248/206/194 253/300/274 240/207/195
f 266/209/197 236/193/181 322/195/183
f 270/211/199 263/303/275 213/187/175
f 221/212/200 212/175/163 217/174/162
f 274/214/202 243/349/301 255/215/203
f 238/208/196 240/207/195 264/217/205
f 227/219/207 226/293/270 214/185/173
f 242/221/209 235/198/186 321/200/188
f 298/318/284 310/246/234 209/225/213
f 310/246/234 308/223/211 209/225/213
f 198/226/214 283/312/280 277/227/215
f 277/227/215 283/312/280 254/228/216
f 194/162/150 323/164/152 210/231/219
f 309/233/221 297/317/283 296/133/121
f 211/178/166 216/177/165 267/235/223
f 206/237/225 172/278/261 170/238/226
f 305/240/228 292/315/281 291/241/229
f 165/243/231 162/554/258 287/244/232
f 56/248/236 57/320/286 58/249/237
f 61/251/239 62/120/108 63/38/26
f 70/48/36 71/107/95 72/100/88
f 78/110/98 79/114/102 80/98/86
f 89/253/241 90/70/58 91/254/242
f 92/94/82 93/96/84 94/255/243
f 101/36/24 102/88/76 103/256/244
f 109/258/246 110/326/292 111/35/23
f 115/68/56 116/44/32 117/260/248
f 119/262/250 120/62/50 121/69/57
f 125/82/70 126/90/78 127/55/43
f 133/72/60 134/327/293 135/264/252
f 179/280/262 180/334/127 181/166/154
f 183/152/140 184/151/139 185/281/263
f 186/282/264 187/138/126 188/128/116
f 191/284/266 192/337/299 193/165/153
f 220/289/164 221/212/200 222/290/268
f 223/144/132 224/182/170 225/292/269
f 228/294/271 229/136/124 230/145/133
f 231/295/176 232/344/171 233/141/129
f 242/221/209 243/349/301 244/201/189
f 246/204/192 247/351/217 248/297/194
f 250/299/182 251/348/190 252/205/193
f 254/228/216 255/215/203 256/222/210
f 258/197/185 259/173/161 260/301/224
f 261/199/187 262/186/174 263/303/275
f 265/304/276 266/209/197 267/235/223
f 270/305/199 271/350/302 272/196/184
f 285/230/218 286/242/230 287/244/232
f 60/41/29 316/43/31 51/31/19
f 88/53/41 52/42/30 53/64/52
f 57/320/286 56/248/236 53/64/52
f 55/40/28 54/121/109 62/120/108
f 63/38/26 58/249/237 57/320/286
f 65/321/287 64/65/53 56/248/236
f 315/57/45 314/79/67 124/263/251
f 81/106/94 68/546/605 313/322/288
f 71/107/95 70/48/36 67/323/289
f 71/107/95 81/106/94 80/98/86
f 75/112/100 74/115/103 79/114/102
f 73/252/240 77/545/604 76/49/37
f 92/94/82 84/67/55 85/324/290
f 91/254/242 90/70/58 82/325/291
f 95/54/42 94/255/243 51/31/19
f 87/97/85 86/32/20 94/255/243
f 89/253/241 97/87/75 96/71/59
f 95/54/42 88/53/41 91/254/242
f 118/85/73 98/34/22 99/75/63
f 312/86/74 311/91/79 108/259/247
f 98/34/22 101/36/24 100/257/245
f 132/89/77 110/326/292 109/258/246
f 101/36/24 111/35/23 110/326/292
f 108/259/247 105/104/92 104/73/61
f 103/256/244 107/81/69 106/76/64
f 114/261/249 117/260/248 311/91/79
f 119/262/250 113/84/72 112/63/51
f 123/46/34 122/92/80 117/260/248
f 121/69/57 115/68/56 114/261/249
f 126/90/78 125/82/70 103/256/244
f 68/56/44 135/264/252 134/327/293
f 129/74/62 128/102/90 134/327/293
f 126/90/78 132/89/77 135/264/252
f 124/263/251 131/78/66 130/83/71
f 137/118/106 136/52/40 155/51/39
f 139/328/294 140/117/105 141/266/253
f 138/265/14 151/25/13 153/50/38
f 44/329/295 43/555/15 138/265/14
f 139/328/294 46/556/607 45/330/296
f 62/120/108 143/119/107 142/267/254
f 144/331/297 145/29/17 146/268/255
f 149/332/47 150/109/97 50/28/16
f 144/331/297 48/557/606 47/30/18
f 147/269/256 80/98/86 79/114/102
f 149/332/47 157/58/46 159/125/113
f 152/37/25 156/39/27 155/51/39
f 152/37/25 151/25/13 59/250/238
f 156/39/27 142/267/254 141/266/253
f 160/99/87 161/108/96 159/125/113
f 160/99/87 147/269/256 146/268/255
f 73/252/240 72/100/88 158/270/257
f 167/124/112 163/123/111 162/271/258
f 167/124/112 166/274/259 179/280/262
f 170/238/226 172/278/261 171/277/120
f 202/239/227 170/238/226 169/276/260
f 174/140/128 319/335/123 219/291/125
f 175/143/131 317/343/300 187/138/126
f 320/142/130 176/345/167 190/285/169
f 318/153/141 177/336/298 224/182/170
f 174/140/128 181/166/154 180/334/127
f 318/153/141 183/152/140 182/180/168
f 163/123/111 192/337/299 191/284/266
f 180/139/127 179/551/262 188/128/116
f 181/166/154 193/165/153 192/337/299
f 184/151/139 183/152/140 186/282/264
f 191/338/266 190/181/169 182/180/168
f 275/308/278 194/162/150 195/161/149
f 276/167/155 196/156/144 324/339/157
f 207/288/267 325/154/142 197/340/145
f 323/164/152 198/226/214 208/130/118
f 199/232/220 201/158/146 195/161/149
f 196/156/144 204/155/143 203/286/119
f 206/237/225 205/287/147 173/279/160
f 199/232/220 210/231/219 209/225/213
f 202/239/227 204/155/143 207/288/267
f 215/220/208 216/177/165 228/294/271
f 234/213/201 217/174/162 218/341/177
f 221/212/200 220/289/164 211/342/166
f 214/185/173 226/293/270 225/292/269
f 175/143/131 230/145/133 229/136/124
f 320/142/130 233/141/129 232/344/171
f 234/213/201 233/141/129 222/290/268
f 228/294/271 220/176/164 219/137/125
f 232/183/171 231/188/176 225/292/269
f 230/145/133 223/144/132 226/293/270
f 235/198/186 236/193/181 266/209/197
f 237/191/179 238/347/196 269/306/206
f 249/190/178 239/192/180 322/346/183
f 321/200/188 240/207/195 253/300/274
f 235/198/186 242/221/209 241/296/272
f 237/191/179 245/298/273 248/297/194
f 279/203/191 252/205/193 251/348/190
f 282/216/204 255/215/203 254/228/216
f 256/222/210 255/215/203 243/349/301
f 253/300/274 248/206/194 247/229/217
f 251/202/190 250/194/182 241/296/272
f 252/205/193 246/204/192 245/298/273
f 239/192/180 258/197/185 257/302/198
f 321/200/188 261/199/187 264/217/205
f 258/197/185 272/196/184 271/350/302
f 257/210/198 260/236/224 267/235/223
f 263/303/275 270/211/199 269/218/206
f 262/186/174 261/199/187 265/304/276
f 217/174/162 271/350/302 270/305/199
f 274/214/202 273/307/277 244/201/189
f 278/310/279 277/309/215 247/351/217
f 281/168/156 280/311/148 197/340/145
f 284/163/151 283/312/280 198/226/214
f 274/214/202 282/216/204 284/163/151
f 276/167/155 278/310/279 279/203/191
f 286/242/230 285/230/218 306/149/137
f 294/127/115 289/314/114 291/241/229
f 290/245/233 287/244/232 286/242/230
f 303/146/134 304/150/138 285/230/218
f 287/244/232 162/554/258 164/352/136
f 166/353/259 165/243/231 290/245/233
f 188/128/116 294/127/115 293/316/282
f 309/233/221 301/234/222 300/247/235
f 299/319/285 295/355/117 296/133/121
f 302/171/159 301/234/222 171/132/120
f 295/355/117 169/558/260 168/134/122
f 209/225/213 208/130/118 299/319/285
f 302/171/159 307/170/158 308/223/211
f 184/151/139 304/150/138 303/146/134
f 293/316/282 292/315/281 305/240/228
f 310/246/234 298/318/284 297/317/283
f 307/170/158 201/158/146 200/224/212
f 215/220/208 268/184/172 267/235/223
f 214/185/173 213/187/175 263/303/275
f 212/175/163 211/342/166 260/301/224
f 115/68/56 83/95/83 82/325/291
f 121/69/57 120/62/50 85/324/290
f 45/330/296 44/329/295 137/118/106
f 331/356/303 335/426/367 349/357/304
f 336/361/308 330/559/366 381/359/306
f 381/359/306 386/445/380 345/360/307
f 332/362/309 407/371/318 350/363/310
f 333/365/312 371/456/384 361/366/313
f 344/368/315 333/365/312 406/367/314
f 332/362/309 364/434/373 375/370/317
f 403/372/319 405/382/329 365/373/320
f 328/377/324 348/560/371 387/375/322
f 348/560/371 342/427/368 387/375/322
f 341/380/327 346/429/370 390/378/325
f 346/429/370 385/444/379 390/378/325
f 403/372/319 343/428/369 340/381/328
f 357/383/330 353/432/372 396/384/331
f 362/386/333 370/438/376 358/387/334
f 369/389/336 368/437/375 354/390/337
f 394/392/339 355/407/353 360/393/340
f 363/395/342 351/410/355 359/396/343
f 352/398/335 358/387/334 391/399/345
f 334/401/347 404/405/351 339/402/348
f 374/404/350 366/451/383 404/405/351
f 355/407/353 367/436/374 373/408/354
f 351/410/355 400/448/382 397/411/356
f 395/412/357 398/561/381 402/413/358
f 389/415/360 384/443/378 383/416/361
f 326/418/363 379/440/377 382/419/364
f 336/425/308 337/452/316 338/364/311
f 340/381/328 341/380/327 342/427/368
f 343/428/369 344/368/315 345/360/307
f 348/430/371 349/357/304 350/363/310
f 362/433/333 363/395/342 364/434/373
f 365/373/320 366/451/383 367/436/374
f 370/438/376 371/456/384 372/374/321
f 373/439/354 374/457/350 375/370/317
f 377/406/352 378/417/362 379/440/377
f 327/358/305 326/421/363 329/423/365
f 331/356/303 330/424/366 336/425/308
f 332/362/309 406/453/314 361/435/313
f 403/372/319 333/365/312 344/368/315
f 407/371/318 334/458/347 347/431/349
f 405/382/329 404/405/351 366/451/383
f 332/362/309 338/364/311 337/452/316
f 405/382/329 340/381/328 339/402/348
f 327/358/305 349/357/304 348/430/371
f 337/369/316 336/361/308 345/360/307
f 338/364/311 350/363/310 349/357/304
f 341/380/327 340/381/328 343/428/369
f 342/427/368 348/560/371 347/403/349
f 400/448/382 351/410/355 352/454/335
f 396/384/331 353/432/372 355/407/353
f 356/391/338 358/387/334 370/438/376
f 376/397/344 359/396/343 360/455/340
f 356/391/338 354/390/337 353/432/372
f 392/385/332 391/399/345 358/387/334
f 397/411/356 399/447/341 360/455/340
f 392/385/332 396/384/331 395/412/357
f 399/394/341 398/561/381 395/412/357
f 393/414/359 402/413/358 401/400/346
f 398/446/381 397/411/356 400/448/382
f 363/395/342 362/433/333 352/454/335
f 354/390/337 368/437/375 367/436/374
f 403/372/319 372/374/321 371/456/384
f 407/371/318 375/370/317 374/457/350
f 376/397/344 375/370/317 364/434/373
f 370/438/376 362/386/333 361/366/313
f 374/404/350 373/408/354 367/436/374
f 372/374/321 365/373/320 368/437/375
f 378/417/362 377/406/352 390/378/325
f 386/445/380 381/442/306 383/416/361
f 382/419/364 379/440/377 378/417/362
f 387/375/322 388/379/326 377/406/352
f 379/440/377 326/418/363 328/459/324
f 330/460/366 329/420/365 382/419/364
f 345/360/307 386/445/380 385/444/379
f 341/380/327 388/379/326 387/375/322
f 385/444/379 384/443/378 389/415/360
f 413/461/385 463/468/392 458/462/386
f 414/464/388 416/516/436 422/465/389
f 468/467/391 459/525/445 458/462/386
f 417/469/393 477/473/397 476/470/394
f 448/472/396 456/524/444 476/470/394
f 412/562/453 423/475/399 464/474/398
f 423/475/399 419/517/437 465/476/400
f 432/477/401 472/530/449 428/478/402
f 430/480/404 433/520/440 439/481/405
f 440/483/407 436/519/439 446/484/408
f 438/486/410 441/522/442 473/487/411
f 435/489/413 443/531/450 453/490/414
f 452/492/416 445/523/443 414/493/388
f 460/526/446 470/496/418 426/495/417
f 470/496/418 466/528/447 418/497/419
f 415/498/420 455/532/451 449/499/421
f 454/501/423 442/521/441 437/502/424
f 421/504/426 424/518/438 415/505/420
f 420/509/429 411/563/608 457/564/452
f 457/564/452 461/507/427 420/509/429
f 429/513/433 471/529/448 444/514/434
f 416/516/436 417/469/393 418/497/419
f 424/518/438 425/508/428 426/495/417
f 434/515/435 435/489/413 436/519/439
f 442/521/441 443/531/450 444/514/434
f 446/484/408 447/491/415 448/472/396
f 454/501/423 455/532/451 456/524/444
f 477/473/397 414/493/388 445/523/443
f 427/471/395 476/470/394 415/505/420
f 417/469/393 416/516/436 414/464/388
f 427/471/395 426/495/417 418/497/419
f 421/504/426 420/509/429 425/508/428
f 419/517/437 423/475/399 422/465/389
f 471/529/448 473/487/411 441/522/442
f 472/530/449 432/477/401 431/488/412
f 428/478/402 472/530/449 471/529/448
f 429/513/433 434/515/435 433/520/440
f 453/490/414 443/531/450 442/521/441
f 434/515/435 444/514/434 443/531/450
f 441/522/442 438/486/410 437/502/424
f 440/483/407 439/481/405 433/520/440
f 447/491/415 446/484/408 436/519/439
f 476/470/394 456/524/444 455/532/451
f 450/503/425 449/499/421 455/532/451
f 447/491/415 453/490/414 456/524/444
f 445/523/443 452/492/416 451/485/409
f 468/467/391 463/468/392 462/512/432
f 457/533/452 458/462/386 459/525/445
f 464/527/398 463/468/392 413/461/385
f 457/533/452 411/565/608 410/463/387
f 460/526/446 426/495/417 425/508/428
f 465/476/400 467/510/430 462/512/432
f 470/496/418 469/511/431 467/510/430
f 460/526/446 459/525/445 468/467/391
f 419/517/437 418/497/419 466/528/447
f 475/482/406 474/479/403 428/478/402
f 483/461/454 533/468/461 528/462/455
f 484/464/457 486/516/505 492/465/458
f 538/467/460 529/525/515 528/462/455
f 487/469/462 547/473/466 546/470/463
f 518/472/465 526/524/514 546/470/463
f 482/562/521 493/475/468 534/474/467
f 493/475/468 489/517/506 535/476/469
f 542/530/470 498/478/508 544/479/471
f 500/480/473 503/520/510 509/481/474
f 510/483/476 506/519/509 516/484/477
f 508/486/479 511/522/512 543/487/480
f 505/489/482 513/531/609 523/490/483
f 522/492/485 515/523/513 484/493/457
f 530/526/516 540/496/487 496/495/486
f 540/496/487 536/528/517 488/497/488
f 485/498/489 525/532/519 519/499/490
f 524/501/492 512/521/511 507/502/493
f 491/504/495 494/518/507 485/505/489
f 490/509/498 481/563/610 527/564/520
f 527/564/520 531/507/496 490/509/498
f 499/513/502 541/529/518 514/514/503
f 486/516/505 487/469/462 488/497/488
f 494/518/507 495/508/497 496/495/486
f 504/515/504 505/489/482 506/519/509
f 512/521/511 513/531/609 514/514/503
f 516/484/477 517/491/484 518/472/465
f 524/501/492 525/532/519 526/524/514
f 547/473/466 484/493/457 515/523/513
f 497/471/464 546/470/463 485/505/489
f 487/469/462 486/516/505 484/464/457
f 497/471/464 496/495/486 488/497/488
f 491/504/495 490/509/498 495/508/497
f 489/517/506 493/475/468 492/465/458
f 541/529/518 543/487/480 511/522/512
f 542/530/470 502/477/472 501/488/481
f 498/478/508 542/530/470 541/529/518
f 499/513/502 504/515/504 503/520/510
f 523/490/483 513/531/609 512/521/511
f 514/514/503 513/531/609 505/489/482
f 511/522/512 508/486/479 507/502/493
f 510/483/476 509/481/474 503/520/510
f 517/491/484 516/484/477 506/519/509
f 546/470/463 526/524/514 525/532/519
f 520/503/494 519/499/490 525/532/519
f 517/491/484 523/490/483 526/524/514
f 515/523/513 522/492/485 521/485/478
f 538/467/460 533/468/461 532/512/501
f 527/533/520 528/462/455 529/525/515
f 534/527/467 533/468/461 483/461/454
f 527/533/520 481/565/610 480/463/456
f 530/526/516 496/495/486 495/508/497
f 535/476/469 537/510/499 532/512/501
f 540/496/487 539/511/500 537/510/499
f 530/526/516 529/525/515 538/467/460
f 489/517/506 488/497/488 536/528/517
f 545/482/475 544/479/471 498/478/508
f 553/356/522 557/426/586 571/357/523
f 558/361/527 552/559/585 603/359/525
f 603/359/525 608/445/599 567/360/526
f 554/362/528 629/371/537 572/363/529
f 555/365/531 593/456/603 583/366/532
f 566/368/534 555/365/531 628/367/533
f 554/362/528 586/434/592 597/370/536
f 625/372/538 627/382/548 587/373/539
f 550/377/543 570/560/590 609/375/541
f 570/560/590 564/427/587 609/375/541
f 563/380/546 568/429/589 612/378/544
f 568/429/589 607/444/598 612/378/544
f 625/372/538 565/428/588 562/381/547
f 579/383/549 575/432/591 618/384/550
f 584/386/552 592/438/595 580/387/553
f 591/389/555 590/437/594 576/390/556
f 616/392/558 577/407/572 582/393/559
f 585/395/561 573/410/574 581/396/562
f 574/398/554 580/387/553 613/399/564
f 556/401/566 626/405/570 561/402/567
f 596/404/569 588/451/602 626/405/570
f 577/407/572 589/436/593 595/408/573
f 573/410/574 622/448/601 619/411/575
f 617/412/576 620/561/600 624/413/577
f 611/415/579 606/443/597 605/416/580
f 548/418/582 601/440/596 604/419/583
f 558/425/527 559/452/535 560/364/530
f 562/381/547 563/380/546 564/427/587
f 565/428/588 566/368/534 567/360/526
f 570/430/590 571/357/523 572/363/529
f 584/433/552 585/395/561 586/434/592
f 587/373/539 588/451/602 589/436/593
f 592/438/595 593/456/603 594/374/540
f 595/439/573 596/457/569 597/370/536
f 599/406/571 600/417/581 601/440/596
f 549/358/524 548/421/582 551/423/584
f 553/356/522 552/424/585 558/425/527
f 554/362/528 628/453/533 583/435/532
f 625/372/538 555/365/531 566/368/534
f 629/371/537 556/458/566 569/431/568
f 627/382/548 626/405/570 588/451/602
f 554/362/528 560/364/530 559/452/535
f 627/382/548 562/381/547 561/402/567
f 549/358/524 571/357/523 570/430/590
f 559/369/535 558/361/527 567/360/526
f 560/364/530 572/363/529 571/357/523
f 563/380/546 562/381/547 565/428/588
f 564/427/587 570/560/590 569/403/568
f 622/448/601 573/410/574 574/454/554
f 618/384/550 575/432/591 577/407/572
f 578/391/557 580/387/553 592/438/595
f 581/396/562 582/455/559 595/439/573
f 578/391/557 576/390/556 575/432/591
f 614/385/551 613/399/564 580/387/553
f 619/411/575 621/447/560 582/455/559
f 614/385/551 618/384/550 617/412/576
f 621/394/560 620/561/600 617/412/576
f 615/414/578 624/413/577 623/400/565
f 620/446/600 619/411/575 622/448/601
f 585/395/561 584/433/552 574/454/554
f 576/390/556 590/437/594 589/436/593
f 625/372/538 594/374/540 593/456/603
f 629/371/537 597/370/536 596/457/569
f 598/397/563 597/370/536 586/434/592
f 592/438/595 584/386/552 583/366/532
f 596/404/569 595/408/573 589/436/593
f 594/374/540 587/373/539 590/437/594
f 600/417/581 599/406/571 612/378/544
f 608/445/599 603/442/525 605/416/580
f 604/419/583 601/440/596 600/417/581
f 609/375/541 610/379/545 599/406/571
f 601/440/596 548/418/582 550/459/543
f 552/460/585 551/420/584 604/419/583
f 567/360/526 608/445/599 607/444/598
f 563/380/546 610/379/545 609/375/541
f 607/444/598 606/443/597 611/415/579
