# Blender 5.0.1
# www.blender.org
o floor_border_middle_B
v -1.000000 0.000000 1.000000
v -1.000000 -0.000000 -1.000000
v 1.000000 0.000000 1.000000
v 1.000000 -0.000000 -1.000000
v -1.000000 -1.000000 1.000000
v -1.000000 0.000000 1.000000
v 1.000000 -1.000000 1.000000
v 1.000000 0.000000 1.000000
v -0.544193 -1.020090 0.608021
v -0.596943 -1.020090 1.134277
v 0.017634 -1.020090 1.154852
v 0.017634 -1.020090 0.590828
v -0.276596 -1.020090 0.611224
v -0.276596 -1.020090 1.131074
v 0.460393 -1.020090 0.608021
v 0.460393 -1.020090 1.134278
v 0.994716 -1.020090 0.481353
v 1.009722 -1.020090 0.505846
v 1.009722 -1.020090 1.240968
v 0.994716 -1.020090 1.261640
v -0.993183 -1.020090 0.477618
v -0.978187 -1.020090 0.457495
v -0.978188 -1.020090 1.285431
v -0.993183 -1.020090 1.265201
v 0.430813 -0.845224 1.111003
v 0.429103 -0.832759 0.660372
v 0.430777 -0.844958 0.631549
v 0.514127 -1.020090 1.268171
v 0.493620 -1.020090 1.249337
v 0.454755 -0.803814 0.527407
v 0.453639 -0.791893 0.557394
v 0.475514 -0.783852 0.533387
v 0.476218 -0.793854 0.511302
v 0.453639 -0.791893 1.185609
v 0.454776 -0.803770 1.215707
v 0.476191 -0.793400 1.231772
v 0.475552 -0.783443 1.209701
v 0.493596 -1.020090 0.493643
v 0.514127 -1.020090 0.474821
v -0.569084 -0.829671 1.066841
v -0.575640 -0.839929 1.110534
v -0.523394 -0.829671 0.654938
v -0.524676 -0.849709 0.630541
v -0.607999 -0.832029 1.221032
v -0.596832 -0.825577 1.162969
v -0.625534 -0.818364 1.216132
v -0.629591 -0.828357 1.238410
v -0.622510 -1.020090 0.467335
v -0.599403 -1.020090 0.485352
v -0.652183 -1.020090 1.257618
v -0.675260 -1.020090 1.275724
v -0.555225 -0.832045 0.522090
v -0.576815 -0.828243 0.504542
v -0.575706 -0.818268 0.526796
v -0.551622 -0.824153 0.566138
v 0.009302 -0.839619 0.616534
v 0.008842 -0.829662 0.638428
v 0.008842 -0.829662 1.107145
v 0.009302 -0.839618 1.129054
v 0.432779 -1.020090 1.181840
v 0.408509 -1.020090 1.196247
v 0.407072 -0.824234 0.621458
v 0.408258 -0.836899 0.594076
v 0.383916 -0.826112 0.580395
v 0.383066 -0.816160 0.602517
v 0.383066 -0.816160 1.144527
v 0.383919 -0.826111 1.166673
v 0.407754 -0.836194 1.152549
v 0.407072 -0.824234 1.123501
v 0.408506 -1.020090 0.551062
v 0.433251 -1.020090 0.565002
v -0.210575 -0.842808 1.084606
v -0.214723 -0.858127 1.108364
v -0.243087 -0.812393 1.143989
v -0.243052 -0.791017 1.124293
v -0.263823 -0.781773 1.132653
v -0.265933 -0.791716 1.154281
v -0.329975 -1.020090 0.564388
v -0.303579 -1.020090 0.578314
v -0.304118 -1.020090 1.168292
v -0.329975 -1.020090 1.182940
v -0.242862 -0.813249 0.602346
v -0.265931 -0.791703 0.592807
v -0.263823 -0.781761 0.614425
v -0.243052 -0.791018 0.621910
v -0.227010 -1.020090 1.197278
v -0.250530 -1.020090 1.183062
v -0.186208 -0.825149 0.622172
v -0.161088 -0.818293 0.602129
v -0.163470 -0.828170 0.580072
v -0.188594 -0.836952 0.592958
v -0.186208 -0.825149 1.122712
v -0.188039 -0.836349 1.153744
v -0.163481 -0.828170 1.166942
v -0.161088 -0.818293 1.144860
v -0.250974 -1.020090 0.563887
v -0.227001 -1.020090 0.549996
v -0.553407 -0.821106 1.145311
v -0.524145 -0.796254 1.156058
v -0.520812 -0.786310 1.134408
v -0.542923 -0.794871 1.127547
v -0.507071 -1.020090 0.573792
v -0.479596 -1.020090 0.562530
v -0.532347 -1.020090 1.184883
v -0.559384 -1.020090 1.172757
v -0.471903 -0.786321 0.612700
v -0.471395 -0.796266 0.591097
v -0.501289 -0.822400 0.600997
v -0.494402 -0.795196 0.619725
v 0.984590 -0.891093 0.537817
v 1.004328 -0.901151 0.543647
v 0.989666 -0.907447 0.515480
v 0.990083 -0.903549 1.230625
v 1.004328 -0.901151 1.203481
v 0.952914 -0.819935 1.204795
v 0.930554 -0.810860 1.205206
v 0.936591 -0.820994 1.225421
v -0.979003 -0.918419 0.489634
v -0.993183 -0.916596 0.517621
v -0.931055 -0.832692 0.520470
v -0.909969 -0.824202 0.520846
v -0.915506 -0.834271 0.500184
v -0.978352 -0.920255 1.250561
v -0.990104 -0.912437 1.225238
v 0.730593 -0.822319 0.514852
v 0.727829 -0.811370 0.534716
v 0.764285 -0.817749 0.533902
v 0.952914 -0.819935 0.828904
v 0.938964 -0.816694 0.798701
v 0.930543 -0.811344 0.842211
v -0.855747 -0.833826 1.238478
v -0.853976 -0.823667 1.217254
v -0.882194 -0.832294 1.219900
v -0.909966 -0.824360 1.089852
v -0.931034 -0.832663 1.108858
v -0.998514 -0.307072 1.057033
v -0.983282 -0.322752 1.055707
v -0.983501 -0.307770 1.077585
v -0.998514 -0.307072 0.662962
v -0.983501 -0.307769 0.642411
v -0.983282 -0.322753 0.664282
v 1.001626 -0.266535 1.058385
v 0.986618 -0.266107 1.079271
v 0.985662 -0.283553 1.056006
v 1.001304 -0.266514 0.677428
v 0.985710 -0.283875 0.675419
v 0.986288 -0.266430 0.653015
v -0.476218 -0.261898 0.714544
v -0.545981 0.027824 0.694874
v -0.479562 -0.239859 1.048291
v -0.542892 0.007468 1.067143
v -0.529925 -0.343400 0.659909
v -0.532082 -0.328314 0.638348
v -0.508937 -0.302773 0.649760
v -0.508548 -0.330514 0.670312
v -0.577205 0.036047 1.099160
v -0.582000 0.058013 1.079797
v -0.608496 0.067702 1.093689
v -0.606706 0.052722 1.112523
v -0.582000 0.058013 0.647453
v -0.579443 0.038997 0.623555
v -0.606712 0.052780 0.607691
v -0.608496 0.067767 0.626837
v -0.507906 -0.297956 1.073628
v -0.532082 -0.328315 1.081645
v -0.529925 -0.343400 1.060079
v -0.508548 -0.330513 1.053858
v 0.612143 0.003937 0.695140
v 0.615406 -0.012851 0.671889
v 0.565629 -0.261898 1.026646
v 0.615406 -0.246057 0.691088
v 0.562655 -0.012119 1.067361
v 0.628474 0.046047 0.664136
v 0.656577 0.053613 0.648776
v 0.644586 0.039608 0.629731
v 0.643458 -0.332344 1.049438
v 0.625021 -0.317038 1.071023
v 0.618668 -0.323265 1.045860
v 0.677773 -0.317085 0.660368
v 0.690968 -0.332006 0.682000
v 0.665606 -0.322737 0.688108
v 0.591830 0.039730 1.101794
v 0.608518 0.056235 1.083134
v 0.582117 0.047103 1.073877
v -0.190627 -0.279776 0.678627
v -0.191005 -0.294759 0.700045
v -0.182590 0.038890 1.078198
v -0.182213 0.053872 1.058792
v -0.182213 0.053872 0.676572
v -0.182590 0.038890 0.657175
v -0.191005 -0.294759 1.035545
v -0.190627 -0.279775 1.056953
v -0.453936 -0.267452 0.662055
v -0.426280 -0.284023 0.650337
v -0.424321 -0.298972 0.671838
v -0.449862 -0.288572 0.685576
v -0.523592 0.059548 1.076819
v -0.522082 0.038343 1.097587
v -0.497697 0.055786 1.110173
v -0.499969 0.070929 1.090894
v -0.499969 0.070929 0.644470
v -0.497697 0.055787 0.625200
v -0.521756 0.039135 0.638413
v -0.523592 0.059548 0.660186
v -0.426280 -0.284023 1.085244
v -0.454475 -0.266574 1.074137
v -0.449862 -0.288572 1.051476
v -0.424321 -0.298972 1.063752
v 0.264288 0.002300 0.696495
v 0.261642 -0.017452 0.674557
v 0.229121 -0.260261 1.021983
v 0.231345 -0.243655 1.045835
v 0.229121 -0.260261 0.717717
v 0.261839 -0.015979 1.064752
v 0.287325 0.003411 0.648759
v 0.290926 0.024096 0.669239
v 0.317535 0.033660 0.654052
v 0.315906 0.017724 0.634971
v 0.255759 -0.282057 1.043851
v 0.282368 -0.291626 1.055594
v 0.284158 -0.275820 1.077197
v 0.257285 -0.264952 1.067413
v 0.255759 -0.282057 0.693233
v 0.257594 -0.265338 0.668945
v 0.284155 -0.275842 0.658401
v 0.282368 -0.291613 0.680011
v 0.286779 0.002710 1.087437
v 0.315905 0.017712 1.100426
v 0.317535 0.033676 1.081336
v 0.290926 0.024096 1.067855
v 0.207790 -0.273534 0.661184
v 0.202865 -0.300137 0.682470
v 0.179632 -0.311970 0.669856
v 0.181114 -0.297040 0.648296
v 0.239575 0.030972 1.076288
v 0.214788 0.042754 1.092815
v 0.213296 0.027805 1.112076
v 0.238113 0.011851 1.098846
v 0.239575 0.030972 0.660789
v 0.237769 0.012486 0.637095
v 0.213296 0.027806 0.623298
v 0.214788 0.042754 0.642549
v 0.208324 -0.272216 1.074929
v 0.181114 -0.297039 1.087284
v 0.179631 -0.311970 1.065733
v 0.202864 -0.300137 1.054315
v 0.565869 0.018769 0.633382
v 0.548407 0.034670 0.652571
v 0.575578 0.027223 0.662688
v 0.529639 -0.284227 1.045885
v 0.513119 -0.276849 1.078610
v 0.500473 -0.292626 1.056928
v 0.548080 -0.292639 0.678674
v 0.565869 -0.276887 0.656972
v 0.575366 -0.285168 0.687356
v 0.500237 0.034654 1.082801
v 0.513119 0.018741 1.101991
v 0.529338 0.026283 1.070338
v -0.980406 0.012792 1.089288
v -0.994150 0.010278 1.035402
v -1.003310 -0.016403 1.086628
v -0.988394 -0.011281 1.107277
v -0.988513 -0.006507 0.613621
v -1.003310 -0.016403 0.633494
v -0.994150 0.010278 0.631721
v -0.954950 0.058956 0.630901
v -0.933805 0.070546 0.630579
v -0.938409 0.055583 0.610399
v 1.000900 -0.073188 1.110910
v 1.015905 -0.069979 1.091163
v 1.013963 0.033513 1.088925
v 0.998744 0.048212 1.088157
v 0.998988 0.032015 1.108857
v 1.000674 0.016666 0.639967
v 1.015905 0.008061 0.645310
v 1.000156 -0.001503 0.622282
v -0.833029 0.053596 1.111868
v -0.846383 0.068791 1.092446
v -0.954950 0.058956 0.894778
v -0.933937 0.070423 0.922912
v 0.681758 0.033918 0.629060
v 0.722507 0.049509 0.646024
v 1.014610 0.033539 0.799600
v 0.998764 0.047730 0.826268
v -0.214802 -0.858421 0.634101
v -0.210575 -0.842808 0.657705
v -0.522889 -0.839930 0.631979
v -0.577305 -0.849037 1.111862
v -0.571465 -0.829671 1.088317
v 0.429103 -0.832759 1.082096
v -0.543092 0.008781 0.671946
v -0.545981 0.027824 1.044899
v -0.479223 -0.242096 0.690896
v -0.476218 -0.261898 1.025501
v 0.264288 0.002300 1.043272
v 0.231331 -0.243759 0.693190
v 0.565404 0.003937 1.047943
v 0.562655 -0.246022 1.047930
v 0.612236 -0.261898 0.713683
vn -0.0000 1.0000 -0.0000
vn -0.0000 -0.0000 1.0000
vn 0.1005 0.5920 -0.7996
vn 0.4999 0.4761 -0.7234
vn 0.4747 0.2482 -0.8444
vn -0.9223 0.1388 0.3606
vn -0.9227 0.3335 -0.1935
vn -0.9247 0.1145 -0.3630
vn -0.2565 0.6788 0.6880
vn 0.6959 0.2105 0.6866
vn -0.2362 0.0853 0.9680
vn 0.1666 0.9705 0.1745
vn 0.7003 0.6740 -0.2352
vn 0.7052 0.6711 0.2287
vn 0.2113 0.9771 -0.0237
vn 0.1267 0.9523 -0.2775
vn -0.2349 0.9401 -0.2471
vn -0.8320 0.2826 0.4773
vn -0.8257 -0.0544 0.5614
vn -0.3281 0.9425 0.0643
vn -0.7354 0.6688 -0.1091
vn -0.3286 0.9422 -0.0654
vn -0.1379 0.6100 -0.7803
vn 0.0404 0.1306 -0.9906
vn -0.2303 0.2281 -0.9460
vn 0.9238 -0.1143 0.3655
vn 0.7938 0.3673 0.4848
vn 0.7590 -0.0532 0.6490
vn 0.2287 0.8982 -0.3753
vn 0.3346 0.9337 -0.1275
vn 0.3963 0.8488 -0.3500
vn 0.5188 0.8385 -0.1670
vn 0.5276 0.8355 0.1539
vn -0.6320 0.7559 0.1707
vn -0.8301 0.5327 -0.1649
vn -0.7887 0.6138 0.0331
vn -0.1240 0.6402 0.7581
vn -0.5510 0.4317 0.7141
vn -0.4129 0.2600 0.8729
vn 0.0419 0.1308 0.9905
vn -0.1363 0.6086 0.7817
vn -0.2371 0.2310 0.9436
vn -0.2534 0.0830 -0.9638
vn -0.8300 0.2866 -0.4785
vn -0.8251 -0.0538 -0.5624
vn 0.0264 0.9811 0.1919
vn -0.1373 0.9611 -0.2395
vn -0.1379 0.9613 0.2385
vn 0.2262 0.5955 -0.7708
vn 0.2204 0.1785 -0.9589
vn -0.2602 0.5724 -0.7776
vn 0.1985 0.0631 -0.9781
vn -0.1888 0.1340 -0.9728
vn -0.0841 0.5541 0.8282
vn 0.6180 -0.1088 0.7786
vn 0.1239 0.0912 0.9881
vn -0.5742 0.1511 0.8046
vn -0.8672 0.2856 0.4080
vn -0.7051 0.1711 0.6882
vn 0.2089 0.0602 0.9761
vn -0.2813 0.5826 0.7626
vn -0.2056 0.1349 0.9693
vn -0.7036 0.3501 0.6183
vn -0.5374 0.8335 -0.1287
vn 0.1632 0.9686 -0.1878
vn 0.6757 0.2105 -0.7064
vn -0.2728 0.6704 -0.6900
vn 0.2360 0.9435 0.2326
vn -0.2146 0.9492 -0.2301
vn -0.2036 0.9587 0.1986
vn -0.0998 0.5389 -0.8364
vn -0.6893 0.3478 -0.6355
vn 0.1087 0.0984 -0.9892
vn 0.2061 0.9494 -0.2371
vn 0.0261 0.9809 -0.1928
vn 0.2272 0.5937 0.7719
vn 0.2293 0.1802 0.9565
vn 0.2203 0.9493 -0.2244
vn -0.2000 0.9795 0.0242
vn 0.2469 0.9385 0.2412
vn -0.8480 0.2492 -0.4678
vn -0.5397 0.1521 -0.8280
vn -0.6678 0.1722 -0.7242
vn 0.5893 -0.0967 -0.8021
vn 0.2751 0.9606 0.0389
vn 0.5066 0.8570 -0.0943
vn 0.6141 0.7776 0.1350
vn -0.5683 0.8190 0.0790
vn -0.8578 0.4481 0.2519
vn 0.7881 0.3899 -0.4763
vn 0.9232 -0.1137 -0.3672
vn 0.7575 -0.0526 -0.6507
vn -0.2407 0.6322 -0.7364
vn 0.3243 0.5364 -0.7791
vn 0.2780 0.1249 -0.9524
vn 0.6198 0.7841 -0.0320
vn 0.9260 0.3157 0.2069
vn 0.8386 0.4908 -0.2362
vn 0.2850 0.6049 0.7436
vn -0.3179 0.5562 0.7679
vn -0.3062 0.1043 0.9463
vn -0.3749 -0.8902 -0.2589
vn 0.2603 -0.9162 0.3047
vn -0.3749 -0.8902 0.2589
vn -0.3977 0.8377 0.3743
vn -0.4999 0.1122 -0.8588
vn -0.2403 0.4713 -0.8486
vn 0.2840 0.4210 -0.8614
vn 0.4382 -0.0761 0.8956
vn -0.4529 0.3972 0.7982
vn -0.3506 -0.5613 0.7497
vn 0.9012 -0.3659 -0.2322
vn 0.9436 -0.0457 0.3280
vn 0.8780 -0.4004 0.2623
vn -0.0350 -0.3631 -0.9311
vn -0.7083 0.1326 -0.6934
vn -0.6797 -0.3889 -0.6219
vn 0.6977 0.3428 -0.6291
vn 0.7302 -0.1380 -0.6692
vn 0.1552 -0.9529 -0.2606
vn -0.6171 -0.7560 0.2182
vn 0.1333 -0.9370 0.3229
vn -0.1204 0.9710 -0.2068
vn -0.7149 0.6498 0.2582
vn -0.7215 0.6489 -0.2415
vn -0.0708 0.4117 0.9086
vn -0.4911 0.2351 0.8388
vn -0.4033 -0.4409 0.8018
vn -0.3071 0.9493 0.0674
vn -0.1674 0.9057 0.3895
vn 0.2267 0.9137 0.3372
vn 0.5887 0.7694 0.2478
vn -0.1273 0.9586 0.2548
vn -0.1579 -0.9507 -0.2670
vn -0.5944 -0.7932 0.1323
vn -0.1240 -0.9570 0.2623
vn -0.0323 -0.4160 -0.9088
vn -0.4184 0.4123 -0.8093
vn -0.3257 -0.5387 -0.7770
vn 0.3430 -0.5113 -0.7880
vn -0.2366 0.2283 -0.9444
vn -0.3718 0.8942 -0.2493
vn 0.5173 0.8110 0.2731
vn -0.3146 0.9265 0.2066
vn 0.7522 -0.6001 0.2721
vn 0.7717 -0.5894 -0.2389
vn 0.4845 -0.8561 -0.1797
vn 0.5010 -0.8245 0.2631
vn 0.0300 -0.3931 0.9190
vn 0.0098 0.3427 -0.9394
vn 0.4204 0.2251 -0.8790
vn 0.4370 -0.4068 -0.8022
vn -0.0081 -0.9587 -0.2844
vn 0.2285 -0.9237 0.3077
vn -0.0081 -0.9586 0.2845
vn -0.2091 -0.5102 -0.8343
vn 0.0276 0.4193 -0.9074
vn 0.0103 -0.4970 -0.8677
vn -0.1253 -0.3176 0.9399
vn 0.6396 0.3169 0.7003
vn 0.6621 -0.1587 0.7324
vn -0.6929 0.1333 0.7086
vn -0.6675 -0.3825 0.6389
vn 0.3010 0.8845 -0.3565
vn 0.0412 0.9510 0.3063
vn 0.2962 0.8860 0.3569
vn 0.0276 0.4197 0.9072
vn -0.2026 -0.5098 0.8361
vn 0.0103 -0.4966 0.8679
vn 0.1700 -0.9643 -0.2031
vn -0.5732 -0.7785 0.2557
vn 0.1727 -0.9599 0.2209
vn 0.0866 0.2665 -0.9600
vn -0.6079 -0.3385 -0.7182
vn 0.1675 -0.4657 -0.8689
vn 0.7071 -0.6744 0.2127
vn 0.7106 -0.6736 -0.2032
vn 0.0859 0.9690 -0.2315
vn 0.6962 0.6780 0.2359
vn 0.0894 0.9668 0.2395
vn -0.2642 0.4041 -0.8757
vn -0.2351 -0.4705 -0.8505
vn -0.2312 -0.9154 -0.3297
vn 0.1381 -0.9442 0.2991
vn -0.2261 -0.9168 0.3291
vn -0.5859 -0.3436 0.7339
vn 0.0903 0.2658 0.9598
vn 0.1677 -0.4361 0.8842
vn 0.7475 -0.2943 -0.5955
vn 0.2574 -0.5027 0.8252
vn -0.2078 -0.9251 -0.3179
vn -0.2010 -0.9271 0.3163
vn -0.2345 0.9072 -0.3492
vn 0.1412 0.9341 0.3278
vn 0.1285 0.9417 -0.3110
vn 0.6994 0.1838 0.6907
vn 0.7381 -0.2883 0.6099
vn -0.2690 0.8902 -0.3676
vn 0.0412 0.9510 -0.3064
vn -0.5799 0.7736 0.2553
vn -0.5866 0.7726 -0.2430
vn 0.0558 0.9065 -0.4186
vn -0.1080 0.9402 -0.3230
vn -0.1489 0.9383 0.3120
vn -0.1687 0.2208 0.9606
vn 0.3175 -0.4997 0.8059
vn -0.2548 0.4049 0.8782
vn -0.2274 -0.4732 0.8511
vn -0.5354 0.7331 0.4194
vn -0.7203 0.6760 0.1553
vn -0.7246 0.6418 -0.2510
vn 0.8665 0.4955 -0.0604
vn 0.8634 0.3880 -0.3226
vn 0.2625 -0.5028 -0.8236
vn -0.0721 -0.9547 -0.2887
vn 0.4159 -0.8669 0.2748
vn -0.0829 -0.9572 0.2772
vn -0.6397 0.7683 0.0203
vn -0.8305 0.4679 -0.3021
vn -0.8053 0.5892 0.0664
vn -0.8909 -0.3683 0.2658
vn -0.9474 0.1058 -0.3020
vn -0.8909 -0.3682 -0.2658
vn 0.3593 0.9322 -0.0432
vn 0.3208 0.8334 -0.4500
vn -0.3015 0.5631 -0.7694
vn -0.2544 0.9373 0.2382
vn -0.7411 0.6626 0.1080
vn 0.3097 0.5331 0.7873
vn 0.6855 0.4665 -0.5589
vn 0.2078 0.9494 0.2356
vn 0.6984 0.4704 0.5394
vn 0.2893 0.5453 0.7868
vn 0.7107 0.1837 0.6790
vn 0.2816 0.5491 -0.7869
vn 0.6942 0.1894 -0.6944
vn -0.6564 0.5596 -0.5059
vn -0.6622 0.5643 0.4930
vn -0.5417 0.8321 0.1187
vn -0.7291 0.3278 0.6008
vn -0.6436 0.7208 -0.2574
vn 0.6422 0.7278 0.2406
vn 0.2037 0.9586 0.1987
vn -0.6071 0.7609 -0.2290
vn -0.1767 0.9636 -0.2005
vn -0.1219 0.9654 0.2306
vn -0.4027 -0.4401 -0.8026
vn 0.4049 -0.4500 0.7959
vn 0.4420 -0.8496 -0.2880
vn 0.3010 -0.4691 -0.8303
vn 0.2827 -0.9064 -0.3139
vn 0.2524 0.4210 0.8713
vn 0.2602 0.9041 -0.3391
vn 0.6106 0.7659 -0.2014
vn 0.2713 -0.4817 0.8333
vn -0.6047 -0.7572 -0.2469
vn -0.6238 -0.7534 -0.2081
vn -0.2637 0.8917 0.3679
vn -0.6465 0.2987 -0.7020
vn -0.5833 -0.7743 -0.2454
vn -0.6251 0.2952 0.7226
vn 0.7167 0.1869 -0.6719
vn 0.7062 0.6722 -0.2223
vn 0.3565 0.4290 -0.8300
vn 0.5048 0.8403 -0.1976
vn 0.1260 -0.9519 -0.2792
vn 0.3293 0.4173 0.8470
vn -0.9242 0.2253 0.3082
vn -0.6332 0.7208 -0.2821
vn -0.2180 0.9345 -0.2815
vn 0.8808 0.3751 0.2890
vn 0.3450 0.8926 0.2903
vn 0.3800 0.3872 0.8400
vn 0.9055 0.3373 -0.2573
vn 0.9279 0.2691 0.2581
vn 0.0593 0.6143 0.7868
vn 0.0576 0.6130 -0.7879
vn 0.2298 0.9455 -0.2309
vn -0.7001 0.2985 -0.6487
vn 0.6365 0.3165 0.7033
vn 0.9403 0.1374 -0.3114
vn 0.9287 0.1338 0.3458
vn -0.6167 0.3583 -0.7010
vn 0.0600 0.3176 -0.9463
vn -0.0003 0.2489 0.9685
vn -0.2496 0.3966 -0.8834
vn -0.2447 0.4009 0.8828
vn -0.2265 0.9100 0.3473
vn 0.2340 -0.9218 -0.3091
vn 0.2674 0.3894 -0.8814
vn 0.2625 0.3929 0.8813
vn -0.3039 0.1079 -0.9466
vn 0.2773 0.1312 0.9518
vn 0.2744 0.9612 -0.0275
vn -0.4150 0.2303 -0.8802
vn 0.4505 0.2101 0.8677
vt 1.000000 1.000000
vt -0.000000 0.000000
vt 1.000000 -0.000000
vt 1.806801 0.608874
vt 0.806801 0.005818
vt 1.806801 0.005818
vt 0.097871 0.785978
vt 0.107585 0.775191
vt 0.115441 0.777410
vt 0.192532 0.928006
vt 0.199113 0.957967
vt 0.190591 0.960086
vt 0.070802 0.801416
vt 0.056328 0.801866
vt 0.056485 0.800155
vt 0.073157 0.834783
vt 0.088151 0.837763
vt 0.075654 0.838617
vt 0.084835 0.776644
vt 0.096710 0.786275
vt 0.095060 0.797203
vt 0.070145 0.796283
vt 0.056178 0.797096
vt 0.072816 0.801726
vt 0.094640 0.798279
vt 0.092106 0.802633
vt 0.091788 0.831364
vt 0.105241 0.823928
vt 0.104530 0.835829
vt 0.231383 0.928137
vt 0.221529 0.934923
vt 0.227394 0.924532
vt 0.096652 0.784367
vt 0.086510 0.776131
vt 0.096581 0.770942
vt 0.093087 0.804352
vt 0.071517 0.803489
vt 0.076466 0.847898
vt 0.088738 0.847949
vt 0.076670 0.850292
vt 0.210597 0.932247
vt 0.208253 0.922916
vt 0.212252 0.915764
vt 0.056451 0.823105
vt 0.071119 0.831371
vt 0.057133 0.837007
vt 0.107333 0.803529
vt 0.095756 0.798337
vt 0.108030 0.800999
vt 0.072208 0.822915
vt 0.090982 0.831213
vt 0.072016 0.831251
vt 0.093932 0.805709
vt 0.107119 0.806199
vt 0.088855 0.844788
vt 0.103895 0.841396
vt 0.102113 0.849112
vt 0.071283 0.835405
vt 0.058160 0.842004
vt 0.057983 0.840285
vt 0.063829 0.855819
vt 0.075165 0.851006
vt 0.065004 0.857694
vt 0.058219 0.843489
vt 0.075770 0.847306
vt 0.063132 0.854649
vt 0.057425 0.838367
vt 0.090727 0.832443
vt 0.090168 0.834362
vt 0.107229 0.804975
vt 0.094038 0.802636
vt 0.075804 0.839496
vt 0.088192 0.844751
vt 0.076413 0.847073
vt 0.091911 0.834836
vt 0.104326 0.837057
vt 0.103955 0.838648
vt 0.093108 0.805683
vt 0.091009 0.823376
vt 0.070399 0.804881
vt 0.056235 0.803194
vt 0.221314 0.955685
vt 0.208041 0.937766
vt 0.220554 0.935276
vt 0.090395 0.848144
vt 0.101708 0.850341
vt 0.101048 0.852215
vt 0.103882 0.840067
vt 0.222818 0.939680
vt 0.222423 0.954779
vt 0.221748 0.936686
vt 0.206898 0.937060
vt 0.201295 0.931872
vt 0.222332 0.956123
vt 0.231383 0.963818
vt 0.227132 0.966965
vt 0.207000 0.958508
vt 0.221407 0.956558
vt 0.226121 0.967645
vt 0.085396 0.775340
vt 0.072118 0.767169
vt 0.096441 0.769703
vt 0.070844 0.775104
vt 0.070254 0.795132
vt 0.055954 0.796004
vt 0.128599 0.757722
vt 0.118416 0.778075
vt 0.116540 0.759468
vt 0.209303 0.933249
vt 0.020470 0.770766
vt 0.023133 0.773398
vt 0.021622 0.787420
vt 0.044720 0.867535
vt 0.038283 0.849655
vt 0.055790 0.847221
vt 0.021970 0.882407
vt 0.039104 0.873104
vt 0.037765 0.883516
vt 0.006973 0.794930
vt 0.021645 0.794069
vt 0.005806 0.796671
vt 0.021413 0.788786
vt 0.004000 0.792900
vt 0.131270 0.782026
vt 0.118112 0.784780
vt 0.118419 0.782811
vt 0.022781 0.791725
vt 0.037468 0.794278
vt 0.022781 0.794127
vt 0.038492 0.779007
vt 0.041460 0.771973
vt 0.054939 0.772240
vt 0.032382 0.774982
vt 0.037500 0.778566
vt 0.037714 0.788601
vt 0.037649 0.789782
vt 0.037506 0.792225
vt 0.130839 0.839453
vt 0.118170 0.840749
vt 0.117963 0.836551
vt 0.009184 0.849517
vt 0.023502 0.852323
vt 0.006103 0.852183
vt 0.007909 0.847261
vt 0.022084 0.849569
vt 0.023575 0.849236
vt 0.038037 0.844475
vt 0.038089 0.846902
vt 0.118563 0.779109
vt 0.130882 0.777593
vt 0.131375 0.837170
vt 0.117965 0.834213
vt 0.052386 0.845104
vt 0.023209 0.853907
vt 0.023666 0.868636
vt 0.009568 0.869218
vt 0.131970 0.797456
vt 0.118351 0.815691
vt 0.118517 0.797429
vt 0.004929 0.798196
vt 0.021829 0.809757
vt 0.005610 0.809908
vt 0.052175 0.795088
vt 0.038680 0.790051
vt 0.054364 0.793838
vt 0.038496 0.794216
vt 0.053377 0.796657
vt 0.022418 0.827980
vt 0.037167 0.809749
vt 0.038074 0.827979
vt 0.038184 0.809738
vt 0.054261 0.798118
vt 0.053787 0.809582
vt 0.131444 0.819648
vt 0.118660 0.821137
vt 0.119091 0.819366
vt 0.020951 0.831733
vt 0.007364 0.832868
vt 0.008108 0.831505
vt 0.118561 0.816900
vt 0.132025 0.816822
vt 0.022822 0.831745
vt 0.038018 0.829230
vt 0.037862 0.831378
vt 0.021835 0.835243
vt 0.006938 0.834318
vt 0.132089 0.823173
vt 0.117832 0.832694
vt 0.118372 0.822473
vt 0.052487 0.831535
vt 0.039522 0.831300
vt 0.051714 0.830350
vt 0.006502 0.829862
vt 0.054375 0.827398
vt 0.132277 0.785659
vt 0.117953 0.786081
vt 0.022733 0.835302
vt 0.038094 0.843038
vt 0.023174 0.845555
vt 0.039077 0.829233
vt 0.053078 0.828808
vt 0.022722 0.795359
vt 0.022850 0.809758
vt 0.038015 0.833295
vt 0.022747 0.833906
vt 0.024288 0.855624
vt 0.024217 0.852787
vt 0.037494 0.850360
vt 0.039470 0.846903
vt 0.053331 0.842813
vt 0.038931 0.834523
vt 0.052995 0.832876
vt 0.037573 0.772675
vt 0.037473 0.849206
vt 0.024352 0.851600
vt 0.029617 0.868015
vt 0.024875 0.868857
vt 0.005113 0.828467
vt 0.129902 0.844896
vt 0.116713 0.856744
vt 0.118137 0.841925
vt 0.031668 0.773924
vt 0.024381 0.770464
vt 0.036007 0.772024
vt 0.039841 0.758364
vt 0.024551 0.769322
vt 0.026075 0.756827
vt 0.030443 0.867078
vt 0.024680 0.868141
vt 0.095839 0.797269
vt 0.071088 0.795193
vt 0.071371 0.796399
vt 0.220636 0.934389
vt 0.094316 0.804535
vt 0.071289 0.804936
vt 0.070174 0.803582
vt 0.075136 0.839584
vt 0.074237 0.838426
vt 0.088698 0.838614
vt 0.089453 0.837495
vt 0.091847 0.832540
vt 0.071138 0.832660
vt 0.072410 0.832578
vt 0.075440 0.848856
vt 0.088270 0.845587
vt 0.097920 0.769951
vt 0.071935 0.774518
vt 0.071836 0.775780
vt 0.206379 0.957467
vt 0.207528 0.957434
vt 0.210800 0.933429
vt 0.116221 0.758582
vt 0.115605 0.759377
vt 0.128666 0.756721
vt 0.129516 0.757380
vt 0.116349 0.857750
vt 0.115605 0.856955
vt 0.128913 0.859205
vt 0.128901 0.858081
vt 0.129970 0.858525
vt 0.131908 0.776447
vt 0.130908 0.776470
vt 0.038450 0.788702
vt 0.022439 0.787401
vt 0.022546 0.788750
vt 0.117476 0.778268
vt 0.117484 0.779972
vt 0.117236 0.841002
vt 0.130957 0.844348
vt 0.129957 0.843655
vt 0.133331 0.785387
vt 0.131946 0.784279
vt 0.133098 0.783727
vt 0.037458 0.795410
vt 0.116966 0.785877
vt 0.021540 0.833732
vt 0.117591 0.820954
vt 0.133079 0.821633
vt 0.131832 0.821720
vt 0.039148 0.833037
vt 0.133322 0.815797
vt 0.133205 0.817624
vt 0.021454 0.829304
vt 0.022599 0.829310
vt 0.117341 0.815948
vt 0.117510 0.817713
vt 0.022279 0.846326
vt 0.023241 0.846875
vt 0.116752 0.833314
vt 0.131584 0.835774
vt 0.132585 0.836742
vt 0.039033 0.843592
vt 0.037704 0.771103
vt 0.038527 0.771738
vt 0.023618 0.769816
vt 0.024128 0.772986
vt 0.024006 0.773946
vt 0.038393 0.868077
vt 0.038364 0.867198
vt 0.039435 0.867641
vt 0.224335 0.953254
vt 0.223189 0.938083
vt 0.071055 0.822933
vt 0.092114 0.823441
vt 0.088064 0.838598
vt 0.089568 0.846258
vt 0.070701 0.767192
vt 0.100998 0.760640
vt 0.070691 0.756721
vt 0.199252 0.959366
vt 0.201206 0.930502
vt 0.192904 0.926801
vt 0.132788 0.781838
vt 0.020964 0.791844
vt 0.039216 0.792363
vt 0.132163 0.778116
vt 0.002708 0.791659
vt 0.116843 0.836314
vt 0.131988 0.839666
vt 0.021908 0.795385
vt 0.117378 0.797447
vt 0.133128 0.797455
vt 0.117086 0.784346
vt 0.117020 0.782839
vt 0.038227 0.795450
vt 0.132844 0.819722
vt 0.117808 0.819453
vt 0.133194 0.823181
vt 0.038051 0.834623
vt 0.132280 0.815545
vt 0.021590 0.827955
vt 0.038859 0.827973
vt 0.117331 0.822375
vt 0.040845 0.758545
vt 0.025115 0.756721
vt 0.020793 0.882113
vt 0.038914 0.883598
vt 0.040217 0.873242
vt 0.000000 1.000000
vt 0.806801 0.608874
vt 0.108394 0.800060
vt 0.226448 0.923754
vt 0.223925 0.952333
vt 0.208489 0.973507
vt 0.205921 0.965839
vt 0.055954 0.771367
vt 0.064700 0.771585
vt 0.005563 0.769587
vt 0.054521 0.866109
vt 0.055790 0.792711
vt 0.102258 0.761117
vt 0.069425 0.756782
vt 0.190720 0.961270
s 1
f 2/1/1 3/2/1 4/3/1
f 8/4/2 5/5/2 7/6/2
f 125/7/3 112/8/4 17/9/5
f 24/10/6 119/11/7 21/12/8
f 25/13/9 60/14/10 16/15/11
f 72/16/12 85/17/13 75/18/14
f 130/19/15 126/20/16 32/21/17
f 35/22/18 16/15/11 29/23/19
f 290/24/20 31/25/21 26/26/22
f 90/27/23 12/28/24 97/29/25
f 10/30/26 44/31/27 50/32/28
f 127/33/29 129/34/30 110/35/31
f 290/24/20 62/36/32 69/37/33
f 101/38/34 42/39/35 289/40/36
f 131/41/37 123/42/38 23/43/39
f 11/44/40 94/45/41 86/46/42
f 15/47/43 30/48/44 38/49/45
f 58/50/46 89/51/47 95/52/48
f 12/28/24 64/53/49 70/54/50
f 107/55/51 78/56/52 103/57/53
f 73/58/54 80/59/55 14/60/56
f 105/61/57 288/62/58 10/63/59
f 81/64/60 99/65/61 104/66/62
f 87/67/63 73/58/54 14/60/56
f 72/16/12 88/68/64 286/69/65
f 71/70/66 27/71/67 15/47/43
f 76/72/68 106/73/69 100/74/70
f 285/75/71 96/76/72 13/77/73
f 58/50/46 65/78/74 57/79/75
f 67/80/76 11/44/40 61/81/77
f 54/82/78 134/83/79 46/84/80
f 43/85/81 102/86/82 9/87/83
f 79/88/84 285/75/71 13/77/73
f 40/89/85 55/90/86 45/91/87
f 135/92/88 119/11/7 124/93/89
f 52/94/90 9/95/91 49/96/92
f 122/97/93 53/98/94 48/99/95
f 128/100/96 114/101/97 111/102/98
f 117/103/99 36/104/100 28/105/101
f 141/106/102 166/107/103 137/108/104
f 133/109/105 135/92/88 124/93/89
f 263/110/106 268/111/107 162/112/108
f 269/113/109 182/114/110 177/115/111
f 145/116/112 270/117/113 142/118/114
f 293/119/115 203/120/116 193/121/117
f 161/122/118 293/119/115 154/123/119
f 148/124/120 207/125/121 294/126/122
f 149/127/123 197/128/124 204/129/125
f 277/130/126 262/131/127 138/132/128
f 280/133/129 278/134/130 158/135/131
f 149/127/123 157/136/132 292/137/133
f 299/138/134 178/139/135 170/140/136
f 171/141/137 175/142/138 179/143/139
f 254/144/140 169/145/141 171/141/137
f 168/146/142 258/147/143 297/148/144
f 148/124/120 167/149/145 155/150/146
f 255/151/147 170/140/136 250/152/148
f 182/114/110 298/153/149 177/115/111
f 281/154/150 276/155/151 147/156/152
f 186/157/153 245/158/154 191/159/155
f 194/160/156 190/161/157 185/162/158
f 150/163/159 156/164/160 164/165/161
f 198/166/162 150/163/159 206/167/163
f 242/168/164 188/169/165 236/170/166
f 187/171/167 205/172/168 192/173/169
f 213/174/170 219/175/171 211/176/172
f 210/177/173 224/178/174 296/179/175
f 213/174/170 246/180/176 232/181/177
f 209/182/178 235/183/179 295/184/180
f 218/185/181 254/144/140 225/186/182
f 226/187/183 252/188/184 220/189/185
f 222/190/186 214/191/187 212/192/188
f 231/193/189 210/177/173 296/179/175
f 244/194/190 187/171/167 192/173/169
f 195/195/191 191/159/155 208/196/192
f 217/197/193 256/198/194 248/199/195
f 212/192/188 238/200/196 243/201/197
f 201/202/198 188/169/165 189/203/199
f 209/182/178 230/204/200 216/205/201
f 282/206/202 174/207/203 183/208/204
f 172/209/205 251/210/206 298/153/149
f 251/210/206 228/211/207 221/212/208
f 278/134/130 280/133/129 259/213/209
f 168/146/142 184/214/210 173/215/211
f 283/216/212 270/117/113 275/217/213
f 190/161/157 234/218/214 185/162/158
f 180/219/215 144/220/216 176/221/217
f 279/222/218 265/223/219 260/224/220
f 136/225/221 264/226/222 139/227/223
f 282/206/202 284/228/224 274/229/225
f 30/48/44 32/21/17 33/230/226
f 35/22/18 37/231/227 34/232/228
f 44/31/27 46/84/80 47/233/229
f 52/94/90 54/82/78 55/90/86
f 63/234/230 65/78/74 62/36/32
f 66/235/231 68/236/232 69/37/33
f 75/18/14 77/237/233 74/238/234
f 83/239/235 85/17/13 82/240/236
f 89/51/47 91/241/237 88/68/64
f 93/242/238 95/52/48 92/243/239
f 99/65/61 101/38/34 98/244/240
f 107/55/51 109/245/241 106/73/69
f 110/35/31 111/102/98 112/246/4
f 115/247/242 116/248/243 117/103/99
f 120/249/244 121/250/245 122/97/93
f 125/7/3 126/20/16 127/33/29
f 128/100/96 129/34/30 130/19/15
f 131/41/37 132/251/246 133/109/105
f 136/252/221 137/108/104 138/253/128
f 139/254/223 140/255/247 141/106/102
f 142/256/114 143/257/248 144/220/216
f 145/258/112 146/259/249 147/260/152
f 153/261/250 155/150/146 152/262/251
f 157/136/132 159/263/252 156/164/160
f 161/122/118 163/264/253 160/265/254
f 165/266/255 167/149/145 164/267/161
f 173/215/211 174/207/203 175/142/138
f 176/221/217 177/268/111 178/139/135
f 179/269/139 180/219/215 181/270/256
f 182/114/110 183/208/204 184/214/210
f 194/271/156 196/272/257 193/273/117
f 198/166/162 200/274/258 197/128/124
f 201/202/198 203/120/116 204/129/125
f 205/275/168 207/125/121 208/196/192
f 216/205/201 218/185/181 215/276/259
f 220/189/185 222/277/186 219/175/171
f 224/278/174 226/187/183 223/279/260
f 228/211/207 230/204/200 227/280/261
f 232/181/177 234/281/214 231/282/189
f 236/170/166 238/200/196 235/183/179
f 240/283/262 242/168/164 239/284/263
f 244/285/190 246/180/176 243/286/197
f 247/287/264 248/199/195 249/288/265
f 250/152/148 251/289/206 252/188/184
f 253/290/266 254/291/140 255/151/147
f 256/198/194 257/292/267 258/147/143
f 259/213/209 261/293/268 262/294/127
f 263/295/106 264/226/222 265/223/219
f 266/296/269 267/297/270 268/111/107
f 271/298/271 272/299/272 273/300/273
f 274/229/225 275/217/213 276/155/151
f 34/232/228 25/13/9 35/22/18
f 62/36/32 27/71/67 63/234/230
f 31/25/21 27/71/67 26/26/22
f 29/23/19 36/104/100 35/22/18
f 32/21/17 34/232/228 37/231/227
f 33/230/226 38/49/45 30/48/44
f 289/40/36 98/244/240 101/38/34
f 55/90/86 287/301/274 52/94/90
f 45/91/87 41/302/275 40/89/85
f 45/91/87 54/82/78 46/84/80
f 49/96/92 53/98/94 52/94/90
f 47/233/229 50/32/28 44/31/27
f 66/235/231 59/303/276 67/80/76
f 65/78/74 56/304/277 57/79/75
f 69/37/33 25/13/9 290/24/20
f 61/81/77 68/236/232 67/80/76
f 63/234/230 70/54/50 64/53/49
f 69/37/33 65/78/74 66/235/231
f 92/243/239 73/58/54 93/242/238
f 286/69/65 82/240/236 85/17/13
f 72/16/12 74/238/234 73/58/54
f 106/73/69 83/239/235 107/55/51
f 75/18/14 84/305/278 76/72/68
f 82/240/236 78/56/52 83/239/235
f 81/64/60 74/238/234 77/237/233
f 88/68/64 285/75/71 286/69/65
f 93/242/238 86/46/42 94/45/41
f 97/29/25 91/241/237 90/27/23
f 89/51/47 92/243/239 95/52/48
f 100/74/70 77/237/233 76/72/68
f 42/39/35 108/306/279 43/85/81
f 103/57/53 108/306/279 107/55/51
f 100/74/70 109/245/241 101/38/34
f 98/244/240 104/66/62 99/65/61
f 111/102/98 129/34/30 128/100/96
f 113/307/280 115/247/242 117/103/99
f 112/246/4 127/33/29 110/35/31
f 18/308/281 112/246/4 111/102/98
f 113/307/280 19/309/282 114/101/97
f 36/104/100 116/248/243 37/231/227
f 118/310/283 120/249/244 122/97/93
f 123/311/38 24/10/6 23/312/39
f 118/310/283 21/12/8 119/11/7
f 121/250/245 53/98/94 122/97/93
f 123/311/38 133/109/105 124/93/89
f 126/20/16 129/34/30 127/33/29
f 126/20/16 33/230/226 32/21/17
f 130/19/15 115/247/242 128/100/96
f 134/83/79 133/109/105 132/251/246
f 134/83/79 120/249/244 135/92/88
f 47/233/229 132/251/246 131/41/37
f 137/108/104 139/254/223 141/106/102
f 141/106/102 153/261/250 152/262/251
f 144/220/216 145/258/112 142/256/114
f 176/221/217 143/257/248 177/268/111
f 196/272/257 293/313/115 193/273/117
f 160/265/254 291/314/284 161/122/118
f 294/126/122 164/267/161 167/149/145
f 197/128/124 151/315/285 198/166/162
f 148/124/120 154/316/119 293/313/115
f 292/137/133 156/164/160 151/315/285
f 137/108/104 165/266/255 138/253/128
f 161/122/118 153/317/250 162/112/108
f 155/150/146 166/107/103 152/262/251
f 158/135/131 160/265/254 163/264/253
f 159/263/252 164/165/161 156/164/160
f 249/288/265 169/145/141 247/287/264
f 250/152/148 298/318/149 251/289/206
f 181/270/256 171/319/137 179/269/139
f 184/214/210 172/209/205 182/114/110
f 173/215/211 169/145/141 168/146/142
f 170/140/136 177/268/111 298/318/149
f 180/219/215 147/260/152 146/259/249
f 173/215/211 183/208/204 174/207/203
f 176/221/217 181/270/256 180/219/215
f 201/202/198 190/161/157 202/320/286
f 208/196/192 192/321/169 205/275/168
f 195/195/191 185/322/158 186/157/153
f 200/274/258 187/171/167 188/169/165
f 204/129/125 291/314/284 149/127/123
f 294/126/122 206/323/163 150/324/159
f 208/196/192 196/272/257 195/195/191
f 202/320/286 193/121/117 203/120/116
f 206/167/163 199/325/287 198/166/162
f 204/129/125 200/274/258 201/202/198
f 239/284/263 210/177/173 240/283/262
f 211/176/172 243/286/197 246/180/176
f 223/279/260 296/326/175 224/278/174
f 295/184/180 227/280/261 230/204/200
f 216/205/201 210/177/173 209/182/178
f 219/175/171 212/327/188 211/176/172
f 253/290/266 225/328/182 254/291/140
f 256/198/194 228/211/207 257/292/267
f 216/205/201 229/329/288 217/197/193
f 227/280/261 221/212/208 228/211/207
f 225/186/182 215/276/259 218/185/181
f 220/189/185 223/279/260 226/187/183
f 213/174/170 231/282/189 296/326/175
f 235/183/179 214/191/187 295/184/180
f 232/181/177 245/158/154 233/330/289
f 231/193/189 241/331/290 240/283/262
f 237/332/291 243/201/197 238/200/196
f 236/170/166 239/284/263 242/168/164
f 245/158/154 192/321/169 191/159/155
f 248/199/195 218/185/181 217/197/193
f 252/188/184 221/333/208 220/189/185
f 255/151/147 171/319/137 299/138/134
f 258/147/143 172/209/205 297/148/144
f 248/199/195 258/147/143 249/288/265
f 250/152/148 253/290/266 255/151/147
f 260/224/220 280/133/129 279/222/218
f 268/111/107 265/223/219 266/296/269
f 264/226/222 260/224/220 265/223/219
f 277/130/126 259/213/209 262/294/127
f 261/293/268 138/334/128 262/294/127
f 140/335/247 264/226/222 263/295/106
f 162/112/108 267/297/270 163/264/253
f 283/216/212 274/229/225 284/228/224
f 273/300/273 270/117/113 271/298/271
f 276/155/151 145/116/112 147/336/152
f 143/337/248 270/117/113 269/338/109
f 183/208/204 273/300/273 272/299/272
f 276/155/151 282/206/202 274/229/225
f 158/135/131 277/130/126 159/263/252
f 267/297/270 279/222/218 280/133/129
f 284/228/224 271/298/271 283/216/212
f 281/154/150 174/207/203 282/206/202
f 242/168/164 190/161/157 189/203/199
f 236/170/166 187/171/167 237/332/291
f 233/330/289 185/322/158 234/281/214
f 89/51/47 56/304/277 90/27/23
f 95/52/48 59/303/276 58/50/46
f 19/309/282 111/102/98 114/101/97
f 2/1/1 1/339/1 3/2/1
f 8/4/2 6/340/2 5/5/2
f 17/9/5 39/341/292 125/7/3
f 39/341/292 33/230/226 125/7/3
f 24/10/6 124/93/89 119/11/7
f 25/13/9 68/236/232 60/14/10
f 72/16/12 286/69/65 85/17/13
f 32/21/17 37/231/227 130/19/15
f 37/231/227 116/248/243 130/19/15
f 35/22/18 25/13/9 16/15/11
f 290/24/20 34/232/228 31/25/21
f 90/27/23 56/304/277 12/28/24
f 10/30/26 41/302/275 44/31/27
f 290/24/20 26/26/22 62/36/32
f 101/38/34 109/245/241 42/39/35
f 23/43/39 51/342/293 131/41/37
f 51/342/293 47/233/229 131/41/37
f 11/44/40 59/303/276 94/45/41
f 15/47/43 27/71/67 30/48/44
f 58/50/46 57/79/75 89/51/47
f 12/28/24 56/304/277 64/53/49
f 107/55/51 83/239/235 78/56/52
f 73/58/54 74/238/234 80/59/55
f 105/61/57 98/244/240 288/62/58
f 81/64/60 77/237/233 99/65/61
f 87/67/63 93/242/238 73/58/54
f 72/16/12 92/243/239 88/68/64
f 71/70/66 63/234/230 27/71/67
f 76/72/68 84/305/278 106/73/69
f 285/75/71 91/241/237 96/76/72
f 58/50/46 66/235/231 65/78/74
f 67/80/76 59/303/276 11/44/40
f 121/250/245 134/83/79 54/82/78
f 134/83/79 132/251/246 46/84/80
f 43/85/81 108/306/279 102/86/82
f 79/88/84 82/240/236 285/75/71
f 40/89/85 42/343/294 55/90/86
f 135/92/88 120/249/244 119/11/7
f 52/94/90 287/301/274 9/95/91
f 48/99/95 22/344/295 122/97/93
f 22/344/295 118/345/283 122/97/93
f 128/100/96 115/247/242 114/101/97
f 28/105/101 20/346/296 117/103/99
f 20/346/296 113/347/280 117/103/99
f 141/106/102 152/262/251 166/107/103
f 153/317/250 140/348/247 162/112/108
f 140/348/247 263/110/106 162/112/108
f 177/115/111 143/349/248 269/113/109
f 269/113/109 273/300/273 182/114/110
f 145/116/112 275/217/213 270/117/113
f 293/119/115 291/314/284 203/120/116
f 161/122/118 291/314/284 293/119/115
f 148/124/120 196/272/257 207/125/121
f 149/127/123 292/137/133 197/128/124
f 138/132/128 165/350/255 277/130/126
f 165/350/255 159/263/252 277/130/126
f 158/135/131 163/264/253 280/133/129
f 163/264/253 267/297/270 280/133/129
f 149/127/123 160/265/254 157/136/132
f 299/138/134 181/270/256 178/139/135
f 171/141/137 169/145/141 175/142/138
f 254/144/140 247/287/264 169/145/141
f 168/146/142 249/288/265 258/147/143
f 148/124/120 294/126/122 167/149/145
f 255/151/147 299/138/134 170/140/136
f 182/114/110 172/209/205 298/153/149
f 147/156/152 179/143/139 281/154/150
f 179/143/139 175/142/138 281/154/150
f 186/157/153 233/330/289 245/158/154
f 194/160/156 202/320/286 190/161/157
f 150/163/159 151/315/285 156/164/160
f 198/166/162 151/315/285 150/163/159
f 242/168/164 189/203/199 188/169/165
f 187/171/167 199/325/287 205/172/168
f 213/174/170 223/279/260 219/175/171
f 210/177/173 215/276/259 224/178/174
f 213/174/170 211/176/172 246/180/176
f 209/182/178 239/284/263 235/183/179
f 218/185/181 247/287/264 254/144/140
f 226/187/183 253/290/266 252/188/184
f 222/190/186 227/280/261 214/191/187
f 231/193/189 240/283/262 210/177/173
f 244/194/190 237/332/291 187/171/167
f 195/195/191 186/157/153 191/159/155
f 217/197/193 229/329/288 256/198/194
f 212/192/188 214/191/187 238/200/196
f 201/202/198 200/274/258 188/169/165
f 209/182/178 295/184/180 230/204/200
f 272/299/272 284/228/224 183/208/204
f 284/228/224 282/206/202 183/208/204
f 172/209/205 257/292/267 251/210/206
f 251/210/206 257/292/267 228/211/207
f 168/146/142 297/148/144 184/214/210
f 283/216/212 271/298/271 270/117/113
f 190/161/157 241/331/290 234/218/214
f 180/219/215 146/259/249 144/220/216
f 279/222/218 266/296/269 265/223/219
f 136/225/221 261/293/268 264/226/222
f 30/48/44 31/25/21 32/21/17
f 35/22/18 36/104/100 37/231/227
f 44/31/27 45/91/87 46/84/80
f 52/94/90 53/98/94 54/82/78
f 63/234/230 64/53/49 65/78/74
f 66/235/231 67/80/76 68/236/232
f 75/18/14 76/72/68 77/237/233
f 83/239/235 84/305/278 85/17/13
f 89/51/47 90/27/23 91/241/237
f 93/242/238 94/45/41 95/52/48
f 99/65/61 100/74/70 101/38/34
f 107/55/51 108/306/279 109/245/241
f 153/261/250 154/316/119 155/150/146
f 157/136/132 158/135/131 159/263/252
f 161/122/118 162/112/108 163/264/253
f 165/266/255 166/107/103 167/149/145
f 194/271/156 195/195/191 196/272/257
f 198/166/162 199/325/287 200/274/258
f 201/202/198 202/320/286 203/120/116
f 205/275/168 206/323/163 207/125/121
f 216/205/201 217/197/193 218/185/181
f 220/189/185 221/333/208 222/277/186
f 224/278/174 225/328/182 226/187/183
f 228/211/207 229/329/288 230/204/200
f 232/181/177 233/330/289 234/281/214
f 236/170/166 237/332/291 238/200/196
f 240/283/262 241/331/290 242/168/164
f 244/285/190 245/158/154 246/180/176
f 259/213/209 260/224/220 261/293/268
f 34/232/228 290/24/20 25/13/9
f 62/36/32 26/26/22 27/71/67
f 31/25/21 30/48/44 27/71/67
f 29/23/19 28/105/101 36/104/100
f 32/21/17 31/25/21 34/232/228
f 33/230/226 39/341/292 38/49/45
f 289/40/36 288/62/58 98/244/240
f 55/90/86 42/343/294 287/301/274
f 45/91/87 44/31/27 41/302/275
f 45/91/87 55/90/86 54/82/78
f 49/96/92 48/99/95 53/98/94
f 47/233/229 51/342/293 50/32/28
f 66/235/231 58/50/46 59/303/276
f 65/78/74 64/53/49 56/304/277
f 69/37/33 68/236/232 25/13/9
f 61/81/77 60/14/10 68/236/232
f 63/234/230 71/70/66 70/54/50
f 69/37/33 62/36/32 65/78/74
f 92/243/239 72/16/12 73/58/54
f 286/69/65 285/75/71 82/240/236
f 72/16/12 75/18/14 74/238/234
f 106/73/69 84/305/278 83/239/235
f 75/18/14 85/17/13 84/305/278
f 82/240/236 79/88/84 78/56/52
f 81/64/60 80/59/55 74/238/234
f 88/68/64 91/241/237 285/75/71
f 93/242/238 87/67/63 86/46/42
f 97/29/25 96/76/72 91/241/237
f 89/51/47 88/68/64 92/243/239
f 100/74/70 99/65/61 77/237/233
f 42/39/35 109/245/241 108/306/279
f 103/57/53 102/86/82 108/306/279
f 100/74/70 106/73/69 109/245/241
f 98/244/240 105/61/57 104/66/62
f 111/102/98 110/35/31 129/34/30
f 113/307/280 114/101/97 115/247/242
f 112/246/4 125/7/3 127/33/29
f 18/308/281 17/351/5 112/246/4
f 113/307/280 20/352/296 19/309/282
f 36/104/100 117/103/99 116/248/243
f 118/310/283 119/11/7 120/249/244
f 123/311/38 124/93/89 24/10/6
f 118/310/283 22/353/295 21/12/8
f 121/250/245 54/82/78 53/98/94
f 123/311/38 131/41/37 133/109/105
f 126/20/16 130/19/15 129/34/30
f 126/20/16 125/7/3 33/230/226
f 130/19/15 116/248/243 115/247/242
f 134/83/79 135/92/88 133/109/105
f 134/83/79 121/250/245 120/249/244
f 47/233/229 46/84/80 132/251/246
f 137/108/104 136/252/221 139/254/223
f 141/106/102 140/255/247 153/261/250
f 144/220/216 146/259/249 145/258/112
f 176/221/217 144/220/216 143/257/248
f 196/272/257 148/124/120 293/313/115
f 160/265/254 149/127/123 291/314/284
f 294/126/122 150/324/159 164/267/161
f 197/128/124 292/137/133 151/315/285
f 148/124/120 155/150/146 154/316/119
f 292/137/133 157/136/132 156/164/160
f 137/108/104 166/107/103 165/266/255
f 161/122/118 154/123/119 153/317/250
f 155/150/146 167/149/145 166/107/103
f 158/135/131 157/136/132 160/265/254
f 159/263/252 165/350/255 164/165/161
f 249/288/265 168/146/142 169/145/141
f 250/152/148 170/140/136 298/318/149
f 181/270/256 299/138/134 171/319/137
f 184/214/210 297/148/144 172/209/205
f 173/215/211 175/142/138 169/145/141
f 170/140/136 178/139/135 177/268/111
f 180/219/215 179/269/139 147/260/152
f 173/215/211 184/214/210 183/208/204
f 176/221/217 178/139/135 181/270/256
f 201/202/198 189/203/199 190/161/157
f 208/196/192 191/159/155 192/321/169
f 195/195/191 194/271/156 185/322/158
f 200/274/258 199/325/287 187/171/167
f 204/129/125 203/120/116 291/314/284
f 294/126/122 207/125/121 206/323/163
f 208/196/192 207/125/121 196/272/257
f 202/320/286 194/160/156 193/121/117
f 206/167/163 205/172/168 199/325/287
f 204/129/125 197/128/124 200/274/258
f 239/284/263 209/182/178 210/177/173
f 211/176/172 212/327/188 243/286/197
f 223/279/260 213/174/170 296/326/175
f 295/184/180 214/191/187 227/280/261
f 216/205/201 215/276/259 210/177/173
f 219/175/171 222/277/186 212/327/188
f 253/290/266 226/187/183 225/328/182
f 256/198/194 229/329/288 228/211/207
f 216/205/201 230/204/200 229/329/288
f 227/280/261 222/190/186 221/212/208
f 225/186/182 224/178/174 215/276/259
f 220/189/185 219/175/171 223/279/260
f 213/174/170 232/181/177 231/282/189
f 235/183/179 238/200/196 214/191/187
f 232/181/177 246/180/176 245/158/154
f 231/193/189 234/218/214 241/331/290
f 237/332/291 244/194/190 243/201/197
f 236/170/166 235/183/179 239/284/263
f 245/158/154 244/285/190 192/321/169
f 248/199/195 247/287/264 218/185/181
f 252/188/184 251/289/206 221/333/208
f 255/151/147 254/291/140 171/319/137
f 258/147/143 257/292/267 172/209/205
f 248/199/195 256/198/194 258/147/143
f 250/152/148 252/188/184 253/290/266
f 260/224/220 259/213/209 280/133/129
f 268/111/107 263/295/106 265/223/219
f 264/226/222 261/293/268 260/224/220
f 277/130/126 278/134/130 259/213/209
f 261/293/268 136/225/221 138/334/128
f 140/335/247 139/227/223 264/226/222
f 162/112/108 268/111/107 267/297/270
f 283/216/212 275/217/213 274/229/225
f 273/300/273 269/338/109 270/117/113
f 276/155/151 275/217/213 145/116/112
f 143/337/248 142/118/114 270/117/113
f 183/208/204 182/114/110 273/300/273
f 276/155/151 281/154/150 282/206/202
f 158/135/131 278/134/130 277/130/126
f 267/297/270 266/296/269 279/222/218
f 284/228/224 272/299/272 271/298/271
f 281/154/150 175/142/138 174/207/203
f 242/168/164 241/331/290 190/161/157
f 236/170/166 188/169/165 187/171/167
f 233/330/289 186/157/153 185/322/158
f 89/51/47 57/79/75 56/304/277
f 95/52/48 94/45/41 59/303/276
f 19/309/282 18/308/281 111/102/98
