# Blender 5.0.1
# www.blender.org
o floor_border_corner_B
v -1.000000 -0.000000 1.000000
v 1.000000 0.000000 -1.000000
v -1.000000 -0.000000 -1.000000
v 0.761810 0.000000 1.000000
v 1.000000 0.000000 0.761810
v 0.852961 0.000000 0.981869
v 0.930236 0.000000 0.930236
v 0.981869 0.000000 0.852962
v -1.000000 -1.000000 1.000000
v -1.000000 -0.000000 1.000000
v 1.000000 -1.000000 -1.000000
v 1.000000 0.000000 -1.000000
v 1.000000 -1.000000 0.761810
v 0.761810 -1.000000 1.000000
v 0.981869 -1.000000 0.852962
v 0.930236 -1.000000 0.930236
v 0.852962 -1.000000 0.981869
v 0.761810 0.000000 1.000000
v 1.000000 0.000000 0.761810
v 0.852961 0.000000 0.981869
v 0.930236 0.000000 0.930236
v 0.981869 0.000000 0.852962
v 1.139375 -1.014559 0.320147
v 0.639882 -1.014559 0.267397
v 0.642243 -1.017705 0.434594
v 1.129495 -1.016132 0.434594
v 0.698201 -0.295635 -0.134174
v 0.699179 -0.311316 -0.118942
v 0.683053 -0.296333 -0.119162
v 1.216211 -0.295635 -0.134174
v 1.231359 -0.296333 -0.119161
v 1.215239 -0.311316 -0.118942
v -0.086346 -0.270468 0.637151
v -0.100938 -0.255063 0.635488
v -0.085948 -0.255536 0.620675
v -0.086347 -0.270512 1.123451
v -0.085749 -0.255577 1.139687
v -0.100736 -0.255069 1.124999
v 1.195746 -0.228443 0.384781
v 1.192690 0.039261 0.344163
v 1.209587 0.020159 0.347061
v 0.723021 -0.250462 0.388122
v 0.706627 0.039261 0.344163
v 1.218462 -0.331964 0.334414
v 1.234353 -0.316878 0.332258
v 1.225942 -0.291336 0.355403
v 1.210794 -0.319077 0.355792
v 0.667151 0.047483 0.312939
v 0.681423 0.069450 0.308144
v 0.671184 0.079138 0.281648
v 0.657302 0.064159 0.283439
v 1.227643 0.069450 0.308144
v 1.245256 0.050434 0.310701
v 1.256949 0.064216 0.283432
v 1.242838 0.079204 0.281649
v 0.685970 -0.286520 0.356434
v 0.680060 -0.316878 0.332258
v 0.695956 -0.331964 0.334414
v 0.700541 -0.319077 0.355792
v 0.320376 0.037755 1.132064
v 0.317744 0.022780 1.146018
v 0.362523 -0.284905 0.645827
v 0.365509 -0.269931 0.629875
v 0.312759 -0.269931 1.127814
v 0.315232 -0.284905 1.111878
v 0.368353 0.037755 0.625720
v 0.370494 0.022774 0.611647
v 1.205520 -0.275106 0.502081
v 1.189681 -0.290236 0.501680
v 0.680804 0.025880 0.510073
v 0.695056 0.040925 0.510472
v 1.207083 0.040925 0.510472
v 1.221334 0.025880 0.510073
v 0.712396 -0.290729 0.501680
v 0.696564 -0.275660 0.502080
v 1.216879 -0.256016 0.410404
v 1.225466 -0.272833 0.438090
v 1.209612 -0.287962 0.440020
v 1.199544 -0.277136 0.414478
v 0.683618 0.070985 0.366552
v 0.668311 0.049779 0.368062
v 0.659047 0.065565 0.392675
v 0.673214 0.081063 0.390042
v 1.229819 0.081063 0.390042
v 1.243981 0.065565 0.392672
v 1.234305 0.050572 0.368388
v 1.218258 0.070985 0.366552
v 0.677404 -0.272866 0.438099
v 0.685595 -0.255138 0.409864
v 0.702297 -0.277136 0.414478
v 0.693249 -0.287999 0.440020
v 0.670145 -0.001131 1.109420
v 0.656545 0.023235 1.116737
v 0.657454 0.004903 1.134215
v 0.701329 -0.233957 0.659679
v 0.691711 -0.258323 0.655101
v 0.689331 -0.241845 0.637426
v 0.645117 0.014848 1.143166
v 0.641516 0.035532 1.128070
v 0.614910 0.044682 1.138902
v 0.616478 0.029748 1.152966
v 0.676682 -0.270621 0.646007
v 0.650075 -0.280359 0.637784
v 0.648404 -0.265415 0.621969
v 0.675156 -0.253516 0.628641
v 0.676682 -0.270621 1.110386
v 0.674847 -0.253901 1.128288
v 0.648397 -0.265375 1.135605
v 0.650075 -0.280323 1.119661
v 0.645662 0.014147 0.613882
v 0.616487 0.029680 0.604758
v 0.614912 0.044611 0.618828
v 0.641516 0.035532 0.628315
v 0.671567 0.038823 1.131058
v 0.671817 0.053273 1.117311
v 0.657499 0.038192 1.115978
v 0.690155 -0.300479 1.098381
v 0.676020 -0.297314 1.083624
v 0.691764 -0.312264 1.082473
v 0.674427 0.024228 -0.116066
v 0.714144 0.021715 -0.129810
v 0.676388 -0.004966 -0.138970
v 0.661169 0.000156 -0.124054
v 1.252578 0.004930 -0.124173
v 1.237931 -0.004966 -0.138970
v 1.239238 0.021715 -0.129810
v 1.239842 0.070393 -0.090611
v 1.240080 0.081983 -0.069465
v 1.254953 0.067019 -0.074069
v -0.079373 -0.007916 0.598362
v -0.094313 -0.013997 0.612656
v -0.081580 0.009532 0.611546
v 0.003112 0.059371 0.613581
v -0.003627 0.044712 0.598427
v -0.020989 0.051372 0.612916
v -0.053701 0.034167 1.148175
v -0.077039 0.029185 1.128256
v -0.090290 0.007785 1.147772
v -0.075019 0.011049 1.162291
v 0.657785 0.065032 0.031312
v 0.672100 0.080228 0.017957
v 0.817791 0.070393 -0.090611
v 0.797056 0.081860 -0.069597
v 0.038812 0.028865 1.157952
v 0.027020 0.046822 1.144871
v -0.033577 0.052666 1.076101
v -0.010053 0.057011 1.096317
v 0.656545 0.023235 0.638538
v 0.670145 -0.001131 0.645421
v 0.656947 0.005033 0.621261
v 0.689653 -0.241697 1.118104
v 0.691711 -0.258323 1.100303
v 0.701329 -0.233957 1.095292
v 1.219452 -1.011815 -0.130100
v 1.234283 -1.011815 -0.115104
v 0.572574 -1.014559 -0.113848
v 0.587969 -1.014559 -0.128843
v 0.657316 -0.844053 0.297058
v 1.122247 -0.848541 0.349028
v 0.617183 -0.819458 0.259230
v 0.641331 -0.809827 0.266239
v 0.623651 -0.802588 0.238923
v 0.607230 -0.813089 0.234749
v 1.227031 -1.011815 0.240574
v 1.213752 -1.011815 0.263680
v 0.590567 -1.014559 0.215331
v 0.579729 -1.014559 0.189080
v 1.186674 -0.814220 0.307858
v 1.199608 -0.810225 0.286269
v 1.183208 -0.799743 0.287235
v 1.154600 -0.805873 0.311191
v 0.670509 -0.831654 1.113330
v 0.651481 -0.844051 1.115626
v 0.676735 -0.848345 1.126779
v 1.111429 -1.017705 1.102787
v 1.086425 -1.017705 1.114003
v 0.659641 -1.017705 1.149968
v 0.634115 -1.017705 1.139241
v 1.093931 -0.843950 1.079180
v 1.074962 -0.831654 1.077365
v 1.069172 -0.848345 1.090813
v 0.674607 -0.844007 0.478534
v 0.671296 -0.824030 0.475420
v 0.651296 -0.835495 0.468509
v 1.147205 -1.014559 0.423257
v 1.098378 -0.841795 0.479703
v 1.112142 -0.846872 0.478201
v 0.632724 -0.801739 0.448678
v 0.647242 -0.779278 0.448713
v 0.641080 -0.769564 0.427943
v 0.625138 -0.780012 0.425832
v 1.171535 -1.014559 0.381215
v 1.161270 -1.014559 0.407611
v 0.614812 -1.014559 0.407072
v 0.604015 -1.014559 0.381215
v 1.143558 -0.802638 0.448904
v 1.150589 -0.779998 0.425835
v 1.134655 -0.769551 0.427943
v 1.129138 -0.779278 0.448713
v 0.591945 -1.017705 0.484282
v 0.603926 -1.017705 0.460660
v 1.128945 -0.818288 0.505558
v 1.145468 -0.810797 0.530692
v 1.161631 -0.821212 0.528482
v 1.150477 -0.830690 0.503172
v 0.648407 -0.818288 0.505557
v 0.625535 -0.830057 0.503726
v 0.614070 -0.821212 0.528482
v 0.630243 -0.810797 0.530692
v 1.171904 -1.017705 0.460217
v 1.183574 -1.017705 0.484281
v 0.614125 -1.017705 1.118796
v 0.603217 -1.017705 1.093026
v 1.089299 -0.822349 1.059510
v 1.108632 -0.834384 1.060774
v 1.118381 -0.826318 1.033695
v 1.102236 -0.815855 1.032492
v 0.640285 -0.815855 1.068458
v 0.624129 -0.826317 1.069660
v 0.634404 -0.833961 1.096219
v 0.654734 -0.822349 1.095475
v 1.139112 -1.017705 1.057060
v 1.128727 -1.017705 1.083319
v 0.631751 -0.805469 0.333030
v 0.623829 -0.779356 0.362292
v 0.639786 -0.768906 0.365625
v 0.644843 -0.777902 0.343514
v 1.164604 -1.014559 0.357268
v 1.172904 -1.014559 0.384744
v 0.602584 -1.014559 0.331994
v 0.611521 -1.014559 0.304956
v 1.135926 -0.768918 0.414534
v 1.151849 -0.779368 0.415041
v 1.144551 -0.806829 0.385147
v 1.130749 -0.778243 0.392034
v 1.210595 -0.904981 -0.115920
v 1.189968 -0.903065 -0.130100
v 1.187886 -0.815656 -0.068504
v 1.187590 -0.805979 -0.046886
v 1.202819 -0.816559 -0.052423
v 0.615737 -0.870134 -0.092998
v 0.617359 -0.905809 -0.128843
v 0.598275 -0.909653 -0.114012
v 0.607181 -0.818835 0.008593
v 0.622812 -0.808107 0.007922
v 0.619107 -0.817293 -0.021991
v 0.677788 -0.818400 -0.067247
v 0.652079 -0.817547 -0.055942
v 0.674835 -0.808889 -0.045626
v 1.107443 -0.824030 0.475420
v 1.127290 -0.835381 0.468177
v 0.659334 -0.849476 0.477935
v 0.680776 -0.836844 0.481190
v 0.657280 -1.014559 0.434594
v 0.631490 -1.014559 0.423804
v -0.101329 -1.017705 1.174953
v -0.116335 -1.017705 1.157153
v -0.116335 -1.017705 0.490957
v -0.101329 -1.017705 0.475764
v 0.601220 -1.017705 0.506410
v 0.612992 -1.017705 0.530921
v 0.623831 -0.852978 1.102040
v 0.633610 -0.859788 1.077058
v 0.626718 -0.840611 1.082171
v 0.541873 -1.017705 0.470864
v 0.568637 -1.017705 0.480206
v 0.583285 -0.809559 1.144371
v 0.583055 -0.794339 1.126849
v 0.559815 -0.786035 1.137447
v 0.558938 -0.796509 1.153685
v 0.583055 -0.794339 0.520196
v 0.585252 -0.813351 0.504493
v 0.558953 -0.796324 0.498440
v 0.559807 -0.785870 0.514743
v 0.566299 -1.017705 1.168178
v 0.541873 -1.017705 1.179853
v -0.090308 -0.881385 1.133652
v -0.110941 -0.892725 1.129300
v -0.096279 -0.899341 1.149843
v -0.096696 -0.895245 0.498580
v -0.110941 -0.892725 0.518587
v -0.041982 -0.807385 0.517619
v -0.019615 -0.797985 0.517371
v -0.025722 -0.808576 0.502481
v 0.180070 -0.809977 1.150313
v 0.182600 -0.798872 1.135632
v 0.144436 -0.805323 1.136500
v -0.041982 -0.807385 0.738537
v -0.027962 -0.804229 0.760855
v -0.019611 -0.798357 0.730595
v 0.626718 -0.840611 0.545447
v 0.633610 -0.859788 0.548370
v 0.621694 -0.852331 0.526277
v 0.603567 -1.017705 1.121512
v 1.206003 -0.294325 1.000032
v 1.221207 -0.277360 0.991908
v 1.211802 -0.282787 1.017471
v 1.119396 -0.300479 1.098381
v 1.127185 -0.312242 1.082478
v 1.144742 -0.298026 1.087590
v 1.147342 0.053273 1.117311
v 1.138139 0.038823 1.131058
v 1.163392 0.038454 1.120071
v 1.225759 0.050476 1.033146
v 1.230179 0.036073 1.048362
v 1.239430 0.035080 1.022299
v 0.690694 0.019891 0.347102
v 1.177023 -0.250462 0.388122
v 0.704541 -0.226577 0.384498
v 1.097977 -0.832624 0.348392
v 0.656404 -0.852973 0.295507
v 0.673758 -0.832624 0.301345
v 1.173436 -0.320885 -0.125954
v 1.172458 -0.336565 -0.141187
v 1.188583 -0.321582 -0.140967
v 0.655426 -0.320885 -0.125955
v 0.640278 -0.321582 -0.140967
v 0.656398 -0.336565 -0.141187
v 0.693444 -0.275711 -0.678708
v 0.662050 -0.005091 -0.637647
v 1.166889 -0.255518 -0.675644
v 0.653176 -0.357213 -0.625000
v 0.637284 -0.342127 -0.622844
v 0.645695 -0.316585 -0.645989
v 0.660843 -0.344326 -0.646378
v 1.204486 0.022234 -0.603525
v 1.190214 0.044200 -0.598730
v 1.200453 0.053889 -0.572234
v 1.214335 0.038909 -0.574025
v 0.643995 0.044200 -0.598730
v 0.626381 0.025185 -0.601287
v 0.614688 0.038967 -0.574018
v 0.628799 0.053955 -0.572234
v 1.185667 -0.311769 -0.647020
v 1.191577 -0.342127 -0.622844
v 1.175681 -0.357213 -0.625000
v 1.171095 -0.344326 -0.646377
v 0.683024 -0.290257 -0.963921
v 0.666897 -0.274636 -0.964337
v 1.172043 0.028209 -0.981910
v 1.175937 0.040934 -0.957739
v 1.188867 0.022616 -0.972249
v 0.664253 0.040934 -0.957739
v 0.668894 0.028209 -0.981910
v 0.651330 0.022640 -0.972249
v 1.157429 -0.290257 -0.963920
v 1.173453 -0.274609 -0.964337
v 0.654758 -0.281265 -0.700991
v 0.646083 -0.296303 -0.728436
v 0.662217 -0.311684 -0.730544
v 0.672093 -0.302385 -0.705064
v 1.188019 0.045736 -0.657138
v 1.203326 0.024530 -0.658647
v 1.212474 0.039581 -0.683354
v 1.198384 0.057116 -0.680761
v 0.641806 0.057116 -0.680761
v 0.627721 0.039603 -0.683351
v 0.637332 0.025323 -0.658975
v 0.653379 0.045736 -0.657138
v 1.194267 -0.296278 -0.728432
v 1.186042 -0.280387 -0.700450
v 1.169340 -0.302385 -0.705064
v 1.178232 -0.311684 -0.730544
v 1.197210 -0.001021 -0.144063
v 1.157493 -0.003534 -0.130319
v 1.195249 -0.030215 -0.121158
v 1.210468 -0.025094 -0.136075
v 0.619059 -0.020319 -0.135956
v 0.633706 -0.030215 -0.121159
v 0.632399 -0.003534 -0.130319
v 0.631795 0.045144 -0.169517
v 0.631557 0.056734 -0.190663
v 0.616684 0.041770 -0.186060
v 1.213852 0.039783 -0.291441
v 1.199537 0.054979 -0.278086
v 0.826286 0.045144 -0.169517
v 0.847022 0.056610 -0.190532
v 0.660851 -0.012726 -0.999477
v 0.676737 -0.001300 -1.004810
v 0.680497 -0.028141 -1.013498
v 1.181255 -0.012490 -0.999281
v 1.162512 -0.028141 -1.013498
v 1.165768 -0.001300 -1.004810
v 1.150715 -0.278380 -0.991443
v 1.148467 -0.257445 -1.005723
v 1.167116 -0.263079 -0.991064
v 0.691418 -0.278380 -0.991443
v 0.674948 -0.263001 -0.991314
v 0.694413 -0.257445 -1.005723
v 0.679855 0.014011 -0.634748
v 1.180943 -0.005358 -0.637688
v 1.164492 0.014011 -0.634748
v 0.676015 -0.255909 -0.675703
v 1.150196 -0.275711 -0.678708
v 0.847230 -1.012713 -1.004740
v 0.832082 -1.012713 -0.989727
v 1.228506 -1.012713 -1.004740
v 1.243653 -1.012713 -0.989727
v 1.221881 -0.844395 -0.493048
v 0.853777 -1.012713 -0.455050
v 1.246647 -1.012713 -0.507850
v 1.238236 -1.012713 -0.484705
v 0.816179 -0.827092 -0.527169
v 0.830452 -0.813182 -0.531964
v 0.820212 -0.807046 -0.558460
v 0.806331 -0.816532 -0.556670
v 1.239937 -0.813182 -0.531964
v 1.257550 -0.825223 -0.529407
v 1.269243 -0.816496 -0.556676
v 1.255132 -0.807005 -0.558460
v 0.834998 -1.012713 -0.483674
v 0.829089 -1.012713 -0.507851
v 1.237823 -1.012713 -0.166358
v 0.848623 -0.823308 -0.148785
v 0.844728 -0.815250 -0.172956
v 0.831798 -0.826850 -0.158445
v 1.240467 -0.815250 -0.172955
v 1.235826 -0.823308 -0.148784
v 1.253390 -0.826835 -0.158445
v 0.847213 -1.012713 -0.166357
v 1.229174 -1.012713 -0.429704
v 1.237848 -1.012713 -0.402258
v 0.832646 -0.812209 -0.473556
v 0.817339 -0.825638 -0.472047
v 0.808191 -0.816107 -0.447340
v 0.822282 -0.805003 -0.449933
v 1.242126 -0.805003 -0.449933
v 1.256210 -0.816093 -0.447343
v 1.246599 -0.825136 -0.471721
v 1.230552 -0.812209 -0.473556
v 0.826398 -1.012713 -0.402262
v 0.834623 -1.012713 -0.430244
v 0.823455 -0.841818 -0.986631
v 0.863172 -0.843410 -1.000376
v 0.825416 -0.860306 -1.009536
v 0.810197 -0.857062 -0.994619
v 1.264872 -0.854039 -0.994738
v 1.250225 -0.860305 -1.009536
v 1.251532 -0.843410 -1.000376
v 1.252136 -0.812584 -0.961177
v 1.252374 -0.805245 -0.940031
v 1.267247 -0.814721 -0.944634
v 0.806813 -0.815979 -0.839254
v 0.821128 -0.806356 -0.852609
v 1.078434 -0.812584 -0.961177
v 1.057698 -0.805323 -0.940163
v 1.243869 -0.849230 -0.131217
v 1.227983 -0.841995 -0.125884
v 1.224223 -0.858992 -0.117196
v 0.839410 -0.849081 -0.131414
v 0.858153 -0.858992 -0.117196
v 0.854897 -0.841995 -0.125884
v 0.908076 -1.012713 -0.124971
v 0.853549 -1.012713 -0.139630
v 1.229772 -1.012713 -0.139381
v 1.210307 -1.012713 -0.124971
v 1.204076 -0.832299 -0.495946
v 0.839723 -0.844565 -0.493007
v 0.856173 -0.832299 -0.495946
v 1.207916 -1.012713 -0.454991
v -1.001147 -0.320885 1.136698
v -0.985915 -0.336565 1.135721
v -0.986135 -0.321583 1.151846
v -1.001147 -0.320885 0.640292
v -0.986135 -0.321582 0.625145
v -0.985915 -0.336565 0.641265
v -0.448395 -0.275711 0.678311
v -0.489455 -0.005091 0.646917
v -0.451458 -0.255518 1.130151
v -0.502102 -0.357213 0.638043
v -0.504258 -0.342127 0.622151
v -0.481113 -0.316585 0.630562
v -0.480724 -0.344326 0.645710
v -0.523577 0.022234 1.167749
v -0.528372 0.044200 1.153476
v -0.554868 0.053889 1.163716
v -0.553078 0.038909 1.177597
v -0.528372 0.044200 0.628862
v -0.525815 0.025185 0.611248
v -0.553084 0.038967 0.599555
v -0.554868 0.053955 0.613666
v -0.480082 -0.311769 1.148930
v -0.504258 -0.342127 1.154839
v -0.502102 -0.357213 1.138943
v -0.480725 -0.344326 1.134358
v -0.132863 -0.290257 0.667890
v -0.132447 -0.274636 0.651764
v -0.114875 0.028209 1.135305
v -0.139046 0.040934 1.139199
v -0.124536 0.022616 1.152130
v -0.139046 0.040934 0.649120
v -0.114875 0.028209 0.653761
v -0.124535 0.022640 0.636196
v -0.132863 -0.290257 1.120692
v -0.132446 -0.274609 1.136715
v -0.426111 -0.281265 0.639624
v -0.398666 -0.296303 0.630950
v -0.396558 -0.311684 0.647084
v -0.422038 -0.302385 0.656960
v -0.469964 0.045736 1.151282
v -0.468455 0.024530 1.166588
v -0.443748 0.039581 1.175737
v -0.446341 0.057116 1.161646
v -0.446341 0.057116 0.626673
v -0.443751 0.039603 0.612588
v -0.468128 0.025323 0.622199
v -0.469964 0.045736 0.638246
v -0.398669 -0.296278 1.157529
v -0.426652 -0.280387 1.149305
v -0.422038 -0.302385 1.132603
v -0.396558 -0.311684 1.141494
v -0.983039 -0.001021 1.160472
v -0.996783 -0.003535 1.120755
v -1.005943 -0.030216 1.158512
v -0.991027 -0.025094 1.173730
v -0.991146 -0.020319 0.603926
v -1.005943 -0.030216 0.618573
v -0.996783 -0.003535 0.617266
v -0.957585 0.045144 0.616662
v -0.936439 0.056734 0.616424
v -0.941042 0.041770 0.601551
v -0.835662 0.039783 1.177114
v -0.849016 0.054979 1.162799
v -0.957585 0.045144 1.017108
v -0.936571 0.056610 1.037844
v -0.097306 -0.012726 0.645718
v -0.091974 -0.001300 0.661604
v -0.083286 -0.028141 0.665364
v -0.097504 -0.012490 1.144518
v -0.083286 -0.028141 1.125775
v -0.091974 -0.001300 1.129030
v -0.105342 -0.278380 1.113978
v -0.091062 -0.257445 1.111729
v -0.105721 -0.263079 1.130379
v -0.105342 -0.278380 0.676285
v -0.105471 -0.263001 0.659815
v -0.091061 -0.257445 0.679280
v -0.492354 0.014011 0.664722
v -0.489414 -0.005358 1.144205
v -0.492354 0.014011 1.127755
v -0.451399 -0.255909 0.660882
v -0.448395 -0.275711 1.113458
v -0.115949 -1.012713 0.675904
v -0.130961 -1.012713 0.660756
v -0.115949 -1.012713 1.151521
v -0.130962 -1.012713 1.166669
v -0.627642 -0.844395 1.144896
v -0.665638 -1.012713 0.682451
v -0.612839 -1.012713 1.169663
v -0.635984 -1.012713 1.161252
v -0.593519 -0.827092 0.644854
v -0.588724 -0.813182 0.659126
v -0.562228 -0.807046 0.648887
v -0.564019 -0.816532 0.635005
v -0.588725 -0.813182 1.162952
v -0.591282 -0.825223 1.180566
v -0.564013 -0.816496 1.192259
v -0.562229 -0.807005 1.178147
v -0.637014 -1.012713 0.663673
v -0.612839 -1.012713 0.657763
v -0.954332 -1.012713 1.160839
v -0.971904 -0.823308 0.677298
v -0.947733 -0.815250 0.673403
v -0.962243 -0.826850 0.660473
v -0.947733 -0.815250 1.163483
v -0.971904 -0.823308 1.158842
v -0.962244 -0.826835 1.176406
v -0.954332 -1.012713 0.675887
v -0.690985 -1.012713 1.152189
v -0.718431 -1.012713 1.160864
v -0.647133 -0.812209 0.661321
v -0.648643 -0.825638 0.646014
v -0.673349 -0.816107 0.636865
v -0.670756 -0.805003 0.650956
v -0.670756 -0.805003 1.165141
v -0.673347 -0.816093 1.179226
v -0.648969 -0.825136 1.169615
v -0.647133 -0.812209 1.153567
v -0.718428 -1.012713 0.655073
v -0.690445 -1.012713 0.663298
v -0.134058 -0.841818 0.652130
v -0.120314 -0.843410 0.691847
v -0.111154 -0.860306 0.654091
v -0.126069 -0.857062 0.638872
v -0.125951 -0.854039 1.187888
v -0.111154 -0.860306 1.173241
v -0.120314 -0.843410 1.174548
v -0.159513 -0.812584 1.175152
v -0.180658 -0.805245 1.175389
v -0.176055 -0.814721 1.190263
v -0.281435 -0.815979 0.635488
v -0.268080 -0.806356 0.649803
v -0.159513 -0.812584 0.795494
v -0.180526 -0.805323 0.774758
v -0.989473 -0.849230 1.166884
v -0.994805 -0.841995 1.150999
v -1.003492 -0.858992 1.147239
v -0.989275 -0.849081 0.668085
v -1.003492 -0.858992 0.686828
v -0.994805 -0.841995 0.683572
v -0.995717 -1.012713 0.700873
v -0.981058 -1.012713 0.682224
v -0.981308 -1.012713 1.152788
v -0.995717 -1.012713 1.133322
v -0.624744 -0.832299 1.127092
v -0.627682 -0.844565 0.668397
v -0.624744 -0.832299 0.684848
v -0.665698 -1.012713 1.130932
vn -0.0000 1.0000 -0.0000
vn 1.0000 -0.0000 -0.0000
vn 0.9952 -0.0000 0.0980
vn 0.0980 -0.0000 0.9952
vn -0.0000 -0.0000 1.0000
vn 0.9239 -0.0000 0.3827
vn 0.7071 -0.0000 0.7071
vn 0.3827 -0.0000 0.9239
vn 0.8945 0.1027 -0.4351
vn 0.8856 0.4141 -0.2103
vn 0.8936 0.3710 0.2525
vn 0.0269 0.2950 0.9551
vn -0.3870 0.3278 0.8618
vn -0.3342 -0.3810 0.8620
vn -0.8811 -0.3305 0.3384
vn -0.9092 0.1930 -0.3689
vn -0.8791 -0.3401 -0.3340
vn 0.9716 -0.2366 -0.0049
vn 0.7608 0.1474 -0.6320
vn 0.7140 -0.3349 -0.6149
vn 0.7196 0.2980 0.6272
vn 0.7324 -0.1425 0.6657
vn 0.3772 -0.9150 0.1430
vn -0.2825 -0.7413 -0.6089
vn -0.4342 -0.8934 0.1155
vn 0.3130 0.9430 -0.1130
vn -0.3188 0.6624 -0.6780
vn 0.3063 0.6601 -0.6859
vn -0.9355 0.3489 -0.0555
vn -0.8718 0.2173 -0.4390
vn -0.8528 -0.3853 -0.3526
vn -0.0944 0.9471 -0.3068
vn -0.4603 0.8752 -0.1492
vn -0.3999 0.8920 0.2109
vn -0.3155 0.7602 0.5679
vn -0.3680 0.9213 -0.1258
vn -0.3388 -0.5893 0.7334
vn 0.3051 -0.5822 0.7537
vn -0.0097 -0.9327 0.3606
vn -0.3614 -0.8757 -0.3202
vn -0.0083 -0.9320 -0.3623
vn 0.2188 -0.9197 0.3259
vn -0.3354 -0.9087 0.2486
vn -0.3322 -0.9432 0.0046
vn 0.8923 -0.4374 -0.1116
vn 0.9403 0.3150 0.1287
vn 0.8927 -0.4348 0.1185
vn -0.9729 -0.2162 -0.0822
vn -0.7834 0.2725 0.5586
vn -0.7885 -0.1532 0.5956
vn -0.7757 0.1432 -0.6146
vn -0.7267 -0.3295 -0.6028
vn 0.4767 0.8649 0.1573
vn 0.3817 0.9077 0.1745
vn -0.3823 0.9080 0.1717
vn -0.9411 0.3151 0.1226
vn -0.8931 -0.4357 -0.1116
vn -0.8954 -0.4332 0.1029
vn 0.8144 -0.5415 0.2084
vn 0.5532 -0.7684 -0.3217
vn 0.8114 -0.5425 -0.2175
vn 0.7742 0.2228 0.5924
vn 0.5261 -0.3059 0.7935
vn 0.7744 -0.1515 0.6142
vn -0.0048 -0.4333 -0.9012
vn 0.1909 0.3705 -0.9090
vn 0.1780 -0.4219 -0.8890
vn 0.2177 -0.8972 0.3842
vn 0.2118 -0.8987 -0.3839
vn 0.5038 -0.3064 -0.8077
vn 0.7513 0.2184 -0.6228
vn 0.7548 -0.1545 -0.6375
vn 0.1680 -0.4618 0.8709
vn -0.3670 0.2816 0.8866
vn -0.3555 -0.4622 0.8124
vn 0.9724 -0.0935 -0.2138
vn 0.9427 0.2708 0.1948
vn 0.9745 -0.0933 0.2041
vn -0.8769 -0.3918 0.2786
vn 0.3345 -0.9421 0.0228
vn -0.4069 -0.8967 -0.1741
vn 0.4102 -0.8955 -0.1727
vn -0.4305 0.8977 -0.0935
vn 0.1904 0.8957 0.4019
vn 0.0163 0.9196 -0.3925
vn 0.0123 0.9163 0.4002
vn 0.9285 -0.3574 0.1005
vn -0.1123 0.9852 0.1292
vn -0.3457 0.9379 0.0289
vn -0.6689 0.6326 -0.3904
vn -0.6277 0.7644 0.1471
vn 0.2051 0.3700 0.9061
vn -0.0002 -0.4344 0.9007
vn 0.1888 -0.4217 0.8868
vn -0.0992 0.4085 -0.9073
vn 0.0063 0.3325 -0.9431
vn -0.0341 0.7692 -0.6381
vn 0.3694 0.4579 -0.8086
vn -0.0920 0.5865 -0.8047
vn -0.3287 -0.3580 -0.8739
vn 0.3686 0.1039 -0.9238
vn 0.3287 -0.3579 -0.8740
vn -0.3036 0.3538 -0.8847
vn 0.4239 0.0934 -0.9009
vn -0.4224 0.1041 -0.9004
vn -0.0174 0.8399 0.5424
vn -0.2516 0.8076 0.5333
vn 0.7856 0.5868 0.1963
vn 0.5527 0.7683 -0.3230
vn 0.5622 0.7668 0.3096
vn -0.1050 0.3730 0.9219
vn 0.2559 0.1545 0.9543
vn 0.2037 0.3662 0.9080
vn -0.7210 -0.0550 0.6908
vn -0.7092 0.3670 0.6019
vn -0.8550 -0.0004 0.5186
vn -0.0931 0.7729 -0.6277
vn 0.2544 0.3172 -0.9136
vn -0.2554 0.7913 0.5555
vn 0.2050 0.9654 -0.1613
vn 0.1139 0.8248 0.5538
vn -0.2317 0.7390 -0.6326
vn -0.2466 0.9522 -0.1805
vn -0.9085 0.1918 -0.3713
vn -0.8346 0.5434 -0.0898
vn -0.8096 0.3418 -0.4773
vn 0.8382 0.1570 0.5222
vn 0.5050 0.3847 0.7727
vn 0.5830 0.1674 0.7951
vn 0.0405 0.0001 0.9992
vn -0.1937 -0.0632 0.9790
vn -0.2139 -0.2183 0.9522
vn -0.0805 0.7371 -0.6710
vn 0.1625 0.8177 -0.5522
vn 0.0561 0.7048 -0.7071
vn -0.5704 0.0187 0.8211
vn -0.8474 -0.0397 0.5294
vn -0.5756 -0.1376 0.8061
vn -0.9669 0.1325 0.2178
vn -0.8088 0.5419 -0.2284
vn -0.9543 0.1656 -0.2486
vn -0.9814 0.0512 0.1849
vn -0.8142 0.5287 -0.2399
vn -0.9810 0.1128 -0.1581
vn -0.7169 0.2398 -0.6546
vn -0.3829 0.4271 -0.8191
vn -0.5430 0.2608 -0.7982
vn 0.8660 -0.0314 0.4991
vn 0.6287 0.0646 0.7749
vn 0.6619 -0.1163 0.7405
vn 0.8181 0.5394 -0.1993
vn 0.9631 0.1310 0.2351
vn 0.9636 0.1585 -0.2152
vn -0.2982 0.9209 0.2510
vn 0.3073 0.9367 -0.1675
vn -0.2664 0.9452 -0.1889
vn 0.3202 0.4611 -0.8276
vn 0.7086 0.2412 -0.6632
vn 0.5060 0.2635 -0.8213
vn -0.1991 0.8675 0.4558
vn 0.1737 0.7250 0.6665
vn 0.2349 0.8605 0.4521
vn -0.2913 0.9362 -0.1967
vn 0.2914 0.9386 0.1848
vn 0.3001 0.9360 -0.1841
vn -0.8668 0.1597 -0.4724
vn -0.6135 0.2760 -0.7399
vn -0.7845 0.1833 -0.5924
vn 0.2924 0.9325 0.2121
vn -0.0838 0.9681 -0.2359
vn -0.3233 0.9251 0.1991
vn 0.8933 0.4428 0.0776
vn 0.8845 0.1568 -0.4394
vn 0.9701 0.0591 0.2354
vn 0.8421 0.5154 -0.1592
vn -0.0376 -0.1682 0.9850
vn 0.4012 0.0239 0.9157
vn 0.7669 -0.0337 0.6408
vn 0.7985 0.5587 -0.2244
vn 0.8341 0.4810 0.2700
vn 0.9707 0.0857 0.2245
vn -0.9054 0.1146 -0.4088
vn -0.8260 0.4856 0.2864
vn -0.8953 0.3575 -0.2659
vn -0.5794 0.7480 -0.3237
vn -0.3186 0.8191 -0.4771
vn -0.5612 0.6314 -0.5352
vn -0.4789 0.3850 0.7889
vn -0.8190 0.1590 0.5513
vn -0.5548 0.1669 0.8151
vn -0.0652 0.5158 0.8542
vn -0.4393 0.3956 0.8066
vn -0.4221 0.1868 0.8871
vn 0.9745 0.0864 -0.2072
vn 0.9885 -0.1502 0.0165
vn 0.9673 -0.0951 -0.2353
vn 0.8696 0.1340 0.4752
vn 0.6000 0.0318 0.7993
vn 0.9321 -0.0727 0.3548
vn -0.0781 0.9438 0.3211
vn 0.1821 0.9404 -0.2873
vn -0.2052 0.9782 0.0305
vn 0.5849 0.7579 -0.2889
vn 0.8666 0.4759 0.1497
vn 0.8538 0.4796 -0.2024
vn 0.4658 0.0573 -0.8831
vn 0.7699 0.1696 -0.6152
vn 0.7682 -0.0182 -0.6399
vn -0.2196 0.8728 0.4358
vn -0.3241 0.9384 0.1197
vn -0.3839 0.8296 0.4055
vn 0.5796 0.2777 0.7661
vn 0.7897 -0.4315 0.4361
vn 0.8091 0.2817 0.5157
vn -0.5769 0.8161 0.0356
vn -0.2260 0.5509 -0.8034
vn 0.1958 0.5297 -0.8253
vn 0.1496 0.1086 -0.9828
vn -0.5066 0.6952 -0.5100
vn -0.1890 0.2939 0.9369
vn 0.3028 0.6534 0.6938
vn -0.2959 0.6515 0.6986
vn -0.3212 -0.8733 -0.3663
vn 0.8533 -0.3847 -0.3520
vn 0.3212 -0.8733 -0.3663
vn -0.3368 -0.3889 -0.8575
vn -0.3644 -0.8727 0.3249
vn 0.8735 -0.4132 0.2573
vn 0.3738 -0.8877 0.2688
vn -0.9037 0.3670 0.2204
vn 0.2644 0.7601 0.5936
vn 0.4022 0.8838 0.2391
vn -0.8778 -0.4201 0.2300
vn 0.2716 -0.7413 -0.6138
vn -0.9201 0.3823 -0.0859
vn 0.9197 0.3817 -0.0916
vn 0.4348 0.8948 -0.1013
vn 0.5623 0.2749 0.7799
vn 0.5630 -0.7649 0.3129
vn 0.5393 0.2701 -0.7976
vn -0.3603 0.8698 0.3371
vn -0.9036 0.2889 0.3163
vn -0.3747 0.2101 -0.9030
vn 0.3483 0.7034 -0.6196
vn 0.3464 0.9139 -0.2117
vn -0.3912 0.1642 -0.9056
vn -0.0924 0.9297 -0.3564
vn -0.4251 0.8234 -0.3759
vn 0.7827 0.5859 -0.2098
vn 0.9405 0.2692 -0.2073
vn -0.8425 0.4984 0.2043
vn 0.5882 0.3933 0.7066
vn -0.1074 0.7446 0.6589
vn -0.8340 0.4857 0.2617
vn -0.7457 0.1778 0.6421
vn 0.8244 0.4776 0.3038
vn 0.7591 0.1812 0.6252
vn 0.5917 0.4746 -0.6516
vn -0.5843 0.4884 -0.6481
vn -0.1577 0.8219 -0.5474
vn 0.6947 0.4742 0.5408
vn -0.2914 0.9391 0.1820
vn -0.6783 0.4765 0.5593
vn -0.6824 0.3335 -0.6505
vn 0.3315 0.7026 -0.6297
vn 0.2948 0.7259 -0.6215
vn 0.2642 0.9460 -0.1879
vn -0.3176 0.9434 -0.0952
vn 0.2007 0.3288 0.9228
vn 0.4611 0.0333 0.8867
vn 0.9855 0.0552 0.1602
vn 0.6454 0.3296 0.6891
vn 0.2210 0.9243 0.3113
vn 0.2427 0.5238 0.8166
vn -0.5934 0.7473 -0.2991
vn -0.1820 0.9456 -0.2695
vn 0.4854 -0.8714 0.0704
vn 0.5671 -0.4551 0.6864
vn 0.2084 0.8682 0.4502
vn 0.1726 0.2834 0.9433
vn 0.9484 0.2933 0.1205
vn -0.9847 0.1655 -0.0541
vn -0.3654 -0.8965 0.2504
vn 0.9784 0.2061 0.0153
vn 0.1791 0.8984 -0.4009
vn -0.8628 0.3220 0.3898
vn -0.6088 0.2231 0.7613
vn 0.2900 0.9173 0.2728
vn -0.8202 0.5291 0.2175
vn 0.8107 0.5337 0.2407
vn 0.7297 0.2993 -0.6148
vn 0.7808 0.2993 -0.5485
vn 0.5584 0.3201 -0.7653
vn 0.6136 0.7474 0.2548
vn 0.1991 0.0993 0.9749
vn -0.5355 0.3024 -0.7885
vn -0.9189 0.1196 0.3758
vn -0.3213 -0.8738 0.3650
vn 0.3654 -0.8962 -0.2517
vn 0.3213 -0.8738 0.3650
vn -0.8946 0.1027 0.4350
vn -0.8857 0.4139 0.2102
vn -0.8936 0.3711 -0.2526
vn -0.3778 -0.9146 -0.1443
vn 0.3387 -0.5905 -0.7325
vn -0.3051 -0.5830 -0.7530
vn -0.9753 0.2207 -0.0093
vn -0.7177 -0.3411 0.6071
vn -0.9670 -0.2548 0.0062
vn -0.7185 0.2983 -0.6283
vn -0.7345 -0.1432 -0.6633
vn 0.2868 -0.7587 0.5849
vn 0.4318 -0.8943 -0.1176
vn -0.3006 0.9469 0.1142
vn 0.3249 0.6469 0.6899
vn -0.3117 0.6437 0.6989
vn 0.9356 0.3488 0.0554
vn 0.8718 0.2173 0.4390
vn 0.8528 -0.3858 0.3519
vn 0.0292 0.9619 0.2719
vn 0.4376 0.8815 0.1774
vn 0.3997 0.8921 -0.2105
vn 0.3155 0.7596 -0.5688
vn 0.3595 0.9246 0.1262
vn -0.2513 0.4299 -0.8672
vn 0.2780 0.7023 -0.6553
vn 0.2627 0.4334 -0.8620
vn -0.8770 -0.4493 0.1702
vn -0.8433 0.3783 -0.3817
vn -0.8689 -0.4186 -0.2642
vn -0.4540 0.8584 0.2390
vn 0.3793 0.8918 -0.2467
vn -0.3795 0.8912 -0.2484
vn 0.7919 0.1244 -0.5979
vn 0.8733 -0.4214 -0.2445
vn 0.7636 -0.3134 -0.5645
vn -0.3606 -0.8896 -0.2805
vn 0.3835 -0.9125 0.1422
vn -0.3835 -0.9117 0.1477
vn -0.7666 0.1204 -0.6307
vn -0.7407 -0.3101 -0.5961
vn 0.9670 -0.2411 0.0828
vn 0.7824 0.2730 -0.5598
vn 0.7924 -0.1545 -0.5901
vn 0.7327 -0.3354 0.5922
vn 0.9828 0.1749 0.0595
vn 0.4725 0.7292 0.4949
vn 0.8484 0.3812 -0.3674
vn 0.8794 -0.4470 0.1636
vn -0.2631 -0.7296 -0.6313
vn 0.3595 -0.8926 -0.2721
vn 0.2698 -0.2775 -0.9220
vn -0.2869 0.0873 -0.9540
vn 0.3015 0.0864 -0.9495
vn 0.0106 0.7687 0.6395
vn -0.3694 0.4579 0.8086
vn 0.0754 0.6604 0.7472
vn 0.3287 -0.3580 0.8739
vn -0.3686 0.1039 0.9238
vn -0.3287 -0.3579 0.8740
vn -0.8534 -0.3851 0.3513
vn -0.8735 -0.4128 -0.2581
vn -0.3738 -0.8873 -0.2701
vn 0.9037 0.3670 -0.2204
vn -0.2643 0.7590 -0.5951
vn -0.4021 0.8839 -0.2389
vn 0.8778 -0.4197 -0.2308
vn -0.2711 0.6984 -0.6624
vn -0.2754 -0.7580 0.5913
vn 0.9303 0.3177 0.1835
vn 0.4514 0.8621 0.2303
vn -0.9287 0.3169 0.1927
vn 0.3747 0.2101 0.9030
vn -0.3483 0.7035 0.6196
vn -0.3464 0.9139 0.2119
vn 0.2734 -0.7327 -0.6232
vn -0.2569 -0.2769 -0.9259
vn 0.7763 0.1479 0.6128
vn -0.7605 0.1523 0.6313
vn 0.8711 0.4409 0.2165
vn 0.9146 -0.1301 -0.3828
vn 0.8636 0.4773 -0.1622
vn 0.9280 0.3720 -0.0192
vn 0.8693 -0.1822 -0.4594
vn 0.9947 -0.0925 -0.0442
vn 0.8192 0.0544 0.5709
vn 0.1793 0.9774 -0.1120
vn -0.2905 0.7540 -0.5892
vn 0.2749 0.7512 -0.6001
vn -0.9054 0.4226 -0.0401
vn -0.8621 0.2808 -0.4217
vn -0.9128 -0.1361 -0.3850
vn -0.0312 0.9806 -0.1937
vn -0.3520 0.9275 -0.1259
vn -0.3040 0.9401 0.1544
vn -0.2607 0.8596 0.4395
vn -0.2196 0.9686 -0.1167
vn 0.2281 0.5785 0.7831
vn -0.2370 0.8199 0.5211
vn -0.2378 0.5819 0.7777
vn 0.9844 -0.1195 -0.1289
vn 0.8372 0.4562 0.3017
vn 0.9860 -0.0905 0.1398
vn 0.3605 0.9099 -0.2051
vn -0.2908 0.9419 0.1682
vn 0.3120 0.9375 0.1539
vn -0.7814 0.1953 0.5926
vn -0.9836 -0.0905 0.1562
vn -0.7201 -0.1294 0.6817
vn 0.7566 0.1904 0.6256
vn 0.8140 -0.1002 0.5721
vn -0.9493 0.3032 -0.0834
vn -0.9046 0.0134 0.4261
vn -0.9876 -0.1083 -0.1139
vn -0.8839 -0.1771 -0.4328
vn -0.3856 0.8383 -0.3854
vn -0.8266 0.4666 0.3146
vn -0.9908 -0.1121 -0.0759
vn -0.1051 -0.0843 0.9909
vn 0.2786 0.1445 0.9495
vn -0.2929 0.1396 0.9459
vn -0.0106 0.8787 -0.4772
vn 0.3327 0.6087 -0.7203
vn -0.0575 0.7561 -0.6520
vn -0.3518 -0.0797 -0.9327
vn 0.3679 0.1556 -0.9168
vn 0.3519 -0.0795 -0.9326
vn -0.8793 0.4379 0.1873
vn -0.7745 0.3681 0.5145
vn 0.7067 0.4031 0.5815
vn 0.3066 0.9346 0.1806
vn 0.2159 0.8581 0.4660
vn 0.2329 0.8159 0.5292
vn -0.7772 0.2142 -0.5917
vn -0.3672 0.9106 -0.1896
vn 0.7625 0.2146 -0.6103
vn -0.3760 0.2913 -0.8796
vn 0.8980 0.1527 -0.4126
vn 0.3012 0.8202 -0.4863
vn 0.2566 0.9555 -0.1456
vn 0.9778 -0.0583 0.2012
vn -0.9873 -0.0749 0.1403
vn 0.9016 0.3809 -0.2050
vn -0.9061 0.3880 -0.1686
vn -0.3650 -0.8738 -0.3213
vn 0.2517 -0.8962 0.3654
vn -0.3650 -0.8738 0.3213
vn -0.4350 0.1027 -0.8946
vn -0.2102 0.4139 -0.8857
vn 0.2526 0.3711 -0.8936
vn 0.1443 -0.9146 -0.3778
vn 0.7326 -0.5905 0.3387
vn 0.7530 -0.5830 -0.3051
vn 0.0093 0.2207 -0.9753
vn -0.6071 -0.3411 -0.7177
vn -0.0062 -0.2548 -0.9670
vn 0.6283 0.2983 -0.7185
vn 0.6633 -0.1432 -0.7345
vn -0.5849 -0.7587 0.2868
vn 0.1176 -0.8943 0.4318
vn -0.1142 0.9469 -0.3006
vn -0.6899 0.6469 0.3249
vn -0.6989 0.6437 -0.3117
vn -0.0554 0.3488 0.9356
vn -0.4390 0.2173 0.8718
vn -0.3519 -0.3858 0.8528
vn -0.3070 0.9470 0.0944
vn -0.1494 0.8751 0.4604
vn 0.2108 0.8920 0.3998
vn 0.5688 0.7596 0.3155
vn -0.1262 0.9246 0.3595
vn 0.8672 0.4299 -0.2513
vn 0.6553 0.7023 0.2780
vn 0.8620 0.4334 0.2627
vn -0.1764 -0.4485 -0.8762
vn 0.3781 0.3781 -0.8450
vn 0.2576 -0.4199 -0.8702
vn -0.2430 0.8577 -0.4531
vn 0.2419 0.8918 0.3824
vn 0.2436 0.8912 -0.3826
vn 0.5979 0.1244 0.7919
vn 0.2379 -0.4227 0.8745
vn 0.5645 -0.3134 0.7636
vn 0.2739 -0.8910 -0.3621
vn -0.1489 -0.9120 0.3822
vn -0.1544 -0.9111 -0.3821
vn 0.6307 0.1204 -0.7666
vn 0.5960 -0.3101 -0.7407
vn -0.0828 -0.2411 0.9670
vn 0.5598 0.2730 0.7824
vn 0.5901 -0.1545 0.7924
vn -0.5922 -0.3354 0.7327
vn -0.0595 0.1749 0.9828
vn -0.5100 0.6952 0.5066
vn 0.3637 0.3809 0.8501
vn -0.1697 -0.4463 0.8787
vn 0.6313 -0.7296 -0.2631
vn 0.2655 -0.8940 0.3610
vn 0.9220 -0.2775 0.2698
vn 0.9540 0.0873 -0.2869
vn 0.9495 0.0864 0.3015
vn -0.6381 0.7692 0.0341
vn -0.8086 0.4579 -0.3694
vn -0.8047 0.5865 0.0920
vn -0.8739 -0.3580 0.3287
vn -0.9238 0.1039 -0.3686
vn -0.8740 -0.3579 -0.3287
vn -0.3513 -0.3851 -0.8534
vn 0.2581 -0.4128 -0.8735
vn 0.2702 -0.8873 -0.3738
vn 0.2204 0.3670 0.9037
vn 0.5951 0.7590 -0.2643
vn 0.2389 0.8839 -0.4021
vn 0.2308 -0.4197 0.8778
vn 0.6624 0.6984 -0.2711
vn -0.5912 -0.7580 -0.2754
vn -0.1879 0.3166 0.9298
vn -0.2343 0.8614 0.4506
vn -0.1971 0.3157 -0.9282
vn -0.9030 0.2101 0.3747
vn -0.6196 0.7034 -0.3483
vn -0.2119 0.9138 -0.3464
vn 0.6232 -0.7327 0.2734
vn 0.9259 -0.2769 -0.2569
vn -0.6128 0.1479 0.7763
vn -0.6313 0.1523 -0.7605
vn -0.2165 0.4409 0.8711
vn 0.3828 -0.1301 0.9146
vn 0.1622 0.4773 0.8636
vn 0.0192 0.3720 0.9280
vn 0.4594 -0.1822 0.8693
vn 0.0443 -0.0925 0.9947
vn -0.5709 0.0544 0.8192
vn 0.1120 0.9774 0.1793
vn 0.5892 0.7540 -0.2905
vn 0.6001 0.7512 0.2749
vn 0.0401 0.4226 -0.9054
vn 0.4217 0.2809 -0.8621
vn 0.3850 -0.1361 -0.9128
vn 0.2135 0.9748 -0.0649
vn 0.1141 0.9251 -0.3622
vn -0.1545 0.9400 -0.3041
vn -0.4395 0.8596 -0.2607
vn 0.1168 0.9686 -0.2196
vn -0.7831 0.5785 0.2281
vn -0.5211 0.8199 -0.2370
vn -0.7777 0.5819 -0.2378
vn 0.1289 -0.1195 0.9844
vn -0.3017 0.4562 0.8372
vn -0.1398 -0.0905 0.9860
vn 0.2051 0.9099 0.3605
vn -0.1682 0.9419 -0.2908
vn -0.1539 0.9375 0.3120
vn -0.5927 0.1953 -0.7814
vn -0.1562 -0.0905 -0.9836
vn -0.5356 -0.1009 -0.8384
vn -0.6256 0.1904 0.7565
vn -0.5721 -0.1002 0.8140
vn 0.0834 0.3033 -0.9493
vn -0.4262 0.0134 -0.9046
vn 0.1139 -0.1082 -0.9876
vn 0.4328 -0.1771 -0.8839
vn 0.3958 0.8249 -0.4036
vn -0.3146 0.4666 -0.8266
vn 0.0759 -0.1121 -0.9908
vn -0.9470 -0.0764 -0.3120
vn -0.9495 0.1445 0.2786
vn -0.9453 0.1432 -0.2931
vn 0.4764 0.8789 -0.0221
vn 0.7203 0.6087 0.3327
vn 0.6849 0.7257 -0.0662
vn 0.9327 -0.0797 -0.3518
vn 0.9168 0.1556 0.3679
vn 0.9326 -0.0795 0.3519
vn -0.1873 0.4379 -0.8793
vn -0.5145 0.3681 -0.7744
vn -0.5815 0.4031 0.7067
vn -0.1806 0.9346 0.3066
vn -0.4660 0.8581 0.2159
vn -0.5292 0.8159 0.2329
vn 0.5917 0.2142 -0.7772
vn 0.1896 0.9106 -0.3672
vn 0.6104 0.2146 0.7625
vn 0.8796 0.2913 -0.3760
vn 0.4126 0.1527 0.8980
vn 0.4863 0.8202 0.3012
vn 0.1456 0.9555 0.2566
vn -0.2012 -0.0583 0.9778
vn -0.1403 -0.0749 -0.9873
vn 0.2050 0.3809 0.9016
vn 0.1686 0.3880 -0.9061
vn 0.0106 0.3341 0.9425
vn -0.1655 0.1502 0.9747
vn -0.9800 0.1036 0.1697
vn -0.0001 -0.2505 0.9681
vn 0.0142 -0.2481 0.9686
vn 0.9156 0.1701 -0.3644
vn -0.3911 0.1593 -0.9065
vn 0.5423 -0.1570 0.8254
vn 0.2989 -0.0752 0.9513
vn -0.9513 -0.0752 0.2989
vt 0.009066 0.926481
vt 0.000000 0.880905
vt 0.073519 0.990934
vt 1.806125 0.607948
vt 0.925363 0.004990
vt 1.806125 0.004990
vt 0.739519 0.607948
vt -0.187749 0.004990
vt 0.739519 0.004990
vt 0.925363 0.607948
vt 0.878902 0.004990
vt 0.878902 0.607948
vt 0.832441 0.004990
vt 0.832441 0.607948
vt 0.785980 0.004990
vt 0.785980 0.607948
vt 0.168412 0.932937
vt 0.167041 0.929942
vt 0.170279 0.917526
vt 0.035610 0.904557
vt 0.036134 0.898676
vt 0.050173 0.897917
vt 0.034150 0.883762
vt 0.019226 0.897069
vt 0.018358 0.884930
vt 0.186039 0.912223
vt 0.170582 0.910692
vt 0.187611 0.910439
vt 0.170614 0.916159
vt 0.189132 0.914692
vt 0.117714 0.894352
vt 0.131394 0.891903
vt 0.130914 0.893938
vt 0.169350 0.913057
vt 0.154290 0.909700
vt 0.169431 0.910583
vt 0.153203 0.925984
vt 0.152882 0.933183
vt 0.138153 0.938611
vt 0.158856 0.929812
vt 0.154169 0.926429
vt 0.153925 0.915628
vt 0.154009 0.914403
vt 0.154116 0.911841
vt 0.130735 0.897764
vt 0.117969 0.898977
vt 0.003842 0.975434
vt 0.017025 0.952233
vt 0.017628 0.977837
vt 0.121808 0.860448
vt 0.132107 0.860799
vt 0.131606 0.879744
vt 0.188703 0.908839
vt 0.171599 0.895977
vt 0.188587 0.896210
vt 0.138310 0.909548
vt 0.152935 0.914117
vt 0.135181 0.911278
vt 0.153213 0.909710
vt 0.136891 0.907765
vt 0.170780 0.881869
vt 0.170510 0.895942
vt 0.154797 0.895423
vt 0.153702 0.895350
vt 0.135932 0.906091
vt 0.136767 0.893919
vt 0.005279 0.994366
vt 0.016870 0.993521
vt 0.016506 0.994437
vt 0.032212 0.939225
vt 0.034732 0.949872
vt 0.033812 0.949593
vt 0.002708 0.925307
vt 0.018943 0.937420
vt 0.003768 0.939907
vt 0.004424 0.992073
vt 0.017238 0.992193
vt 0.018151 0.950646
vt 0.020334 0.939474
vt 0.019035 0.950334
vt 0.172971 0.860406
vt 0.155732 0.876322
vt 0.162999 0.857154
vt 0.020276 0.950255
vt 0.031199 0.939709
vt 0.032610 0.949560
vt 0.136198 0.872964
vt 0.117174 0.879132
vt 0.131611 0.890554
vt 0.116709 0.890536
vt 0.154331 0.908533
vt 0.032564 0.936660
vt 0.018651 0.924620
vt 0.034146 0.922440
vt 0.190305 0.881417
vt 0.032095 0.902336
vt 0.031116 0.901186
vt 0.019265 0.898335
vt 0.033579 0.898787
vt 0.033572 0.937140
vt 0.050173 0.922934
vt 0.048498 0.940017
vt 0.018174 0.902373
vt 0.017573 0.924788
vt 0.159648 0.930695
vt 0.167413 0.932864
vt 0.155446 0.933101
vt 0.154447 0.947070
vt 0.168078 0.934144
vt 0.167237 0.946954
vt 0.199317 0.775864
vt 0.189494 0.806450
vt 0.189494 0.772364
vt 0.034494 0.904015
vt 0.034798 0.899865
vt 0.031450 0.938605
vt 0.020593 0.938071
vt 0.031930 0.937831
vt 0.161790 0.963477
vt 0.175799 0.981054
vt 0.163883 0.978293
vt 0.230702 0.764813
vt 0.223137 0.776647
vt 0.227197 0.763011
vt 0.206248 0.780312
vt 0.199055 0.803475
vt 0.223297 0.777948
vt 0.228386 0.794951
vt 0.225477 0.797991
vt 0.229570 0.780907
vt 0.225868 0.778893
vt 0.207728 0.756721
vt 0.209882 0.775847
vt 0.204937 0.765823
vt 0.175143 0.983784
vt 0.163387 0.979541
vt 0.175502 0.982466
vt 0.239751 0.790074
vt 0.238958 0.781586
vt 0.248036 0.772425
vt 0.141842 0.964521
vt 0.144060 0.979810
vt 0.142267 0.978885
vt 0.238201 0.781011
vt 0.246090 0.770055
vt 0.246962 0.771123
vt 0.162089 0.947234
vt 0.144737 0.962068
vt 0.136797 0.950453
vt 0.245052 0.768874
vt 0.230312 0.780416
vt 0.229293 0.763086
vt 0.135547 0.951145
vt 0.141247 0.963076
vt 0.133495 0.952525
vt 0.246930 0.800705
vt 0.239072 0.791111
vt 0.247574 0.799804
vt 0.145093 0.981211
vt 0.160021 0.997831
vt 0.136489 0.992189
vt 0.235433 0.781795
vt 0.232576 0.791753
vt 0.230367 0.780996
vt 0.141671 0.980269
vt 0.135294 0.991430
vt 0.133495 0.990070
vt 0.159230 0.963107
vt 0.162611 0.978639
vt 0.161684 0.979443
vt 0.144904 0.962929
vt 0.160453 0.980280
vt 0.145279 0.980297
vt 0.227600 0.763080
vt 0.226015 0.776777
vt 0.224851 0.763168
vt 0.224207 0.799123
vt 0.207600 0.780136
vt 0.221932 0.777390
vt 0.229958 0.797087
vt 0.235225 0.808821
vt 0.232864 0.809523
vt 0.232713 0.792288
vt 0.246043 0.801875
vt 0.236765 0.808305
vt 0.231983 0.811608
vt 0.228936 0.796401
vt 0.236436 0.807819
vt 0.208032 0.803548
vt 0.224397 0.800136
vt 0.230880 0.812488
vt 0.099120 0.991476
vt 0.076067 0.981873
vt 0.096310 0.981241
vt 0.208354 0.777101
vt 0.206818 0.778963
vt 0.202833 0.776289
vt 0.160882 0.962075
vt 0.163730 0.947639
vt 0.165333 0.948117
vt 0.073060 0.966010
vt 0.065634 0.981522
vt 0.055954 0.981632
vt 0.089797 0.936699
vt 0.073452 0.927121
vt 0.092462 0.926785
vt 0.075127 0.938512
vt 0.069000 0.927927
vt 0.072036 0.927405
vt 0.074207 0.965633
vt 0.091765 0.942129
vt 0.085195 0.973869
vt 0.091335 0.941039
vt 0.076182 0.939135
vt 0.089949 0.937895
vt 0.095725 0.927330
vt 0.090817 0.937262
vt 0.093739 0.926991
vt 0.074457 0.967597
vt 0.083788 0.974550
vt 0.075800 0.980600
vt 0.167672 0.877960
vt 0.178676 0.863488
vt 0.171304 0.880945
vt 0.084937 0.975158
vt 0.096348 0.973188
vt 0.092874 0.941672
vt 0.108162 0.941209
vt 0.153900 0.932478
vt 0.238075 0.781801
vt 0.236957 0.790445
vt 0.236077 0.781866
vt 0.132579 0.918998
vt 0.132274 0.918076
vt 0.133237 0.918195
vt 0.119687 0.920572
vt 0.118829 0.919869
vt 0.119784 0.919541
vt 0.017286 0.951232
vt 0.018100 0.952024
vt 0.004048 0.952056
vt 0.002954 0.951825
vt 0.003808 0.950994
vt 0.116882 0.900132
vt 0.117912 0.900134
vt 0.153177 0.915530
vt 0.169463 0.916121
vt 0.169500 0.917473
vt 0.131831 0.898661
vt 0.131866 0.896908
vt 0.115605 0.890809
vt 0.117011 0.891987
vt 0.115811 0.892531
vt 0.153517 0.908428
vt 0.170428 0.909332
vt 0.169570 0.909343
vt 0.132622 0.890824
vt 0.016436 0.995700
vt 0.017565 0.994943
vt 0.032672 0.938615
vt 0.018343 0.992371
vt 0.017987 0.993960
vt 0.003668 0.993800
vt 0.004855 0.993419
vt 0.019902 0.938929
vt 0.156036 0.877321
vt 0.155117 0.877250
vt 0.132412 0.859819
vt 0.133237 0.860685
vt 0.153371 0.934277
vt 0.166421 0.930470
vt 0.166350 0.929617
vt 0.018271 0.897732
vt 0.019194 0.902895
vt 0.019186 0.901714
vt 0.035448 0.897999
vt 0.021068 0.938823
vt 0.021365 0.939922
vt 0.004132 0.994899
vt 0.005353 0.995700
vt 0.221852 0.776361
vt 0.225447 0.799562
vt 0.160388 0.963499
vt 0.235526 0.781228
vt 0.236629 0.781143
vt 0.236513 0.791103
vt 0.237591 0.791090
vt 0.143769 0.980958
vt 0.143469 0.962301
vt 0.143688 0.963482
vt 0.162408 0.980425
vt 0.157836 0.962821
vt 0.159299 0.961919
vt 0.229013 0.779387
vt 0.231825 0.792004
vt 0.207183 0.802423
vt 0.208550 0.802276
vt 0.199563 0.774297
vt 0.210139 0.777174
vt 0.238867 0.790343
vt 0.239787 0.790465
vt 0.076275 0.937863
vt 0.073257 0.942429
vt 0.074445 0.944145
vt 0.073453 0.944064
vt 0.074572 0.981796
vt 0.095364 0.973940
vt 0.095247 0.972690
vt 0.117524 0.864556
vt 0.116363 0.864968
vt 0.116953 0.863607
vt 0.122138 0.859369
vt 0.120699 0.859934
vt 0.166775 0.878439
vt 0.166500 0.877468
vt 0.171743 0.882286
vt 0.116664 0.898409
vt 0.115997 0.894528
vt 0.152361 0.911644
vt 0.130857 0.898835
vt 0.132775 0.879846
vt 0.115958 0.879182
vt 0.171235 0.912986
vt 0.132429 0.892395
vt 0.132483 0.893967
vt 0.019968 0.936915
vt 0.016764 0.950831
vt 0.036061 0.949991
vt 0.003336 0.992221
vt 0.002708 0.975313
vt 0.183512 0.940704
vt 0.035346 0.883824
vt 0.034391 0.897515
vt 0.017240 0.885084
vt 0.018745 0.977994
vt 0.226200 0.777595
vt 0.175021 0.958780
vt 0.236352 0.790581
vt 0.157873 0.961894
vt 0.160949 0.981451
vt 0.174684 0.985203
vt 0.231784 0.793676
vt 0.199306 0.805052
vt 0.189796 0.770940
vt 0.092079 0.939951
vt 0.074613 0.942958
vt 0.097025 0.927599
vt 0.056574 0.941036
vt 0.097716 0.981015
vt 0.072639 0.991476
vt 0.174200 0.861015
vt 0.190428 0.879999
vt 0.130018 0.921779
vt 0.117697 0.942254
vt 0.117241 0.922610
vt 0.071756 0.873102
vt 0.074837 0.875494
vt 0.075025 0.891323
vt 0.130772 0.947432
vt 0.117771 0.943349
vt 0.130758 0.942776
vt 0.074989 0.896007
vt 0.059774 0.901704
vt 0.060800 0.899726
vt 0.074977 0.892765
vt 0.057493 0.897992
vt 0.116908 0.949196
vt 0.117384 0.947191
vt 0.076871 0.895583
vt 0.092055 0.896684
vt 0.077158 0.898018
vt 0.091486 0.879541
vt 0.093901 0.871720
vt 0.108307 0.870566
vt 0.084668 0.876063
vt 0.090404 0.879189
vt 0.091771 0.890814
vt 0.091825 0.892054
vt 0.091949 0.894587
vt 0.080888 0.913900
vt 0.092235 0.911077
vt 0.091843 0.912810
vt 0.059159 0.903393
vt 0.078934 0.912292
vt 0.063192 0.915588
vt 0.077271 0.899265
vt 0.092298 0.909799
vt 0.079767 0.911059
vt 0.092677 0.913139
vt 0.097092 0.925240
vt 0.095562 0.924987
vt 0.129446 0.963019
vt 0.116654 0.950508
vt 0.131444 0.951251
vt 0.078387 0.926621
vt 0.080126 0.914395
vt 0.079801 0.926074
vt 0.107349 0.895532
vt 0.092917 0.892233
vt 0.109934 0.893696
vt 0.108627 0.897078
vt 0.093708 0.894608
vt 0.089811 0.873053
vt 0.093379 0.910831
vt 0.109537 0.898541
vt 0.108431 0.910516
vt 0.128955 0.964570
vt 0.116826 0.962206
vt 0.094291 0.925024
vt 0.081171 0.915118
vt 0.091815 0.914064
vt 0.083800 0.875043
vt 0.075793 0.872285
vt 0.088102 0.872557
vt 0.090515 0.857857
vt 0.075836 0.871073
vt 0.075970 0.857857
vt 0.116979 0.921656
vt 0.116268 0.922439
vt 0.130171 0.920736
vt 0.131007 0.921496
vt 0.131929 0.941665
vt 0.130881 0.941605
vt 0.092551 0.890843
vt 0.076147 0.892578
vt 0.075871 0.891202
vt 0.116695 0.942384
vt 0.116577 0.944177
vt 0.080124 0.912302
vt 0.132591 0.951119
vt 0.131251 0.949827
vt 0.132511 0.949389
vt 0.092975 0.897831
vt 0.092118 0.897841
vt 0.076382 0.899427
vt 0.115605 0.950254
vt 0.089766 0.871398
vt 0.090698 0.871966
vt 0.074920 0.871698
vt 0.075825 0.874946
vt 0.075812 0.875959
vt 0.117003 0.963779
vt 0.116856 0.965115
vt 0.115859 0.964142
vt 0.130061 0.965126
vt 0.128866 0.965967
vt 0.093099 0.896552
vt 0.132051 0.943434
vt 0.132372 0.947379
vt 0.130649 0.963425
vt 0.115605 0.962424
vt 0.076014 0.898118
vt 0.115857 0.948676
vt 0.115995 0.947115
vt 0.091584 0.857930
vt 0.074955 0.857859
vt 0.056139 0.873710
vt 0.055954 0.896843
vt 0.111401 0.892311
vt -0.000000 0.000000
vt 1.000000 -0.000000
vt 1.000000 1.000000
vt 0.119095 1.000000
vt 0.034882 0.965118
vt -0.187749 0.607948
vt 0.190428 0.916183
vt 0.035174 0.922367
vt 0.133495 0.912644
vt 0.002818 0.898575
vt 0.015423 0.898594
vt 0.175343 0.960377
vt 0.225807 0.762322
vt 0.248470 0.798582
vt 0.211014 0.820741
vt 0.207404 0.812104
vt 0.111032 0.975595
vt 0.102557 0.976115
vt 0.136299 0.871923
vt 0.138540 0.939700
vt 0.182961 0.941798
vt 0.189719 0.807790
vt 0.056956 0.939590
vt 0.071332 0.991156
vt 0.100376 0.991246
vt 0.081018 0.925860
s 1
f 8/1/1 5/2/1 6/3/1
f 12/4/2 13/5/3 11/6/2
f 18/7/4 9/8/5 14/9/4
f 19/10/3 15/11/6 13/5/3
f 22/12/6 16/13/7 15/11/6
f 21/14/7 17/15/8 16/13/7
f 20/16/8 14/9/4 17/15/8
f 124/17/9 129/18/10 54/19/11
f 144/20/12 139/21/13 37/22/14
f 38/23/15 131/24/16 34/25/17
f 39/26/18 86/27/19 76/28/20
f 53/29/21 39/26/18 46/30/22
f 308/31/23 90/32/24 42/33/25
f 40/34/26 80/35/27 87/36/28
f 140/37/29 123/38/30 29/39/31
f 143/40/32 141/41/33 50/42/34
f 40/34/26 49/43/35 43/44/36
f 308/31/23 59/45/37 47/46/38
f 65/47/39 33/48/40 62/49/41
f 299/50/42 119/51/43 74/52/44
f 77/53/45 73/54/46 68/55/47
f 309/56/48 48/57/49 56/58/50
f 81/59/51 309/56/48 89/60/52
f 304/61/53 72/62/54 71/63/55
f 70/64/56 88/65/57 75/66/58
f 152/67/59 102/68/60 96/69/61
f 94/70/62 107/71/63 151/72/64
f 63/73/65 111/74/66 104/75/67
f 109/76/68 62/49/41 103/77/69
f 105/78/70 150/79/71 97/80/72
f 298/81/73 114/82/74 117/83/75
f 95/84/76 92/85/77 153/86/78
f 118/87/79 70/64/56 75/66/58
f 69/88/80 91/89/81 78/90/82
f 72/62/54 83/91/83 71/63/55
f 100/92/84 66/93/85 60/94/86
f 73/54/46 296/95/87 68/55/47
f 66/93/85 147/96/88 60/94/86
f 146/97/89 132/98/90 137/99/91
f 101/100/92 64/101/93 108/102/94
f 134/103/95 67/104/96 63/73/65
f 142/105/97 126/106/98 121/107/99
f 27/108/100 125/109/101 30/110/102
f 242/111/103 154/112/104 157/113/105
f 145/114/106 147/96/88 136/115/107
f 93/116/108 113/117/109 99/118/110
f 174/119/111 176/120/112 181/121/113
f 24/122/114 160/123/115 166/124/116
f 247/125/117 237/126/118 242/111/103
f 161/127/119 310/128/120 171/129/121
f 227/130/122 310/128/120 312/131/123
f 156/132/124 244/133/125 243/134/126
f 223/135/127 179/136/128 175/137/129
f 186/138/130 182/139/131 254/140/132
f 253/141/133 202/142/134 186/143/135
f 184/144/136 194/145/137 255/146/138
f 213/147/139 208/148/140 200/149/141
f 195/150/142 225/151/143 230/152/144
f 201/153/145 252/154/146 25/155/147
f 193/156/148 251/157/149 185/158/150
f 204/159/151 222/160/152 211/161/153
f 190/162/154 232/163/155 226/164/156
f 187/165/157 210/166/158 26/167/159
f 221/168/160 180/169/161 214/170/162
f 209/171/163 217/172/164 203/173/165
f 231/174/166 311/175/167 24/176/168
f 170/177/169 249/178/170 162/179/171
f 159/180/172 228/181/173 23/182/174
f 233/183/175 192/184/176 229/185/177
f 165/186/178 159/187/172 23/188/174
f 240/189/179 169/190/180 164/191/181
f 258/192/182 278/193/183 281/194/184
f 246/195/185 248/196/186 241/197/187
f 173/198/188 212/199/189 178/200/190
f 285/201/191 279/202/192 256/203/193
f 292/204/194 213/205/195 261/206/196
f 262/207/197 275/208/198 294/209/199
f 286/210/200 274/211/201 290/212/202
f 271/213/203 264/214/204 291/215/205
f 266/216/206 293/217/207 260/218/208
f 287/219/209 289/220/210 277/221/211
f 303/222/212 297/223/213 305/224/214
f 288/225/215 281/194/184 278/193/183
f 284/226/216 273/227/217 265/228/218
f 141/41/33 143/40/32 120/229/219
f 183/230/220 199/231/221 189/232/222
f 27/233/100 28/234/223 29/235/31
f 30/236/102 31/237/224 32/238/225
f 33/48/40 34/239/17 35/240/226
f 36/241/227 37/242/14 38/243/15
f 45/244/228 47/46/38 44/245/229
f 49/43/35 51/246/230 48/57/49
f 52/247/231 54/19/11 55/248/232
f 57/249/233 59/45/37 56/250/50
f 77/251/45 79/252/234 76/253/20
f 80/35/27 82/254/235 83/91/83
f 85/255/236 87/36/28 84/256/237
f 88/257/57 90/32/24 91/89/81
f 92/85/77 93/116/108 94/70/62
f 95/258/76 96/69/61 97/259/72
f 99/118/110 101/100/92 98/260/238
f 102/68/60 104/261/67 105/262/70
f 107/263/63 109/76/68 106/264/239
f 111/74/66 113/117/109 110/265/240
f 114/82/74 115/266/241 116/267/242
f 117/268/75 118/269/79 119/51/43
f 120/229/219 122/270/243 123/38/30
f 124/17/9 125/109/101 126/106/98
f 127/271/244 128/272/245 129/18/10
f 130/273/246 131/24/16 132/98/90
f 133/274/247 134/103/95 135/275/248
f 137/99/91 139/276/13 136/115/107
f 148/277/249 149/278/250 150/79/71
f 151/279/64 152/67/59 153/280/78
f 160/123/115 162/179/171 163/281/251
f 168/282/252 170/177/169 171/129/121
f 172/283/253 173/198/188 174/119/111
f 179/136/128 180/169/161 181/121/113
f 182/139/131 183/230/220 184/144/136
f 189/232/222 191/284/254 188/285/255
f 197/286/256 199/231/221 196/287/257
f 203/173/165 205/288/258 202/142/134
f 207/289/259 209/171/163 206/290/260
f 215/291/261 217/172/164 214/170/162
f 218/292/262 220/293/263 221/168/160
f 225/151/143 227/130/122 224/294/264
f 233/183/175 235/295/265 232/163/155
f 238/296/266 239/297/267 240/189/179
f 241/197/187 242/111/103 243/298/126
f 244/133/125 245/299/268 246/195/185
f 247/125/117 248/196/186 249/178/170
f 250/300/269 187/301/270 251/157/149
f 262/207/197 263/302/271 264/214/204
f 267/303/272 269/304/273 270/305/274
f 271/213/203 273/227/217 274/211/201
f 277/221/211 278/193/183 279/306/192
f 282/307/275 283/308/276 284/226/216
f 285/201/191 286/210/200 287/219/209
f 288/225/215 289/220/210 290/212/202
f 291/215/205 292/204/194 293/217/207
f 295/309/277 296/310/87 297/311/213
f 298/312/73 299/50/42 300/313/278
f 301/314/279 302/315/280 303/222/212
f 304/61/53 305/224/214 306/316/281
f 28/234/223 30/236/102 32/238/225
f 32/238/225 45/244/228 44/245/229
f 33/48/40 38/243/15 34/239/17
f 308/31/23 76/253/20 79/252/234
f 40/34/26 53/29/21 52/247/231
f 42/33/25 56/250/50 59/45/37
f 43/44/36 81/59/51 80/35/27
f 308/31/23 46/317/22 39/318/18
f 43/44/36 48/57/49 307/319/282
f 28/234/223 57/249/233 29/235/31
f 46/30/22 54/19/11 53/29/21
f 47/46/38 58/320/283 44/245/229
f 50/42/34 52/247/231 55/248/232
f 51/246/230 56/58/50 48/57/49
f 72/62/54 85/255/236 84/256/237
f 91/89/81 75/321/58 88/257/57
f 78/90/82 68/322/47 69/88/80
f 71/63/55 82/254/235 70/64/56
f 40/34/26 86/27/19 41/323/284
f 42/33/25 89/324/52 309/325/48
f 91/89/81 79/252/234 78/90/82
f 85/255/236 76/28/20 86/27/19
f 89/60/52 82/254/235 81/59/51
f 87/36/28 83/91/83 84/256/237
f 106/264/239 151/279/64 107/263/63
f 148/277/249 110/265/240 113/117/109
f 149/278/250 97/80/72 150/79/71
f 92/85/77 148/277/249 93/116/108
f 93/116/108 98/260/238 94/70/62
f 96/69/61 105/262/70 97/259/72
f 99/118/110 112/326/285 100/92/84
f 110/265/240 104/327/67 111/74/66
f 108/328/94 98/260/238 101/100/92
f 103/77/69 106/264/239 109/76/68
f 118/87/79 114/82/74 116/267/242
f 133/274/247 67/104/96 134/103/95
f 112/326/285 67/104/96 66/93/85
f 65/47/39 108/329/94 64/330/93
f 121/107/99 143/40/32 142/105/97
f 129/18/10 126/106/98 127/271/244
f 125/109/101 121/107/99 126/106/98
f 140/37/29 120/229/219 123/38/30
f 122/270/243 29/39/31 123/38/30
f 31/331/224 125/109/101 124/17/9
f 54/19/11 128/272/245 55/248/232
f 146/97/89 136/115/107 147/96/88
f 130/273/246 135/275/248 134/103/95
f 131/24/16 137/99/91 132/98/90
f 37/332/14 138/333/286 38/23/15
f 35/334/226 131/24/16 130/273/246
f 103/77/69 63/335/65 104/261/67
f 144/20/12 136/115/107 139/21/13
f 50/42/34 140/37/29 51/246/230
f 128/272/245 142/105/97 143/40/32
f 133/274/247 146/97/89 147/96/88
f 36/241/227 64/330/93 37/242/14
f 96/69/61 153/280/78 152/67/59
f 151/72/64 92/85/77 94/70/62
f 312/131/123 224/294/264 227/130/122
f 171/129/121 159/187/172 168/282/252
f 161/127/119 158/336/287 312/131/123
f 171/129/121 162/179/171 161/127/119
f 165/186/178 169/190/180 168/282/252
f 163/281/251 166/124/116 160/123/115
f 214/170/162 179/136/128 215/291/261
f 181/121/113 172/283/253 174/119/111
f 181/121/113 175/137/129 179/136/128
f 178/337/190 174/119/111 173/198/188
f 206/290/260 252/154/146 207/289/259
f 250/300/269 196/287/257 199/231/221
f 187/301/270 185/158/150 251/157/149
f 186/138/130 183/230/220 182/139/131
f 183/230/220 188/285/255 184/144/136
f 232/163/155 197/286/256 233/183/175
f 189/232/222 198/338/288 190/162/154
f 196/287/257 192/184/176 197/286/256
f 195/150/142 188/285/255 191/284/254
f 202/142/134 187/165/157 186/143/135
f 209/171/163 219/339/289 218/292/262
f 207/289/259 200/149/141 208/148/140
f 211/161/153 205/288/258 204/159/151
f 203/173/165 206/290/260 209/171/163
f 203/173/165 216/340/290 204/159/151
f 221/168/160 173/198/188 172/283/253
f 213/147/139 220/293/263 219/339/289
f 215/291/261 222/341/152 216/340/290
f 214/170/162 218/292/262 221/168/160
f 226/164/156 191/284/254 190/162/154
f 310/128/120 234/342/291 159/180/172
f 229/185/177 234/342/291 233/183/175
f 226/164/156 235/295/265 227/130/122
f 224/294/264 230/152/144 225/151/143
f 247/125/117 241/197/187 248/196/186
f 236/343/292 238/296/266 240/189/179
f 243/298/126 157/113/105 156/344/124
f 236/343/292 154/112/104 237/126/118
f 239/297/267 169/190/180 240/189/179
f 244/133/125 241/197/187 243/298/126
f 249/178/170 246/195/185 245/299/268
f 239/297/267 247/125/117 249/178/170
f 163/281/251 245/299/268 244/133/125
f 184/144/136 254/140/132 182/139/131
f 291/215/205 272/345/293 271/213/203
f 261/206/196 293/217/207 292/204/194
f 268/346/294 262/207/197 264/214/204
f 272/345/293 265/347/218 273/227/217
f 274/211/201 268/346/294 271/213/203
f 276/348/295 267/303/272 270/305/274
f 278/193/183 289/220/210 288/225/215
f 280/349/296 282/307/275 284/226/216
f 279/306/192 287/219/209 277/221/211
f 257/350/297 279/306/192 278/193/183
f 280/349/296 258/192/182 281/194/184
f 273/227/217 283/308/276 274/211/201
f 286/210/200 289/220/210 287/219/209
f 286/210/200 270/305/274 269/304/273
f 290/212/202 282/307/275 288/225/215
f 291/215/205 263/302/271 292/204/194
f 262/207/197 213/205/195 263/302/271
f 60/94/86 101/100/92 100/92/84
f 62/49/41 35/240/226 63/335/65
f 144/20/12 60/94/86 145/114/106
f 71/63/55 116/267/242 115/266/241
f 119/51/43 75/321/58 74/52/44
f 304/61/53 303/222/212 305/224/214
f 302/315/280 300/351/278 303/222/212
f 295/309/277 300/313/278 299/50/42
f 296/95/87 305/224/214 297/352/213
f 119/51/43 298/312/73 117/268/75
f 115/266/241 302/315/280 301/314/279
f 69/88/80 296/310/87 295/309/277
f 72/62/54 306/316/281 73/54/46
f 32/238/225 58/320/283 28/234/223
f 318/353/298 336/354/299 314/355/300
f 368/356/301 373/357/302 332/358/303
f 319/359/304 337/360/305 325/361/306
f 320/362/307 348/363/308 393/364/309
f 331/365/310 393/364/309 324/366/311
f 319/359/304 362/367/312 394/368/313
f 390/369/314 352/370/315 359/371/316
f 374/372/317 367/373/318 315/374/319
f 377/375/320 375/376/321 328/377/322
f 390/369/314 327/378/323 392/379/324
f 379/380/325 340/381/326 383/382/327
f 349/383/328 345/384/329 339/385/330
f 356/386/331 341/387/332 343/388/333
f 381/389/334 347/390/335 386/391/336
f 338/392/337 363/393/338 350/394/339
f 339/395/330 378/396/340 388/397/341
f 321/398/342 326/399/343 334/400/344
f 361/401/345 391/402/346 321/398/342
f 375/376/321 377/375/320 364/403/347
f 342/404/348 360/405/349 347/406/335
f 387/407/350 346/408/351 338/392/337
f 385/409/352 380/410/353 382/411/354
f 376/412/355 370/413/356 365/414/357
f 313/415/358 369/416/359 316/417/360
f 313/418/358 314/355/300 315/419/319
f 316/420/360 317/421/361 318/353/298
f 323/422/362 325/361/306 322/423/363
f 327/378/323 329/424/364 326/399/343
f 330/425/365 332/358/303 333/426/366
f 335/427/367 337/360/305 334/428/344
f 340/381/326 341/387/332 342/404/348
f 343/388/333 344/429/368 345/384/329
f 349/430/328 351/431/369 348/432/308
f 352/370/315 354/433/370 355/434/371
f 357/435/372 359/371/316 356/386/331
f 360/436/349 362/367/312 363/393/338
f 364/403/347 366/437/373 367/438/318
f 368/439/301 369/416/359 370/413/356
f 371/440/374 372/441/375 373/357/302
f 378/396/340 379/380/325 380/410/353
f 381/389/334 382/411/354 383/382/327
f 384/442/376 385/443/352 386/444/336
f 387/407/350 388/445/341 389/446/377
f 314/355/300 316/420/360 318/353/298
f 318/353/298 323/422/362 322/423/363
f 319/359/304 348/432/308 351/431/369
f 390/369/314 331/365/310 330/425/365
f 394/368/313 334/428/344 337/360/305
f 392/379/324 353/447/378 352/370/315
f 319/359/304 324/448/311 393/449/309
f 392/379/324 326/399/343 391/402/346
f 314/355/300 335/427/367 315/419/319
f 324/366/311 332/358/303 331/365/310
f 325/361/306 336/354/299 322/423/363
f 328/377/322 330/425/365 333/426/366
f 329/424/364 334/400/344 326/399/343
f 387/407/350 339/450/330 388/445/341
f 340/381/326 381/389/334 383/382/327
f 343/388/333 357/435/372 356/386/331
f 363/393/338 347/451/335 360/436/349
f 341/387/332 344/429/368 343/388/333
f 344/429/368 378/396/340 345/384/329
f 384/442/376 347/451/335 346/408/351
f 383/382/327 380/410/353 379/380/325
f 386/391/336 382/411/354 381/389/334
f 380/410/353 388/397/341 378/396/340
f 389/446/377 384/442/376 387/407/350
f 350/394/339 339/450/330 338/392/337
f 341/387/332 354/433/370 342/404/348
f 390/369/314 358/452/379 320/362/307
f 394/368/313 361/453/345 321/454/342
f 363/393/338 351/431/369 350/394/339
f 357/435/372 348/363/308 358/452/379
f 361/401/345 354/433/370 353/447/378
f 359/371/316 355/434/371 356/386/331
f 365/414/357 377/375/320 376/412/355
f 373/357/302 370/413/356 371/440/374
f 369/416/359 365/414/357 370/413/356
f 374/372/317 364/403/347 367/438/318
f 366/437/373 315/455/319 367/438/318
f 317/456/361 369/416/359 368/439/301
f 332/358/303 372/441/375 333/426/366
f 328/377/322 374/372/317 329/424/364
f 372/441/375 376/412/355 377/375/320
f 409/358/380 398/457/381 442/357/382
f 399/362/383 421/363/384 460/364/385
f 402/366/386 399/362/383 460/364/385
f 457/369/387 423/370/388 430/371/389
f 443/372/390 436/373/391 396/374/392
f 446/375/393 444/376/394 405/377/395
f 457/369/387 404/378/396 459/379/397
f 448/380/398 414/381/399 452/382/400
f 422/383/401 419/384/402 413/385/403
f 427/386/404 415/387/405 417/388/406
f 450/389/407 420/390/408 454/391/409
f 413/395/403 447/396/410 455/397/411
f 458/402/412 411/400/413 400/398/414
f 432/401/415 458/402/412 400/398/414
f 444/376/394 446/375/393 433/403/416
f 416/404/417 431/405/418 420/406/408
f 453/409/419 449/410/420 451/411/421
f 445/412/422 439/413/423 434/414/424
f 395/415/425 438/416/426 397/417/427
f 404/378/396 406/424/428 403/399/429
f 408/365/430 410/426/431 407/425/432
f 414/381/399 415/387/405 416/404/417
f 417/388/406 418/429/433 419/384/402
f 424/447/434 426/434/435 423/370/388
f 427/386/404 429/452/436 430/371/389
f 433/403/416 435/437/437 436/438/391
f 437/439/438 438/416/426 439/413/423
f 440/440/439 441/441/440 442/357/382
f 447/396/410 448/380/398 449/410/420
f 450/389/407 451/411/421 452/382/400
f 407/425/432 399/362/383 408/365/430
f 423/370/388 458/402/412 424/447/434
f 404/378/396 458/402/412 459/379/397
f 408/365/430 401/458/441 409/358/380
f 405/377/395 407/425/432 410/426/431
f 412/459/442 403/399/429 406/424/428
f 414/381/399 450/389/407 452/382/400
f 417/388/406 428/435/443 427/386/404
f 415/387/405 418/429/433 417/388/406
f 418/429/433 447/396/410 419/384/402
f 452/382/400 449/410/420 448/380/398
f 454/391/409 451/411/421 450/389/407
f 449/410/420 455/397/411 447/396/410
f 415/387/405 425/433/444 416/404/417
f 430/371/389 399/362/383 457/369/387
f 428/435/443 421/363/384 429/452/436
f 432/401/415 425/433/444 424/447/434
f 430/371/389 426/434/435 427/386/404
f 434/414/424 446/375/393 445/412/422
f 437/439/438 440/440/439 442/357/382
f 438/416/426 434/414/424 439/413/423
f 443/372/390 433/403/416 436/438/391
f 435/437/437 396/455/392 436/438/391
f 398/456/381 438/416/426 437/439/438
f 409/358/380 441/441/440 410/426/431
f 405/377/395 443/372/390 406/424/428
f 441/441/440 445/412/422 446/375/393
f 250/300/269 186/138/130 187/301/270
f 466/353/445 484/354/446 462/355/447
f 516/356/448 521/357/449 480/358/450
f 467/359/451 485/360/452 473/361/453
f 468/362/454 496/363/455 541/364/456
f 479/365/457 541/364/456 472/366/458
f 467/359/451 510/367/459 542/368/460
f 538/369/461 500/370/462 507/371/463
f 522/372/464 515/373/465 463/374/466
f 525/375/467 523/376/468 476/377/469
f 538/369/461 475/378/470 540/379/471
f 527/380/472 488/381/473 531/382/474
f 497/383/475 493/384/476 487/385/477
f 504/386/478 489/387/479 491/388/480
f 529/389/481 495/390/482 534/391/483
f 486/392/484 511/393/485 498/394/486
f 487/395/477 526/396/487 536/397/488
f 469/398/489 474/399/490 482/400/491
f 509/401/492 539/402/493 469/398/489
f 523/376/468 525/375/467 512/403/494
f 490/404/495 508/405/496 495/406/482
f 535/407/497 494/408/498 486/392/484
f 533/409/499 528/410/500 530/411/501
f 524/412/502 518/413/503 513/414/504
f 461/415/505 517/416/506 464/417/507
f 461/418/505 462/355/447 463/419/466
f 464/420/507 465/421/508 466/353/445
f 471/422/509 473/361/453 470/423/510
f 475/378/470 477/424/511 474/399/490
f 478/425/512 480/358/450 481/426/513
f 483/427/514 485/360/452 482/428/491
f 488/381/473 489/387/479 490/404/495
f 491/388/480 492/429/515 493/384/476
f 497/430/475 499/431/516 496/432/455
f 500/370/462 502/433/517 503/434/518
f 505/435/519 507/371/463 504/386/478
f 508/436/496 510/367/459 511/393/485
f 512/403/494 514/437/520 515/438/465
f 516/439/448 517/416/506 518/413/503
f 519/440/521 520/441/522 521/357/449
f 526/396/487 527/380/472 528/410/500
f 529/389/481 530/411/501 531/382/474
f 532/442/523 533/443/499 534/444/483
f 535/407/497 536/445/488 537/446/524
f 462/355/447 464/420/507 466/353/445
f 466/353/445 471/422/509 470/423/510
f 467/359/451 496/432/455 499/431/516
f 538/369/461 479/365/457 478/425/512
f 542/368/460 482/428/491 485/360/452
f 540/379/471 501/447/525 500/370/462
f 467/359/451 472/448/458 541/449/456
f 540/379/471 474/399/490 539/402/493
f 462/355/447 483/427/514 463/419/466
f 472/366/458 480/358/450 479/365/457
f 473/361/453 484/354/446 470/423/510
f 476/377/469 478/425/512 481/426/513
f 477/424/511 482/400/491 474/399/490
f 535/407/497 487/450/477 536/445/488
f 488/381/473 529/389/481 531/382/474
f 491/388/480 505/435/519 504/386/478
f 511/393/485 495/451/482 508/436/496
f 489/387/479 492/429/515 491/388/480
f 492/429/515 526/396/487 493/384/476
f 532/442/523 495/451/482 494/408/498
f 531/382/474 528/410/500 527/380/472
f 534/391/483 530/411/501 529/389/481
f 528/410/500 536/397/488 526/396/487
f 537/446/524 532/442/523 535/407/497
f 498/394/486 487/450/477 486/392/484
f 489/387/479 502/433/517 490/404/495
f 538/369/461 506/452/526 468/362/454
f 542/368/460 509/453/492 469/454/489
f 511/393/485 499/431/516 498/394/486
f 505/435/519 496/363/455 506/452/526
f 509/401/492 502/433/517 501/447/525
f 507/371/463 503/434/518 504/386/478
f 513/414/504 525/375/467 524/412/502
f 521/357/449 518/413/503 519/440/521
f 517/416/506 513/414/504 518/413/503
f 522/372/464 512/403/494 515/438/465
f 514/437/520 463/455/466 515/438/465
f 465/456/508 517/416/506 516/439/448
f 480/358/450 520/441/522 481/426/513
f 476/377/469 522/372/464 477/424/511
f 520/441/522 524/412/502 525/375/467
f 557/358/527 546/457/528 590/357/529
f 547/362/530 569/363/531 608/364/532
f 550/366/533 547/362/530 608/364/532
f 605/369/534 571/370/535 578/371/536
f 591/372/537 584/373/538 544/374/539
f 594/375/540 592/376/541 553/377/542
f 605/369/534 552/378/543 607/379/544
f 596/380/545 562/381/546 600/382/547
f 570/383/548 567/384/549 561/385/550
f 575/386/551 563/387/552 565/388/553
f 598/389/554 568/390/555 602/391/556
f 561/395/550 595/396/557 603/397/558
f 606/402/559 559/400/560 548/398/561
f 580/401/562 606/402/559 548/398/561
f 592/376/541 594/375/540 581/403/563
f 564/404/564 579/405/565 568/406/555
f 601/409/566 597/410/567 599/411/568
f 593/412/569 587/413/570 582/414/571
f 543/415/572 586/416/573 545/417/574
f 552/378/543 554/424/575 551/399/576
f 556/365/577 558/426/578 555/425/579
f 562/381/546 563/387/552 564/404/564
f 565/388/553 566/429/580 567/384/549
f 572/447/581 574/434/582 571/370/535
f 575/386/551 577/452/583 578/371/536
f 581/403/563 583/437/584 584/438/538
f 585/439/585 586/416/573 587/413/570
f 588/440/586 589/441/587 590/357/529
f 595/396/557 596/380/545 597/410/567
f 598/389/554 599/411/568 600/382/547
f 555/425/579 547/362/530 556/365/577
f 571/370/535 606/402/559 572/447/581
f 552/378/543 606/402/559 607/379/544
f 556/365/577 549/458/588 557/358/527
f 553/377/542 555/425/579 558/426/578
f 560/459/589 551/399/576 554/424/575
f 562/381/546 598/389/554 600/382/547
f 565/388/553 576/435/590 575/386/551
f 563/387/552 566/429/580 565/388/553
f 566/429/580 595/396/557 567/384/549
f 600/382/547 597/410/567 596/380/545
f 602/391/556 599/411/568 598/389/554
f 597/410/567 603/397/558 595/396/557
f 563/387/552 573/433/591 564/404/564
f 578/371/536 547/362/530 605/369/534
f 576/435/590 569/363/531 577/452/583
f 580/401/562 573/433/591 572/447/581
f 578/371/536 574/434/582 575/386/551
f 582/414/571 594/375/540 593/412/569
f 585/439/585 588/440/586 590/357/529
f 586/416/573 582/414/571 587/413/570
f 591/372/537 581/403/563 584/438/538
f 583/437/584 544/455/539 584/438/538
f 546/456/528 586/416/573 585/439/585
f 557/358/527 589/441/587 558/426/578
f 553/377/542 591/372/537 554/424/575
f 589/441/587 593/412/569 594/375/540
f 2/460/1 3/461/1 5/2/1
f 3/461/1 1/462/1 4/463/1
f 5/2/1 4/463/1 6/3/1
f 3/461/1 4/463/1 5/2/1
f 6/3/1 7/464/1 8/1/1
f 12/4/2 19/10/3 13/5/3
f 18/7/4 10/465/5 9/8/5
f 19/10/3 22/12/6 15/11/6
f 22/12/6 21/14/7 16/13/7
f 21/14/7 20/16/8 17/15/8
f 20/16/8 18/7/4 14/9/4
f 45/466/228 31/331/224 54/19/11
f 31/331/224 124/17/9 54/19/11
f 37/22/14 64/101/93 144/20/12
f 64/101/93 61/467/592 144/20/12
f 38/23/15 138/333/286 131/24/16
f 39/26/18 41/323/284 86/27/19
f 53/29/21 41/323/284 39/26/18
f 308/31/23 79/252/234 90/32/24
f 40/34/26 43/44/36 80/35/27
f 29/39/31 57/468/233 140/37/29
f 57/468/233 51/246/230 140/37/29
f 50/42/34 55/248/232 143/40/32
f 55/248/232 128/272/245 143/40/32
f 40/34/26 52/247/231 49/43/35
f 308/31/23 42/33/25 59/45/37
f 65/47/39 36/241/227 33/48/40
f 74/52/44 69/88/80 295/309/277
f 295/309/277 299/50/42 74/52/44
f 77/53/45 85/255/236 73/54/46
f 309/56/48 307/319/282 48/57/49
f 81/59/51 307/319/282 309/56/48
f 115/266/241 301/314/279 71/63/55
f 301/314/279 304/61/53 71/63/55
f 70/64/56 82/254/235 88/65/57
f 152/67/59 106/264/239 102/68/60
f 94/70/62 98/260/238 107/71/63
f 63/73/65 67/104/96 111/74/66
f 109/76/68 65/47/39 62/49/41
f 105/78/70 110/265/240 150/79/71
f 298/81/73 302/315/280 114/82/74
f 95/84/76 149/278/250 92/85/77
f 118/87/79 116/267/242 70/64/56
f 69/88/80 74/52/44 91/89/81
f 72/62/54 84/256/237 83/91/83
f 100/92/84 112/326/285 66/93/85
f 73/54/46 306/316/281 296/95/87
f 133/274/247 147/96/88 66/93/85
f 147/96/88 145/114/106 60/94/86
f 146/97/89 135/275/248 132/98/90
f 101/100/92 61/467/592 64/101/93
f 63/73/65 35/469/226 134/103/95
f 35/469/226 130/470/246 134/103/95
f 142/105/97 127/271/244 126/106/98
f 27/108/100 122/270/243 125/109/101
f 242/111/103 237/126/118 154/112/104
f 93/116/108 148/277/249 113/117/109
f 174/119/111 177/471/593 176/120/112
f 24/122/114 158/336/287 160/123/115
f 247/125/117 238/296/266 237/126/118
f 161/127/119 312/131/123 310/128/120
f 227/130/122 235/295/265 310/128/120
f 156/132/124 167/472/594 244/133/125
f 167/472/594 163/281/251 244/133/125
f 223/135/127 215/291/261 179/136/128
f 254/140/132 26/473/595 186/138/130
f 26/473/595 187/301/596 186/138/130
f 253/141/133 206/290/260 202/142/134
f 184/144/136 188/285/255 194/145/137
f 213/147/139 219/339/289 208/148/140
f 195/150/142 191/284/254 225/151/143
f 201/153/145 207/289/259 252/154/146
f 193/156/148 196/287/257 251/157/149
f 204/159/151 216/340/290 222/160/152
f 190/162/154 198/338/288 232/163/155
f 187/165/157 205/288/258 210/166/158
f 221/168/160 172/283/253 180/169/161
f 209/171/163 218/292/262 217/172/164
f 231/174/166 224/294/264 311/175/167
f 239/297/267 249/178/170 170/177/169
f 249/178/170 245/299/268 162/179/171
f 159/180/172 234/342/291 228/181/173
f 233/183/175 197/286/256 192/184/176
f 165/186/178 168/282/252 159/187/172
f 164/191/181 155/474/597 240/189/179
f 155/474/597 236/475/292 240/189/179
f 258/192/182 257/350/297 278/193/183
f 173/198/188 220/293/263 212/199/189
f 256/203/193 276/348/295 285/201/191
f 276/348/295 270/305/274 285/201/191
f 292/204/194 263/302/271 213/205/195
f 262/207/197 267/303/272 275/208/198
f 269/304/273 274/211/201 286/210/200
f 274/211/201 283/308/276 290/212/202
f 271/213/203 268/346/294 264/214/204
f 266/216/206 272/345/293 293/217/207
f 303/222/212 300/351/278 297/223/213
f 288/225/215 282/307/275 281/194/184
f 265/228/218 259/476/598 284/226/216
f 259/476/598 280/477/296 284/226/216
f 183/230/220 250/300/269 199/231/221
f 45/244/228 46/317/22 47/46/38
f 49/43/35 50/42/34 51/246/230
f 52/247/231 53/29/21 54/19/11
f 57/249/233 58/320/283 59/45/37
f 77/251/45 78/90/82 79/252/234
f 80/35/27 81/59/51 82/254/235
f 85/255/236 86/27/19 87/36/28
f 88/257/57 89/324/52 90/32/24
f 99/118/110 100/92/84 101/100/92
f 102/68/60 103/77/69 104/261/67
f 107/263/63 108/329/94 109/76/68
f 111/74/66 112/326/285 113/117/109
f 120/229/219 121/107/99 122/270/243
f 137/99/91 138/333/286 139/276/13
f 160/123/115 161/127/119 162/179/171
f 168/282/252 169/190/180 170/177/169
f 189/232/222 190/162/154 191/284/254
f 197/286/256 198/338/288 199/231/221
f 203/173/165 204/159/151 205/288/258
f 207/289/259 208/148/140 209/171/163
f 215/291/261 216/340/290 217/172/164
f 218/292/262 219/339/289 220/293/263
f 225/151/143 226/164/156 227/130/122
f 233/183/175 234/342/291 235/295/265
f 267/303/272 268/346/294 269/304/273
f 271/213/203 272/345/293 273/227/217
f 28/234/223 27/233/100 30/236/102
f 32/238/225 31/237/224 45/244/228
f 33/48/40 36/241/227 38/243/15
f 308/31/23 39/318/18 76/253/20
f 40/34/26 41/323/284 53/29/21
f 42/33/25 309/325/48 56/250/50
f 43/44/36 307/319/282 81/59/51
f 308/31/23 47/46/38 46/317/22
f 43/44/36 49/43/35 48/57/49
f 28/234/223 58/320/283 57/249/233
f 46/30/22 45/466/228 54/19/11
f 47/46/38 59/45/37 58/320/283
f 50/42/34 49/43/35 52/247/231
f 51/246/230 57/468/233 56/58/50
f 72/62/54 73/54/46 85/255/236
f 91/89/81 74/52/44 75/321/58
f 78/90/82 77/251/45 68/322/47
f 71/63/55 83/91/83 82/254/235
f 40/34/26 87/36/28 86/27/19
f 42/33/25 90/32/24 89/324/52
f 91/89/81 90/32/24 79/252/234
f 85/255/236 77/53/45 76/28/20
f 89/60/52 88/65/57 82/254/235
f 87/36/28 80/35/27 83/91/83
f 106/264/239 152/67/59 151/279/64
f 148/277/249 150/79/71 110/265/240
f 149/278/250 95/84/76 97/80/72
f 92/85/77 149/278/250 148/277/249
f 93/116/108 99/118/110 98/260/238
f 96/69/61 102/68/60 105/262/70
f 99/118/110 113/117/109 112/326/285
f 110/265/240 105/78/70 104/327/67
f 108/328/94 107/71/63 98/260/238
f 103/77/69 102/68/60 106/264/239
f 118/87/79 117/478/75 114/82/74
f 133/274/247 66/93/85 67/104/96
f 112/326/285 111/74/66 67/104/96
f 65/47/39 109/76/68 108/329/94
f 121/107/99 120/229/219 143/40/32
f 129/18/10 124/17/9 126/106/98
f 125/109/101 122/270/243 121/107/99
f 140/37/29 141/41/33 120/229/219
f 122/270/243 27/479/100 29/39/31
f 31/331/224 30/480/102 125/109/101
f 54/19/11 129/18/10 128/272/245
f 146/97/89 137/99/91 136/115/107
f 130/273/246 132/98/90 135/275/248
f 131/24/16 138/333/286 137/99/91
f 37/332/14 139/276/13 138/333/286
f 35/334/226 34/25/17 131/24/16
f 103/77/69 62/49/41 63/335/65
f 144/20/12 145/114/106 136/115/107
f 50/42/34 141/41/33 140/37/29
f 128/272/245 127/271/244 142/105/97
f 133/274/247 135/275/248 146/97/89
f 36/241/227 65/47/39 64/330/93
f 96/69/61 95/258/76 153/280/78
f 151/72/64 153/86/78 92/85/77
f 312/131/123 311/175/167 224/294/264
f 171/129/121 310/128/120 159/187/172
f 161/127/119 160/123/115 158/336/287
f 171/129/121 170/177/169 162/179/171
f 165/186/178 164/191/181 169/190/180
f 163/281/251 167/472/594 166/124/116
f 214/170/162 180/169/161 179/136/128
f 181/121/113 180/169/161 172/283/253
f 181/121/113 176/120/112 175/137/129
f 178/337/190 177/471/593 174/119/111
f 206/290/260 253/141/133 252/154/146
f 250/300/269 251/157/149 196/287/257
f 187/301/270 26/473/599 185/158/150
f 186/138/130 250/300/269 183/230/220
f 183/230/220 189/232/222 188/285/255
f 232/163/155 198/338/288 197/286/256
f 189/232/222 199/231/221 198/338/288
f 196/287/257 193/156/148 192/184/176
f 195/150/142 194/145/137 188/285/255
f 202/142/134 205/288/258 187/165/157
f 209/171/163 208/148/140 219/339/289
f 207/289/259 201/153/145 200/149/141
f 211/161/153 210/166/158 205/288/258
f 203/173/165 202/142/134 206/290/260
f 203/173/165 217/172/164 216/340/290
f 221/168/160 220/293/263 173/198/188
f 213/147/139 212/199/189 220/293/263
f 215/291/261 223/135/127 222/341/152
f 214/170/162 217/172/164 218/292/262
f 226/164/156 225/151/143 191/284/254
f 310/128/120 235/295/265 234/342/291
f 229/185/177 228/181/173 234/342/291
f 226/164/156 232/163/155 235/295/265
f 224/294/264 231/174/166 230/152/144
f 247/125/117 242/111/103 241/197/187
f 236/343/292 237/126/118 238/296/266
f 243/298/126 242/111/103 157/113/105
f 236/343/292 155/481/597 154/112/104
f 239/297/267 170/177/169 169/190/180
f 244/133/125 246/195/185 241/197/187
f 249/178/170 248/196/186 246/195/185
f 239/297/267 238/296/266 247/125/117
f 163/281/251 162/179/171 245/299/268
f 184/144/136 255/146/138 254/140/132
f 291/215/205 293/217/207 272/345/293
f 261/206/196 260/218/208 293/217/207
f 268/346/294 267/303/272 262/207/197
f 272/345/293 266/216/206 265/347/218
f 274/211/201 269/304/273 268/346/294
f 276/348/295 275/482/198 267/303/272
f 278/193/183 277/221/211 289/220/210
f 280/349/296 281/194/184 282/307/275
f 279/306/192 285/201/191 287/219/209
f 257/350/297 256/483/193 279/306/192
f 280/349/296 259/484/598 258/192/182
f 273/227/217 284/226/216 283/308/276
f 286/210/200 290/212/202 289/220/210
f 286/210/200 285/201/191 270/305/274
f 290/212/202 283/308/276 282/307/275
f 291/215/205 264/214/204 263/302/271
f 262/207/197 294/209/199 213/205/195
f 60/94/86 61/467/592 101/100/92
f 62/49/41 33/48/40 35/240/226
f 144/20/12 61/467/592 60/94/86
f 71/63/55 70/64/56 116/267/242
f 119/51/43 118/269/79 75/321/58
f 304/61/53 301/314/279 303/222/212
f 302/315/280 298/81/73 300/351/278
f 295/309/277 297/311/213 300/313/278
f 296/95/87 306/316/281 305/224/214
f 119/51/43 299/50/42 298/312/73
f 115/266/241 114/82/74 302/315/280
f 69/88/80 68/322/47 296/310/87
f 72/62/54 304/61/53 306/316/281
f 32/238/225 44/245/229 58/320/283
f 318/353/298 322/423/363 336/354/299
f 323/458/362 317/457/361 332/358/303
f 317/457/361 368/356/301 332/358/303
f 319/359/304 394/368/313 337/360/305
f 320/362/307 358/452/379 348/363/308
f 331/365/310 320/362/307 393/364/309
f 319/359/304 351/431/369 362/367/312
f 390/369/314 392/379/324 352/370/315
f 315/374/319 335/459/367 374/372/317
f 335/459/367 329/424/364 374/372/317
f 328/377/322 333/426/366 377/375/320
f 333/426/366 372/441/375 377/375/320
f 390/369/314 330/425/365 327/378/323
f 379/380/325 344/429/368 340/381/326
f 349/383/328 357/435/372 345/384/329
f 356/386/331 355/434/371 341/387/332
f 381/389/334 342/404/348 347/390/335
f 338/392/337 346/408/351 363/393/338
f 339/395/330 345/384/329 378/396/340
f 321/398/342 391/402/346 326/399/343
f 361/401/345 353/447/378 391/402/346
f 342/404/348 354/433/370 360/405/349
f 387/407/350 384/442/376 346/408/351
f 385/409/352 389/485/377 380/410/353
f 376/412/355 371/440/374 370/413/356
f 313/415/358 366/437/373 369/416/359
f 323/422/362 324/448/311 325/361/306
f 327/378/323 328/377/322 329/424/364
f 330/425/365 331/365/310 332/358/303
f 335/427/367 336/354/299 337/360/305
f 349/430/328 350/394/339 351/431/369
f 352/370/315 353/447/378 354/433/370
f 357/435/372 358/452/379 359/371/316
f 360/436/349 361/453/345 362/367/312
f 364/403/347 365/414/357 366/437/373
f 314/355/300 313/418/358 316/420/360
f 318/353/298 317/421/361 323/422/362
f 319/359/304 393/449/309 348/432/308
f 390/369/314 320/362/307 331/365/310
f 394/368/313 321/454/342 334/428/344
f 392/379/324 391/402/346 353/447/378
f 319/359/304 325/361/306 324/448/311
f 392/379/324 327/378/323 326/399/343
f 314/355/300 336/354/299 335/427/367
f 324/366/311 323/458/362 332/358/303
f 325/361/306 337/360/305 336/354/299
f 328/377/322 327/378/323 330/425/365
f 329/424/364 335/459/367 334/400/344
f 387/407/350 338/392/337 339/450/330
f 340/381/326 342/404/348 381/389/334
f 343/388/333 345/384/329 357/435/372
f 363/393/338 346/408/351 347/451/335
f 341/387/332 340/381/326 344/429/368
f 344/429/368 379/380/325 378/396/340
f 384/442/376 386/444/336 347/451/335
f 383/382/327 382/411/354 380/410/353
f 386/391/336 385/409/352 382/411/354
f 380/410/353 389/485/377 388/397/341
f 389/446/377 385/443/352 384/442/376
f 350/394/339 349/430/328 339/450/330
f 341/387/332 355/434/371 354/433/370
f 390/369/314 359/371/316 358/452/379
f 394/368/313 362/367/312 361/453/345
f 363/393/338 362/367/312 351/431/369
f 357/435/372 349/383/328 348/363/308
f 361/401/345 360/405/349 354/433/370
f 359/371/316 352/370/315 355/434/371
f 365/414/357 364/403/347 377/375/320
f 373/357/302 368/439/301 370/413/356
f 369/416/359 366/437/373 365/414/357
f 374/372/317 375/376/321 364/403/347
f 366/437/373 313/415/358 315/455/319
f 317/456/361 316/417/360 369/416/359
f 332/358/303 373/357/302 372/441/375
f 328/377/322 375/376/321 374/372/317
f 372/441/375 371/440/374 376/412/355
f 401/458/441 398/457/381 409/358/380
f 398/457/381 437/356/438 442/357/382
f 399/362/383 429/452/436 421/363/384
f 402/366/386 408/365/430 399/362/383
f 457/369/387 459/379/397 423/370/388
f 396/374/392 412/459/442 443/372/390
f 412/459/442 406/424/428 443/372/390
f 405/377/395 410/426/431 446/375/393
f 410/426/431 441/441/440 446/375/393
f 457/369/387 407/425/432 404/378/396
f 448/380/398 418/429/433 414/381/399
f 422/383/401 428/435/443 419/384/402
f 427/386/404 426/434/435 415/387/405
f 450/389/407 416/404/417 420/390/408
f 413/395/403 419/384/402 447/396/410
f 458/402/412 403/399/429 411/400/413
f 432/401/415 424/447/434 458/402/412
f 416/404/417 425/433/444 431/405/418
f 453/409/419 456/485/600 449/410/420
f 445/412/422 440/440/439 439/413/423
f 395/415/425 435/437/437 438/416/426
f 404/378/396 405/377/395 406/424/428
f 408/365/430 409/358/380 410/426/431
f 424/447/434 425/433/444 426/434/435
f 427/386/404 428/435/443 429/452/436
f 433/403/416 434/414/424 435/437/437
f 407/425/432 457/369/387 399/362/383
f 423/370/388 459/379/397 458/402/412
f 404/378/396 403/399/429 458/402/412
f 408/365/430 402/366/386 401/458/441
f 405/377/395 404/378/396 407/425/432
f 412/459/442 411/400/413 403/399/429
f 414/381/399 416/404/417 450/389/407
f 417/388/406 419/384/402 428/435/443
f 415/387/405 414/381/399 418/429/433
f 418/429/433 448/380/398 447/396/410
f 452/382/400 451/411/421 449/410/420
f 454/391/409 453/409/419 451/411/421
f 449/410/420 456/485/600 455/397/411
f 415/387/405 426/434/435 425/433/444
f 430/371/389 429/452/436 399/362/383
f 428/435/443 422/383/401 421/363/384
f 432/401/415 431/405/418 425/433/444
f 430/371/389 423/370/388 426/434/435
f 434/414/424 433/403/416 446/375/393
f 437/439/438 439/413/423 440/440/439
f 438/416/426 435/437/437 434/414/424
f 443/372/390 444/376/394 433/403/416
f 435/437/437 395/415/425 396/455/392
f 398/456/381 397/417/427 438/416/426
f 409/358/380 442/357/382 441/441/440
f 405/377/395 444/376/394 443/372/390
f 441/441/440 440/440/439 445/412/422
f 466/353/445 470/423/510 484/354/446
f 471/458/509 465/457/508 480/358/450
f 465/457/508 516/356/448 480/358/450
f 467/359/451 542/368/460 485/360/452
f 468/362/454 506/452/526 496/363/455
f 479/365/457 468/362/454 541/364/456
f 467/359/451 499/431/516 510/367/459
f 538/369/461 540/379/471 500/370/462
f 463/374/466 483/459/514 522/372/464
f 483/459/514 477/424/511 522/372/464
f 476/377/469 481/426/513 525/375/467
f 481/426/513 520/441/522 525/375/467
f 538/369/461 478/425/512 475/378/470
f 527/380/472 492/429/515 488/381/473
f 497/383/475 505/435/519 493/384/476
f 504/386/478 503/434/518 489/387/479
f 529/389/481 490/404/495 495/390/482
f 486/392/484 494/408/498 511/393/485
f 487/395/477 493/384/476 526/396/487
f 469/398/489 539/402/493 474/399/490
f 509/401/492 501/447/525 539/402/493
f 490/404/495 502/433/517 508/405/496
f 535/407/497 532/442/523 494/408/498
f 533/409/499 537/485/524 528/410/500
f 524/412/502 519/440/521 518/413/503
f 461/415/505 514/437/520 517/416/506
f 471/422/509 472/448/458 473/361/453
f 475/378/470 476/377/469 477/424/511
f 478/425/512 479/365/457 480/358/450
f 483/427/514 484/354/446 485/360/452
f 497/430/475 498/394/486 499/431/516
f 500/370/462 501/447/525 502/433/517
f 505/435/519 506/452/526 507/371/463
f 508/436/496 509/453/492 510/367/459
f 512/403/494 513/414/504 514/437/520
f 462/355/447 461/418/505 464/420/507
f 466/353/445 465/421/508 471/422/509
f 467/359/451 541/449/456 496/432/455
f 538/369/461 468/362/454 479/365/457
f 542/368/460 469/454/489 482/428/491
f 540/379/471 539/402/493 501/447/525
f 467/359/451 473/361/453 472/448/458
f 540/379/471 475/378/470 474/399/490
f 462/355/447 484/354/446 483/427/514
f 472/366/458 471/458/509 480/358/450
f 473/361/453 485/360/452 484/354/446
f 476/377/469 475/378/470 478/425/512
f 477/424/511 483/459/514 482/400/491
f 535/407/497 486/392/484 487/450/477
f 488/381/473 490/404/495 529/389/481
f 491/388/480 493/384/476 505/435/519
f 511/393/485 494/408/498 495/451/482
f 489/387/479 488/381/473 492/429/515
f 492/429/515 527/380/472 526/396/487
f 532/442/523 534/444/483 495/451/482
f 531/382/474 530/411/501 528/410/500
f 534/391/483 533/409/499 530/411/501
f 528/410/500 537/485/524 536/397/488
f 537/446/524 533/443/499 532/442/523
f 498/394/486 497/430/475 487/450/477
f 489/387/479 503/434/518 502/433/517
f 538/369/461 507/371/463 506/452/526
f 542/368/460 510/367/459 509/453/492
f 511/393/485 510/367/459 499/431/516
f 505/435/519 497/383/475 496/363/455
f 509/401/492 508/405/496 502/433/517
f 507/371/463 500/370/462 503/434/518
f 513/414/504 512/403/494 525/375/467
f 521/357/449 516/439/448 518/413/503
f 517/416/506 514/437/520 513/414/504
f 522/372/464 523/376/468 512/403/494
f 514/437/520 461/415/505 463/455/466
f 465/456/508 464/417/507 517/416/506
f 480/358/450 521/357/449 520/441/522
f 476/377/469 523/376/468 522/372/464
f 520/441/522 519/440/521 524/412/502
f 549/458/588 546/457/528 557/358/527
f 546/457/528 585/356/585 590/357/529
f 547/362/530 577/452/583 569/363/531
f 550/366/533 556/365/577 547/362/530
f 605/369/534 607/379/544 571/370/535
f 544/374/539 560/459/589 591/372/537
f 560/459/589 554/424/575 591/372/537
f 553/377/542 558/426/578 594/375/540
f 558/426/578 589/441/587 594/375/540
f 605/369/534 555/425/579 552/378/543
f 596/380/545 566/429/580 562/381/546
f 570/383/548 576/435/590 567/384/549
f 575/386/551 574/434/582 563/387/552
f 598/389/554 564/404/564 568/390/555
f 561/395/550 567/384/549 595/396/557
f 606/402/559 551/399/576 559/400/560
f 580/401/562 572/447/581 606/402/559
f 564/404/564 573/433/591 579/405/565
f 601/409/566 604/485/601 597/410/567
f 593/412/569 588/440/586 587/413/570
f 543/415/572 583/437/584 586/416/573
f 552/378/543 553/377/542 554/424/575
f 556/365/577 557/358/527 558/426/578
f 572/447/581 573/433/591 574/434/582
f 575/386/551 576/435/590 577/452/583
f 581/403/563 582/414/571 583/437/584
f 555/425/579 605/369/534 547/362/530
f 571/370/535 607/379/544 606/402/559
f 552/378/543 551/399/576 606/402/559
f 556/365/577 550/366/533 549/458/588
f 553/377/542 552/378/543 555/425/579
f 560/459/589 559/400/560 551/399/576
f 562/381/546 564/404/564 598/389/554
f 565/388/553 567/384/549 576/435/590
f 563/387/552 562/381/546 566/429/580
f 566/429/580 596/380/545 595/396/557
f 600/382/547 599/411/568 597/410/567
f 602/391/556 601/409/566 599/411/568
f 597/410/567 604/485/601 603/397/558
f 563/387/552 574/434/582 573/433/591
f 578/371/536 577/452/583 547/362/530
f 576/435/590 570/383/548 569/363/531
f 580/401/562 579/405/565 573/433/591
f 578/371/536 571/370/535 574/434/582
f 582/414/571 581/403/563 594/375/540
f 585/439/585 587/413/570 588/440/586
f 586/416/573 583/437/584 582/414/571
f 591/372/537 592/376/541 581/403/563
f 583/437/584 543/415/572 544/455/539
f 546/456/528 545/417/574 586/416/573
f 557/358/527 590/357/529 589/441/587
f 553/377/542 592/376/541 591/372/537
f 589/441/587 588/440/586 593/412/569
