# Blender 5.0.1
# www.blender.org
o floor_border_middle_A
v -1.000000 0.000000 1.000000
v -1.000000 -0.000000 -1.000000
v 1.000000 0.000000 1.000000
v 1.000000 -0.000000 -1.000000
v -1.000000 -1.000000 1.000000
v -1.000000 0.000000 1.000000
v 1.000000 -1.000000 1.000000
v 1.000000 0.000000 1.000000
v 0.460393 -1.013790 1.124554
v 0.460393 -1.013790 0.598297
v -0.596944 -1.013790 1.124553
v 0.193623 -1.013790 1.143506
v 0.193623 -1.013790 0.584416
v 0.152329 -1.013790 1.118147
v -0.277843 -1.013790 0.564701
v -0.277843 -1.013790 1.161530
v 0.110432 -1.013790 0.554194
v 0.152329 -1.013790 0.604703
v -0.544193 -1.013790 0.598297
v 1.012262 -1.013790 0.471629
v 1.027267 -1.013790 0.496122
v 1.027267 -1.013790 1.231243
v 1.012262 -1.013790 1.251915
v -0.993183 -1.013790 0.467893
v -0.978187 -1.013790 0.447771
v -0.978188 -1.013790 1.275706
v -0.993183 -1.013790 1.255477
v 0.438414 -0.838707 1.073010
v 0.440124 -0.852329 1.101279
v 0.438414 -0.838707 0.650648
v 0.514127 -1.013790 1.258447
v 0.493620 -1.013790 1.239613
v 0.480120 -0.795083 0.517683
v 0.479005 -0.782055 0.547669
v 0.500880 -0.773268 0.523663
v 0.501584 -0.784198 0.501578
v 0.479005 -0.782055 1.175885
v 0.480142 -0.795034 1.205982
v 0.501556 -0.783702 1.222048
v 0.500916 -0.772821 1.199977
v 0.493595 -1.013790 0.483918
v 0.514127 -1.013790 0.465097
v -0.560613 -0.824576 1.057117
v -0.567168 -0.835786 1.100810
v -0.516206 -0.846474 0.620816
v -0.607999 -0.808272 1.211308
v -0.596832 -0.801221 1.153244
v -0.625535 -0.793338 1.206408
v -0.629591 -0.804259 1.228686
v -0.622510 -1.013790 0.457610
v -0.599403 -1.013790 0.475627
v -0.652183 -1.013790 1.247894
v -0.675260 -1.013790 1.266000
v -0.555225 -0.808290 0.512366
v -0.576815 -0.804134 0.494818
v -0.575706 -0.793233 0.517071
v -0.551622 -0.799665 0.556414
v 0.203794 -0.791955 0.634360
v 0.231286 -0.787892 0.628685
v 0.215290 -0.798005 0.609824
v 0.231286 -0.787891 1.098978
v 0.203794 -0.791955 1.092554
v 0.215292 -0.797988 1.117850
v 0.127712 -0.826811 1.068665
v 0.129136 -0.837628 0.628115
v 0.127712 -0.826811 0.649083
v 0.432779 -1.013790 1.172116
v 0.408610 -1.013790 1.185221
v 0.416382 -0.817399 0.611734
v 0.417569 -0.831239 0.584352
v 0.393304 -0.818991 0.572255
v 0.392570 -0.806939 0.594631
v 0.392570 -0.806939 1.133031
v 0.393302 -0.818974 1.155420
v 0.417065 -0.830468 1.142825
v 0.416382 -0.817398 1.113777
v 0.408610 -1.013790 0.542701
v 0.433251 -1.013790 0.555278
v -0.231247 -0.794367 1.112338
v -0.233535 -0.805140 1.134143
v -0.233567 -0.805293 0.591976
v -0.231247 -0.794367 0.614299
v 0.121158 -1.013790 1.159500
v 0.095380 -1.013790 1.173256
v -0.039915 -0.815652 0.582273
v -0.043708 -0.804102 0.604603
v 0.080874 -0.804102 1.123188
v 0.071985 -0.814522 1.144783
v 0.098580 -0.822695 1.131986
v -0.531309 -0.796335 1.135586
v -0.502289 -0.771036 1.145811
v -0.498887 -0.760159 1.124055
v -0.520826 -0.767665 1.117823
v -0.507071 -1.013790 0.564067
v -0.479606 -1.013790 0.553458
v -0.532354 -1.013790 1.174534
v -0.559384 -1.013790 1.163032
v -0.472305 -0.768020 0.610001
v -0.450237 -0.760554 0.603959
v -0.449615 -0.771632 0.581888
v -0.479193 -0.797749 0.591273
v 1.002135 -0.872819 0.528093
v 1.021873 -0.883810 0.533923
v 1.007212 -0.890691 0.505755
v 1.007628 -0.886431 1.220901
v 1.021873 -0.883810 1.193757
v 0.952914 -0.795055 1.195071
v 0.930554 -0.785138 1.195481
v 0.936591 -0.796213 1.215696
v -0.979003 -0.902682 0.479910
v -0.993183 -0.900690 0.507896
v -0.931055 -0.808997 0.510745
v -0.909970 -0.799719 0.511122
v -0.915507 -0.810723 0.490460
v -0.978352 -0.904688 1.240836
v -0.990104 -0.896144 1.215514
v 0.730593 -0.797661 0.505128
v 0.727829 -0.785695 0.524991
v 0.764285 -0.792667 0.524177
v 0.952914 -0.795055 0.819180
v 0.938965 -0.791514 0.788977
v 0.930544 -0.785667 0.832487
v -0.855747 -0.810236 1.228754
v -0.853976 -0.799134 1.207529
v -0.882194 -0.808562 1.210175
v -0.909966 -0.799891 1.080128
v -0.931034 -0.808965 1.099134
v -0.998514 -0.320885 1.072145
v -0.983283 -0.336565 1.070819
v -0.983502 -0.321582 1.092697
v -0.998514 -0.320885 0.678074
v -0.983502 -0.321582 0.657523
v -0.983283 -0.336565 0.679394
v -0.476218 -0.275711 0.729656
v -0.517279 -0.005091 0.687063
v -0.479282 -0.255518 1.063263
v -0.529926 -0.357213 0.675022
v -0.532083 -0.342127 0.653461
v -0.508937 -0.316585 0.664873
v -0.508548 -0.344326 0.685424
v -0.551401 0.022234 1.114273
v -0.556196 0.044201 1.094909
v -0.582692 0.053889 1.108801
v -0.580901 0.038910 1.127635
v -0.556196 0.044201 0.662565
v -0.553639 0.025185 0.638668
v -0.580908 0.038967 0.622803
v -0.582692 0.053955 0.641949
v -0.507906 -0.311769 1.088740
v -0.532083 -0.342127 1.096758
v -0.529926 -0.357213 1.075191
v -0.508548 -0.344326 1.068970
v -0.191005 -0.290257 0.715518
v -0.190589 -0.274635 0.693638
v -0.173017 0.028209 1.070254
v -0.197187 0.040934 1.075538
v -0.182677 0.022616 1.093082
v -0.197187 0.040934 0.690051
v -0.173017 0.028209 0.696348
v -0.182677 0.022640 0.672517
v -0.191005 -0.290257 1.050428
v -0.190589 -0.274609 1.072168
v -0.453936 -0.281265 0.677168
v -0.426490 -0.296303 0.665399
v -0.424382 -0.311684 0.687289
v -0.449862 -0.302385 0.700688
v -0.497788 0.045736 1.091931
v -0.496279 0.024530 1.112699
v -0.471572 0.039581 1.125111
v -0.474165 0.057116 1.105994
v -0.474165 0.057116 0.659595
v -0.471575 0.039603 0.640487
v -0.495952 0.025323 0.653526
v -0.497788 0.045736 0.675298
v -0.426494 -0.296278 1.100408
v -0.454476 -0.280387 1.089249
v -0.449862 -0.302385 1.066589
v -0.424382 -0.311684 1.078652
v -0.980406 -0.001021 1.104401
v -0.994150 -0.003534 1.050514
v -1.003310 -0.030215 1.101741
v -0.988394 -0.025094 1.122389
v -0.988513 -0.020319 0.628734
v -1.003310 -0.030215 0.648606
v -0.994150 -0.003534 0.646833
v -0.954951 0.045144 0.646013
v -0.933805 0.056734 0.645691
v -0.938409 0.041770 0.625511
v -0.833029 0.039783 1.126980
v -0.846384 0.054979 1.107558
v -0.954951 0.045144 0.909891
v -0.933938 0.056610 0.938024
v -0.155449 -0.012725 0.685435
v -0.150116 -0.001300 0.706989
v -0.141428 -0.028141 0.712090
v -0.155645 -0.012490 1.082754
v -0.141428 -0.028141 1.057324
v -0.150116 -0.001300 1.061742
v -0.163484 -0.278380 1.041319
v -0.149203 -0.257445 1.038268
v -0.163862 -0.263079 1.063571
v -0.163484 -0.278380 0.726908
v -0.163612 -0.263001 0.704561
v -0.149203 -0.257445 0.730971
v -0.520178 0.014012 0.711219
v -0.517239 -0.005358 1.082330
v -0.520178 0.014012 1.060011
v -0.479223 -0.255909 0.706009
v -0.476218 -0.275711 1.040614
v 0.129130 -0.837585 1.094945
v -0.514418 -0.835787 0.622255
v -0.515948 -0.824576 0.654463
v -0.568833 -0.845739 1.102138
v -0.562995 -0.824576 1.078592
v 0.440164 -0.852649 0.621736
v 0.992993 -0.304598 0.694941
v 0.977761 -0.320278 0.696267
v 0.977981 -0.305295 0.674389
v 0.992993 -0.304598 1.089012
v 0.977981 -0.305295 1.109563
v 0.977761 -0.320278 1.087692
v 0.474038 -0.237405 1.061244
v 0.514656 0.030299 1.057099
v 0.511758 0.011196 1.080023
v 0.470697 -0.259424 0.728615
v 0.514656 0.030299 0.706372
v 0.524405 -0.340926 1.092064
v 0.526561 -0.325840 1.113626
v 0.503416 -0.300298 1.102213
v 0.503027 -0.328039 1.081662
v 0.545879 0.038521 0.652813
v 0.550674 0.060487 0.672177
v 0.577171 0.070176 0.658285
v 0.575380 0.055196 0.639451
v 0.550674 0.060488 1.104521
v 0.548118 0.041472 1.128418
v 0.575386 0.055254 1.144283
v 0.577170 0.070242 1.125137
v 0.502384 -0.295482 0.678346
v 0.526561 -0.325840 0.670328
v 0.524405 -0.340926 0.691894
v 0.503027 -0.328039 0.698116
v 0.203588 -0.284068 1.074506
v 0.203989 -0.299198 1.053016
v 0.195596 0.016917 0.671337
v 0.195197 0.031963 0.690673
v 0.195197 0.031963 1.076626
v 0.195597 0.016917 1.095961
v 0.203989 -0.299691 0.714199
v 0.203589 -0.284622 0.692719
v 0.448414 -0.264978 1.089918
v 0.420729 -0.281795 1.101568
v 0.418798 -0.296925 1.080057
v 0.444341 -0.286098 1.066398
v 0.492267 0.062023 0.675155
v 0.490757 0.040817 0.654387
v 0.466144 0.056603 0.641817
v 0.468777 0.072101 0.661039
v 0.468777 0.072101 1.107474
v 0.466146 0.056603 1.126689
v 0.490431 0.041610 1.113560
v 0.492267 0.062023 1.091788
v 0.420720 -0.281828 0.666724
v 0.448955 -0.264100 0.677837
v 0.444341 -0.286098 0.700497
v 0.418799 -0.296961 0.688221
v -0.190125 0.029860 0.658804
v -0.176378 0.044310 0.659143
v -0.175046 0.029230 0.639717
v -0.175968 -0.310592 0.684024
v -0.160878 -0.310827 0.664846
v -0.163120 -0.325653 0.686206
v 0.974885 0.015266 0.662685
v 0.988628 0.012753 0.716571
v 0.997789 -0.013928 0.665345
v 0.982873 -0.008807 0.644697
v 0.982992 -0.004032 1.138352
v 0.997789 -0.013928 1.118480
v 0.988628 0.012753 1.120253
v 0.949430 0.061431 1.121073
v 0.928285 0.073021 1.121395
v 0.932888 0.058057 1.141575
v 0.827507 0.056070 0.640106
v 0.840862 0.071266 0.659528
v 0.949430 0.061431 0.857195
v 0.928416 0.072898 0.829062
v -0.078757 -0.326722 1.130605
v -0.067024 -0.312020 1.151233
v -0.093152 -0.311556 1.138473
v -0.175968 -0.310591 1.013101
v -0.163120 -0.325631 1.023668
v -0.164903 -0.310629 1.047490
v -0.176378 0.044310 1.051016
v -0.190125 0.029860 1.038530
v -0.179138 0.029492 1.072793
v -0.092214 0.041514 1.157410
v -0.107430 0.027111 1.163407
v -0.081367 0.026118 1.175957
v 0.511717 0.010929 0.684756
v 0.470697 -0.259424 1.035841
v 0.474321 -0.235539 0.703542
vn -0.0000 1.0000 -0.0000
vn -0.0000 -0.0000 1.0000
vn 0.0900 0.5775 -0.8114
vn 0.5015 0.4515 -0.7380
vn 0.4772 0.2282 -0.8487
vn -0.9253 0.1259 0.3576
vn -0.9288 0.3134 -0.1980
vn -0.9273 0.1035 -0.3597
vn -0.0972 0.6448 0.7582
vn 0.6847 0.1821 0.7057
vn -0.2110 0.1135 0.9709
vn 0.0798 0.9707 0.2267
vn 0.1052 0.9622 -0.2513
vn 0.0982 0.9697 -0.2235
vn 0.2125 0.9769 -0.0231
vn 0.1002 0.9530 -0.2858
vn -0.2711 0.9271 -0.2589
vn -0.8264 0.0180 0.5628
vn -0.7159 0.6872 0.1239
vn -0.0903 0.9912 -0.0972
vn -0.0898 0.9914 0.0954
vn 0.0428 0.9901 0.1338
vn -0.3262 0.9256 -0.1923
vn -0.1301 0.9657 -0.2247
vn 0.9119 -0.1170 0.3934
vn 0.7889 0.3577 0.4996
vn 0.7614 -0.0496 0.6463
vn 0.2360 0.8902 -0.3896
vn 0.3404 0.9315 -0.1284
vn 0.4120 0.8360 -0.3624
vn 0.6433 0.7511 -0.1485
vn 0.6481 0.7492 0.1364
vn -0.6240 0.7593 0.1849
vn -0.8335 0.5253 -0.1712
vn -0.8195 0.5694 0.0645
vn -0.4161 0.2380 0.8776
vn -0.1329 0.6192 0.7739
vn -0.5564 0.4026 0.7269
vn -0.3357 0.1036 0.9363
vn 0.2616 0.6359 0.7260
vn 0.1363 0.1470 0.9797
vn 0.2879 0.9189 0.2698
vn -0.0333 0.9763 -0.2140
vn -0.0348 0.9762 0.2139
vn -0.0286 0.6011 -0.7987
vn -0.2963 0.1081 -0.9490
vn 0.1651 0.1513 -0.9746
vn 0.4137 0.2236 -0.8826
vn 0.6632 0.1832 -0.7256
vn -0.1089 0.6320 -0.7673
vn -0.2287 0.1119 -0.9670
vn 0.6392 0.1844 0.7466
vn -0.8258 0.0186 -0.5637
vn 0.2218 0.5468 0.8073
vn 0.1633 0.1662 0.9725
vn 0.2188 0.5486 -0.8070
vn 0.1515 0.1647 -0.9746
vn 0.2371 0.1650 0.9574
vn 0.0477 0.5729 0.8182
vn 0.0174 0.1243 0.9921
vn -0.5656 0.1879 0.8030
vn -0.8180 0.3013 0.4900
vn -0.6999 0.2082 0.6832
vn 0.0188 0.1199 -0.9926
vn 0.1049 0.5881 -0.8020
vn 0.3121 0.9120 0.2662
vn -0.1826 0.5835 -0.7913
vn -0.1703 0.1405 -0.9753
vn -0.2206 0.5858 0.7799
vn -0.1892 0.1430 0.9715
vn 0.2342 0.9421 -0.2401
vn -0.2165 0.9759 0.0263
vn 0.2610 0.9305 0.2572
vn -0.7973 0.2978 -0.5251
vn -0.5312 0.1864 -0.8265
vn -0.6631 0.2077 -0.7191
vn -0.1033 0.9633 -0.2479
vn -0.1117 0.9672 0.2281
vn 0.6769 0.7317 0.0801
vn 0.5695 0.8176 -0.0850
vn 0.6458 0.7515 0.1346
vn -0.5952 0.7990 0.0853
vn -0.8660 0.4272 0.2598
vn 0.7845 0.3810 -0.4892
vn 0.9113 -0.1163 -0.3951
vn 0.7600 -0.0491 -0.6481
vn -0.2548 0.5922 -0.7644
vn 0.3247 0.5221 -0.7887
vn 0.2780 0.1155 -0.9536
vn 0.5929 0.8046 -0.0329
vn 0.9119 0.3545 0.2068
vn 0.8457 0.4791 -0.2352
vn 0.2621 0.6019 0.7543
vn -0.3209 0.5546 0.7677
vn -0.3274 0.1286 0.9361
vn -0.3749 -0.8902 -0.2589
vn 0.2603 -0.9162 0.3047
vn -0.3749 -0.8902 0.2589
vn -0.4210 0.8175 0.3929
vn -0.4998 0.1123 -0.8588
vn -0.2401 0.4711 -0.8488
vn 0.2876 0.4169 -0.8622
vn 0.1552 -0.9529 -0.2606
vn 0.7522 -0.6001 0.2721
vn 0.7717 -0.5894 -0.2389
vn -0.0042 0.3110 -0.9504
vn -0.6746 -0.3744 -0.6362
vn 0.0125 -0.3568 -0.9341
vn 0.7012 0.3208 -0.6367
vn 0.7389 -0.1561 -0.6555
vn -0.6018 -0.7672 0.2220
vn 0.1354 -0.9411 0.3100
vn -0.1214 0.9734 -0.1945
vn -0.7135 0.6514 0.2581
vn -0.7221 0.6484 -0.2412
vn -0.0708 0.4117 0.9086
vn -0.4911 0.2351 0.8388
vn -0.4033 -0.4409 0.8018
vn -0.3073 0.9492 0.0674
vn -0.1676 0.9056 0.3897
vn 0.2265 0.9138 0.3371
vn 0.5887 0.7694 0.2478
vn -0.1284 0.9607 0.2462
vn 0.8807 0.4328 -0.1923
vn 0.6666 0.7124 0.2193
vn 0.8765 0.4368 0.2025
vn -0.1895 -0.5119 -0.8379
vn 0.4260 0.4145 -0.8042
vn 0.3121 -0.4794 -0.8202
vn 0.2591 0.9143 -0.3114
vn -0.2506 0.8829 0.3971
vn 0.2569 0.9150 0.3112
vn 0.6731 0.1292 0.7282
vn 0.2896 -0.4847 0.8254
vn 0.6362 -0.3496 0.6878
vn 0.2943 -0.9088 -0.2956
vn -0.1523 -0.9340 0.3231
vn -0.1589 -0.9329 -0.3232
vn 0.7084 0.1247 -0.6947
vn 0.6690 -0.3447 -0.6585
vn -0.0725 -0.3279 0.9419
vn 0.6385 0.2960 0.7104
vn 0.6687 -0.1715 0.7235
vn -0.6606 -0.3692 0.6537
vn -0.0714 0.2520 0.9651
vn -0.5354 0.7331 0.4194
vn 0.4115 0.4199 0.8089
vn -0.1827 -0.5106 0.8402
vn 0.6442 -0.7381 -0.2003
vn 0.2844 -0.9125 0.2941
vn 0.9357 -0.2849 0.2083
vn 0.9705 0.0907 -0.2233
vn 0.9675 0.0896 0.2365
vn -0.6397 0.7683 0.0203
vn -0.8305 0.4679 -0.3021
vn -0.8053 0.5892 0.0664
vn -0.8909 -0.3683 0.2658
vn -0.9474 0.1058 -0.3020
vn -0.8909 -0.3682 -0.2658
vn -0.8061 0.3329 -0.4894
vn -0.3108 0.5576 -0.7697
vn -0.8084 0.3291 0.4881
vn -0.2837 0.9249 0.2531
vn 0.3094 0.5184 0.7972
vn -0.2476 0.6248 -0.7405
vn -0.3340 0.9231 0.1904
vn -0.2614 0.6222 0.7379
vn 0.7145 0.4208 -0.5590
vn 0.2849 0.9193 -0.2714
vn 0.7253 0.4235 0.5429
vn 0.2013 0.5545 0.8074
vn 0.6473 0.4703 0.5998
vn -0.7073 0.3506 0.6139
vn -0.6258 0.7300 -0.2748
vn -0.6795 0.3233 -0.6587
vn 0.6162 0.7509 0.2378
vn 0.2010 0.9555 0.2161
vn -0.6328 0.7370 -0.2375
vn -0.1906 0.9577 -0.2156
vn -0.1318 0.9597 0.2481
vn -0.4027 -0.4401 -0.8026
vn 0.2987 -0.4748 -0.8279
vn 0.2827 -0.9064 -0.3139
vn 0.2557 0.4170 0.8722
vn 0.2600 0.9041 -0.3390
vn 0.6109 0.7657 -0.2011
vn 0.2703 -0.4849 0.8318
vn 0.6737 0.7075 -0.2135
vn -0.6086 -0.7647 -0.2117
vn -0.6906 0.1598 0.7053
vn -0.2563 0.8814 -0.3968
vn -0.7076 0.1602 -0.6882
vn -0.9242 0.2253 0.3082
vn -0.6332 0.7208 -0.2821
vn -0.2182 0.9344 -0.2816
vn 0.6369 -0.7419 0.2098
vn 0.9384 -0.2840 -0.1968
vn -0.7104 0.6926 -0.1250
vn -0.3260 0.1307 -0.9363
vn 0.9148 0.3115 -0.2570
vn 0.9306 0.2169 0.2948
vn 0.0564 0.5738 -0.8170
vn 0.6096 0.3348 0.7185
vn 0.9429 0.1250 -0.3086
vn 0.9313 0.1217 0.3433
vn -0.5441 0.3212 -0.7751
vn -0.2232 0.3669 -0.9031
vn -0.2175 0.3707 0.9029
vn 0.4998 0.1123 0.8588
vn 0.2401 0.4711 0.8488
vn -0.2876 0.4169 0.8622
vn 0.0029 0.3028 0.9531
vn 0.6822 -0.3681 0.6317
vn -0.0096 -0.3426 0.9395
vn -0.7012 0.3208 0.6367
vn -0.7406 -0.1555 0.6537
vn -0.1551 -0.9529 0.2607
vn 0.6260 -0.7487 -0.2179
vn -0.1348 -0.9411 -0.3101
vn 0.1203 0.9708 0.2073
vn 0.6987 0.6667 -0.2595
vn 0.7070 0.6641 0.2429
vn 0.0708 0.4117 -0.9086
vn 0.4911 0.2351 -0.8388
vn 0.4033 -0.4409 -0.8018
vn 0.3073 0.9492 -0.0674
vn 0.1676 0.9056 -0.3897
vn -0.2265 0.9138 -0.3371
vn -0.5877 0.7702 -0.2479
vn 0.1276 0.9586 -0.2545
vn -0.7533 -0.5987 -0.2722
vn -0.7725 -0.5884 0.2388
vn -0.4575 -0.8783 0.1390
vn -0.3418 -0.8985 -0.2755
vn 0.0345 -0.9580 -0.2847
vn 0.2189 -0.5022 0.8366
vn 0.0564 0.4106 0.9101
vn 0.0976 -0.5026 0.8590
vn 0.0739 -0.2962 -0.9523
vn -0.6377 0.2957 -0.7113
vn -0.6731 -0.1700 -0.7198
vn 0.6921 0.1609 -0.7036
vn 0.6706 -0.3615 -0.6478
vn -0.0576 0.9483 -0.3120
vn -0.4522 0.8785 0.1542
vn -0.0315 0.9557 0.2925
vn -0.0360 0.3959 -0.9176
vn 0.2154 -0.5018 -0.8377
vn 0.0020 -0.4979 -0.8672
vn -0.9326 -0.3400 0.1209
vn -0.8993 0.3112 -0.3073
vn -0.8886 -0.3540 -0.2917
vn -0.3192 -0.4499 -0.8341
vn 0.0646 -0.9624 0.2638
vn 0.2210 -0.9222 -0.3173
vn 0.2252 -0.9204 0.3196
vn 0.2097 0.9022 -0.3769
vn -0.0269 -0.4737 0.8803
vn 0.6397 0.7683 -0.0203
vn 0.8305 0.4679 0.3021
vn 0.8053 0.5892 -0.0664
vn 0.8909 -0.3683 -0.2658
vn 0.9474 0.1058 0.3020
vn 0.8909 -0.3682 0.2658
vn -0.8150 0.3289 0.4771
vn -0.5871 -0.4065 0.7001
vn -0.5982 0.3264 0.7319
vn 0.5354 0.7331 -0.4194
vn 0.3749 -0.8902 -0.2589
vn 0.4026 -0.4401 0.8026
vn 0.3749 -0.8902 0.2589
vn -0.2987 -0.4748 0.8279
vn -0.2827 -0.9064 0.3139
vn -0.2557 0.4170 -0.8722
vn -0.2600 0.9041 0.3390
vn -0.6106 0.7659 0.2014
vn -0.2703 -0.4849 -0.8318
vn 0.6322 -0.7463 0.2083
vn 0.2145 0.9011 0.3770
vn 0.7078 0.1631 0.6873
vn -0.3338 0.8925 -0.3034
vn -0.3415 0.3472 -0.8734
vn 0.9242 0.2253 -0.3082
vn 0.6332 0.7208 0.2821
vn 0.2182 0.9344 0.2816
vn -0.1415 -0.9234 0.3569
vn -0.8006 -0.3902 0.4548
vn -0.9409 0.3139 0.1275
vn -0.1488 0.8972 0.4159
vn -0.0456 0.3619 0.9311
vn 0.0648 0.2413 -0.9683
vn -0.2603 -0.9162 -0.3047
vn 0.2087 0.4093 0.8882
vn 0.2060 0.4129 -0.8872
vn 0.2824 0.1196 0.9518
vn 0.5551 0.8317 0.0093
vn -0.3922 0.2529 -0.8844
vn 0.4513 0.1950 0.8708
vt 1.000000 1.000000
vt -0.000000 0.000000
vt 1.000000 -0.000000
vt 1.806801 0.608874
vt 0.806801 0.005818
vt 1.806801 0.005818
vt 0.149314 0.833327
vt 0.141717 0.845882
vt 0.133495 0.845170
vt 0.192752 0.869173
vt 0.199323 0.899870
vt 0.190591 0.901998
vt 0.172465 0.815432
vt 0.185257 0.813702
vt 0.185180 0.815408
vt 0.167281 0.779766
vt 0.149823 0.789587
vt 0.150499 0.780806
vt 0.162319 0.840457
vt 0.150392 0.832926
vt 0.150257 0.823001
vt 0.185779 0.818146
vt 0.172369 0.821349
vt 0.151193 0.815442
vt 0.170515 0.815590
vt 0.169046 0.797388
vt 0.151615 0.803163
vt 0.150389 0.798675
vt 0.231928 0.869753
vt 0.222208 0.876417
vt 0.228207 0.866320
vt 0.150645 0.834694
vt 0.160851 0.841116
vt 0.152262 0.847037
vt 0.150551 0.813192
vt 0.170803 0.812993
vt 0.163979 0.768639
vt 0.150705 0.767734
vt 0.164151 0.765015
vt 0.213273 0.857154
vt 0.211186 0.873629
vt 0.209080 0.864217
vt 0.185127 0.800505
vt 0.170662 0.797195
vt 0.184992 0.798299
vt 0.170829 0.811532
vt 0.151641 0.804526
vt 0.168763 0.804002
vt 0.149196 0.798746
vt 0.135688 0.802469
vt 0.135714 0.800264
vt 0.135433 0.797487
vt 0.136456 0.815639
vt 0.149216 0.815513
vt 0.136710 0.817250
vt 0.185144 0.796179
vt 0.136427 0.820259
vt 0.171800 0.811535
vt 0.185312 0.812338
vt 0.149512 0.811936
vt 0.136254 0.814273
vt 0.185218 0.794595
vt 0.168245 0.779506
vt 0.182480 0.773148
vt 0.175102 0.758434
vt 0.165563 0.764213
vt 0.173682 0.756721
vt 0.135292 0.776978
vt 0.148767 0.789772
vt 0.169468 0.793663
vt 0.150998 0.772248
vt 0.137860 0.765940
vt 0.164837 0.769157
vt 0.175925 0.759504
vt 0.221832 0.897481
vt 0.208546 0.879234
vt 0.221247 0.876764
vt 0.148779 0.767703
vt 0.138358 0.764697
vt 0.139193 0.762795
vt 0.151778 0.772304
vt 0.164121 0.769489
vt 0.224652 0.881006
vt 0.222954 0.896579
vt 0.222447 0.878164
vt 0.207382 0.878508
vt 0.201693 0.873177
vt 0.222861 0.897914
vt 0.231928 0.905405
vt 0.227971 0.908496
vt 0.207391 0.900451
vt 0.221938 0.898362
vt 0.226990 0.909207
vt 0.161960 0.841709
vt 0.175048 0.847601
vt 0.152534 0.848155
vt 0.175250 0.840173
vt 0.173595 0.822404
vt 0.186134 0.819159
vt 0.130018 0.921779
vt 0.117697 0.942254
vt 0.117241 0.922610
vt 0.209861 0.874640
vt 0.071756 0.873102
vt 0.074837 0.875494
vt 0.075025 0.891323
vt 0.130772 0.947432
vt 0.117771 0.943349
vt 0.130758 0.942776
vt 0.074989 0.896007
vt 0.059774 0.901704
vt 0.060800 0.899726
vt 0.074977 0.892765
vt 0.057493 0.897992
vt 0.116908 0.949196
vt 0.117384 0.947191
vt 0.076871 0.895583
vt 0.092055 0.896684
vt 0.077158 0.898018
vt 0.091486 0.879541
vt 0.093901 0.871720
vt 0.108307 0.870566
vt 0.084668 0.876063
vt 0.090404 0.879189
vt 0.091771 0.890814
vt 0.091825 0.892054
vt 0.091949 0.894587
vt 0.080888 0.913900
vt 0.092235 0.911077
vt 0.091843 0.912810
vt 0.059159 0.903393
vt 0.078934 0.912292
vt 0.063192 0.915588
vt 0.079767 0.911059
vt 0.092118 0.897841
vt 0.092298 0.909799
vt 0.092677 0.913139
vt 0.097092 0.925240
vt 0.095562 0.924987
vt 0.129446 0.963019
vt 0.116654 0.950508
vt 0.131444 0.951251
vt 0.078387 0.926621
vt 0.080126 0.914395
vt 0.079801 0.926074
vt 0.107349 0.895532
vt 0.092917 0.892233
vt 0.109934 0.893696
vt 0.108627 0.897078
vt 0.093708 0.894608
vt 0.089811 0.873053
vt 0.093379 0.910831
vt 0.109537 0.898541
vt 0.108431 0.910516
vt 0.128955 0.964570
vt 0.116826 0.962206
vt 0.094291 0.925024
vt 0.081171 0.915118
vt 0.091815 0.914064
vt 0.083800 0.875043
vt 0.075793 0.872285
vt 0.088102 0.872557
vt 0.090515 0.857857
vt 0.075836 0.871073
vt 0.075970 0.857857
vt 0.149322 0.821888
vt 0.149416 0.823048
vt 0.173565 0.821281
vt 0.172787 0.822456
vt 0.221333 0.875880
vt 0.150693 0.803793
vt 0.168630 0.802592
vt 0.169678 0.803142
vt 0.149292 0.813272
vt 0.150453 0.811835
vt 0.172124 0.812843
vt 0.170363 0.793176
vt 0.170610 0.794604
vt 0.165017 0.767514
vt 0.151741 0.771440
vt 0.150335 0.770663
vt 0.151148 0.848101
vt 0.174319 0.840852
vt 0.174246 0.839686
vt 0.206756 0.899386
vt 0.207930 0.899355
vt 0.211384 0.874832
vt 0.116979 0.921656
vt 0.116268 0.922439
vt 0.130171 0.920736
vt 0.131007 0.921496
vt 0.131929 0.941665
vt 0.130881 0.941605
vt 0.092551 0.890843
vt 0.075871 0.891202
vt 0.076147 0.892578
vt 0.116695 0.942384
vt 0.116577 0.944177
vt 0.080124 0.912302
vt 0.132591 0.951119
vt 0.131251 0.949827
vt 0.132511 0.949389
vt 0.093099 0.896552
vt 0.077271 0.899265
vt 0.076014 0.898118
vt 0.115605 0.950254
vt 0.089766 0.871398
vt 0.090698 0.871966
vt 0.074920 0.871698
vt 0.075825 0.874946
vt 0.075812 0.875959
vt 0.117003 0.963779
vt 0.116856 0.965115
vt 0.115859 0.964142
vt 0.130061 0.965126
vt 0.128866 0.965967
vt 0.150607 0.821804
vt 0.136193 0.821342
vt 0.225902 0.895337
vt 0.225063 0.879330
vt 0.149510 0.780681
vt 0.176343 0.847409
vt 0.149424 0.856990
vt 0.177603 0.856990
vt 0.199459 0.901302
vt 0.201611 0.871777
vt 0.193139 0.867942
vt 0.132372 0.947379
vt 0.132051 0.943434
vt 0.076382 0.899427
vt 0.115605 0.962424
vt 0.130649 0.963425
vt 0.092975 0.897831
vt 0.115857 0.948676
vt 0.115995 0.947115
vt 0.091584 0.857930
vt 0.074955 0.857859
vt 0.168412 0.932937
vt 0.167041 0.929942
vt 0.170279 0.917526
vt 0.171235 0.912986
vt 0.187611 0.910439
vt 0.186039 0.912223
vt 0.170614 0.916159
vt 0.189132 0.914692
vt 0.117714 0.894352
vt 0.131394 0.891903
vt 0.130914 0.893938
vt 0.169350 0.913057
vt 0.154290 0.909700
vt 0.169431 0.910583
vt 0.153203 0.925984
vt 0.152882 0.933183
vt 0.138153 0.938611
vt 0.158856 0.929812
vt 0.154169 0.926429
vt 0.153925 0.915628
vt 0.154009 0.914403
vt 0.154116 0.911841
vt 0.130735 0.897764
vt 0.117969 0.898977
vt 0.121808 0.860448
vt 0.132107 0.860799
vt 0.131606 0.879744
vt 0.188703 0.908839
vt 0.171599 0.895977
vt 0.188587 0.896210
vt 0.138310 0.909548
vt 0.152935 0.914117
vt 0.135181 0.911278
vt 0.153213 0.909710
vt 0.136891 0.907765
vt 0.154797 0.895423
vt 0.166775 0.878439
vt 0.170510 0.895942
vt 0.153702 0.895350
vt 0.135932 0.906091
vt 0.136767 0.893919
vt 0.172971 0.860406
vt 0.155732 0.876322
vt 0.162999 0.857154
vt 0.136198 0.872964
vt 0.117174 0.879132
vt 0.131611 0.890554
vt 0.116709 0.890536
vt 0.154331 0.908533
vt 0.190305 0.881417
vt 0.159648 0.930695
vt 0.167413 0.932864
vt 0.155446 0.933101
vt 0.154447 0.947070
vt 0.168078 0.934144
vt 0.167237 0.946954
vt 0.167672 0.877960
vt 0.178676 0.863488
vt 0.171304 0.880945
vt 0.153900 0.932478
vt 0.132579 0.918998
vt 0.132274 0.918076
vt 0.133237 0.918195
vt 0.119687 0.920572
vt 0.118829 0.919869
vt 0.119784 0.919541
vt 0.116882 0.900132
vt 0.117912 0.900134
vt 0.153177 0.915530
vt 0.169500 0.917473
vt 0.169463 0.916121
vt 0.131831 0.898661
vt 0.131866 0.896908
vt 0.115605 0.890809
vt 0.117011 0.891987
vt 0.115811 0.892531
vt 0.169570 0.909343
vt 0.170582 0.910692
vt 0.132622 0.890824
vt 0.156036 0.877321
vt 0.155117 0.877250
vt 0.132412 0.859819
vt 0.133237 0.860685
vt 0.153371 0.934277
vt 0.166421 0.930470
vt 0.166350 0.929617
vt 0.117524 0.864556
vt 0.116363 0.864968
vt 0.116953 0.863607
vt 0.122138 0.859369
vt 0.120699 0.859934
vt 0.166500 0.877468
vt 0.170780 0.881869
vt 0.171743 0.882286
vt 0.115997 0.894528
vt 0.152361 0.911644
vt 0.116664 0.898409
vt 0.130857 0.898835
vt 0.170428 0.909332
vt 0.132775 0.879846
vt 0.115958 0.879182
vt 0.153517 0.908428
vt 0.132429 0.892395
vt 0.132483 0.893967
vt 0.183512 0.940704
vt 0.174200 0.861015
vt 0.190428 0.879999
vt 0.000000 1.000000
vt 0.806801 0.608874
vt 0.227291 0.865530
vt 0.225465 0.894093
vt 0.209286 0.915600
vt 0.206488 0.907902
vt 0.189330 0.841654
vt 0.181316 0.842589
vt 0.055954 0.896843
vt 0.056139 0.873710
vt 0.111401 0.892311
vt 0.081018 0.925860
vt 0.148214 0.856701
vt 0.178755 0.856783
vt 0.190717 0.903211
vt 0.190428 0.916183
vt 0.133495 0.912644
vt 0.136299 0.871923
vt 0.138540 0.939700
vt 0.182961 0.941798
s 1
f 2/1/1 3/2/1 4/3/1
f 8/4/2 5/5/2 7/6/2
f 117/7/3 104/8/4 20/9/5
f 27/10/6 111/11/7 24/12/8
f 29/13/9 67/14/10 9/15/11
f 79/16/12 86/17/13 82/18/14
f 122/19/15 118/20/16 35/21/17
f 32/22/18 29/13/9 9/15/11
f 37/23/19 30/24/20 28/25/21
f 64/26/22 58/27/23 66/28/24
f 11/29/25 46/30/26 52/31/27
f 119/32/28 121/33/29 102/34/30
f 28/25/21 69/35/31 76/36/32
f 93/37/33 212/38/34 214/39/35
f 26/40/36 123/41/37 115/42/38
f 12/43/39 210/44/40 14/45/41
f 73/46/42 59/47/43 61/48/44
f 65/49/45 13/50/46 18/51/47
f 17/52/48 65/49/45 18/51/47
f 78/53/49 215/54/50 10/55/51
f 210/44/40 83/56/52 14/45/41
f 215/54/50 41/57/53 10/55/51
f 74/58/54 12/43/39 68/59/55
f 13/50/46 71/60/56 77/61/57
f 84/62/58 80/63/59 16/64/60
f 97/65/61 213/66/62 11/67/63
f 15/68/64 85/69/65 17/52/48
f 87/70/66 66/28/24 86/17/13
f 100/71/67 15/68/64 95/72/68
f 16/64/60 91/73/69 96/74/70
f 56/75/71 126/76/72 48/77/73
f 45/78/74 94/79/75 19/80/76
f 79/16/12 99/81/77 92/82/78
f 43/83/79 57/84/80 47/85/81
f 127/86/82 111/11/7 116/87/83
f 54/88/84 19/89/85 51/90/86
f 114/91/87 55/92/88 50/93/89
f 120/94/90 106/95/91 103/96/92
f 109/97/93 39/98/94 31/99/95
f 133/100/96 151/101/97 129/102/98
f 125/103/99 127/86/82 116/87/83
f 183/104/100 188/105/101 147/106/102
f 134/107/103 152/108/104 140/109/105
f 135/110/106 163/111/107 208/112/108
f 146/113/109 208/112/108 139/114/110
f 134/107/103 177/115/111 209/116/112
f 205/117/113 167/118/114 174/119/115
f 189/120/116 182/121/117 130/122/118
f 192/123/119 190/124/120 143/125/121
f 205/117/113 142/126/122 207/127/123
f 194/128/124 155/129/125 198/130/126
f 164/131/127 160/132/128 154/133/129
f 158/134/130 170/135/131 156/136/132
f 196/137/133 162/138/134 201/139/135
f 153/140/136 178/141/137 165/142/138
f 154/143/129 193/144/139 203/145/140
f 136/146/141 141/147/142 149/148/143
f 176/149/144 206/150/145 136/146/141
f 190/124/120 192/123/119 179/151/146
f 157/152/147 175/153/148 162/154/134
f 202/155/149 161/156/150 153/140/136
f 200/157/151 195/158/152 197/159/153
f 191/160/154 185/161/155 180/162/156
f 128/163/157 184/164/158 131/165/159
f 33/166/160 35/21/17 36/167/161
f 38/168/162 40/169/163 37/23/19
f 46/30/26 48/77/73 49/170/164
f 54/88/84 56/75/71 57/84/80
f 58/27/23 59/47/43 60/171/165
f 61/48/44 62/172/166 63/173/167
f 70/174/168 72/175/169 69/35/31
f 73/46/42 75/176/170 76/36/32
f 87/70/66 88/177/171 89/178/172
f 91/73/69 93/37/33 90/179/173
f 98/180/174 100/71/67 101/181/175
f 102/34/30 103/96/92 104/182/4
f 107/183/176 108/184/177 109/97/93
f 112/185/178 113/186/179 114/91/87
f 117/7/3 118/20/16 119/32/28
f 120/94/90 121/33/29 122/19/15
f 123/41/37 124/187/180 125/103/99
f 128/188/157 129/102/98 130/189/118
f 131/190/159 132/191/181 133/100/96
f 138/192/182 140/109/105 137/193/183
f 142/126/122 144/194/184 141/147/142
f 146/113/109 148/195/185 145/196/186
f 150/197/187 152/108/104 149/198/143
f 155/129/125 156/136/132 157/152/147
f 158/134/130 159/199/188 160/132/128
f 164/200/127 166/201/189 163/202/107
f 168/203/190 170/135/131 167/118/114
f 171/204/191 173/205/192 174/119/115
f 175/206/148 177/115/111 178/141/137
f 179/151/146 181/207/193 182/208/117
f 183/209/100 184/164/158 185/161/155
f 186/210/194 187/211/195 188/105/101
f 193/144/139 194/128/124 195/158/152
f 196/137/133 197/159/153 198/130/126
f 199/212/196 200/213/151 201/214/135
f 202/155/149 203/215/140 204/216/197
f 37/23/19 29/13/9 38/168/162
f 69/35/31 215/54/50 70/174/168
f 34/217/198 215/54/50 30/24/20
f 38/168/162 31/99/95 39/98/94
f 35/21/17 37/23/19 40/169/163
f 42/218/199 33/166/160 36/167/161
f 214/39/35 90/179/173 93/37/33
f 57/84/80 211/219/200 54/88/84
f 47/85/81 44/220/201 43/83/79
f 47/85/81 56/75/71 48/77/73
f 51/90/86 55/92/88 54/88/84
f 49/170/164 52/31/27 46/30/26
f 58/27/23 65/49/45 66/28/24
f 61/48/44 74/58/54 73/46/42
f 59/47/43 62/172/166 61/48/44
f 62/172/166 210/44/40 63/173/167
f 86/17/13 65/49/45 85/69/65
f 59/47/43 71/60/56 60/171/165
f 76/36/32 29/13/9 28/25/21
f 68/59/55 75/176/170 74/58/54
f 70/174/168 77/61/57 71/60/56
f 76/36/32 72/175/169 73/46/42
f 86/17/13 81/221/202 82/18/14
f 87/70/66 210/44/40 64/26/22
f 84/62/58 89/178/172 88/177/171
f 212/38/34 101/181/175 45/78/74
f 95/72/68 101/181/175 100/71/67
f 92/82/78 98/180/174 93/37/33
f 90/179/173 96/74/70 91/73/69
f 103/96/92 121/33/29 120/94/90
f 105/222/203 107/183/176 109/97/93
f 104/182/4 119/32/28 102/34/30
f 21/223/204 104/182/4 103/96/92
f 105/222/203 22/224/205 106/95/91
f 39/98/94 108/184/177 40/169/163
f 110/225/206 112/185/178 114/91/87
f 115/226/38 27/10/6 26/227/36
f 110/225/206 24/12/8 111/11/7
f 113/186/179 55/92/88 114/91/87
f 115/226/38 125/103/99 116/87/83
f 118/20/16 121/33/29 119/32/28
f 118/20/16 36/167/161 35/21/17
f 122/19/15 107/183/176 120/94/90
f 126/76/72 125/103/99 124/187/180
f 126/76/72 112/185/178 127/86/82
f 49/170/164 124/187/180 123/41/37
f 129/102/98 131/190/159 133/100/96
f 133/100/96 138/192/182 137/193/183
f 166/201/189 208/228/108 163/202/107
f 145/196/186 135/110/106 146/113/109
f 209/116/112 149/198/143 152/108/104
f 167/118/114 206/150/145 168/203/190
f 134/107/103 139/229/110 208/228/108
f 207/127/123 141/147/142 206/150/145
f 129/102/98 150/197/187 130/189/118
f 139/114/110 147/106/102 146/113/109
f 140/109/105 151/101/97 137/193/183
f 143/125/121 145/196/186 148/195/185
f 144/194/184 149/148/143 141/147/142
f 153/140/136 203/215/140 202/155/149
f 155/129/125 196/137/133 198/130/126
f 158/134/130 172/230/207 171/204/191
f 178/141/137 162/231/134 175/206/148
f 156/136/132 159/199/188 158/134/130
f 159/199/188 193/144/139 160/132/128
f 161/156/150 201/214/135 162/231/134
f 198/130/126 195/158/152 194/128/124
f 201/139/135 197/159/153 196/137/133
f 195/158/152 203/145/140 193/144/139
f 204/216/197 199/212/196 202/155/149
f 165/142/138 154/232/129 153/140/136
f 156/136/132 169/233/208 157/152/147
f 174/119/115 135/110/106 205/117/113
f 209/116/112 176/234/144 136/235/141
f 178/141/137 166/201/189 165/142/138
f 172/230/207 163/111/107 173/205/192
f 176/149/144 169/233/208 168/203/190
f 174/119/115 170/135/131 171/204/191
f 180/162/156 192/123/119 191/160/154
f 188/105/101 185/161/155 186/210/194
f 184/164/158 180/162/156 185/161/155
f 189/120/116 179/151/146 182/208/117
f 181/207/193 130/236/118 182/208/117
f 132/237/181 184/164/158 183/209/100
f 147/106/102 187/211/195 148/195/185
f 143/125/121 189/120/116 144/194/184
f 187/211/195 191/160/154 192/123/119
f 79/16/12 88/177/171 87/70/66
f 99/81/77 81/221/202 100/71/67
f 92/82/78 80/63/59 79/16/12
f 22/224/205 103/96/92 106/95/91
f 277/238/209 282/239/210 237/240/211
f 224/241/212 251/242/213 222/243/214
f 236/244/215 222/243/214 229/245/216
f 300/246/217 265/247/218 225/248/219
f 223/249/220 255/250/221 262/251/222
f 283/252/223 276/253/224 218/254/225
f 286/255/226 284/256/227 233/257/228
f 223/249/220 232/258/229 226/259/230
f 300/246/217 242/260/231 230/261/232
f 291/262/233 272/263/234 249/264/235
f 252/265/236 248/266/237 243/267/238
f 301/268/239 231/269/240 239/270/241
f 256/271/242 301/268/239 264/272/243
f 246/273/244 293/274/245 247/275/246
f 245/276/247 263/277/248 250/278/249
f 290/279/250 267/280/251 270/281/252
f 271/282/253 245/276/247 250/278/249
f 244/283/254 266/284/255 253/285/256
f 247/275/246 258/286/257 246/273/244
f 248/266/237 288/287/258 243/267/238
f 285/288/259 279/289/260 274/290/261
f 216/291/262 278/292/263 219/293/264
f 295/294/265 289/295/266 297/296/267
f 284/256/227 286/255/226 273/297/268
f 216/298/262 217/299/269 218/300/225
f 219/301/264 220/302/270 221/303/271
f 228/304/272 230/261/232 227/305/273
f 232/258/229 234/306/274 231/269/240
f 236/244/215 238/307/275 235/308/276
f 240/309/277 242/260/231 239/310/241
f 252/311/236 254/312/278 251/313/213
f 256/271/242 258/286/257 255/250/221
f 259/314/279 261/315/280 262/251/222
f 263/316/248 265/247/218 266/284/255
f 267/280/251 268/317/281 269/318/282
f 270/319/252 271/320/253 272/263/234
f 273/297/268 275/321/283 276/253/224
f 277/238/209 278/292/263 279/289/260
f 280/322/284 281/323/285 282/239/210
f 287/324/286 288/325/258 289/326/266
f 290/327/250 291/262/233 292/328/287
f 293/274/245 294/329/288 295/294/265
f 296/330/289 297/296/267 298/331/290
f 217/299/269 219/301/264 221/303/271
f 221/303/271 228/304/272 227/305/273
f 254/312/278 222/332/214 251/313/213
f 235/308/276 224/241/212 236/244/215
f 225/248/219 239/310/241 242/260/231
f 255/250/221 299/333/291 256/271/242
f 300/246/217 229/334/216 222/332/214
f 226/259/230 231/269/240 299/333/291
f 217/299/269 240/309/277 218/300/225
f 229/245/216 237/240/211 236/244/215
f 230/261/232 241/335/292 227/305/273
f 233/257/228 235/308/276 238/307/275
f 234/306/274 239/270/241 231/269/240
f 247/275/246 260/336/293 259/314/279
f 266/284/255 250/337/249 263/316/248
f 253/285/256 243/338/238 244/283/254
f 246/273/244 257/339/294 245/276/247
f 262/251/222 224/241/212 223/249/220
f 225/248/219 264/340/243 301/341/239
f 266/284/255 254/312/278 253/285/256
f 260/336/293 251/242/213 261/315/280
f 264/272/243 257/339/294 256/271/242
f 262/251/222 258/286/257 259/314/279
f 271/282/253 267/280/251 269/318/282
f 274/290/261 286/255/226 285/288/259
f 282/239/210 279/289/260 280/322/284
f 278/292/263 274/290/261 279/289/260
f 283/252/223 273/297/268 276/253/224
f 275/321/283 218/254/225 276/253/224
f 220/342/270 278/292/263 277/238/209
f 237/240/211 281/323/285 238/307/275
f 233/257/228 283/252/223 234/306/274
f 281/323/285 285/288/259 286/255/226
f 268/317/281 245/276/247 269/318/282
f 249/264/235 271/320/253 250/337/249
f 296/330/289 295/294/265 297/296/267
f 294/329/288 292/343/287 295/294/265
f 287/324/286 292/328/287 291/262/233
f 298/331/290 289/344/266 288/287/258
f 272/263/234 290/327/250 270/319/252
f 268/317/281 294/329/288 293/274/245
f 244/283/254 288/325/258 287/324/286
f 247/275/246 298/331/290 248/266/237
f 227/305/273 217/299/269 221/303/271
f 2/1/1 1/345/1 3/2/1
f 8/4/2 6/346/2 5/5/2
f 20/9/5 42/218/199 117/7/3
f 42/218/199 36/167/161 117/7/3
f 27/10/6 116/87/83 111/11/7
f 29/13/9 75/176/170 67/14/10
f 79/16/12 87/70/66 86/17/13
f 35/21/17 40/169/163 122/19/15
f 40/169/163 108/184/177 122/19/15
f 32/22/18 38/168/162 29/13/9
f 37/23/19 34/217/198 30/24/20
f 64/26/22 62/172/166 58/27/23
f 11/29/25 44/220/201 46/30/26
f 28/25/21 30/24/20 69/35/31
f 93/37/33 98/180/174 212/38/34
f 26/40/36 53/347/295 123/41/37
f 53/347/295 49/170/164 123/41/37
f 12/43/39 63/173/167 210/44/40
f 73/46/42 72/175/169 59/47/43
f 65/49/45 60/171/165 13/50/46
f 17/52/48 85/69/65 65/49/45
f 78/53/49 70/174/168 215/54/50
f 210/44/40 89/178/172 83/56/52
f 215/54/50 33/166/160 41/57/53
f 74/58/54 63/173/167 12/43/39
f 13/50/46 60/171/165 71/60/56
f 84/62/58 88/177/171 80/63/59
f 97/65/61 90/179/173 213/66/62
f 15/68/64 81/221/202 85/69/65
f 87/70/66 64/26/22 66/28/24
f 100/71/67 81/221/202 15/68/64
f 16/64/60 80/63/59 91/73/69
f 113/186/179 126/76/72 56/75/71
f 126/76/72 124/187/180 48/77/73
f 45/78/74 101/181/175 94/79/75
f 79/16/12 82/18/14 99/81/77
f 43/83/79 212/348/296 57/84/80
f 127/86/82 112/185/178 111/11/7
f 54/88/84 211/219/200 19/89/85
f 50/93/89 25/349/297 110/350/206
f 110/350/206 114/91/87 50/93/89
f 120/94/90 107/183/176 106/95/91
f 31/99/95 23/351/298 109/97/93
f 23/351/298 105/352/203 109/97/93
f 133/100/96 137/193/183 151/101/97
f 138/353/182 132/354/181 147/106/102
f 132/354/181 183/104/100 147/106/102
f 134/107/103 209/116/112 152/108/104
f 135/110/106 173/205/192 163/111/107
f 146/113/109 135/110/106 208/112/108
f 134/107/103 166/201/189 177/115/111
f 205/117/113 207/127/123 167/118/114
f 130/122/118 150/355/187 189/120/116
f 150/355/187 144/194/184 189/120/116
f 143/125/121 148/195/185 192/123/119
f 148/195/185 187/211/195 192/123/119
f 205/117/113 145/196/186 142/126/122
f 194/128/124 159/199/188 155/129/125
f 164/131/127 172/230/207 160/132/128
f 158/134/130 171/204/191 170/135/131
f 196/137/133 157/152/147 162/138/134
f 153/140/136 161/156/150 178/141/137
f 154/143/129 160/132/128 193/144/139
f 136/146/141 206/150/145 141/147/142
f 176/149/144 168/203/190 206/150/145
f 157/152/147 169/233/208 175/153/148
f 202/155/149 199/212/196 161/156/150
f 200/157/151 204/356/197 195/158/152
f 191/160/154 186/210/194 185/161/155
f 128/163/157 181/207/193 184/164/158
f 33/166/160 34/217/198 35/21/17
f 38/168/162 39/98/94 40/169/163
f 46/30/26 47/85/81 48/77/73
f 54/88/84 55/92/88 56/75/71
f 70/174/168 71/60/56 72/175/169
f 73/46/42 74/58/54 75/176/170
f 91/73/69 92/82/78 93/37/33
f 98/180/174 99/81/77 100/71/67
f 138/192/182 139/229/110 140/109/105
f 142/126/122 143/125/121 144/194/184
f 146/113/109 147/106/102 148/195/185
f 150/197/187 151/101/97 152/108/104
f 164/200/127 165/142/138 166/201/189
f 168/203/190 169/233/208 170/135/131
f 171/204/191 172/230/207 173/205/192
f 175/206/148 176/234/144 177/115/111
f 179/151/146 180/162/156 181/207/193
f 37/23/19 28/25/21 29/13/9
f 69/35/31 30/24/20 215/54/50
f 34/217/198 33/166/160 215/54/50
f 38/168/162 32/22/18 31/99/95
f 35/21/17 34/217/198 37/23/19
f 42/218/199 41/57/53 33/166/160
f 214/39/35 213/66/62 90/179/173
f 57/84/80 212/348/296 211/219/200
f 47/85/81 46/30/26 44/220/201
f 47/85/81 57/84/80 56/75/71
f 51/90/86 50/93/89 55/92/88
f 49/170/164 53/347/295 52/31/27
f 58/27/23 60/171/165 65/49/45
f 61/48/44 63/173/167 74/58/54
f 59/47/43 58/27/23 62/172/166
f 62/172/166 64/26/22 210/44/40
f 86/17/13 66/28/24 65/49/45
f 59/47/43 72/175/169 71/60/56
f 76/36/32 75/176/170 29/13/9
f 68/59/55 67/14/10 75/176/170
f 70/174/168 78/53/49 77/61/57
f 76/36/32 69/35/31 72/175/169
f 86/17/13 85/69/65 81/221/202
f 87/70/66 89/178/172 210/44/40
f 84/62/58 83/56/52 89/178/172
f 212/38/34 98/180/174 101/181/175
f 95/72/68 94/79/75 101/181/175
f 92/82/78 99/81/77 98/180/174
f 90/179/173 97/65/61 96/74/70
f 103/96/92 102/34/30 121/33/29
f 105/222/203 106/95/91 107/183/176
f 104/182/4 117/7/3 119/32/28
f 21/223/204 20/357/5 104/182/4
f 105/222/203 23/358/298 22/224/205
f 39/98/94 109/97/93 108/184/177
f 110/225/206 111/11/7 112/185/178
f 115/226/38 116/87/83 27/10/6
f 110/225/206 25/359/297 24/12/8
f 113/186/179 56/75/71 55/92/88
f 115/226/38 123/41/37 125/103/99
f 118/20/16 122/19/15 121/33/29
f 118/20/16 117/7/3 36/167/161
f 122/19/15 108/184/177 107/183/176
f 126/76/72 127/86/82 125/103/99
f 126/76/72 113/186/179 112/185/178
f 49/170/164 48/77/73 124/187/180
f 129/102/98 128/188/157 131/190/159
f 133/100/96 132/191/181 138/192/182
f 166/201/189 134/107/103 208/228/108
f 145/196/186 205/117/113 135/110/106
f 209/116/112 136/235/141 149/198/143
f 167/118/114 207/127/123 206/150/145
f 134/107/103 140/109/105 139/229/110
f 207/127/123 142/126/122 141/147/142
f 129/102/98 151/101/97 150/197/187
f 139/114/110 138/353/182 147/106/102
f 140/109/105 152/108/104 151/101/97
f 143/125/121 142/126/122 145/196/186
f 144/194/184 150/355/187 149/148/143
f 153/140/136 154/232/129 203/215/140
f 155/129/125 157/152/147 196/137/133
f 158/134/130 160/132/128 172/230/207
f 178/141/137 161/156/150 162/231/134
f 156/136/132 155/129/125 159/199/188
f 159/199/188 194/128/124 193/144/139
f 161/156/150 199/212/196 201/214/135
f 198/130/126 197/159/153 195/158/152
f 201/139/135 200/157/151 197/159/153
f 195/158/152 204/356/197 203/145/140
f 204/216/197 200/213/151 199/212/196
f 165/142/138 164/200/127 154/232/129
f 156/136/132 170/135/131 169/233/208
f 174/119/115 173/205/192 135/110/106
f 209/116/112 177/115/111 176/234/144
f 178/141/137 177/115/111 166/201/189
f 172/230/207 164/131/127 163/111/107
f 176/149/144 175/153/148 169/233/208
f 174/119/115 167/118/114 170/135/131
f 180/162/156 179/151/146 192/123/119
f 188/105/101 183/209/100 185/161/155
f 184/164/158 181/207/193 180/162/156
f 189/120/116 190/124/120 179/151/146
f 181/207/193 128/163/157 130/236/118
f 132/237/181 131/165/159 184/164/158
f 147/106/102 188/105/101 187/211/195
f 143/125/121 190/124/120 189/120/116
f 187/211/195 186/210/194 191/160/154
f 79/16/12 80/63/59 88/177/171
f 99/81/77 82/18/14 81/221/202
f 92/82/78 91/73/69 80/63/59
f 22/224/205 21/223/204 103/96/92
f 228/360/272 220/342/270 237/240/211
f 220/342/270 277/238/209 237/240/211
f 224/241/212 261/315/280 251/242/213
f 236/244/215 224/241/212 222/243/214
f 300/246/217 254/312/278 265/247/218
f 223/249/220 226/259/230 255/250/221
f 218/254/225 240/361/277 283/252/223
f 240/361/277 234/306/274 283/252/223
f 233/257/228 238/307/275 286/255/226
f 238/307/275 281/323/285 286/255/226
f 223/249/220 235/308/276 232/258/229
f 300/246/217 225/248/219 242/260/231
f 249/264/235 244/283/254 291/262/233
f 244/283/254 287/324/286 291/262/233
f 252/265/236 260/336/293 248/266/237
f 301/268/239 299/333/291 231/269/240
f 256/271/242 299/333/291 301/268/239
f 268/317/281 293/274/245 246/273/244
f 293/274/245 296/330/289 247/275/246
f 245/276/247 257/339/294 263/277/248
f 290/279/250 294/329/288 267/280/251
f 271/282/253 269/318/282 245/276/247
f 244/283/254 249/264/235 266/284/255
f 247/275/246 259/314/279 258/286/257
f 248/266/237 298/331/290 288/287/258
f 285/288/259 280/322/284 279/289/260
f 216/291/262 275/321/283 278/292/263
f 295/294/265 292/343/287 289/295/266
f 228/304/272 229/334/216 230/261/232
f 232/258/229 233/257/228 234/306/274
f 236/244/215 237/240/211 238/307/275
f 240/309/277 241/335/292 242/260/231
f 252/311/236 253/285/256 254/312/278
f 256/271/242 257/339/294 258/286/257
f 259/314/279 260/336/293 261/315/280
f 263/316/248 264/340/243 265/247/218
f 273/297/268 274/290/261 275/321/283
f 217/299/269 216/298/262 219/301/264
f 221/303/271 220/302/270 228/304/272
f 254/312/278 300/246/217 222/332/214
f 235/308/276 223/249/220 224/241/212
f 225/248/219 301/341/239 239/310/241
f 255/250/221 226/259/230 299/333/291
f 300/246/217 230/261/232 229/334/216
f 226/259/230 232/258/229 231/269/240
f 217/299/269 241/335/292 240/309/277
f 229/245/216 228/360/272 237/240/211
f 230/261/232 242/260/231 241/335/292
f 233/257/228 232/258/229 235/308/276
f 234/306/274 240/361/277 239/270/241
f 247/275/246 248/266/237 260/336/293
f 266/284/255 249/264/235 250/337/249
f 253/285/256 252/311/236 243/338/238
f 246/273/244 258/286/257 257/339/294
f 262/251/222 261/315/280 224/241/212
f 225/248/219 265/247/218 264/340/243
f 266/284/255 265/247/218 254/312/278
f 260/336/293 252/265/236 251/242/213
f 264/272/243 263/277/248 257/339/294
f 262/251/222 255/250/221 258/286/257
f 271/282/253 270/362/252 267/280/251
f 274/290/261 273/297/268 286/255/226
f 282/239/210 277/238/209 279/289/260
f 278/292/263 275/321/283 274/290/261
f 283/252/223 284/256/227 273/297/268
f 275/321/283 216/363/262 218/254/225
f 220/342/270 219/364/264 278/292/263
f 237/240/211 282/239/210 281/323/285
f 233/257/228 284/256/227 283/252/223
f 281/323/285 280/322/284 285/288/259
f 268/317/281 246/273/244 245/276/247
f 249/264/235 272/263/234 271/320/253
f 296/330/289 293/274/245 295/294/265
f 294/329/288 290/279/250 292/343/287
f 287/324/286 289/326/266 292/328/287
f 298/331/290 297/296/267 289/344/266
f 272/263/234 291/262/233 290/327/250
f 268/317/281 267/280/251 294/329/288
f 244/283/254 243/338/238 288/325/258
f 247/275/246 296/330/289 298/331/290
f 227/305/273 241/335/292 217/299/269
