# Blender 5.0.1
# www.blender.org
o floor_border_middle_D
v -1.000000 0.000000 1.000000
v -1.000000 -0.000000 -1.000000
v 1.000000 0.000000 1.000000
v 1.000000 -0.000000 -1.000000
v -1.000000 -1.000000 1.000000
v -1.000000 0.000000 1.000000
v 1.000000 -1.000000 1.000000
v 1.000000 0.000000 1.000000
v 1.000000 -1.000000 -1.000000
v 1.000000 -0.000000 -1.000000
v -1.000000 -1.000000 -1.000000
v -1.000000 -0.000000 -1.000000
v 0.460393 -1.013790 1.107600
v 0.460393 -1.013790 0.581343
v -0.596943 -1.013790 1.107600
v 0.193623 -1.013790 1.126553
v 0.193623 -1.013790 0.567462
v 0.152329 -1.013790 1.101193
v -0.277843 -1.013790 0.547748
v -0.277843 -1.013790 1.144577
v 0.110432 -1.013790 0.537240
v 0.152329 -1.013790 0.587749
v -0.544193 -1.013790 0.581343
v 1.012262 -1.013790 0.454675
v 1.027267 -1.013790 0.479168
v 1.027267 -1.013790 1.214290
v 1.012262 -1.013790 1.234962
v -0.993184 -1.013790 0.450940
v -0.978187 -1.013790 0.430818
v -0.978188 -1.013790 1.258753
v -0.993184 -1.013790 1.238523
v 0.438414 -0.838707 1.056057
v 0.440124 -0.852329 1.084325
v 0.438414 -0.838707 0.633694
v 0.514127 -1.013790 1.241493
v 0.493620 -1.013790 1.222659
v 0.480120 -0.795083 0.500730
v 0.479005 -0.782055 0.530716
v 0.500880 -0.773268 0.506710
v 0.501584 -0.784198 0.484625
v 0.479004 -0.782055 1.158931
v 0.480142 -0.795034 1.189029
v 0.501556 -0.783702 1.205095
v 0.500917 -0.772821 1.183023
v 0.493595 -1.013790 0.466965
v 0.514127 -1.013790 0.448143
v -0.560612 -0.824576 1.040163
v -0.567168 -0.835786 1.083856
v -0.516205 -0.846474 0.603863
v -0.607998 -0.808272 1.194354
v -0.596832 -0.801221 1.136291
v -0.625535 -0.793338 1.189454
v -0.629591 -0.804259 1.211733
v -0.622509 -1.013790 0.440656
v -0.599403 -1.013790 0.458674
v -0.652183 -1.013790 1.230940
v -0.675260 -1.013790 1.249046
v -0.555225 -0.808290 0.495412
v -0.576814 -0.804134 0.477864
v -0.575705 -0.793233 0.500118
v -0.551623 -0.799665 0.539460
v 0.203794 -0.791955 0.617406
v 0.231287 -0.787892 0.611731
v 0.215290 -0.798005 0.592870
v 0.231286 -0.787891 1.082024
v 0.203794 -0.791955 1.075600
v 0.215292 -0.797988 1.100896
v 0.127712 -0.826811 1.051712
v 0.129136 -0.837628 0.611162
v 0.127712 -0.826811 0.632130
v 0.432779 -1.013790 1.155162
v 0.408610 -1.013790 1.168268
v 0.416382 -0.817399 0.594780
v 0.417569 -0.831239 0.567398
v 0.393304 -0.818991 0.555302
v 0.392570 -0.806939 0.577678
v 0.392570 -0.806939 1.116077
v 0.393302 -0.818974 1.138466
v 0.417065 -0.830468 1.125871
v 0.416382 -0.817398 1.096823
v 0.408611 -1.013790 0.525748
v 0.433251 -1.013790 0.538325
v -0.231247 -0.794367 1.095384
v -0.233535 -0.805140 1.117189
v -0.233568 -0.805293 0.575022
v -0.231247 -0.794367 0.597346
v 0.121157 -1.013790 1.142547
v 0.095380 -1.013790 1.156302
v -0.039915 -0.815652 0.565320
v -0.043708 -0.804103 0.587650
v 0.080875 -0.804102 1.106234
v 0.071985 -0.814522 1.127829
v 0.098580 -0.822695 1.115033
v -0.531310 -0.796335 1.118633
v -0.502289 -0.771036 1.128857
v -0.498887 -0.760159 1.107101
v -0.520826 -0.767665 1.100869
v -0.507072 -1.013790 0.547114
v -0.479605 -1.013790 0.536504
v -0.532354 -1.013790 1.157580
v -0.559384 -1.013790 1.146079
v -0.472306 -0.768020 0.593047
v -0.450237 -0.760554 0.587005
v -0.449615 -0.771632 0.564935
v -0.479193 -0.797749 0.574319
v 1.002135 -0.872819 0.511139
v 1.021873 -0.883810 0.516969
v 1.007211 -0.890691 0.488801
v 1.007628 -0.886431 1.203948
v 1.021873 -0.883810 1.176803
v 0.952914 -0.795055 1.178117
v 0.930554 -0.785138 1.178527
v 0.936591 -0.796213 1.198743
v -0.979003 -0.902682 0.462956
v -0.993184 -0.900690 0.490943
v -0.931055 -0.808997 0.493792
v -0.909970 -0.799719 0.494168
v -0.915507 -0.810723 0.473506
v -0.978352 -0.904688 1.223883
v -0.990104 -0.896144 1.198560
v 0.730592 -0.797661 0.488174
v 0.727829 -0.785695 0.508038
v 0.764285 -0.792667 0.507224
v 0.952914 -0.795055 0.802226
v 0.938964 -0.791514 0.772023
v 0.930543 -0.785667 0.815534
v -0.855747 -0.810236 1.211800
v -0.853976 -0.799134 1.190576
v -0.882193 -0.808562 1.193222
v -0.909966 -0.799891 1.063174
v -0.931034 -0.808965 1.082181
v -0.998515 -0.320885 1.055192
v -0.983283 -0.336565 1.053866
v -0.983502 -0.321582 1.075744
v -0.998515 -0.320885 0.661121
v -0.983502 -0.321582 0.640569
v -0.983283 -0.336565 0.662441
v -0.476219 -0.275711 0.712702
v -0.517279 -0.005091 0.670109
v -0.479282 -0.255518 1.046309
v -0.529926 -0.357213 0.658068
v -0.532082 -0.342127 0.636507
v -0.508937 -0.316585 0.647919
v -0.508548 -0.344326 0.668471
v -0.551401 0.022234 1.097319
v -0.556196 0.044201 1.077955
v -0.582692 0.053889 1.091848
v -0.580902 0.038910 1.110682
v -0.556196 0.044201 0.645611
v -0.553639 0.025185 0.621714
v -0.580908 0.038967 0.605850
v -0.582692 0.053955 0.624996
v -0.507906 -0.311769 1.071787
v -0.532082 -0.342127 1.079804
v -0.529926 -0.357213 1.058238
v -0.508548 -0.344326 1.052017
v -0.191005 -0.290257 0.698565
v -0.190589 -0.274635 0.676685
v -0.173017 0.028209 1.053301
v -0.197188 0.040934 1.058584
v -0.182677 0.022616 1.076128
v -0.197188 0.040934 0.673097
v -0.173017 0.028209 0.679394
v -0.182677 0.022640 0.655564
v -0.191005 -0.290257 1.033475
v -0.190588 -0.274609 1.055215
v -0.453936 -0.281265 0.660215
v -0.426490 -0.296303 0.648445
v -0.424382 -0.311684 0.670335
v -0.449862 -0.302385 0.683734
v -0.497788 0.045736 1.074978
v -0.496279 0.024530 1.095745
v -0.471572 0.039581 1.108158
v -0.474165 0.057116 1.089040
v -0.474165 0.057116 0.642642
v -0.471575 0.039603 0.623533
v -0.495952 0.025323 0.636572
v -0.497788 0.045736 0.658345
v -0.426494 -0.296278 1.083455
v -0.454476 -0.280387 1.072295
v -0.449862 -0.302385 1.049635
v -0.424382 -0.311684 1.061699
v -0.980406 -0.001021 1.087448
v -0.994150 -0.003534 1.033561
v -1.003311 -0.030215 1.084787
v -0.988394 -0.025094 1.105435
v -0.988513 -0.020319 0.611780
v -1.003311 -0.030215 0.631653
v -0.994150 -0.003534 0.629880
v -0.954951 0.045144 0.629060
v -0.933806 0.056734 0.628738
v -0.938409 0.041770 0.608558
v -0.833029 0.039783 1.110026
v -0.846384 0.054979 1.090605
v -0.954951 0.045144 0.892937
v -0.933938 0.056610 0.921070
v -0.155449 -0.012725 0.668482
v -0.150116 -0.001300 0.690035
v -0.141428 -0.028141 0.695136
v -0.155646 -0.012490 1.065801
v -0.141428 -0.028141 1.040371
v -0.150116 -0.001300 1.044788
v -0.163484 -0.278380 1.024365
v -0.149203 -0.257445 1.021315
v -0.163862 -0.263079 1.046618
v -0.163484 -0.278380 0.709954
v -0.163613 -0.263001 0.687608
v -0.149203 -0.257445 0.714018
v -0.520177 0.014012 0.694266
v -0.517239 -0.005358 1.065377
v -0.520177 0.014012 1.043058
v -0.479223 -0.255909 0.689056
v -0.476219 -0.275711 1.023661
v 0.129130 -0.837585 1.077991
v -0.514418 -0.835787 0.605301
v -0.515948 -0.824576 0.637510
v -0.568833 -0.845739 1.085184
v -0.562994 -0.824576 1.061639
v 0.440164 -0.852649 0.604782
v 0.992993 -0.304598 0.677988
v 0.977761 -0.320278 0.679313
v 0.977981 -0.305295 0.657435
v 0.992993 -0.304598 1.072058
v 0.977981 -0.305295 1.092610
v 0.977761 -0.320278 1.070738
v 0.474038 -0.237405 1.044291
v 0.514656 0.030299 1.040146
v 0.511758 0.011196 1.063070
v 0.470697 -0.259424 0.711662
v 0.514656 0.030299 0.689419
v 0.524405 -0.340926 1.075110
v 0.526561 -0.325840 1.096672
v 0.503416 -0.300298 1.085260
v 0.503027 -0.328039 1.064708
v 0.545880 0.038521 0.635860
v 0.550675 0.060487 0.655223
v 0.577171 0.070176 0.641331
v 0.575380 0.055196 0.622497
v 0.550675 0.060487 1.087567
v 0.548118 0.041472 1.111465
v 0.575387 0.055254 1.127329
v 0.577170 0.070242 1.108183
v 0.502385 -0.295482 0.661392
v 0.526561 -0.325840 0.653375
v 0.524405 -0.340926 0.674941
v 0.503027 -0.328039 0.681162
v 0.203588 -0.284068 1.057552
v 0.203989 -0.299198 1.036062
v 0.195596 0.016917 0.654384
v 0.195197 0.031963 0.673720
v 0.195197 0.031963 1.059673
v 0.195597 0.016917 1.079008
v 0.203989 -0.299691 0.697246
v 0.203589 -0.284622 0.675766
v 0.448414 -0.264978 1.072965
v 0.420729 -0.281795 1.084615
v 0.418798 -0.296925 1.063104
v 0.444340 -0.286098 1.049445
v 0.492267 0.062023 0.658201
v 0.490757 0.040817 0.637433
v 0.466144 0.056603 0.624863
v 0.468777 0.072101 0.644086
v 0.468777 0.072101 1.090521
v 0.466147 0.056603 1.109735
v 0.490431 0.041610 1.096607
v 0.492267 0.062023 1.074834
v 0.420720 -0.281828 0.649771
v 0.448955 -0.264100 0.660884
v 0.444341 -0.286098 0.683544
v 0.418799 -0.296961 0.671268
v -0.190125 0.029860 0.641850
v -0.176379 0.044310 0.642190
v -0.175045 0.029230 0.622763
v -0.175969 -0.310592 0.667070
v -0.160878 -0.310827 0.647893
v -0.163120 -0.325653 0.669253
v 0.974885 0.015266 0.645732
v 0.988629 0.012753 0.699618
v 0.997789 -0.013928 0.648392
v 0.982873 -0.008807 0.627744
v 0.982992 -0.004032 1.121399
v 0.997789 -0.013928 1.101527
v 0.988629 0.012753 1.103299
v 0.949430 0.061431 1.104119
v 0.928284 0.073021 1.104441
v 0.932888 0.058057 1.124621
v 0.827507 0.056070 0.623152
v 0.840862 0.071266 0.642574
v 0.949430 0.061431 0.840242
v 0.928416 0.072898 0.812109
v -0.078757 -0.326722 1.113651
v -0.067024 -0.312020 1.134279
v -0.093152 -0.311556 1.121520
v -0.175969 -0.310591 0.996147
v -0.163120 -0.325631 1.006715
v -0.164903 -0.310629 1.030537
v -0.176379 0.044310 1.034063
v -0.190125 0.029860 1.021577
v -0.179139 0.029492 1.055839
v -0.092214 0.041514 1.140456
v -0.107430 0.027111 1.146454
v -0.081367 0.026118 1.159004
v 0.511717 0.010929 0.667802
v 0.470697 -0.259424 1.018888
v 0.474321 -0.235539 0.686588
v 0.544193 -1.020090 -0.660639
v 0.596944 -1.020091 -1.186896
v -0.017633 -1.020091 -1.207470
v -0.017634 -1.020090 -0.643447
v 0.276596 -1.020090 -0.663843
v 0.276597 -1.020091 -1.183693
v -0.460393 -1.020090 -0.660640
v -0.460393 -1.020091 -1.186896
v -0.994716 -1.020090 -0.533971
v -1.009722 -1.020090 -0.558464
v -1.009722 -1.020091 -1.293586
v -0.994716 -1.020091 -1.314259
v 0.993184 -1.020090 -0.530235
v 0.978187 -1.020090 -0.510114
v 0.978188 -1.020091 -1.338048
v 0.993184 -1.020091 -1.317819
v -0.430813 -0.845224 -1.163621
v -0.429103 -0.832759 -0.712990
v -0.430777 -0.844959 -0.684167
v -0.514126 -1.020091 -1.320790
v -0.493620 -1.020091 -1.301956
v -0.454755 -0.803815 -0.580026
v -0.453639 -0.791893 -0.610012
v -0.475514 -0.783852 -0.586006
v -0.476218 -0.793854 -0.563921
v -0.453639 -0.791893 -1.238227
v -0.454776 -0.803770 -1.268325
v -0.476191 -0.793400 -1.284391
v -0.475551 -0.783444 -1.262320
v -0.493595 -1.020090 -0.546260
v -0.514127 -1.020090 -0.527439
v 0.569084 -0.829671 -1.119459
v 0.575640 -0.839929 -1.163152
v 0.523393 -0.829671 -0.707556
v 0.524677 -0.849709 -0.683159
v 0.607999 -0.832029 -1.273649
v 0.596832 -0.825577 -1.215587
v 0.625535 -0.818364 -1.268751
v 0.629591 -0.828357 -1.291029
v 0.622510 -1.020090 -0.519953
v 0.599403 -1.020090 -0.537970
v 0.652183 -1.020091 -1.310236
v 0.675260 -1.020091 -1.328341
v 0.555226 -0.832045 -0.574708
v 0.576814 -0.828243 -0.557160
v 0.575705 -0.818268 -0.579414
v 0.551623 -0.824153 -0.618756
v -0.009301 -0.839619 -0.669153
v -0.008842 -0.829662 -0.691046
v -0.008842 -0.829662 -1.159764
v -0.009301 -0.839619 -1.181672
v -0.432779 -1.020091 -1.234458
v -0.408509 -1.020091 -1.248865
v -0.407072 -0.824235 -0.674076
v -0.408258 -0.836899 -0.646694
v -0.383916 -0.826112 -0.633013
v -0.383065 -0.816160 -0.655135
v -0.383065 -0.816160 -1.197146
v -0.383919 -0.826112 -1.219291
v -0.407754 -0.836194 -1.205168
v -0.407071 -0.824235 -1.176120
v -0.408506 -1.020090 -0.603681
v -0.433251 -1.020090 -0.617620
v 0.210575 -0.842808 -1.137225
v 0.214723 -0.858128 -1.160981
v 0.243087 -0.812394 -1.196608
v 0.243053 -0.791018 -1.176912
v 0.263823 -0.781773 -1.185271
v 0.265934 -0.791717 -1.206899
v 0.329976 -1.020090 -0.617006
v 0.303579 -1.020090 -0.630932
v 0.304119 -1.020091 -1.220910
v 0.329976 -1.020091 -1.235559
v 0.242862 -0.813249 -0.654964
v 0.265931 -0.791704 -0.645425
v 0.263823 -0.781762 -0.667044
v 0.243053 -0.791018 -0.674528
v 0.227010 -1.020091 -1.249896
v 0.250530 -1.020091 -1.235681
v 0.186208 -0.825149 -0.674790
v 0.161088 -0.818294 -0.654746
v 0.163470 -0.828171 -0.632690
v 0.188594 -0.836952 -0.645576
v 0.186208 -0.825149 -1.175329
v 0.188040 -0.836349 -1.206361
v 0.163481 -0.828170 -1.219560
v 0.161088 -0.818294 -1.197479
v 0.250974 -1.020090 -0.616506
v 0.227001 -1.020090 -0.602614
v 0.553406 -0.821106 -1.197929
v 0.524145 -0.796255 -1.208676
v 0.520812 -0.786310 -1.187026
v 0.542923 -0.794871 -1.180165
v 0.507072 -1.020090 -0.626410
v 0.479596 -1.020090 -0.615148
v 0.532346 -1.020091 -1.237500
v 0.559384 -1.020091 -1.225375
v 0.471903 -0.786322 -0.665318
v 0.471396 -0.796266 -0.643715
v 0.501289 -0.822400 -0.653615
v 0.494402 -0.795196 -0.672344
v -0.984590 -0.891093 -0.590435
v -1.004328 -0.901151 -0.596266
v -0.989666 -0.907447 -0.568097
v -0.990083 -0.903549 -1.283244
v -1.004328 -0.901151 -1.256100
v -0.952914 -0.819935 -1.257414
v -0.930554 -0.810860 -1.257824
v -0.936591 -0.820995 -1.278040
v 0.979003 -0.918419 -0.542252
v 0.993184 -0.916597 -0.570239
v 0.931055 -0.832692 -0.573088
v 0.909970 -0.824202 -0.573465
v 0.915507 -0.834272 -0.552802
v 0.978352 -0.920255 -1.303179
v 0.990104 -0.912437 -1.277856
v -0.730592 -0.822319 -0.567471
v -0.727829 -0.811370 -0.587334
v -0.764285 -0.817750 -0.586520
v -0.952914 -0.819935 -0.881523
v -0.938964 -0.816694 -0.851320
v -0.930543 -0.811344 -0.894829
v 0.855748 -0.833826 -1.291096
v 0.853977 -0.823667 -1.269871
v 0.882193 -0.832295 -1.272517
v 0.909966 -0.824361 -1.142469
v 0.931034 -0.832664 -1.161477
v 0.998514 -0.307072 -1.109651
v 0.983282 -0.322753 -1.108325
v 0.983502 -0.307770 -1.130203
v 0.998514 -0.307072 -0.715581
v 0.983502 -0.307770 -0.695028
v 0.983282 -0.322753 -0.716901
v -1.001626 -0.266535 -1.111003
v -0.986618 -0.266107 -1.131889
v -0.985662 -0.283553 -1.108625
v -1.001304 -0.266515 -0.730047
v -0.985710 -0.283875 -0.728037
v -0.986287 -0.266430 -0.705633
v 0.476218 -0.261899 -0.767162
v 0.545981 0.027824 -0.747492
v 0.479562 -0.239860 -1.100909
v 0.542893 0.007467 -1.119762
v 0.529926 -0.343401 -0.712528
v 0.532082 -0.328315 -0.690967
v 0.508937 -0.302773 -0.702379
v 0.508548 -0.330514 -0.722930
v 0.577205 0.036046 -1.151779
v 0.582000 0.058013 -1.132415
v 0.608496 0.067701 -1.146307
v 0.606706 0.052722 -1.165141
v 0.582000 0.058013 -0.700071
v 0.579443 0.038997 -0.676174
v 0.606712 0.052780 -0.660309
v 0.608496 0.067767 -0.679455
v 0.507906 -0.297957 -1.126247
v 0.532082 -0.328315 -1.134264
v 0.529926 -0.343401 -1.112697
v 0.508548 -0.330514 -1.106476
v -0.612143 0.003937 -0.747759
v -0.615406 -0.012851 -0.724507
v -0.565629 -0.261899 -1.079265
v -0.615406 -0.246057 -0.743706
v -0.562655 -0.012119 -1.119979
v -0.628474 0.046047 -0.716756
v -0.656577 0.053613 -0.701396
v -0.644586 0.039608 -0.682350
v -0.643458 -0.332345 -1.102056
v -0.625021 -0.317038 -1.123641
v -0.618668 -0.323266 -1.098478
v -0.677773 -0.317085 -0.712986
v -0.690968 -0.332006 -0.734618
v -0.665606 -0.322737 -0.740726
v -0.591829 0.039730 -1.154414
v -0.608518 0.056234 -1.135753
v -0.582116 0.047103 -1.126495
v 0.190627 -0.279776 -0.731245
v 0.191005 -0.294759 -0.752664
v 0.182591 0.038890 -1.130817
v 0.182213 0.053872 -1.111411
v 0.182213 0.053872 -0.729190
v 0.182591 0.038890 -0.709794
v 0.191005 -0.294760 -1.088163
v 0.190627 -0.279776 -1.109572
v 0.453935 -0.267453 -0.714674
v 0.426280 -0.284023 -0.702955
v 0.424321 -0.298972 -0.724456
v 0.449862 -0.288573 -0.738194
v 0.523592 0.059548 -1.129437
v 0.522083 0.038342 -1.150205
v 0.497697 0.055786 -1.162792
v 0.499969 0.070928 -1.143512
v 0.499969 0.070929 -0.697088
v 0.497697 0.055786 -0.677818
v 0.521756 0.039135 -0.691032
v 0.523592 0.059548 -0.712804
v 0.426280 -0.284023 -1.137862
v 0.454476 -0.266575 -1.126755
v 0.449862 -0.288573 -1.104095
v 0.424321 -0.298972 -1.116370
v -0.264288 0.002300 -0.749114
v -0.261642 -0.017453 -0.727175
v -0.229121 -0.260262 -1.074602
v -0.231345 -0.243655 -1.098454
v -0.229121 -0.260261 -0.770336
v -0.261839 -0.015979 -1.117370
v -0.287324 0.003411 -0.701378
v -0.290926 0.024096 -0.721858
v -0.317535 0.033660 -0.706671
v -0.315906 0.017724 -0.687590
v -0.255759 -0.282058 -1.096470
v -0.282368 -0.291626 -1.108213
v -0.284157 -0.275820 -1.129815
v -0.257285 -0.264953 -1.120031
v -0.255759 -0.282057 -0.745852
v -0.257594 -0.265338 -0.721563
v -0.284155 -0.275842 -0.711020
v -0.282368 -0.291614 -0.732630
v -0.286779 0.002710 -1.140055
v -0.315905 0.017711 -1.153045
v -0.317534 0.033676 -1.133954
v -0.290926 0.024096 -1.120473
v -0.207789 -0.273534 -0.713802
v -0.202864 -0.300138 -0.735089
v -0.179631 -0.311970 -0.722475
v -0.181114 -0.297040 -0.700914
v -0.239575 0.030972 -1.128907
v -0.214788 0.042754 -1.145434
v -0.213296 0.027805 -1.164694
v -0.238113 0.011851 -1.151465
v -0.239575 0.030972 -0.713407
v -0.237769 0.012485 -0.689714
v -0.213296 0.027805 -0.675916
v -0.214788 0.042754 -0.695168
v -0.208324 -0.272216 -1.127547
v -0.181114 -0.297040 -1.139902
v -0.179631 -0.311970 -1.118351
v -0.202864 -0.300138 -1.106934
v -0.565869 0.018769 -0.686001
v -0.548407 0.034670 -0.705191
v -0.575578 0.027223 -0.715306
v -0.529639 -0.284227 -1.098504
v -0.513119 -0.276850 -1.131228
v -0.500473 -0.292627 -1.109546
v -0.548079 -0.292639 -0.731293
v -0.565869 -0.276887 -0.709590
v -0.575365 -0.285168 -0.739975
v -0.500237 0.034653 -1.135420
v -0.513119 0.018741 -1.154609
v -0.529338 0.026282 -1.122956
v 0.980406 0.012792 -1.141907
v 0.994150 0.010278 -1.088021
v 1.003310 -0.016403 -1.139246
v 0.988394 -0.011281 -1.159895
v 0.988513 -0.006507 -0.666240
v 1.003310 -0.016403 -0.686112
v 0.994150 0.010278 -0.684339
v 0.954951 0.058956 -0.683519
v 0.933805 0.070546 -0.683197
v 0.938409 0.055583 -0.663017
v -1.000900 -0.073188 -1.163529
v -1.015905 -0.069979 -1.143782
v -1.013963 0.033513 -1.141543
v -0.998744 0.048211 -1.140775
v -0.998988 0.032014 -1.161476
v -1.000674 0.016666 -0.692586
v -1.015905 0.008061 -0.697928
v -1.000156 -0.001503 -0.674902
v 0.833029 0.053595 -1.164487
v 0.846383 0.068791 -1.145064
v 0.954951 0.058956 -0.947397
v 0.933938 0.070423 -0.975530
v -0.681758 0.033917 -0.681679
v -0.722507 0.049509 -0.698642
v -1.014610 0.033539 -0.852218
v -0.998764 0.047730 -0.878886
v 0.214802 -0.858421 -0.686719
v 0.210575 -0.842808 -0.710322
v 0.522889 -0.839931 -0.684597
v 0.577305 -0.849037 -1.164480
v 0.571466 -0.829671 -1.140935
v -0.429103 -0.832759 -1.134714
v 0.543092 0.008781 -0.724564
v 0.545981 0.027824 -1.097517
v 0.479223 -0.242096 -0.743515
v 0.476218 -0.261899 -1.078120
v -0.264287 0.002300 -1.095890
v -0.231331 -0.243759 -0.745808
v -0.565404 0.003937 -1.100563
v -0.562655 -0.246022 -1.100548
v -0.612236 -0.261899 -0.766302
vn -0.0000 1.0000 -0.0000
vn -0.0000 -0.0000 1.0000
vn -0.0000 -0.0000 -1.0000
vn 0.0900 0.5775 -0.8114
vn 0.5015 0.4515 -0.7380
vn 0.4772 0.2282 -0.8487
vn -0.9253 0.1259 0.3576
vn -0.9288 0.3134 -0.1980
vn -0.9273 0.1035 -0.3597
vn -0.0972 0.6448 0.7582
vn 0.6847 0.1821 0.7057
vn -0.2110 0.1135 0.9709
vn 0.0798 0.9707 0.2267
vn 0.1052 0.9622 -0.2513
vn 0.0982 0.9697 -0.2235
vn 0.2125 0.9769 -0.0231
vn 0.1002 0.9530 -0.2858
vn -0.2711 0.9271 -0.2589
vn -0.8264 0.0180 0.5628
vn -0.7159 0.6872 0.1239
vn -0.0903 0.9912 -0.0972
vn -0.0898 0.9914 0.0954
vn 0.0429 0.9901 0.1338
vn -0.3262 0.9256 -0.1923
vn -0.1301 0.9657 -0.2247
vn 0.9119 -0.1170 0.3934
vn 0.7890 0.3577 0.4996
vn 0.7614 -0.0496 0.6463
vn 0.2360 0.8902 -0.3896
vn 0.3404 0.9315 -0.1284
vn 0.4120 0.8360 -0.3624
vn 0.6433 0.7511 -0.1485
vn 0.6481 0.7492 0.1364
vn -0.6240 0.7593 0.1849
vn -0.8335 0.5253 -0.1712
vn -0.8196 0.5694 0.0645
vn -0.4161 0.2380 0.8776
vn -0.1329 0.6192 0.7739
vn -0.5564 0.4026 0.7269
vn -0.3357 0.1036 0.9363
vn 0.2616 0.6359 0.7260
vn 0.1363 0.1470 0.9797
vn -0.0348 0.9762 0.2139
vn 0.2849 0.9193 -0.2714
vn -0.0333 0.9763 -0.2140
vn -0.0286 0.6011 -0.7987
vn -0.2963 0.1081 -0.9490
vn 0.1651 0.1513 -0.9746
vn 0.4137 0.2236 -0.8826
vn 0.6632 0.1832 -0.7256
vn -0.1089 0.6320 -0.7673
vn -0.2287 0.1119 -0.9670
vn 0.6392 0.1844 0.7466
vn -0.8258 0.0186 -0.5637
vn 0.2218 0.5468 0.8074
vn 0.1633 0.1662 0.9725
vn 0.2188 0.5486 -0.8070
vn 0.1515 0.1647 -0.9746
vn 0.2371 0.1650 0.9574
vn 0.0477 0.5729 0.8182
vn 0.0174 0.1243 0.9921
vn -0.5656 0.1879 0.8030
vn -0.8180 0.3013 0.4899
vn -0.6999 0.2082 0.6832
vn 0.0188 0.1199 -0.9926
vn 0.1049 0.5881 -0.8020
vn 0.3121 0.9120 0.2662
vn -0.1826 0.5835 -0.7913
vn -0.1703 0.1405 -0.9753
vn -0.2206 0.5858 0.7799
vn -0.1892 0.1430 0.9715
vn 0.2342 0.9421 -0.2401
vn -0.2165 0.9759 0.0263
vn 0.2610 0.9305 0.2572
vn -0.7973 0.2978 -0.5251
vn -0.5312 0.1864 -0.8265
vn -0.6631 0.2077 -0.7191
vn -0.1033 0.9633 -0.2479
vn -0.1117 0.9672 0.2281
vn 0.6769 0.7317 0.0801
vn 0.5695 0.8176 -0.0850
vn 0.6458 0.7515 0.1346
vn -0.5952 0.7990 0.0853
vn -0.8660 0.4273 0.2598
vn 0.7845 0.3810 -0.4892
vn 0.9113 -0.1163 -0.3951
vn 0.7600 -0.0491 -0.6481
vn -0.2548 0.5922 -0.7644
vn 0.3247 0.5221 -0.7887
vn 0.2780 0.1155 -0.9536
vn 0.5929 0.8046 -0.0329
vn 0.9119 0.3545 0.2068
vn 0.8457 0.4791 -0.2352
vn 0.2621 0.6019 0.7543
vn -0.3209 0.5546 0.7677
vn -0.3274 0.1286 0.9361
vn -0.3749 -0.8902 -0.2589
vn 0.2603 -0.9162 0.3047
vn -0.3749 -0.8902 0.2589
vn -0.4210 0.8175 0.3929
vn -0.4998 0.1123 -0.8588
vn -0.2401 0.4711 -0.8488
vn 0.2876 0.4170 -0.8622
vn 0.1552 -0.9529 -0.2606
vn 0.7522 -0.6001 0.2721
vn 0.7717 -0.5894 -0.2389
vn -0.0042 0.3110 -0.9504
vn -0.6746 -0.3744 -0.6362
vn 0.0125 -0.3568 -0.9341
vn 0.7012 0.3208 -0.6367
vn 0.7389 -0.1561 -0.6555
vn -0.6018 -0.7672 0.2220
vn 0.1354 -0.9411 0.3100
vn -0.1214 0.9734 -0.1945
vn -0.7135 0.6514 0.2581
vn -0.7221 0.6484 -0.2412
vn -0.0708 0.4117 0.9086
vn -0.4911 0.2351 0.8388
vn -0.4033 -0.4409 0.8018
vn -0.3073 0.9492 0.0674
vn -0.1676 0.9056 0.3897
vn 0.2265 0.9138 0.3371
vn 0.5887 0.7694 0.2478
vn -0.1284 0.9607 0.2462
vn 0.8807 0.4328 -0.1923
vn 0.6666 0.7124 0.2193
vn 0.8765 0.4368 0.2025
vn -0.1895 -0.5119 -0.8379
vn 0.4260 0.4145 -0.8042
vn 0.3121 -0.4794 -0.8202
vn -0.2563 0.8814 -0.3968
vn 0.2569 0.9150 0.3112
vn 0.2591 0.9143 -0.3114
vn 0.6731 0.1292 0.7282
vn 0.2896 -0.4847 0.8253
vn 0.6362 -0.3496 0.6878
vn 0.2943 -0.9089 -0.2956
vn -0.1523 -0.9340 0.3231
vn -0.1589 -0.9329 -0.3232
vn 0.7084 0.1247 -0.6947
vn 0.6690 -0.3447 -0.6585
vn -0.0725 -0.3279 0.9419
vn 0.6385 0.2960 0.7104
vn 0.6687 -0.1715 0.7235
vn -0.6606 -0.3692 0.6537
vn -0.0714 0.2520 0.9651
vn -0.5354 0.7331 0.4194
vn 0.4115 0.4199 0.8089
vn -0.1827 -0.5105 0.8402
vn 0.6442 -0.7381 -0.2003
vn 0.2844 -0.9125 0.2941
vn 0.9357 -0.2849 0.2083
vn 0.9705 0.0907 -0.2233
vn 0.9675 0.0896 0.2365
vn -0.6397 0.7683 0.0203
vn -0.8305 0.4679 -0.3021
vn -0.8053 0.5892 0.0664
vn -0.8909 -0.3683 0.2658
vn -0.9474 0.1058 -0.3020
vn -0.8909 -0.3682 -0.2658
vn -0.8061 0.3329 -0.4894
vn -0.3108 0.5576 -0.7697
vn -0.8084 0.3291 0.4881
vn -0.2837 0.9249 0.2531
vn 0.3094 0.5184 0.7972
vn -0.2476 0.6248 -0.7405
vn -0.3340 0.9231 0.1904
vn -0.2614 0.6222 0.7379
vn 0.7145 0.4207 -0.5590
vn 0.2879 0.9189 0.2698
vn 0.7253 0.4235 0.5429
vn 0.2013 0.5545 0.8074
vn 0.6474 0.4703 0.5998
vn -0.7073 0.3506 0.6139
vn -0.6258 0.7300 -0.2748
vn -0.6795 0.3233 -0.6587
vn 0.6162 0.7509 0.2378
vn 0.2010 0.9555 0.2161
vn -0.6328 0.7370 -0.2375
vn -0.1906 0.9577 -0.2156
vn -0.1318 0.9597 0.2481
vn -0.4027 -0.4401 -0.8026
vn 0.2987 -0.4748 -0.8279
vn 0.2827 -0.9064 -0.3139
vn 0.2557 0.4170 0.8722
vn 0.2600 0.9041 -0.3390
vn 0.6109 0.7657 -0.2011
vn 0.2703 -0.4849 0.8318
vn 0.6737 0.7075 -0.2135
vn -0.6086 -0.7647 -0.2117
vn -0.6906 0.1598 0.7053
vn -0.2506 0.8829 0.3971
vn -0.7076 0.1602 -0.6882
vn -0.9242 0.2253 0.3082
vn -0.6332 0.7208 -0.2821
vn -0.2182 0.9344 -0.2816
vn 0.6368 -0.7419 0.2098
vn 0.9384 -0.2840 -0.1968
vn -0.7104 0.6926 -0.1250
vn -0.3260 0.1307 -0.9363
vn 0.9148 0.3115 -0.2570
vn 0.9306 0.2168 0.2948
vn 0.0564 0.5738 -0.8170
vn 0.6096 0.3348 0.7185
vn 0.9429 0.1250 -0.3086
vn 0.9313 0.1217 0.3433
vn -0.5441 0.3212 -0.7751
vn -0.2232 0.3669 -0.9031
vn -0.2175 0.3707 0.9029
vn 0.4998 0.1123 0.8588
vn 0.2401 0.4711 0.8488
vn -0.2876 0.4169 0.8622
vn 0.0029 0.3028 0.9531
vn 0.6822 -0.3681 0.6317
vn -0.0096 -0.3426 0.9394
vn -0.7012 0.3208 0.6367
vn -0.7406 -0.1555 0.6537
vn -0.1551 -0.9529 0.2607
vn 0.6260 -0.7487 -0.2179
vn -0.1348 -0.9411 -0.3101
vn 0.1203 0.9708 0.2073
vn 0.6987 0.6667 -0.2595
vn 0.7070 0.6641 0.2430
vn 0.0708 0.4117 -0.9086
vn 0.4911 0.2351 -0.8388
vn 0.4033 -0.4409 -0.8018
vn 0.3073 0.9492 -0.0674
vn 0.1676 0.9056 -0.3897
vn -0.2265 0.9138 -0.3371
vn -0.5877 0.7702 -0.2479
vn 0.1276 0.9586 -0.2545
vn -0.7533 -0.5987 -0.2722
vn -0.7725 -0.5884 0.2388
vn -0.4574 -0.8783 0.1390
vn -0.3418 -0.8985 -0.2755
vn 0.0345 -0.9580 -0.2847
vn 0.2189 -0.5022 0.8366
vn 0.0564 0.4106 0.9101
vn 0.0976 -0.5026 0.8590
vn 0.0739 -0.2962 -0.9523
vn -0.6377 0.2957 -0.7112
vn -0.6731 -0.1700 -0.7198
vn 0.6921 0.1609 -0.7036
vn 0.6706 -0.3615 -0.6478
vn -0.0576 0.9483 -0.3120
vn -0.4522 0.8785 0.1542
vn -0.0315 0.9557 0.2925
vn -0.0361 0.3959 -0.9176
vn 0.2154 -0.5018 -0.8377
vn 0.0020 -0.4979 -0.8672
vn -0.9326 -0.3400 0.1209
vn -0.8993 0.3112 -0.3073
vn -0.8886 -0.3540 -0.2917
vn -0.3192 -0.4499 -0.8341
vn 0.0646 -0.9624 0.2638
vn 0.2210 -0.9222 -0.3173
vn 0.2252 -0.9204 0.3196
vn 0.2097 0.9022 -0.3769
vn -0.0269 -0.4737 0.8803
vn 0.6397 0.7683 -0.0203
vn 0.8305 0.4679 0.3021
vn 0.8053 0.5892 -0.0664
vn 0.8909 -0.3683 -0.2658
vn 0.9474 0.1058 0.3020
vn 0.8909 -0.3682 0.2658
vn -0.8150 0.3289 0.4771
vn -0.5871 -0.4065 0.7001
vn -0.5982 0.3264 0.7319
vn 0.5354 0.7331 -0.4194
vn 0.3749 -0.8902 -0.2589
vn 0.4026 -0.4401 0.8026
vn 0.3749 -0.8902 0.2589
vn -0.2987 -0.4748 0.8279
vn -0.2827 -0.9064 0.3139
vn -0.2557 0.4170 -0.8722
vn -0.2600 0.9041 0.3390
vn -0.6106 0.7659 0.2014
vn -0.2703 -0.4849 -0.8318
vn 0.6322 -0.7463 0.2083
vn 0.2145 0.9011 0.3770
vn 0.7078 0.1631 0.6873
vn -0.3338 0.8925 -0.3034
vn -0.3415 0.3472 -0.8734
vn 0.9242 0.2253 -0.3082
vn 0.6332 0.7208 0.2821
vn 0.2182 0.9344 0.2816
vn -0.1415 -0.9234 0.3569
vn -0.8006 -0.3902 0.4548
vn -0.9409 0.3139 0.1275
vn -0.1488 0.8972 0.4159
vn -0.0456 0.3619 0.9311
vn 0.0648 0.2413 -0.9683
vn -0.2603 -0.9162 -0.3047
vn 0.2088 0.4093 0.8882
vn 0.2060 0.4129 -0.8872
vn -0.1005 0.5920 0.7996
vn -0.4999 0.4761 0.7234
vn -0.4747 0.2482 0.8444
vn 0.9223 0.1388 -0.3606
vn 0.9227 0.3335 0.1935
vn 0.9247 0.1145 0.3630
vn 0.2565 0.6788 -0.6880
vn -0.6959 0.2105 -0.6866
vn 0.2362 0.0853 -0.9680
vn -0.1666 0.9705 -0.1745
vn -0.7003 0.6740 0.2352
vn -0.7052 0.6711 -0.2287
vn -0.2113 0.9771 0.0237
vn -0.1267 0.9523 0.2775
vn 0.2349 0.9401 0.2471
vn 0.8320 0.2826 -0.4773
vn 0.8258 -0.0544 -0.5614
vn 0.3281 0.9424 -0.0643
vn 0.7354 0.6688 0.1091
vn 0.3286 0.9422 0.0654
vn 0.1379 0.6100 0.7803
vn -0.0404 0.1306 0.9906
vn 0.2303 0.2281 0.9460
vn -0.9238 -0.1143 -0.3655
vn -0.7938 0.3673 -0.4848
vn -0.7590 -0.0532 -0.6490
vn -0.2287 0.8982 0.3753
vn -0.3346 0.9337 0.1275
vn -0.3963 0.8488 0.3500
vn -0.5188 0.8385 0.1670
vn -0.5275 0.8355 -0.1539
vn 0.6320 0.7559 -0.1707
vn 0.8301 0.5327 0.1649
vn 0.7887 0.6138 -0.0331
vn 0.1240 0.6402 -0.7581
vn 0.5510 0.4317 -0.7141
vn 0.4129 0.2600 -0.8729
vn -0.0419 0.1308 -0.9905
vn 0.1363 0.6086 -0.7817
vn 0.2371 0.2309 -0.9436
vn 0.2534 0.0830 0.9638
vn 0.8300 0.2866 0.4785
vn 0.8251 -0.0538 0.5624
vn -0.0264 0.9811 -0.1919
vn 0.1373 0.9611 0.2395
vn 0.1379 0.9613 -0.2385
vn -0.2262 0.5955 0.7708
vn -0.2204 0.1785 0.9589
vn 0.2602 0.5724 0.7776
vn -0.1985 0.0631 0.9781
vn 0.1888 0.1340 0.9728
vn 0.0841 0.5541 -0.8282
vn -0.6180 -0.1088 -0.7786
vn -0.1239 0.0912 -0.9881
vn 0.5742 0.1511 -0.8046
vn 0.8672 0.2856 -0.4080
vn 0.7051 0.1711 -0.6882
vn -0.2089 0.0602 -0.9761
vn 0.2813 0.5826 -0.7626
vn 0.2055 0.1349 -0.9693
vn 0.7036 0.3501 -0.6184
vn 0.5374 0.8335 0.1287
vn -0.1632 0.9686 0.1878
vn -0.6757 0.2105 0.7065
vn 0.2728 0.6704 0.6900
vn -0.2360 0.9435 -0.2326
vn 0.2146 0.9492 0.2301
vn 0.2036 0.9587 -0.1986
vn 0.0997 0.5389 0.8364
vn 0.6893 0.3478 0.6355
vn -0.1087 0.0984 0.9892
vn -0.2061 0.9494 0.2371
vn -0.0261 0.9809 0.1928
vn -0.2272 0.5937 -0.7719
vn -0.2293 0.1802 -0.9565
vn -0.2203 0.9493 0.2244
vn 0.2000 0.9795 -0.0242
vn -0.2469 0.9386 -0.2412
vn 0.8480 0.2492 0.4678
vn 0.5397 0.1521 0.8280
vn 0.6678 0.1722 0.7242
vn -0.5893 -0.0967 0.8021
vn -0.2751 0.9606 -0.0389
vn -0.5066 0.8570 0.0943
vn -0.6141 0.7776 -0.1350
vn 0.5683 0.8190 -0.0790
vn 0.8578 0.4481 -0.2519
vn -0.7881 0.3899 0.4763
vn -0.9232 -0.1137 0.3672
vn -0.7575 -0.0526 0.6507
vn 0.2407 0.6322 0.7364
vn -0.3243 0.5364 0.7791
vn -0.2780 0.1249 0.9524
vn -0.6198 0.7841 0.0320
vn -0.9260 0.3157 -0.2069
vn -0.8386 0.4908 0.2362
vn -0.2850 0.6049 -0.7436
vn 0.3179 0.5561 -0.7679
vn 0.3062 0.1043 -0.9463
vn 0.3977 0.8377 -0.3743
vn 0.4999 0.1122 0.8588
vn 0.2403 0.4713 0.8486
vn -0.2840 0.4210 0.8614
vn -0.4382 -0.0761 -0.8956
vn 0.4529 0.3972 -0.7982
vn 0.3506 -0.5613 -0.7497
vn -0.9012 -0.3659 0.2322
vn -0.9436 -0.0457 -0.3280
vn -0.8780 -0.4004 -0.2623
vn 0.0350 -0.3631 0.9311
vn 0.7083 0.1325 0.6934
vn 0.6797 -0.3889 0.6219
vn -0.6977 0.3428 0.6291
vn -0.7302 -0.1380 0.6692
vn -0.1552 -0.9529 0.2606
vn 0.6171 -0.7560 -0.2182
vn -0.1333 -0.9370 -0.3229
vn 0.1204 0.9710 0.2068
vn 0.7149 0.6498 -0.2582
vn 0.7215 0.6489 0.2415
vn 0.3071 0.9493 -0.0674
vn 0.1674 0.9057 -0.3895
vn -0.2267 0.9137 -0.3372
vn -0.5887 0.7694 -0.2478
vn 0.1273 0.9586 -0.2548
vn 0.1579 -0.9507 0.2670
vn 0.5944 -0.7932 -0.1323
vn 0.1240 -0.9570 -0.2623
vn 0.0323 -0.4160 0.9088
vn 0.4184 0.4123 0.8093
vn 0.3257 -0.5387 0.7770
vn -0.3430 -0.5113 0.7880
vn 0.2366 0.2283 0.9444
vn 0.3718 0.8942 0.2492
vn -0.5173 0.8110 -0.2731
vn 0.3146 0.9265 -0.2066
vn -0.7522 -0.6001 -0.2721
vn -0.7717 -0.5894 0.2389
vn -0.4845 -0.8562 0.1797
vn -0.5010 -0.8245 -0.2631
vn -0.0300 -0.3931 -0.9190
vn -0.0098 0.3427 0.9394
vn -0.4204 0.2251 0.8790
vn -0.4370 -0.4068 0.8022
vn 0.0081 -0.9587 0.2844
vn -0.2284 -0.9237 -0.3077
vn 0.0081 -0.9586 -0.2845
vn 0.2091 -0.5102 0.8343
vn -0.0276 0.4193 0.9074
vn -0.0103 -0.4970 0.8677
vn 0.1253 -0.3176 -0.9399
vn -0.6396 0.3169 -0.7003
vn -0.6621 -0.1587 -0.7324
vn 0.6929 0.1333 -0.7086
vn 0.6675 -0.3825 -0.6389
vn -0.3010 0.8845 0.3565
vn -0.0412 0.9510 -0.3063
vn -0.2962 0.8860 -0.3569
vn -0.0276 0.4197 -0.9072
vn 0.2025 -0.5098 -0.8361
vn -0.0103 -0.4966 -0.8679
vn -0.1699 -0.9643 0.2031
vn 0.5732 -0.7785 -0.2557
vn -0.1727 -0.9599 -0.2209
vn -0.0866 0.2665 0.9599
vn 0.6079 -0.3385 0.7182
vn -0.1675 -0.4657 0.8689
vn -0.7071 -0.6744 -0.2128
vn -0.7106 -0.6736 0.2032
vn -0.0859 0.9690 0.2315
vn -0.6962 0.6780 -0.2359
vn -0.0894 0.9668 -0.2395
vn 0.2642 0.4041 0.8757
vn 0.2351 -0.4705 0.8505
vn 0.2312 -0.9154 0.3296
vn -0.1381 -0.9442 -0.2991
vn 0.2262 -0.9168 -0.3291
vn 0.5859 -0.3436 -0.7339
vn -0.0902 0.2658 -0.9598
vn -0.1677 -0.4361 -0.8842
vn -0.7475 -0.2943 0.5955
vn -0.2574 -0.5027 -0.8252
vn 0.2010 -0.9271 -0.3162
vn 0.2078 -0.9251 0.3179
vn 0.2345 0.9072 0.3492
vn -0.1412 0.9341 -0.3278
vn -0.1285 0.9417 0.3110
vn -0.6994 0.1838 -0.6907
vn -0.7381 -0.2883 -0.6099
vn 0.2690 0.8902 0.3676
vn -0.0412 0.9510 0.3064
vn 0.5799 0.7736 -0.2553
vn 0.5866 0.7726 0.2430
vn -0.0558 0.9064 0.4186
vn 0.1080 0.9402 0.3230
vn 0.1489 0.9383 -0.3120
vn 0.1687 0.2208 -0.9606
vn -0.3175 -0.4997 -0.8059
vn 0.2548 0.4049 -0.8782
vn 0.2274 -0.4732 -0.8511
vn 0.7203 0.6760 -0.1553
vn 0.7246 0.6418 0.2510
vn -0.8665 0.4956 0.0604
vn -0.8634 0.3880 0.3226
vn -0.2625 -0.5028 0.8236
vn 0.0721 -0.9547 0.2887
vn -0.4159 -0.8669 -0.2748
vn 0.0829 -0.9572 -0.2772
vn -0.3593 0.9322 0.0432
vn -0.3208 0.8334 0.4500
vn 0.3015 0.5631 0.7694
vn 0.2544 0.9373 -0.2382
vn 0.7411 0.6626 -0.1080
vn -0.3098 0.5331 -0.7873
vn -0.6855 0.4665 0.5589
vn -0.2078 0.9494 -0.2356
vn -0.6984 0.4704 -0.5394
vn -0.2893 0.5453 -0.7868
vn -0.7107 0.1837 -0.6790
vn -0.2816 0.5491 0.7869
vn -0.6942 0.1894 0.6944
vn 0.6564 0.5596 0.5059
vn 0.6622 0.5643 -0.4930
vn 0.5417 0.8321 -0.1187
vn 0.7291 0.3278 -0.6008
vn 0.6436 0.7208 0.2574
vn -0.6422 0.7278 -0.2406
vn -0.2037 0.9586 -0.1987
vn 0.6071 0.7609 0.2290
vn 0.1767 0.9636 0.2005
vn 0.1219 0.9654 -0.2306
vn 0.4027 -0.4401 0.8026
vn -0.4049 -0.4500 -0.7959
vn -0.4420 -0.8496 0.2880
vn -0.3010 -0.4691 0.8303
vn -0.2524 0.4210 -0.8713
vn -0.2602 0.9041 0.3391
vn -0.2713 -0.4817 -0.8333
vn 0.6047 -0.7572 0.2469
vn 0.6238 -0.7534 0.2081
vn 0.2637 0.8917 -0.3679
vn 0.6465 0.2987 0.7020
vn 0.5833 -0.7743 0.2454
vn 0.6251 0.2952 -0.7226
vn -0.7167 0.1869 0.6718
vn -0.7062 0.6722 0.2223
vn -0.3565 0.4290 0.8300
vn -0.5048 0.8403 0.1976
vn -0.1260 -0.9519 0.2792
vn -0.3293 0.4173 -0.8470
vn 0.2180 0.9345 0.2815
vn -0.8808 0.3751 -0.2890
vn -0.3450 0.8926 -0.2903
vn -0.3801 0.3873 -0.8400
vn -0.9055 0.3373 0.2573
vn -0.9279 0.2691 -0.2581
vn -0.0593 0.6143 -0.7868
vn -0.0576 0.6130 0.7879
vn -0.2298 0.9455 0.2309
vn 0.7001 0.2985 0.6487
vn -0.6365 0.3165 -0.7033
vn -0.9403 0.1374 0.3114
vn -0.9287 0.1338 -0.3458
vn 0.6166 0.3583 0.7010
vn -0.0600 0.3176 0.9463
vn 0.0003 0.2489 -0.9685
vn 0.2496 0.3965 0.8834
vn 0.2447 0.4009 -0.8828
vn 0.2265 0.9100 -0.3473
vn -0.2340 -0.9218 0.3091
vn -0.2674 0.3894 0.8814
vn -0.2625 0.3929 -0.8813
vn 0.2824 0.1196 0.9518
vn 0.5551 0.8317 0.0093
vn -0.3922 0.2529 -0.8844
vn 0.4513 0.1950 0.8708
vn 0.3039 0.1079 0.9466
vn -0.2773 0.1312 -0.9518
vn -0.2744 0.9612 0.0275
vn 0.4150 0.2303 0.8802
vn -0.4505 0.2101 -0.8677
vt 1.000000 1.000000
vt -0.000000 0.000000
vt 1.000000 -0.000000
vt 1.806801 0.608874
vt 0.806801 0.005818
vt 1.806801 0.005818
vt 0.149314 0.833327
vt 0.141717 0.845882
vt 0.133495 0.845170
vt 0.192752 0.869173
vt 0.199323 0.899870
vt 0.190591 0.901998
vt 0.172465 0.815432
vt 0.185257 0.813702
vt 0.185180 0.815408
vt 0.167281 0.779766
vt 0.149823 0.789587
vt 0.150499 0.780806
vt 0.162319 0.840457
vt 0.150392 0.832926
vt 0.150257 0.823001
vt 0.185779 0.818146
vt 0.172369 0.821349
vt 0.151193 0.815442
vt 0.170515 0.815590
vt 0.169046 0.797388
vt 0.151615 0.803163
vt 0.150389 0.798675
vt 0.231928 0.869753
vt 0.222208 0.876417
vt 0.228207 0.866320
vt 0.150645 0.834694
vt 0.160851 0.841116
vt 0.152262 0.847037
vt 0.150551 0.813192
vt 0.170803 0.812993
vt 0.163979 0.768639
vt 0.150705 0.767734
vt 0.164151 0.765015
vt 0.213273 0.857154
vt 0.211186 0.873629
vt 0.209080 0.864217
vt 0.185127 0.800505
vt 0.170662 0.797195
vt 0.184992 0.798299
vt 0.168763 0.804002
vt 0.150453 0.811835
vt 0.151641 0.804526
vt 0.149196 0.798746
vt 0.135688 0.802469
vt 0.135714 0.800264
vt 0.135433 0.797487
vt 0.136456 0.815639
vt 0.149216 0.815513
vt 0.136710 0.817250
vt 0.185144 0.796179
vt 0.136427 0.820259
vt 0.171800 0.811535
vt 0.185312 0.812338
vt 0.149512 0.811936
vt 0.136254 0.814273
vt 0.185218 0.794595
vt 0.168245 0.779506
vt 0.182480 0.773148
vt 0.175102 0.758434
vt 0.165563 0.764213
vt 0.173682 0.756721
vt 0.135292 0.776978
vt 0.148767 0.789772
vt 0.169468 0.793663
vt 0.150998 0.772248
vt 0.137860 0.765940
vt 0.164837 0.769157
vt 0.175925 0.759504
vt 0.221832 0.897481
vt 0.208546 0.879234
vt 0.221247 0.876764
vt 0.148779 0.767703
vt 0.138358 0.764697
vt 0.139193 0.762795
vt 0.151778 0.772304
vt 0.164121 0.769489
vt 0.224652 0.881006
vt 0.222954 0.896579
vt 0.222447 0.878164
vt 0.207382 0.878508
vt 0.201693 0.873177
vt 0.222861 0.897914
vt 0.231928 0.905405
vt 0.227971 0.908496
vt 0.207391 0.900451
vt 0.221938 0.898362
vt 0.226990 0.909207
vt 0.161960 0.841709
vt 0.175048 0.847601
vt 0.152534 0.848155
vt 0.175250 0.840173
vt 0.173595 0.822404
vt 0.186134 0.819159
vt 0.130018 0.921779
vt 0.117697 0.942254
vt 0.117241 0.922610
vt 0.209861 0.874640
vt 0.071756 0.873102
vt 0.074837 0.875494
vt 0.075025 0.891323
vt 0.130772 0.947432
vt 0.117771 0.943349
vt 0.130758 0.942776
vt 0.074989 0.896007
vt 0.059774 0.901704
vt 0.060800 0.899726
vt 0.074977 0.892765
vt 0.057493 0.897992
vt 0.116908 0.949196
vt 0.117384 0.947191
vt 0.076871 0.895583
vt 0.092055 0.896684
vt 0.077158 0.898018
vt 0.091486 0.879541
vt 0.093901 0.871720
vt 0.108307 0.870566
vt 0.084668 0.876063
vt 0.090404 0.879189
vt 0.091771 0.890814
vt 0.091825 0.892054
vt 0.091949 0.894587
vt 0.080888 0.913900
vt 0.092235 0.911077
vt 0.091843 0.912810
vt 0.059159 0.903393
vt 0.078934 0.912292
vt 0.063192 0.915588
vt 0.077271 0.899265
vt 0.092298 0.909799
vt 0.079767 0.911059
vt 0.092677 0.913139
vt 0.097092 0.925240
vt 0.095562 0.924987
vt 0.129446 0.963019
vt 0.116654 0.950508
vt 0.131444 0.951251
vt 0.078387 0.926621
vt 0.080126 0.914395
vt 0.079801 0.926074
vt 0.107349 0.895532
vt 0.092917 0.892233
vt 0.109934 0.893696
vt 0.108627 0.897078
vt 0.093708 0.894608
vt 0.089811 0.873053
vt 0.093379 0.910831
vt 0.109537 0.898541
vt 0.108431 0.910516
vt 0.128955 0.964570
vt 0.116826 0.962206
vt 0.094291 0.925024
vt 0.081171 0.915118
vt 0.091815 0.914064
vt 0.083800 0.875043
vt 0.075793 0.872285
vt 0.088102 0.872557
vt 0.090515 0.857857
vt 0.075836 0.871073
vt 0.075970 0.857857
vt 0.149322 0.821888
vt 0.149416 0.823048
vt 0.173565 0.821281
vt 0.172787 0.822456
vt 0.221333 0.875880
vt 0.150693 0.803793
vt 0.168630 0.802592
vt 0.169678 0.803142
vt 0.149292 0.813272
vt 0.170829 0.811532
vt 0.172124 0.812843
vt 0.170363 0.793176
vt 0.170610 0.794604
vt 0.165017 0.767514
vt 0.151741 0.771440
vt 0.150335 0.770663
vt 0.151148 0.848101
vt 0.174319 0.840852
vt 0.174246 0.839686
vt 0.206756 0.899386
vt 0.207930 0.899355
vt 0.211384 0.874832
vt 0.116979 0.921656
vt 0.116268 0.922439
vt 0.130171 0.920736
vt 0.131007 0.921496
vt 0.131929 0.941665
vt 0.130881 0.941605
vt 0.092551 0.890843
vt 0.075871 0.891202
vt 0.076147 0.892578
vt 0.116695 0.942384
vt 0.116577 0.944177
vt 0.080124 0.912302
vt 0.132591 0.951119
vt 0.131251 0.949827
vt 0.132511 0.949389
vt 0.093099 0.896552
vt 0.092118 0.897841
vt 0.076014 0.898118
vt 0.115605 0.950254
vt 0.089766 0.871398
vt 0.090698 0.871966
vt 0.074920 0.871698
vt 0.075825 0.874946
vt 0.075812 0.875959
vt 0.117003 0.963779
vt 0.116856 0.965115
vt 0.115859 0.964142
vt 0.130061 0.965126
vt 0.128866 0.965967
vt 0.150607 0.821804
vt 0.136193 0.821342
vt 0.225902 0.895337
vt 0.225063 0.879330
vt 0.149510 0.780681
vt 0.176343 0.847409
vt 0.149424 0.856990
vt 0.177603 0.856990
vt 0.199459 0.901302
vt 0.201611 0.871777
vt 0.193139 0.867942
vt 0.132372 0.947379
vt 0.132051 0.943434
vt 0.076382 0.899427
vt 0.115605 0.962424
vt 0.130649 0.963425
vt 0.092975 0.897831
vt 0.115857 0.948676
vt 0.115995 0.947115
vt 0.091584 0.857930
vt 0.074955 0.857859
vt 0.168412 0.932937
vt 0.167041 0.929942
vt 0.170279 0.917526
vt 0.171235 0.912986
vt 0.187611 0.910439
vt 0.186039 0.912223
vt 0.170614 0.916159
vt 0.189132 0.914692
vt 0.117714 0.894352
vt 0.131394 0.891903
vt 0.130914 0.893938
vt 0.169350 0.913057
vt 0.154290 0.909700
vt 0.169431 0.910583
vt 0.153203 0.925984
vt 0.152882 0.933183
vt 0.138153 0.938611
vt 0.158856 0.929812
vt 0.154169 0.926429
vt 0.153925 0.915628
vt 0.154009 0.914403
vt 0.154116 0.911841
vt 0.130735 0.897764
vt 0.117969 0.898977
vt 0.121808 0.860448
vt 0.132107 0.860799
vt 0.131606 0.879744
vt 0.188703 0.908839
vt 0.171599 0.895977
vt 0.188587 0.896210
vt 0.138310 0.909548
vt 0.152935 0.914117
vt 0.135181 0.911278
vt 0.153213 0.909710
vt 0.136891 0.907765
vt 0.154797 0.895423
vt 0.166775 0.878439
vt 0.170510 0.895942
vt 0.153702 0.895350
vt 0.135932 0.906091
vt 0.136767 0.893919
vt 0.172971 0.860406
vt 0.155732 0.876322
vt 0.162999 0.857154
vt 0.136198 0.872964
vt 0.117174 0.879132
vt 0.131611 0.890554
vt 0.116709 0.890536
vt 0.154331 0.908533
vt 0.190305 0.881417
vt 0.159648 0.930695
vt 0.167413 0.932864
vt 0.155446 0.933101
vt 0.154447 0.947070
vt 0.168078 0.934144
vt 0.167237 0.946954
vt 0.167672 0.877960
vt 0.178676 0.863488
vt 0.171304 0.880945
vt 0.153900 0.932478
vt 0.132579 0.918998
vt 0.132274 0.918076
vt 0.133237 0.918195
vt 0.119687 0.920572
vt 0.118829 0.919869
vt 0.119784 0.919541
vt 0.116882 0.900132
vt 0.117912 0.900134
vt 0.153177 0.915530
vt 0.169500 0.917473
vt 0.169463 0.916121
vt 0.131831 0.898661
vt 0.131866 0.896908
vt 0.115605 0.890809
vt 0.117011 0.891987
vt 0.115811 0.892531
vt 0.169570 0.909343
vt 0.170582 0.910692
vt 0.132622 0.890824
vt 0.156036 0.877321
vt 0.155117 0.877250
vt 0.132412 0.859819
vt 0.133237 0.860685
vt 0.153371 0.934277
vt 0.166421 0.930470
vt 0.166350 0.929617
vt 0.117524 0.864556
vt 0.116363 0.864968
vt 0.116953 0.863607
vt 0.122138 0.859369
vt 0.120699 0.859934
vt 0.166500 0.877468
vt 0.170780 0.881869
vt 0.171743 0.882286
vt 0.115997 0.894528
vt 0.152361 0.911644
vt 0.116664 0.898409
vt 0.130857 0.898835
vt 0.170428 0.909332
vt 0.132775 0.879846
vt 0.115958 0.879182
vt 0.153517 0.908428
vt 0.132429 0.892395
vt 0.132483 0.893967
vt 0.183512 0.940704
vt 0.174200 0.861015
vt 0.190428 0.879999
vt 0.097871 0.785978
vt 0.107585 0.775191
vt 0.115441 0.777410
vt 0.192532 0.928006
vt 0.199113 0.957967
vt 0.190591 0.960086
vt 0.070802 0.801416
vt 0.056328 0.801866
vt 0.056485 0.800155
vt 0.073157 0.834783
vt 0.088151 0.837763
vt 0.075654 0.838617
vt 0.084835 0.776644
vt 0.096710 0.786275
vt 0.095060 0.797203
vt 0.070145 0.796283
vt 0.056178 0.797096
vt 0.072816 0.801726
vt 0.094640 0.798279
vt 0.092106 0.802633
vt 0.091788 0.831364
vt 0.105241 0.823928
vt 0.104530 0.835829
vt 0.231383 0.928137
vt 0.221529 0.934923
vt 0.227394 0.924532
vt 0.096652 0.784367
vt 0.086510 0.776131
vt 0.096581 0.770942
vt 0.093087 0.804352
vt 0.071517 0.803489
vt 0.076466 0.847898
vt 0.088738 0.847949
vt 0.076670 0.850292
vt 0.210597 0.932247
vt 0.208253 0.922916
vt 0.212252 0.915764
vt 0.056451 0.823105
vt 0.071119 0.831371
vt 0.057133 0.837007
vt 0.107333 0.803529
vt 0.095756 0.798337
vt 0.108030 0.800999
vt 0.072208 0.822915
vt 0.090982 0.831213
vt 0.072016 0.831251
vt 0.093932 0.805709
vt 0.107119 0.806199
vt 0.088855 0.844788
vt 0.103895 0.841396
vt 0.102113 0.849112
vt 0.071283 0.835405
vt 0.058160 0.842004
vt 0.057983 0.840285
vt 0.063829 0.855819
vt 0.075165 0.851006
vt 0.065004 0.857694
vt 0.058219 0.843489
vt 0.075770 0.847306
vt 0.063132 0.854649
vt 0.057425 0.838367
vt 0.090727 0.832443
vt 0.090168 0.834362
vt 0.107229 0.804975
vt 0.094038 0.802636
vt 0.075804 0.839496
vt 0.088192 0.844751
vt 0.076413 0.847073
vt 0.091911 0.834836
vt 0.104326 0.837057
vt 0.103955 0.838648
vt 0.093108 0.805683
vt 0.091009 0.823376
vt 0.070399 0.804881
vt 0.056235 0.803194
vt 0.221314 0.955685
vt 0.208041 0.937766
vt 0.220554 0.935276
vt 0.090395 0.848144
vt 0.101708 0.850341
vt 0.101048 0.852215
vt 0.103882 0.840067
vt 0.222818 0.939680
vt 0.222423 0.954779
vt 0.221748 0.936686
vt 0.206898 0.937060
vt 0.201295 0.931872
vt 0.222332 0.956123
vt 0.231383 0.963818
vt 0.227132 0.966965
vt 0.207000 0.958508
vt 0.221407 0.956558
vt 0.226121 0.967645
vt 0.085396 0.775340
vt 0.072118 0.767169
vt 0.096441 0.769703
vt 0.070844 0.775104
vt 0.070254 0.795132
vt 0.055954 0.796004
vt 0.128599 0.757722
vt 0.118416 0.778075
vt 0.116540 0.759468
vt 0.209303 0.933249
vt 0.020470 0.770766
vt 0.023133 0.773398
vt 0.021622 0.787420
vt 0.044720 0.867535
vt 0.038283 0.849655
vt 0.055790 0.847221
vt 0.021970 0.882407
vt 0.039104 0.873104
vt 0.037765 0.883516
vt 0.006973 0.794930
vt 0.021645 0.794069
vt 0.005806 0.796671
vt 0.021413 0.788786
vt 0.004000 0.792900
vt 0.131270 0.782026
vt 0.118112 0.784780
vt 0.118419 0.782811
vt 0.022781 0.791725
vt 0.037468 0.794278
vt 0.022781 0.794127
vt 0.038492 0.779007
vt 0.041460 0.771973
vt 0.054939 0.772240
vt 0.032382 0.774982
vt 0.037500 0.778566
vt 0.037714 0.788601
vt 0.037649 0.789782
vt 0.037506 0.792225
vt 0.130839 0.839453
vt 0.118170 0.840749
vt 0.117963 0.836551
vt 0.009184 0.849517
vt 0.023502 0.852323
vt 0.006103 0.852183
vt 0.007909 0.847261
vt 0.022084 0.849569
vt 0.023575 0.849236
vt 0.038037 0.844475
vt 0.038089 0.846902
vt 0.118563 0.779109
vt 0.130882 0.777593
vt 0.131375 0.837170
vt 0.117965 0.834213
vt 0.052386 0.845104
vt 0.023209 0.853907
vt 0.023666 0.868636
vt 0.009568 0.869218
vt 0.131970 0.797456
vt 0.118351 0.815691
vt 0.118517 0.797429
vt 0.004929 0.798196
vt 0.021829 0.809757
vt 0.005610 0.809908
vt 0.052175 0.795088
vt 0.038680 0.790051
vt 0.054364 0.793838
vt 0.038496 0.794216
vt 0.053377 0.796657
vt 0.022418 0.827980
vt 0.037167 0.809749
vt 0.038074 0.827979
vt 0.038184 0.809738
vt 0.054261 0.798118
vt 0.053787 0.809582
vt 0.131444 0.819648
vt 0.118660 0.821137
vt 0.119091 0.819366
vt 0.020951 0.831733
vt 0.007364 0.832868
vt 0.008108 0.831505
vt 0.118561 0.816900
vt 0.132025 0.816822
vt 0.022822 0.831745
vt 0.038018 0.829230
vt 0.037862 0.831378
vt 0.021835 0.835243
vt 0.006938 0.834318
vt 0.132089 0.823173
vt 0.117832 0.832694
vt 0.118372 0.822473
vt 0.052487 0.831535
vt 0.039522 0.831300
vt 0.051714 0.830350
vt 0.006502 0.829862
vt 0.054375 0.827398
vt 0.117953 0.786081
vt 0.132277 0.785659
vt 0.022733 0.835302
vt 0.038094 0.843038
vt 0.023174 0.845555
vt 0.039077 0.829233
vt 0.053078 0.828808
vt 0.022722 0.795359
vt 0.022850 0.809758
vt 0.038015 0.833295
vt 0.022747 0.833906
vt 0.024288 0.855624
vt 0.024217 0.852787
vt 0.037494 0.850360
vt 0.039470 0.846903
vt 0.053331 0.842813
vt 0.038931 0.834523
vt 0.052995 0.832876
vt 0.037573 0.772675
vt 0.037473 0.849206
vt 0.024352 0.851600
vt 0.029617 0.868015
vt 0.024875 0.868857
vt 0.005113 0.828467
vt 0.129902 0.844896
vt 0.116713 0.856744
vt 0.118137 0.841925
vt 0.031668 0.773924
vt 0.024381 0.770464
vt 0.036007 0.772024
vt 0.039841 0.758364
vt 0.024551 0.769322
vt 0.026075 0.756827
vt 0.030443 0.867078
vt 0.024680 0.868141
vt 0.095839 0.797269
vt 0.071088 0.795193
vt 0.071371 0.796399
vt 0.220636 0.934389
vt 0.094316 0.804535
vt 0.071289 0.804936
vt 0.070174 0.803582
vt 0.075136 0.839584
vt 0.074237 0.838426
vt 0.088698 0.838614
vt 0.089453 0.837495
vt 0.091847 0.832540
vt 0.071138 0.832660
vt 0.072410 0.832578
vt 0.075440 0.848856
vt 0.088270 0.845587
vt 0.097920 0.769951
vt 0.071935 0.774518
vt 0.071836 0.775780
vt 0.206379 0.957467
vt 0.207528 0.957434
vt 0.210800 0.933429
vt 0.116221 0.758582
vt 0.115605 0.759377
vt 0.128666 0.756721
vt 0.129516 0.757380
vt 0.116349 0.857750
vt 0.115605 0.856955
vt 0.128913 0.859205
vt 0.128901 0.858081
vt 0.129970 0.858525
vt 0.131908 0.776447
vt 0.130908 0.776470
vt 0.038450 0.788702
vt 0.022439 0.787401
vt 0.022546 0.788750
vt 0.117476 0.778268
vt 0.117484 0.779972
vt 0.117236 0.841002
vt 0.130957 0.844348
vt 0.129957 0.843655
vt 0.133331 0.785387
vt 0.131946 0.784279
vt 0.133098 0.783727
vt 0.037458 0.795410
vt 0.116966 0.785877
vt 0.021540 0.833732
vt 0.117591 0.820954
vt 0.133079 0.821633
vt 0.131832 0.821720
vt 0.039148 0.833037
vt 0.133322 0.815797
vt 0.133205 0.817624
vt 0.021454 0.829304
vt 0.022599 0.829310
vt 0.117341 0.815948
vt 0.117510 0.817713
vt 0.022279 0.846326
vt 0.023241 0.846875
vt 0.116752 0.833314
vt 0.131584 0.835774
vt 0.132585 0.836742
vt 0.039033 0.843592
vt 0.037704 0.771103
vt 0.038527 0.771738
vt 0.023618 0.769816
vt 0.024128 0.772986
vt 0.024006 0.773946
vt 0.038393 0.868077
vt 0.038364 0.867198
vt 0.039435 0.867641
vt 0.224335 0.953254
vt 0.223189 0.938083
vt 0.071055 0.822933
vt 0.092114 0.823441
vt 0.088064 0.838598
vt 0.089568 0.846258
vt 0.070701 0.767192
vt 0.100998 0.760640
vt 0.070691 0.756721
vt 0.199252 0.959366
vt 0.201206 0.930502
vt 0.192904 0.926801
vt 0.132788 0.781838
vt 0.020964 0.791844
vt 0.039216 0.792363
vt 0.132163 0.778116
vt 0.002708 0.791659
vt 0.116843 0.836314
vt 0.131988 0.839666
vt 0.021908 0.795385
vt 0.117378 0.797447
vt 0.133128 0.797455
vt 0.117086 0.784346
vt 0.117020 0.782839
vt 0.038227 0.795450
vt 0.132844 0.819722
vt 0.117808 0.819453
vt 0.133194 0.823181
vt 0.038051 0.834623
vt 0.132280 0.815545
vt 0.021590 0.827955
vt 0.038859 0.827973
vt 0.117331 0.822375
vt 0.040845 0.758545
vt 0.025115 0.756721
vt 0.020793 0.882113
vt 0.038914 0.883598
vt 0.040217 0.873242
vt 0.000000 1.000000
vt 0.806801 0.608874
vt 0.227291 0.865530
vt 0.225465 0.894093
vt 0.209286 0.915600
vt 0.206488 0.907902
vt 0.189330 0.841654
vt 0.181316 0.842589
vt 0.055954 0.896843
vt 0.056139 0.873710
vt 0.111401 0.892311
vt 0.081018 0.925860
vt 0.148214 0.856701
vt 0.178755 0.856783
vt 0.190717 0.903211
vt 0.190428 0.916183
vt 0.133495 0.912644
vt 0.136299 0.871923
vt 0.138540 0.939700
vt 0.182961 0.941798
vt 0.108394 0.800060
vt 0.226448 0.923754
vt 0.223925 0.952333
vt 0.208489 0.973507
vt 0.205921 0.965839
vt 0.055954 0.771367
vt 0.064700 0.771585
vt 0.005563 0.769587
vt 0.054521 0.866109
vt 0.055790 0.792711
vt 0.102258 0.761117
vt 0.069425 0.756782
vt 0.190720 0.961270
s 1
f 2/1/1 3/2/1 4/3/1
f 8/4/2 5/5/2 7/6/2
f 12/4/3 9/5/3 11/6/3
f 121/7/4 108/8/5 24/9/6
f 31/10/7 115/11/8 28/12/9
f 33/13/10 71/14/11 13/15/12
f 83/16/13 90/17/14 86/18/15
f 126/19/16 122/20/17 39/21/18
f 36/22/19 33/13/10 13/15/12
f 41/23/20 34/24/21 32/25/22
f 68/26/23 62/27/24 70/28/25
f 15/29/26 50/30/27 56/31/28
f 123/32/29 125/33/30 106/34/31
f 32/25/22 73/35/32 80/36/33
f 97/37/34 216/38/35 218/39/36
f 30/40/37 127/41/38 119/42/39
f 16/43/40 214/44/41 18/45/42
f 65/46/43 76/47/44 63/48/45
f 69/49/46 17/50/47 22/51/48
f 21/52/49 69/49/46 22/51/48
f 82/53/50 219/54/51 14/55/52
f 214/44/41 87/56/53 18/45/42
f 219/54/51 45/57/54 14/55/52
f 78/58/55 16/43/40 72/59/56
f 17/50/47 75/60/57 81/61/58
f 88/62/59 84/63/60 20/64/61
f 101/65/62 217/66/63 15/67/64
f 19/68/65 89/69/66 21/52/49
f 91/70/67 70/28/25 90/17/14
f 104/71/68 19/68/65 99/72/69
f 20/64/61 95/73/70 100/74/71
f 60/75/72 130/76/73 52/77/74
f 49/78/75 98/79/76 23/80/77
f 83/16/13 103/81/78 96/82/79
f 47/83/80 61/84/81 51/85/82
f 131/86/83 115/11/8 120/87/84
f 58/88/85 23/89/86 55/90/87
f 118/91/88 59/92/89 54/93/90
f 124/94/91 110/95/92 107/96/93
f 113/97/94 43/98/95 35/99/96
f 137/100/97 155/101/98 133/102/99
f 129/103/100 131/86/83 120/87/84
f 187/104/101 192/105/102 151/106/103
f 138/107/104 156/108/105 144/109/106
f 139/110/107 167/111/108 212/112/109
f 150/113/110 212/112/109 143/114/111
f 138/107/104 181/115/112 213/116/113
f 209/117/114 171/118/115 178/119/116
f 193/120/117 186/121/118 134/122/119
f 196/123/120 194/124/121 147/125/122
f 209/117/114 146/126/123 211/127/124
f 198/128/125 159/129/126 202/130/127
f 168/131/128 164/132/129 158/133/130
f 175/134/131 160/135/132 162/136/133
f 200/137/134 166/138/135 205/139/136
f 157/140/137 182/141/138 169/142/139
f 158/143/130 197/144/140 207/145/141
f 140/146/142 145/147/143 153/148/144
f 180/149/145 210/150/146 140/146/142
f 194/124/121 196/123/120 183/151/147
f 161/152/148 179/153/149 166/154/135
f 206/155/150 165/156/151 157/140/137
f 204/157/152 199/158/153 201/159/154
f 195/160/155 189/161/156 184/162/157
f 132/163/158 188/164/159 135/165/160
f 37/166/161 39/21/18 40/167/162
f 42/168/163 44/169/164 41/23/20
f 50/30/27 52/77/74 53/170/165
f 58/88/85 60/75/72 61/84/81
f 62/27/24 63/48/45 64/171/166
f 65/46/43 66/172/167 67/173/168
f 74/174/169 76/47/44 73/35/32
f 77/175/170 79/176/171 80/36/33
f 91/70/67 92/177/172 93/178/173
f 95/73/70 97/37/34 94/179/174
f 102/180/175 104/71/68 105/181/176
f 106/34/31 107/96/93 108/182/5
f 111/183/177 112/184/178 113/97/94
f 116/185/179 117/186/180 118/91/88
f 121/7/4 122/20/17 123/32/29
f 124/94/91 125/33/30 126/19/16
f 127/41/38 128/187/181 129/103/100
f 132/188/158 133/102/99 134/189/119
f 135/190/160 136/191/182 137/100/97
f 142/192/183 144/109/106 141/193/184
f 146/126/123 148/194/185 145/147/143
f 150/113/110 152/195/186 149/196/187
f 154/197/188 156/108/105 153/198/144
f 159/129/126 160/135/132 161/152/148
f 162/136/133 163/199/189 164/132/129
f 168/200/128 170/201/190 167/202/108
f 172/203/191 174/204/192 171/118/115
f 175/134/131 177/205/193 178/119/116
f 179/206/149 181/115/112 182/141/138
f 183/151/147 185/207/194 186/208/118
f 187/209/101 188/164/159 189/161/156
f 190/210/195 191/211/196 192/105/102
f 197/144/140 198/128/125 199/158/153
f 200/137/134 201/159/154 202/130/127
f 203/212/197 204/213/152 205/214/136
f 206/155/150 207/215/141 208/216/198
f 41/23/20 33/13/10 42/168/163
f 73/35/32 219/54/51 74/174/169
f 38/217/199 219/54/51 34/24/21
f 42/168/163 35/99/96 43/98/95
f 39/21/18 41/23/20 44/169/164
f 46/218/200 37/166/161 40/167/162
f 218/39/36 94/179/174 97/37/34
f 61/84/81 215/219/201 58/88/85
f 51/85/82 48/220/202 47/83/80
f 51/85/82 60/75/72 52/77/74
f 55/90/87 59/92/89 58/88/85
f 53/170/165 56/31/28 50/30/27
f 62/27/24 69/49/46 70/28/25
f 65/46/43 78/58/55 77/175/170
f 63/48/45 66/172/167 65/46/43
f 66/172/167 214/44/41 67/173/168
f 90/17/14 69/49/46 89/69/66
f 63/48/45 75/60/57 64/171/166
f 80/36/33 33/13/10 32/25/22
f 72/59/56 79/176/171 78/58/55
f 74/174/169 81/61/58 75/60/57
f 80/36/33 76/47/44 77/175/170
f 90/17/14 85/221/203 86/18/15
f 91/70/67 214/44/41 68/26/23
f 88/62/59 93/178/173 92/177/172
f 216/38/35 105/181/176 49/78/75
f 99/72/69 105/181/176 104/71/68
f 96/82/79 102/180/175 97/37/34
f 94/179/174 100/74/71 95/73/70
f 107/96/93 125/33/30 124/94/91
f 109/222/204 111/183/177 113/97/94
f 108/182/5 123/32/29 106/34/31
f 25/223/205 108/182/5 107/96/93
f 109/222/204 26/224/206 110/95/92
f 43/98/95 112/184/178 44/169/164
f 114/225/207 116/185/179 118/91/88
f 119/226/39 31/10/7 30/227/37
f 114/225/207 28/12/9 115/11/8
f 117/186/180 59/92/89 118/91/88
f 119/226/39 129/103/100 120/87/84
f 122/20/17 125/33/30 123/32/29
f 122/20/17 40/167/162 39/21/18
f 126/19/16 111/183/177 124/94/91
f 130/76/73 129/103/100 128/187/181
f 130/76/73 116/185/179 131/86/83
f 53/170/165 128/187/181 127/41/38
f 133/102/99 135/190/160 137/100/97
f 137/100/97 142/192/183 141/193/184
f 170/201/190 212/228/109 167/202/108
f 149/196/187 139/110/107 150/113/110
f 213/116/113 153/198/144 156/108/105
f 171/118/115 210/150/146 172/203/191
f 138/107/104 143/229/111 212/228/109
f 211/127/124 145/147/143 210/150/146
f 133/102/99 154/197/188 134/189/119
f 143/114/111 151/106/103 150/113/110
f 144/109/106 155/101/98 141/193/184
f 147/125/122 149/196/187 152/195/186
f 148/194/185 153/148/144 145/147/143
f 157/140/137 207/215/141 206/155/150
f 159/129/126 200/137/134 202/130/127
f 162/136/133 176/230/208 175/134/131
f 182/141/138 166/231/135 179/206/149
f 160/135/132 163/199/189 162/136/133
f 163/199/189 197/144/140 164/132/129
f 165/156/151 205/214/136 166/231/135
f 202/130/127 199/158/153 198/128/125
f 205/139/136 201/159/154 200/137/134
f 199/158/153 207/145/141 197/144/140
f 208/216/198 203/212/197 206/155/150
f 169/142/139 158/232/130 157/140/137
f 160/135/132 173/233/209 161/152/148
f 178/119/116 139/110/107 209/117/114
f 213/116/113 180/234/145 140/235/142
f 182/141/138 170/201/190 169/142/139
f 176/230/208 167/111/108 177/205/193
f 180/149/145 173/233/209 172/203/191
f 178/119/116 174/204/192 175/134/131
f 184/162/157 196/123/120 195/160/155
f 192/105/102 189/161/156 190/210/195
f 188/164/159 184/162/157 189/161/156
f 193/120/117 183/151/147 186/208/118
f 185/207/194 134/236/119 186/208/118
f 136/237/182 188/164/159 187/209/101
f 151/106/103 191/211/196 152/195/186
f 147/125/122 193/120/117 148/194/185
f 191/211/196 195/160/155 196/123/120
f 83/16/13 92/177/172 91/70/67
f 103/81/78 85/221/203 104/71/68
f 96/82/79 84/63/60 83/16/13
f 26/224/206 107/96/93 110/95/92
f 281/238/210 286/239/211 241/240/212
f 228/241/213 255/242/214 226/243/215
f 240/244/216 226/243/215 233/245/217
f 304/246/218 269/247/219 229/248/220
f 227/249/221 259/250/222 266/251/223
f 287/252/224 280/253/225 222/254/226
f 290/255/227 288/256/228 237/257/229
f 227/249/221 236/258/230 230/259/231
f 304/246/218 246/260/232 234/261/233
f 295/262/234 276/263/235 253/264/236
f 256/265/237 252/266/238 247/267/239
f 305/268/240 235/269/241 243/270/242
f 260/271/243 305/268/240 268/272/244
f 250/273/245 297/274/246 251/275/247
f 249/276/248 267/277/249 254/278/250
f 294/279/251 271/280/252 274/281/253
f 275/282/254 249/276/248 254/278/250
f 248/283/255 270/284/256 257/285/257
f 251/275/247 262/286/258 250/273/245
f 252/266/238 292/287/259 247/267/239
f 289/288/260 283/289/261 278/290/262
f 220/291/263 282/292/264 223/293/265
f 299/294/266 293/295/267 301/296/268
f 288/256/228 290/255/227 277/297/269
f 220/298/263 221/299/270 222/300/226
f 223/301/265 224/302/271 225/303/272
f 232/304/273 234/261/233 231/305/274
f 236/258/230 238/306/275 235/269/241
f 240/244/216 242/307/276 239/308/277
f 244/309/278 246/260/232 243/310/242
f 256/311/237 258/312/279 255/313/214
f 260/271/243 262/286/258 259/250/222
f 263/314/280 265/315/281 266/251/223
f 267/316/249 269/247/219 270/284/256
f 271/280/252 272/317/282 273/318/283
f 274/319/253 275/320/254 276/263/235
f 277/297/269 279/321/284 280/253/225
f 281/238/210 282/292/264 283/289/261
f 284/322/285 285/323/286 286/239/211
f 291/324/287 292/325/259 293/326/267
f 294/327/251 295/262/234 296/328/288
f 297/274/246 298/329/289 299/294/266
f 300/330/290 301/296/268 302/331/291
f 221/299/270 223/301/265 225/303/272
f 225/303/272 232/304/273 231/305/274
f 258/312/279 226/332/215 255/313/214
f 239/308/277 228/241/213 240/244/216
f 229/248/220 243/310/242 246/260/232
f 259/250/222 303/333/292 260/271/243
f 304/246/218 233/334/217 226/332/215
f 230/259/231 235/269/241 303/333/292
f 221/299/270 244/309/278 222/300/226
f 233/245/217 241/240/212 240/244/216
f 234/261/233 245/335/293 231/305/274
f 237/257/229 239/308/277 242/307/276
f 238/306/275 243/270/242 235/269/241
f 251/275/247 264/336/294 263/314/280
f 270/284/256 254/337/250 267/316/249
f 257/285/257 247/338/239 248/283/255
f 250/273/245 261/339/295 249/276/248
f 266/251/223 228/241/213 227/249/221
f 229/248/220 268/340/244 305/341/240
f 270/284/256 258/312/279 257/285/257
f 264/336/294 255/242/214 265/315/281
f 268/272/244 261/339/295 260/271/243
f 266/251/223 262/286/258 263/314/280
f 275/282/254 271/280/252 273/318/283
f 278/290/262 290/255/227 289/288/260
f 286/239/211 283/289/261 284/322/285
f 282/292/264 278/290/262 283/289/261
f 287/252/224 277/297/269 280/253/225
f 279/321/284 222/254/226 280/253/225
f 224/342/271 282/292/264 281/238/210
f 241/240/212 285/323/286 242/307/276
f 237/257/229 287/252/224 238/306/275
f 285/323/286 289/288/260 290/255/227
f 272/317/282 249/276/248 273/318/283
f 253/264/236 275/320/254 254/337/250
f 300/330/290 299/294/266 301/296/268
f 298/329/289 296/343/288 299/294/266
f 291/324/287 296/328/288 295/262/234
f 302/331/291 293/344/267 292/287/259
f 276/263/235 294/327/251 274/319/253
f 272/317/282 298/329/289 297/274/246
f 248/283/255 292/325/259 291/324/287
f 251/275/247 302/331/291 252/266/238
f 231/305/274 221/299/270 225/303/272
f 422/345/296 409/346/297 314/347/298
f 321/348/299 416/349/300 318/350/301
f 322/351/302 357/352/303 313/353/304
f 369/354/305 382/355/306 372/356/307
f 427/357/308 423/358/309 329/359/310
f 332/360/311 313/353/304 326/361/312
f 587/362/313 328/363/314 323/364/315
f 387/365/316 309/366/317 394/367/318
f 307/368/319 341/369/320 347/370/321
f 424/371/322 426/372/323 407/373/324
f 587/362/313 359/374/325 366/375/326
f 398/376/327 339/377/328 586/378/329
f 428/379/330 420/380/331 320/381/332
f 308/382/333 391/383/334 383/384/335
f 312/385/336 327/386/337 335/387/338
f 355/388/339 386/389/340 392/390/341
f 309/366/317 361/391/342 367/392/343
f 404/393/344 375/394/345 400/395/346
f 370/396/347 377/397/348 311/398/349
f 402/399/350 585/400/351 307/401/352
f 378/402/353 396/403/354 401/404/355
f 384/405/356 370/396/347 311/398/349
f 369/354/305 385/406/357 583/407/358
f 368/408/359 324/409/360 312/385/336
f 373/410/361 403/411/362 397/412/363
f 582/413/364 393/414/365 310/415/366
f 355/388/339 362/416/367 354/417/368
f 364/418/369 308/382/333 358/419/370
f 351/420/371 431/421/372 343/422/373
f 340/423/374 399/424/375 306/425/376
f 376/426/377 582/413/364 310/415/366
f 337/427/378 352/428/379 342/429/380
f 432/430/381 416/349/300 421/431/382
f 349/432/383 306/433/384 346/434/385
f 419/435/386 350/436/387 345/437/388
f 425/438/389 411/439/390 408/440/391
f 414/441/392 333/442/393 325/443/394
f 438/444/272 463/445/293 434/446/270
f 430/447/395 432/430/381 421/431/382
f 560/448/396 565/449/397 459/450/398
f 566/451/399 479/452/400 474/453/401
f 442/454/402 567/455/403 439/456/404
f 590/457/405 500/458/406 490/459/407
f 458/460/408 590/457/405 451/461/409
f 445/462/410 504/463/411 591/464/412
f 446/465/413 494/466/414 501/467/415
f 574/468/224 559/469/225 435/470/226
f 577/471/416 575/472/417 455/473/418
f 446/465/413 454/474/419 589/475/420
f 596/476/421 475/477/422 467/478/423
f 468/479/424 472/480/425 476/481/426
f 551/482/427 466/483/428 468/479/424
f 465/484/429 555/485/430 594/486/431
f 445/462/410 464/487/432 452/488/433
f 552/489/434 467/478/423 547/490/435
f 479/452/400 595/491/436 474/453/401
f 578/492/437 573/493/438 444/494/439
f 483/495/440 542/496/441 488/497/442
f 491/498/443 487/499/444 482/500/445
f 447/501/446 453/502/447 461/503/448
f 495/504/449 447/501/446 503/505/450
f 539/506/451 485/507/452 533/508/453
f 484/509/454 502/510/455 489/511/456
f 510/512/457 516/513/458 508/514/459
f 507/515/460 521/516/461 593/517/462
f 510/512/457 543/518/463 529/519/464
f 506/520/465 532/521/466 592/522/467
f 515/523/468 551/482/427 522/524/469
f 523/525/470 549/526/471 517/527/472
f 519/528/473 511/529/474 509/530/475
f 528/531/476 507/515/460 593/517/462
f 541/532/477 484/509/454 489/511/456
f 483/495/440 505/533/478 492/534/479
f 514/535/480 553/536/481 545/537/482
f 509/530/475 535/538/483 540/539/484
f 498/540/485 485/507/452 486/541/486
f 506/520/465 527/542/487 513/543/488
f 579/544/489 471/545/490 480/546/491
f 469/547/492 548/548/493 595/491/436
f 548/548/493 525/549/494 518/550/495
f 575/472/417 577/471/416 556/551/269
f 465/484/429 481/552/496 470/553/497
f 580/554/498 567/455/403 572/555/499
f 487/499/444 531/556/500 482/500/445
f 477/557/501 441/558/502 473/559/503
f 576/560/260 562/561/261 557/562/262
f 433/563/263 561/564/264 436/565/265
f 579/544/489 581/566/504 571/567/505
f 327/386/337 329/359/310 330/568/506
f 332/360/311 334/569/507 331/570/508
f 341/369/320 343/422/373 344/571/509
f 349/432/383 351/420/371 352/428/379
f 360/572/510 362/416/367 359/374/325
f 363/573/511 365/574/512 366/375/326
f 372/356/307 374/575/513 371/576/514
f 380/577/515 382/355/306 379/578/516
f 386/389/340 388/579/517 385/406/357
f 390/580/518 392/390/341 389/581/519
f 396/403/354 398/376/327 395/582/520
f 404/393/344 406/583/521 403/411/362
f 407/373/324 408/440/391 409/584/297
f 412/585/522 413/586/523 414/441/392
f 417/587/524 418/588/525 419/435/386
f 422/345/296 423/358/309 424/371/322
f 425/438/389 426/372/323 427/357/308
f 428/379/330 429/589/526 430/447/395
f 433/590/263 434/446/270 435/591/226
f 436/592/265 437/593/527 438/444/272
f 439/594/404 440/595/528 441/558/502
f 442/596/402 443/597/529 444/598/439
f 450/599/530 452/488/433 449/600/274
f 454/474/419 456/601/531 453/502/447
f 458/460/408 460/602/532 457/603/277
f 462/604/533 464/487/432 461/605/448
f 470/553/497 471/545/490 472/480/425
f 473/559/503 474/606/401 475/477/422
f 476/607/426 477/557/501 478/608/534
f 479/452/400 480/546/491 481/552/496
f 491/609/443 493/610/535 490/611/407
f 495/504/449 497/612/536 494/466/414
f 498/540/485 500/458/406 501/467/415
f 502/613/455 504/463/411 505/533/478
f 513/543/488 515/523/468 512/614/537
f 517/527/472 519/615/473 516/513/458
f 521/616/461 523/525/470 520/617/538
f 525/549/494 527/542/487 524/618/539
f 529/519/464 531/619/500 528/620/476
f 533/508/453 535/538/483 532/521/466
f 537/621/540 539/506/451 536/622/541
f 541/623/477 543/518/463 540/624/484
f 544/625/542 545/537/482 546/626/543
f 547/490/435 548/627/493 549/526/471
f 550/628/544 551/629/427 552/489/434
f 553/536/481 554/630/545 555/485/430
f 556/551/269 558/631/284 559/632/225
f 560/633/396 561/564/264 562/561/261
f 563/634/285 564/635/546 565/449/397
f 568/636/547 569/637/548 570/638/549
f 571/567/505 572/555/499 573/493/438
f 331/570/508 322/351/302 332/360/311
f 359/374/325 324/409/360 360/572/510
f 328/363/314 324/409/360 323/364/315
f 326/361/312 333/442/393 332/360/311
f 329/359/310 331/570/508 334/569/507
f 330/568/506 335/387/338 327/386/337
f 586/378/329 395/582/520 398/376/327
f 352/428/379 584/639/550 349/432/383
f 342/429/380 338/640/551 337/427/378
f 342/429/380 351/420/371 343/422/373
f 346/434/385 350/436/387 349/432/383
f 344/571/509 347/370/321 341/369/320
f 363/573/511 356/641/552 364/418/369
f 362/416/367 353/642/553 354/417/368
f 366/375/326 322/351/302 587/362/313
f 358/419/370 365/574/512 364/418/369
f 360/572/510 367/392/343 361/391/342
f 366/375/326 362/416/367 363/573/511
f 389/581/519 370/396/347 390/580/518
f 583/407/358 379/578/516 382/355/306
f 369/354/305 371/576/514 370/396/347
f 403/411/362 380/577/515 404/393/344
f 372/356/307 381/643/554 373/410/361
f 379/578/516 375/394/345 380/577/515
f 378/402/353 371/576/514 374/575/513
f 385/406/357 582/413/364 583/407/358
f 390/580/518 383/384/335 391/383/334
f 394/367/318 388/579/517 387/365/316
f 386/389/340 389/581/519 392/390/341
f 397/412/363 374/575/513 373/410/361
f 339/377/328 405/644/555 340/423/374
f 400/395/346 405/644/555 404/393/344
f 397/412/363 406/583/521 398/376/327
f 395/582/520 401/404/355 396/403/354
f 408/440/391 426/372/323 425/438/389
f 410/645/556 412/585/522 414/441/392
f 409/584/297 424/371/322 407/373/324
f 315/646/557 409/584/297 408/440/391
f 410/645/556 316/647/558 411/439/390
f 333/442/393 413/586/523 334/569/507
f 415/648/559 417/587/524 419/435/386
f 420/649/331 321/348/299 320/650/332
f 415/648/559 318/350/301 416/349/300
f 418/588/525 350/436/387 419/435/386
f 420/649/331 430/447/395 421/431/382
f 423/358/309 426/372/323 424/371/322
f 423/358/309 330/568/506 329/359/310
f 427/357/308 412/585/522 425/438/389
f 431/421/372 430/447/395 429/589/526
f 431/421/372 417/587/524 432/430/381
f 344/571/509 429/589/526 428/379/330
f 434/446/270 436/592/265 438/444/272
f 438/444/272 450/599/530 449/600/274
f 441/558/502 442/596/402 439/594/404
f 473/559/503 440/595/528 474/606/401
f 493/610/535 590/651/405 490/611/407
f 457/603/277 588/652/560 458/460/408
f 591/464/412 461/605/448 464/487/432
f 494/466/414 448/653/561 495/504/449
f 445/462/410 451/654/409 590/651/405
f 589/475/420 453/502/447 448/653/561
f 434/446/270 462/604/533 435/591/226
f 458/460/408 450/655/530 459/450/398
f 452/488/433 463/445/293 449/600/274
f 455/473/418 457/603/277 460/602/532
f 456/601/531 461/503/448 453/502/447
f 546/626/543 466/483/428 544/625/542
f 547/490/435 595/656/436 548/627/493
f 478/608/534 468/657/424 476/607/426
f 481/552/496 469/547/492 479/452/400
f 470/553/497 466/483/428 465/484/429
f 467/478/423 474/606/401 595/656/436
f 477/557/501 444/598/439 443/597/529
f 470/553/497 480/546/491 471/545/490
f 473/559/503 478/608/534 477/557/501
f 498/540/485 487/499/444 499/658/562
f 505/533/478 489/659/456 502/613/455
f 492/534/479 482/660/445 483/495/440
f 497/612/536 484/509/454 485/507/452
f 501/467/415 588/652/560 446/465/413
f 591/464/412 503/661/450 447/662/446
f 505/533/478 493/610/535 492/534/479
f 499/658/562 490/459/407 500/458/406
f 503/505/450 496/663/563 495/504/449
f 501/467/415 497/612/536 498/540/485
f 536/622/541 507/515/460 537/621/540
f 508/514/459 540/624/484 543/518/463
f 520/617/538 593/664/462 521/616/461
f 592/522/467 524/618/539 527/542/487
f 513/543/488 507/515/460 506/520/465
f 516/513/458 509/665/475 508/514/459
f 550/628/544 522/666/469 551/629/427
f 553/536/481 525/549/494 554/630/545
f 513/543/488 526/667/564 514/535/480
f 524/618/539 518/550/495 525/549/494
f 522/524/469 512/614/537 515/523/468
f 517/527/472 520/617/538 523/525/470
f 510/512/457 528/620/476 593/664/462
f 532/521/466 511/529/474 592/522/467
f 529/519/464 542/496/441 530/668/565
f 528/531/476 538/669/566 537/621/540
f 534/670/567 540/539/484 535/538/483
f 533/508/453 536/622/541 539/506/451
f 542/496/441 489/659/456 488/497/442
f 545/537/482 515/523/468 514/535/480
f 549/526/471 518/671/495 517/527/472
f 552/489/434 468/657/424 596/476/421
f 555/485/430 469/547/492 594/486/431
f 545/537/482 555/485/430 546/626/543
f 547/490/435 550/628/544 552/489/434
f 557/562/262 577/471/416 576/560/260
f 565/449/397 562/561/261 563/634/285
f 561/564/264 557/562/262 562/561/261
f 574/468/224 556/551/269 559/632/225
f 558/631/284 435/672/226 559/632/225
f 437/673/527 561/564/264 560/633/396
f 459/450/398 564/635/546 460/602/532
f 580/554/498 571/567/505 581/566/504
f 570/638/549 567/455/403 568/636/547
f 573/493/438 442/454/402 444/674/439
f 440/675/528 567/455/403 566/676/399
f 480/546/491 570/638/549 569/637/548
f 573/493/438 579/544/489 571/567/505
f 455/473/418 574/468/224 456/601/531
f 564/635/546 576/560/260 577/471/416
f 581/566/504 568/636/547 580/554/498
f 578/492/437 471/545/490 579/544/489
f 539/506/451 487/499/444 486/541/486
f 533/508/453 484/509/454 534/670/567
f 530/668/565 482/660/445 531/619/500
f 386/389/340 353/642/553 387/365/316
f 392/390/341 356/641/552 355/388/339
f 316/647/558 408/440/391 411/439/390
f 2/1/1 1/677/1 3/2/1
f 8/4/2 6/678/2 5/5/2
f 12/4/3 10/678/3 9/5/3
f 24/9/6 46/218/200 121/7/4
f 46/218/200 40/167/162 121/7/4
f 31/10/7 120/87/84 115/11/8
f 33/13/10 79/176/171 71/14/11
f 83/16/13 91/70/67 90/17/14
f 39/21/18 44/169/164 126/19/16
f 44/169/164 112/184/178 126/19/16
f 36/22/19 42/168/163 33/13/10
f 41/23/20 38/217/199 34/24/21
f 68/26/23 66/172/167 62/27/24
f 15/29/26 48/220/202 50/30/27
f 32/25/22 34/24/21 73/35/32
f 97/37/34 102/180/175 216/38/35
f 30/40/37 57/679/568 127/41/38
f 57/679/568 53/170/165 127/41/38
f 16/43/40 67/173/168 214/44/41
f 65/46/43 77/175/170 76/47/44
f 69/49/46 64/171/166 17/50/47
f 21/52/49 89/69/66 69/49/46
f 82/53/50 74/174/169 219/54/51
f 214/44/41 93/178/173 87/56/53
f 219/54/51 37/166/161 45/57/54
f 78/58/55 67/173/168 16/43/40
f 17/50/47 64/171/166 75/60/57
f 88/62/59 92/177/172 84/63/60
f 101/65/62 94/179/174 217/66/63
f 19/68/65 85/221/203 89/69/66
f 91/70/67 68/26/23 70/28/25
f 104/71/68 85/221/203 19/68/65
f 20/64/61 84/63/60 95/73/70
f 117/186/180 130/76/73 60/75/72
f 130/76/73 128/187/181 52/77/74
f 49/78/75 105/181/176 98/79/76
f 83/16/13 86/18/15 103/81/78
f 47/83/80 216/680/569 61/84/81
f 131/86/83 116/185/179 115/11/8
f 58/88/85 215/219/201 23/89/86
f 54/93/90 29/681/570 114/682/207
f 114/682/207 118/91/88 54/93/90
f 124/94/91 111/183/177 110/95/92
f 35/99/96 27/683/571 113/97/94
f 27/683/571 109/684/204 113/97/94
f 137/100/97 141/193/184 155/101/98
f 142/685/183 136/686/182 151/106/103
f 136/686/182 187/104/101 151/106/103
f 138/107/104 213/116/113 156/108/105
f 139/110/107 177/205/193 167/111/108
f 150/113/110 139/110/107 212/112/109
f 138/107/104 170/201/190 181/115/112
f 209/117/114 211/127/124 171/118/115
f 134/122/119 154/687/188 193/120/117
f 154/687/188 148/194/185 193/120/117
f 147/125/122 152/195/186 196/123/120
f 152/195/186 191/211/196 196/123/120
f 209/117/114 149/196/187 146/126/123
f 198/128/125 163/199/189 159/129/126
f 168/131/128 176/230/208 164/132/129
f 175/134/131 174/204/192 160/135/132
f 200/137/134 161/152/148 166/138/135
f 157/140/137 165/156/151 182/141/138
f 158/143/130 164/132/129 197/144/140
f 140/146/142 210/150/146 145/147/143
f 180/149/145 172/203/191 210/150/146
f 161/152/148 173/233/209 179/153/149
f 206/155/150 203/212/197 165/156/151
f 204/157/152 208/688/198 199/158/153
f 195/160/155 190/210/195 189/161/156
f 132/163/158 185/207/194 188/164/159
f 37/166/161 38/217/199 39/21/18
f 42/168/163 43/98/95 44/169/164
f 50/30/27 51/85/82 52/77/74
f 58/88/85 59/92/89 60/75/72
f 74/174/169 75/60/57 76/47/44
f 77/175/170 78/58/55 79/176/171
f 95/73/70 96/82/79 97/37/34
f 102/180/175 103/81/78 104/71/68
f 142/192/183 143/229/111 144/109/106
f 146/126/123 147/125/122 148/194/185
f 150/113/110 151/106/103 152/195/186
f 154/197/188 155/101/98 156/108/105
f 168/200/128 169/142/139 170/201/190
f 172/203/191 173/233/209 174/204/192
f 175/134/131 176/230/208 177/205/193
f 179/206/149 180/234/145 181/115/112
f 183/151/147 184/162/157 185/207/194
f 41/23/20 32/25/22 33/13/10
f 73/35/32 34/24/21 219/54/51
f 38/217/199 37/166/161 219/54/51
f 42/168/163 36/22/19 35/99/96
f 39/21/18 38/217/199 41/23/20
f 46/218/200 45/57/54 37/166/161
f 218/39/36 217/66/63 94/179/174
f 61/84/81 216/680/569 215/219/201
f 51/85/82 50/30/27 48/220/202
f 51/85/82 61/84/81 60/75/72
f 55/90/87 54/93/90 59/92/89
f 53/170/165 57/679/568 56/31/28
f 62/27/24 64/171/166 69/49/46
f 65/46/43 67/173/168 78/58/55
f 63/48/45 62/27/24 66/172/167
f 66/172/167 68/26/23 214/44/41
f 90/17/14 70/28/25 69/49/46
f 63/48/45 76/47/44 75/60/57
f 80/36/33 79/176/171 33/13/10
f 72/59/56 71/14/11 79/176/171
f 74/174/169 82/53/50 81/61/58
f 80/36/33 73/35/32 76/47/44
f 90/17/14 89/69/66 85/221/203
f 91/70/67 93/178/173 214/44/41
f 88/62/59 87/56/53 93/178/173
f 216/38/35 102/180/175 105/181/176
f 99/72/69 98/79/76 105/181/176
f 96/82/79 103/81/78 102/180/175
f 94/179/174 101/65/62 100/74/71
f 107/96/93 106/34/31 125/33/30
f 109/222/204 110/95/92 111/183/177
f 108/182/5 121/7/4 123/32/29
f 25/223/205 24/689/6 108/182/5
f 109/222/204 27/690/571 26/224/206
f 43/98/95 113/97/94 112/184/178
f 114/225/207 115/11/8 116/185/179
f 119/226/39 120/87/84 31/10/7
f 114/225/207 29/691/570 28/12/9
f 117/186/180 60/75/72 59/92/89
f 119/226/39 127/41/38 129/103/100
f 122/20/17 126/19/16 125/33/30
f 122/20/17 121/7/4 40/167/162
f 126/19/16 112/184/178 111/183/177
f 130/76/73 131/86/83 129/103/100
f 130/76/73 117/186/180 116/185/179
f 53/170/165 52/77/74 128/187/181
f 133/102/99 132/188/158 135/190/160
f 137/100/97 136/191/182 142/192/183
f 170/201/190 138/107/104 212/228/109
f 149/196/187 209/117/114 139/110/107
f 213/116/113 140/235/142 153/198/144
f 171/118/115 211/127/124 210/150/146
f 138/107/104 144/109/106 143/229/111
f 211/127/124 146/126/123 145/147/143
f 133/102/99 155/101/98 154/197/188
f 143/114/111 142/685/183 151/106/103
f 144/109/106 156/108/105 155/101/98
f 147/125/122 146/126/123 149/196/187
f 148/194/185 154/687/188 153/148/144
f 157/140/137 158/232/130 207/215/141
f 159/129/126 161/152/148 200/137/134
f 162/136/133 164/132/129 176/230/208
f 182/141/138 165/156/151 166/231/135
f 160/135/132 159/129/126 163/199/189
f 163/199/189 198/128/125 197/144/140
f 165/156/151 203/212/197 205/214/136
f 202/130/127 201/159/154 199/158/153
f 205/139/136 204/157/152 201/159/154
f 199/158/153 208/688/198 207/145/141
f 208/216/198 204/213/152 203/212/197
f 169/142/139 168/200/128 158/232/130
f 160/135/132 174/204/192 173/233/209
f 178/119/116 177/205/193 139/110/107
f 213/116/113 181/115/112 180/234/145
f 182/141/138 181/115/112 170/201/190
f 176/230/208 168/131/128 167/111/108
f 180/149/145 179/153/149 173/233/209
f 178/119/116 171/118/115 174/204/192
f 184/162/157 183/151/147 196/123/120
f 192/105/102 187/209/101 189/161/156
f 188/164/159 185/207/194 184/162/157
f 193/120/117 194/124/121 183/151/147
f 185/207/194 132/163/158 134/236/119
f 136/237/182 135/165/160 188/164/159
f 151/106/103 192/105/102 191/211/196
f 147/125/122 194/124/121 193/120/117
f 191/211/196 190/210/195 195/160/155
f 83/16/13 84/63/60 92/177/172
f 103/81/78 86/18/15 85/221/203
f 96/82/79 95/73/70 84/63/60
f 26/224/206 25/223/205 107/96/93
f 232/692/273 224/342/271 241/240/212
f 224/342/271 281/238/210 241/240/212
f 228/241/213 265/315/281 255/242/214
f 240/244/216 228/241/213 226/243/215
f 304/246/218 258/312/279 269/247/219
f 227/249/221 230/259/231 259/250/222
f 222/254/226 244/693/278 287/252/224
f 244/693/278 238/306/275 287/252/224
f 237/257/229 242/307/276 290/255/227
f 242/307/276 285/323/286 290/255/227
f 227/249/221 239/308/277 236/258/230
f 304/246/218 229/248/220 246/260/232
f 253/264/236 248/283/255 295/262/234
f 248/283/255 291/324/287 295/262/234
f 256/265/237 264/336/294 252/266/238
f 305/268/240 303/333/292 235/269/241
f 260/271/243 303/333/292 305/268/240
f 272/317/282 297/274/246 250/273/245
f 297/274/246 300/330/290 251/275/247
f 249/276/248 261/339/295 267/277/249
f 294/279/251 298/329/289 271/280/252
f 275/282/254 273/318/283 249/276/248
f 248/283/255 253/264/236 270/284/256
f 251/275/247 263/314/280 262/286/258
f 252/266/238 302/331/291 292/287/259
f 289/288/260 284/322/285 283/289/261
f 220/291/263 279/321/284 282/292/264
f 299/294/266 296/343/288 293/295/267
f 232/304/273 233/334/217 234/261/233
f 236/258/230 237/257/229 238/306/275
f 240/244/216 241/240/212 242/307/276
f 244/309/278 245/335/293 246/260/232
f 256/311/237 257/285/257 258/312/279
f 260/271/243 261/339/295 262/286/258
f 263/314/280 264/336/294 265/315/281
f 267/316/249 268/340/244 269/247/219
f 277/297/269 278/290/262 279/321/284
f 221/299/270 220/298/263 223/301/265
f 225/303/272 224/302/271 232/304/273
f 258/312/279 304/246/218 226/332/215
f 239/308/277 227/249/221 228/241/213
f 229/248/220 305/341/240 243/310/242
f 259/250/222 230/259/231 303/333/292
f 304/246/218 234/261/233 233/334/217
f 230/259/231 236/258/230 235/269/241
f 221/299/270 245/335/293 244/309/278
f 233/245/217 232/692/273 241/240/212
f 234/261/233 246/260/232 245/335/293
f 237/257/229 236/258/230 239/308/277
f 238/306/275 244/693/278 243/270/242
f 251/275/247 252/266/238 264/336/294
f 270/284/256 253/264/236 254/337/250
f 257/285/257 256/311/237 247/338/239
f 250/273/245 262/286/258 261/339/295
f 266/251/223 265/315/281 228/241/213
f 229/248/220 269/247/219 268/340/244
f 270/284/256 269/247/219 258/312/279
f 264/336/294 256/265/237 255/242/214
f 268/272/244 267/277/249 261/339/295
f 266/251/223 259/250/222 262/286/258
f 275/282/254 274/694/253 271/280/252
f 278/290/262 277/297/269 290/255/227
f 286/239/211 281/238/210 283/289/261
f 282/292/264 279/321/284 278/290/262
f 287/252/224 288/256/228 277/297/269
f 279/321/284 220/695/263 222/254/226
f 224/342/271 223/696/265 282/292/264
f 241/240/212 286/239/211 285/323/286
f 237/257/229 288/256/228 287/252/224
f 285/323/286 284/322/285 289/288/260
f 272/317/282 250/273/245 249/276/248
f 253/264/236 276/263/235 275/320/254
f 300/330/290 297/274/246 299/294/266
f 298/329/289 294/279/251 296/343/288
f 291/324/287 293/326/267 296/328/288
f 302/331/291 301/296/268 293/344/267
f 276/263/235 295/262/234 294/327/251
f 272/317/282 271/280/252 298/329/289
f 248/283/255 247/338/239 292/325/259
f 251/275/247 300/330/290 302/331/291
f 231/305/274 245/335/293 221/299/270
f 314/347/298 336/697/572 422/345/296
f 336/697/572 330/568/506 422/345/296
f 321/348/299 421/431/382 416/349/300
f 322/351/302 365/574/512 357/352/303
f 369/354/305 583/407/358 382/355/306
f 329/359/310 334/569/507 427/357/308
f 334/569/507 413/586/523 427/357/308
f 332/360/311 322/351/302 313/353/304
f 587/362/313 331/570/508 328/363/314
f 387/365/316 353/642/553 309/366/317
f 307/368/319 338/640/551 341/369/320
f 587/362/313 323/364/315 359/374/325
f 398/376/327 406/583/521 339/377/328
f 320/381/332 348/698/573 428/379/330
f 348/698/573 344/571/509 428/379/330
f 308/382/333 356/641/552 391/383/334
f 312/385/336 324/409/360 327/386/337
f 355/388/339 354/417/368 386/389/340
f 309/366/317 353/642/553 361/391/342
f 404/393/344 380/577/515 375/394/345
f 370/396/347 371/576/514 377/397/348
f 402/399/350 395/582/520 585/400/351
f 378/402/353 374/575/513 396/403/354
f 384/405/356 390/580/518 370/396/347
f 369/354/305 389/581/519 385/406/357
f 368/408/359 360/572/510 324/409/360
f 373/410/361 381/643/554 403/411/362
f 582/413/364 388/579/517 393/414/365
f 355/388/339 363/573/511 362/416/367
f 364/418/369 356/641/552 308/382/333
f 418/588/525 431/421/372 351/420/371
f 431/421/372 429/589/526 343/422/373
f 340/423/374 405/644/555 399/424/375
f 376/426/377 379/578/516 582/413/364
f 337/427/378 339/699/574 352/428/379
f 432/430/381 417/587/524 416/349/300
f 349/432/383 584/639/550 306/433/384
f 345/437/388 319/700/575 419/435/386
f 319/700/575 415/701/559 419/435/386
f 425/438/389 412/585/522 411/439/390
f 325/443/394 317/702/576 414/441/392
f 317/702/576 410/703/556 414/441/392
f 438/444/272 449/600/274 463/445/293
f 450/655/530 437/704/527 459/450/398
f 437/704/527 560/448/396 459/450/398
f 474/453/401 440/705/528 566/451/399
f 566/451/399 570/638/549 479/452/400
f 442/454/402 572/555/499 567/455/403
f 590/457/405 588/652/560 500/458/406
f 458/460/408 588/652/560 590/457/405
f 445/462/410 493/610/535 504/463/411
f 446/465/413 589/475/420 494/466/414
f 435/470/226 462/706/533 574/468/224
f 462/706/533 456/601/531 574/468/224
f 455/473/418 460/602/532 577/471/416
f 460/602/532 564/635/546 577/471/416
f 446/465/413 457/603/277 454/474/419
f 596/476/421 478/608/534 475/477/422
f 468/479/424 466/483/428 472/480/425
f 551/482/427 544/625/542 466/483/428
f 465/484/429 546/626/543 555/485/430
f 445/462/410 591/464/412 464/487/432
f 552/489/434 596/476/421 467/478/423
f 479/452/400 469/547/492 595/491/436
f 444/494/439 476/481/426 578/492/437
f 476/481/426 472/480/425 578/492/437
f 483/495/440 530/668/565 542/496/441
f 491/498/443 499/658/562 487/499/444
f 447/501/446 448/653/561 453/502/447
f 495/504/449 448/653/561 447/501/446
f 539/506/451 486/541/486 485/507/452
f 484/509/454 496/663/563 502/510/455
f 510/512/457 520/617/538 516/513/458
f 507/515/460 512/614/537 521/516/461
f 510/512/457 508/514/459 543/518/463
f 506/520/465 536/622/541 532/521/466
f 515/523/468 544/625/542 551/482/427
f 523/525/470 550/628/544 549/526/471
f 519/528/473 524/618/539 511/529/474
f 528/531/476 537/621/540 507/515/460
f 541/532/477 534/670/567 484/509/454
f 483/495/440 488/497/442 505/533/478
f 514/535/480 526/667/564 553/536/481
f 509/530/475 511/529/474 535/538/483
f 498/540/485 497/612/536 485/507/452
f 506/520/465 592/522/467 527/542/487
f 569/637/548 581/566/504 480/546/491
f 581/566/504 579/544/489 480/546/491
f 469/547/492 554/630/545 548/548/493
f 548/548/493 554/630/545 525/549/494
f 465/484/429 594/486/431 481/552/496
f 580/554/498 568/636/547 567/455/403
f 487/499/444 538/669/566 531/556/500
f 477/557/501 443/597/529 441/558/502
f 576/560/260 563/634/285 562/561/261
f 433/563/263 558/631/284 561/564/264
f 327/386/337 328/363/314 329/359/310
f 332/360/311 333/442/393 334/569/507
f 341/369/320 342/429/380 343/422/373
f 349/432/383 350/436/387 351/420/371
f 360/572/510 361/391/342 362/416/367
f 363/573/511 364/418/369 365/574/512
f 372/356/307 373/410/361 374/575/513
f 380/577/515 381/643/554 382/355/306
f 386/389/340 387/365/316 388/579/517
f 390/580/518 391/383/334 392/390/341
f 396/403/354 397/412/363 398/376/327
f 404/393/344 405/644/555 406/583/521
f 450/599/530 451/654/409 452/488/433
f 454/474/419 455/473/418 456/601/531
f 458/460/408 459/450/398 460/602/532
f 462/604/533 463/445/293 464/487/432
f 491/609/443 492/534/479 493/610/535
f 495/504/449 496/663/563 497/612/536
f 498/540/485 499/658/562 500/458/406
f 502/613/455 503/661/450 504/463/411
f 513/543/488 514/535/480 515/523/468
f 517/527/472 518/671/495 519/615/473
f 521/616/461 522/666/469 523/525/470
f 525/549/494 526/667/564 527/542/487
f 529/519/464 530/668/565 531/619/500
f 533/508/453 534/670/567 535/538/483
f 537/621/540 538/669/566 539/506/451
f 541/623/477 542/496/441 543/518/463
f 556/551/269 557/562/262 558/631/284
f 331/570/508 587/362/313 322/351/302
f 359/374/325 323/364/315 324/409/360
f 328/363/314 327/386/337 324/409/360
f 326/361/312 325/443/394 333/442/393
f 329/359/310 328/363/314 331/570/508
f 330/568/506 336/697/572 335/387/338
f 586/378/329 585/400/351 395/582/520
f 352/428/379 339/699/574 584/639/550
f 342/429/380 341/369/320 338/640/551
f 342/429/380 352/428/379 351/420/371
f 346/434/385 345/437/388 350/436/387
f 344/571/509 348/698/573 347/370/321
f 363/573/511 355/388/339 356/641/552
f 362/416/367 361/391/342 353/642/553
f 366/375/326 365/574/512 322/351/302
f 358/419/370 357/352/303 365/574/512
f 360/572/510 368/408/359 367/392/343
f 366/375/326 359/374/325 362/416/367
f 389/581/519 369/354/305 370/396/347
f 583/407/358 582/413/364 379/578/516
f 369/354/305 372/356/307 371/576/514
f 403/411/362 381/643/554 380/577/515
f 372/356/307 382/355/306 381/643/554
f 379/578/516 376/426/377 375/394/345
f 378/402/353 377/397/348 371/576/514
f 385/406/357 388/579/517 582/413/364
f 390/580/518 384/405/356 383/384/335
f 394/367/318 393/414/365 388/579/517
f 386/389/340 385/406/357 389/581/519
f 397/412/363 396/403/354 374/575/513
f 339/377/328 406/583/521 405/644/555
f 400/395/346 399/424/375 405/644/555
f 397/412/363 403/411/362 406/583/521
f 395/582/520 402/399/350 401/404/355
f 408/440/391 407/373/324 426/372/323
f 410/645/556 411/439/390 412/585/522
f 409/584/297 422/345/296 424/371/322
f 315/646/557 314/707/298 409/584/297
f 410/645/556 317/708/576 316/647/558
f 333/442/393 414/441/392 413/586/523
f 415/648/559 416/349/300 417/587/524
f 420/649/331 421/431/382 321/348/299
f 415/648/559 319/709/575 318/350/301
f 418/588/525 351/420/371 350/436/387
f 420/649/331 428/379/330 430/447/395
f 423/358/309 427/357/308 426/372/323
f 423/358/309 422/345/296 330/568/506
f 427/357/308 413/586/523 412/585/522
f 431/421/372 432/430/381 430/447/395
f 431/421/372 418/588/525 417/587/524
f 344/571/509 343/422/373 429/589/526
f 434/446/270 433/590/263 436/592/265
f 438/444/272 437/593/527 450/599/530
f 441/558/502 443/597/529 442/596/402
f 473/559/503 441/558/502 440/595/528
f 493/610/535 445/462/410 590/651/405
f 457/603/277 446/465/413 588/652/560
f 591/464/412 447/662/446 461/605/448
f 494/466/414 589/475/420 448/653/561
f 445/462/410 452/488/433 451/654/409
f 589/475/420 454/474/419 453/502/447
f 434/446/270 463/445/293 462/604/533
f 458/460/408 451/461/409 450/655/530
f 452/488/433 464/487/432 463/445/293
f 455/473/418 454/474/419 457/603/277
f 456/601/531 462/706/533 461/503/448
f 546/626/543 465/484/429 466/483/428
f 547/490/435 467/478/423 595/656/436
f 478/608/534 596/476/421 468/657/424
f 481/552/496 594/486/431 469/547/492
f 470/553/497 472/480/425 466/483/428
f 467/478/423 475/477/422 474/606/401
f 477/557/501 476/607/426 444/598/439
f 470/553/497 481/552/496 480/546/491
f 473/559/503 475/477/422 478/608/534
f 498/540/485 486/541/486 487/499/444
f 505/533/478 488/497/442 489/659/456
f 492/534/479 491/609/443 482/660/445
f 497/612/536 496/663/563 484/509/454
f 501/467/415 500/458/406 588/652/560
f 591/464/412 504/463/411 503/661/450
f 505/533/478 504/463/411 493/610/535
f 499/658/562 491/498/443 490/459/407
f 503/505/450 502/510/455 496/663/563
f 501/467/415 494/466/414 497/612/536
f 536/622/541 506/520/465 507/515/460
f 508/514/459 509/665/475 540/624/484
f 520/617/538 510/512/457 593/664/462
f 592/522/467 511/529/474 524/618/539
f 513/543/488 512/614/537 507/515/460
f 516/513/458 519/615/473 509/665/475
f 550/628/544 523/525/470 522/666/469
f 553/536/481 526/667/564 525/549/494
f 513/543/488 527/542/487 526/667/564
f 524/618/539 519/528/473 518/550/495
f 522/524/469 521/516/461 512/614/537
f 517/527/472 516/513/458 520/617/538
f 510/512/457 529/519/464 528/620/476
f 532/521/466 535/538/483 511/529/474
f 529/519/464 543/518/463 542/496/441
f 528/531/476 531/556/500 538/669/566
f 534/670/567 541/532/477 540/539/484
f 533/508/453 532/521/466 536/622/541
f 542/496/441 541/623/477 489/659/456
f 545/537/482 544/625/542 515/523/468
f 549/526/471 548/627/493 518/671/495
f 552/489/434 551/629/427 468/657/424
f 555/485/430 554/630/545 469/547/492
f 545/537/482 553/536/481 555/485/430
f 547/490/435 549/526/471 550/628/544
f 557/562/262 556/551/269 577/471/416
f 565/449/397 560/633/396 562/561/261
f 561/564/264 558/631/284 557/562/262
f 574/468/224 575/472/417 556/551/269
f 558/631/284 433/563/263 435/672/226
f 437/673/527 436/565/265 561/564/264
f 459/450/398 565/449/397 564/635/546
f 580/554/498 572/555/499 571/567/505
f 570/638/549 566/676/399 567/455/403
f 573/493/438 572/555/499 442/454/402
f 440/675/528 439/456/404 567/455/403
f 480/546/491 479/452/400 570/638/549
f 573/493/438 578/492/437 579/544/489
f 455/473/418 575/472/417 574/468/224
f 564/635/546 563/634/285 576/560/260
f 581/566/504 569/637/548 568/636/547
f 578/492/437 472/480/425 471/545/490
f 539/506/451 538/669/566 487/499/444
f 533/508/453 485/507/452 484/509/454
f 530/668/565 483/495/440 482/660/445
f 386/389/340 354/417/368 353/642/553
f 392/390/341 391/383/334 356/641/552
f 316/647/558 315/646/557 408/440/391
